<svg width="2600" height="2100" xmlns="http://www.w3.org/2000/svg" viewBox = "0 0 2600 2100"> 
<polygon fill="red" points = " 415.817930704,500 448.726896056,519.0 481.635861408,500 481.635861408,462.0 448.726896056,443.0 415.817930704,462.0" />
 <text x="448.726896056" y="481"  text-anchor="middle"  fill="black" font-size="20">A30E9 </text>
<polygon fill="gold" points = " 481.635861408,500 514.54482676,519.0 547.453792112,500 547.453792112,462.0 514.54482676,443.0 481.635861408,462.0" />
 <text x="514.54482676" y="481"  text-anchor="middle"  fill="black" font-size="20">A20 </text>
<polygon fill="tan" points = " 547.453792112,500 580.362757464,519.0 613.271722816,500 613.271722816,462.0 580.362757464,443.0 547.453792112,462.0" />
 <text x="580.362757464" y="481"  text-anchor="middle"  fill="black" font-size="20">C13 </text>
<polygon fill="gold" points = " 613.271722816,500 646.180688168,519.0 679.08965352,500 679.08965352,462.0 646.180688168,443.0 613.271722816,462.0" />
 <text x="646.180688168" y="481"  text-anchor="middle"  fill="black" font-size="20">A20 </text>
<polygon fill="cadetblue" points = " 679.08965352,500 711.998618872,519.0 744.907584224,500 744.907584224,462.0 711.998618872,443.0 679.08965352,462.0" />
 <text x="711.998618872" y="481"  text-anchor="middle"  fill="black" font-size="20">B30E9 </text>
<polygon fill="green" points = " 744.907584224,500 777.8165495759999,519.0 810.7255149279999,500 810.7255149279999,462.0 777.8165495759999,443.0 744.907584224,462.0" />
 <text x="777.8165495759999" y="481"  text-anchor="middle"  fill="black" font-size="20">Z13 </text>
<polygon fill="red" points = " 810.7255149279999,500 843.6344802799999,519.0 876.5434456319999,500 876.5434456319999,462.0 843.6344802799999,443.0 810.7255149279999,462.0" />
 <text x="843.6344802799999" y="481"  text-anchor="middle"  fill="black" font-size="20">A30E9 </text>
<polygon fill="indianred" points = " 382.908965352,557 415.817930704,576.0 448.726896056,557 448.726896056,519.0 415.817930704,500.0 382.908965352,519.0" />
 <text x="415.817930704" y="538"  text-anchor="middle"  fill="black" font-size="20">P40G6 </text>
<polygon fill="lightgray" points = " 448.726896056,557 481.635861408,576.0 514.54482676,557 514.54482676,519.0 481.635861408,500.0 448.726896056,519.0" />
 <text x="481.635861408" y="538"  text-anchor="middle"  fill="black" font-size="20">H20 </text>
<polygon fill="lightsteelblue" points = " 514.54482676,557 547.453792112,576.0 580.362757464,557 580.362757464,519.0 547.453792112,500.0 514.54482676,519.0" />
 <text x="547.453792112" y="538"  text-anchor="middle"  fill="black" font-size="20">D13 </text>
<polygon fill="red" points = " 580.362757464,557 613.271722816,576.0 646.180688168,557 646.180688168,519.0 613.271722816,500.0 580.362757464,519.0" />
 <text x="613.271722816" y="538"  text-anchor="middle"  fill="black" font-size="20">A30E9 </text>
<polygon fill="wheat" points = " 646.180688168,557 679.08965352,576.0 711.998618872,557 711.998618872,519.0 679.08965352,500.0 646.180688168,519.0" />
 <text x="679.08965352" y="538"  text-anchor="middle"  fill="black" font-size="20">Y13 </text>
<polygon fill="lightsalmon" points = " 711.998618872,557 744.907584224,576.0 777.8165495759999,557 777.8165495759999,519.0 744.907584224,500.0 711.998618872,519.0" />
 <text x="744.907584224" y="538"  text-anchor="middle"  fill="black" font-size="20">AK47 </text>
<polygon fill="crimson" points = " 415.817930704,614 448.726896056,633.0 481.635861408,614 481.635861408,576.0 448.726896056,557.0 415.817930704,576.0" />
 <text x="448.726896056" y="595"  text-anchor="middle"  fill="black" font-size="20">P40H9 </text>
<polygon fill="red" points = " 481.635861408,614 514.54482676,633.0 547.453792112,614 547.453792112,576.0 514.54482676,557.0 481.635861408,576.0" />
 <text x="514.54482676" y="595"  text-anchor="middle"  fill="black" font-size="20">A30E9 </text>
<polygon fill="aqua" points = " 547.453792112,614 580.362757464,633.0 613.271722816,614 613.271722816,576.0 580.362757464,557.0 547.453792112,576.0" />
 <text x="580.362757464" y="595"  text-anchor="middle"  fill="black" font-size="20">E13 </text>
<polygon fill="gold" points = " 613.271722816,614 646.180688168,633.0 679.08965352,614 679.08965352,576.0 646.180688168,557.0 613.271722816,576.0" />
 <text x="646.180688168" y="595"  text-anchor="middle"  fill="black" font-size="20">A20 </text>
<polygon fill="darkgoldenrod" points = " 679.08965352,614 711.998618872,633.0 744.907584224,614 744.907584224,576.0 711.998618872,557.0 679.08965352,576.0" />
 <text x="711.998618872" y="595"  text-anchor="middle"  fill="black" font-size="20">X13 </text>
<polygon fill="limegreen" points = " 448.726896056,671 481.635861408,690.0 514.54482676,671 514.54482676,633.0 481.635861408,614.0 448.726896056,633.0" />
 <text x="481.635861408" y="652"  text-anchor="middle"  fill="black" font-size="20">P36F9 </text>
<polygon fill="teal" points = " 514.54482676,671 547.453792112,690.0 580.362757464,671 580.362757464,633.0 547.453792112,614.0 514.54482676,633.0" />
 <text x="547.453792112" y="652"  text-anchor="middle"  fill="black" font-size="20">C4 </text>
<polygon fill="royalblue" points = " 580.362757464,671 613.271722816,690.0 646.180688168,671 646.180688168,633.0 613.271722816,614.0 580.362757464,633.0" />
 <text x="613.271722816" y="652"  text-anchor="middle"  fill="black" font-size="20">F13 </text>
<polygon fill="red" points = " 646.180688168,671 679.08965352,690.0 711.998618872,671 711.998618872,633.0 679.08965352,614.0 646.180688168,633.0" />
 <text x="679.08965352" y="652"  text-anchor="middle"  fill="black" font-size="20">A30E9 </text>
<polygon fill="aquamarine" points = " 481.635861408,728 514.54482676,747.0 547.453792112,728 547.453792112,690.0 514.54482676,671.0 481.635861408,690.0" />
 <text x="514.54482676" y="709"  text-anchor="middle"  fill="black" font-size="20">P36H9 </text>
<polygon fill="red" points = " 547.453792112,728 580.362757464,747.0 613.271722816,728 613.271722816,690.0 580.362757464,671.0 547.453792112,690.0" />
 <text x="580.362757464" y="709"  text-anchor="middle"  fill="black" font-size="20">A30E9 </text>
<polygon fill="khaki" points = " 613.271722816,728 646.180688168,747.0 679.08965352,728 679.08965352,690.0 646.180688168,671.0 613.271722816,690.0" />
 <text x="646.180688168" y="709"  text-anchor="middle"  fill="black" font-size="20">G13 </text>
<polygon fill="steelblue" points = " 514.54482676,785 547.453792112,804.0 580.362757464,785 580.362757464,747.0 547.453792112,728.0 514.54482676,747.0" />
 <text x="547.453792112" y="766"  text-anchor="middle"  fill="black" font-size="20">P40F9 </text>
<polygon fill="dodgerblue" points = " 580.362757464,785 613.271722816,804.0 646.180688168,785 646.180688168,747.0 613.271722816,728.0 580.362757464,747.0" />
 <text x="613.271722816" y="766"  text-anchor="middle"  fill="black" font-size="20">MP5 </text>
<polygon fill="tomato" points = " 547.453792112,842 580.362757464,861.0 613.271722816,842 613.271722816,804.0 580.362757464,785.0 547.453792112,804.0" />
 <text x="580.362757464" y="823"  text-anchor="middle"  fill="black" font-size="20">A40G6 </text>
<polygon fill="green" points = " 777.8165495759999,557 810.7255149279999,576.0 843.6344802799999,557 843.6344802799999,519.0 810.7255149279999,500.0 777.8165495759999,519.0" />
 <text x="810.7255149279999" y="538"  text-anchor="middle"  fill="black" font-size="20">Z13 </text>
<polygon fill="cadetblue" points = " 744.907584224,614 777.8165495759999,633.0 810.7255149279999,614 810.7255149279999,576.0 777.8165495759999,557.0 744.907584224,576.0" />
 <text x="777.8165495759999" y="595"  text-anchor="middle"  fill="black" font-size="20">B30E9 </text>
<polygon fill="lightsalmon" points = " 810.7255149279999,614 843.6344802799999,633.0 876.5434456319999,614 876.5434456319999,576.0 843.6344802799999,557.0 810.7255149279999,576.0" />
 <text x="843.6344802799999" y="595"  text-anchor="middle"  fill="black" font-size="20">AK47 </text>
<polygon fill="gold" points = " 711.998618872,671 744.907584224,690.0 777.8165495759999,671 777.8165495759999,633.0 744.907584224,614.0 711.998618872,633.0" />
 <text x="744.907584224" y="652"  text-anchor="middle"  fill="black" font-size="20">A20 </text>
<polygon fill="wheat" points = " 777.8165495759999,671 810.7255149279999,690.0 843.6344802799999,671 843.6344802799999,633.0 810.7255149279999,614.0 777.8165495759999,633.0" />
 <text x="810.7255149279999" y="652"  text-anchor="middle"  fill="black" font-size="20">Y13 </text>
<polygon fill="darkgoldenrod" points = " 843.6344802799999,671 876.5434456319999,690.0 909.4524109839999,671 909.4524109839999,633.0 876.5434456319999,614.0 843.6344802799999,633.0" />
 <text x="876.5434456319999" y="652"  text-anchor="middle"  fill="black" font-size="20">X13 </text>
<polygon fill="tan" points = " 679.08965352,728 711.998618872,747.0 744.907584224,728 744.907584224,690.0 711.998618872,671.0 679.08965352,690.0" />
 <text x="711.998618872" y="709"  text-anchor="middle"  fill="black" font-size="20">C13 </text>
<polygon fill="red" points = " 744.907584224,728 777.8165495759999,747.0 810.7255149279999,728 810.7255149279999,690.0 777.8165495759999,671.0 744.907584224,690.0" />
 <text x="777.8165495759999" y="709"  text-anchor="middle"  fill="black" font-size="20">A30E9 </text>
<polygon fill="gold" points = " 810.7255149279999,728 843.6344802799999,747.0 876.5434456319999,728 876.5434456319999,690.0 843.6344802799999,671.0 810.7255149279999,690.0" />
 <text x="843.6344802799999" y="709"  text-anchor="middle"  fill="black" font-size="20">A20 </text>
<polygon fill="red" points = " 876.5434456319999,728 909.4524109839999,747.0 942.3613763359999,728 942.3613763359999,690.0 909.4524109839999,671.0 876.5434456319999,690.0" />
 <text x="909.4524109839999" y="709"  text-anchor="middle"  fill="black" font-size="20">A30E9 </text>
<polygon fill="gold" points = " 646.180688168,785 679.08965352,804.0 711.998618872,785 711.998618872,747.0 679.08965352,728.0 646.180688168,747.0" />
 <text x="679.08965352" y="766"  text-anchor="middle"  fill="black" font-size="20">A20 </text>
<polygon fill="lightsteelblue" points = " 711.998618872,785 744.907584224,804.0 777.8165495759999,785 777.8165495759999,747.0 744.907584224,728.0 711.998618872,747.0" />
 <text x="744.907584224" y="766"  text-anchor="middle"  fill="black" font-size="20">D13 </text>
<polygon fill="aqua" points = " 777.8165495759999,785 810.7255149279999,804.0 843.6344802799999,785 843.6344802799999,747.0 810.7255149279999,728.0 777.8165495759999,747.0" />
 <text x="810.7255149279999" y="766"  text-anchor="middle"  fill="black" font-size="20">E13 </text>
<polygon fill="royalblue" points = " 843.6344802799999,785 876.5434456319999,804.0 909.4524109839999,785 909.4524109839999,747.0 876.5434456319999,728.0 843.6344802799999,747.0" />
 <text x="876.5434456319999" y="766"  text-anchor="middle"  fill="black" font-size="20">F13 </text>
<polygon fill="khaki" points = " 909.4524109839999,785 942.3613763359999,804.0 975.2703416879999,785 975.2703416879999,747.0 942.3613763359999,728.0 909.4524109839999,747.0" />
 <text x="942.3613763359999" y="766"  text-anchor="middle"  fill="black" font-size="20">G13 </text>
<polygon fill="red" points = " 613.271722816,842 646.180688168,861.0 679.08965352,842 679.08965352,804.0 646.180688168,785.0 613.271722816,804.0" />
 <text x="646.180688168" y="823"  text-anchor="middle"  fill="black" font-size="20">A30E9 </text>
<polygon fill="lightgray" points = " 679.08965352,842 711.998618872,861.0 744.907584224,842 744.907584224,804.0 711.998618872,785.0 679.08965352,804.0" />
 <text x="711.998618872" y="823"  text-anchor="middle"  fill="black" font-size="20">H20 </text>
<polygon fill="red" points = " 744.907584224,842 777.8165495759999,861.0 810.7255149279999,842 810.7255149279999,804.0 777.8165495759999,785.0 744.907584224,804.0" />
 <text x="777.8165495759999" y="823"  text-anchor="middle"  fill="black" font-size="20">A30E9 </text>
<polygon fill="teal" points = " 810.7255149279999,842 843.6344802799999,861.0 876.5434456319999,842 876.5434456319999,804.0 843.6344802799999,785.0 810.7255149279999,804.0" />
 <text x="843.6344802799999" y="823"  text-anchor="middle"  fill="black" font-size="20">C4 </text>
<polygon fill="red" points = " 876.5434456319999,842 909.4524109839999,861.0 942.3613763359999,842 942.3613763359999,804.0 909.4524109839999,785.0 876.5434456319999,804.0" />
 <text x="909.4524109839999" y="823"  text-anchor="middle"  fill="black" font-size="20">A30E9 </text>
<polygon fill="dodgerblue" points = " 942.3613763359999,842 975.2703416879999,861.0 1008.1793070399999,842 1008.1793070399999,804.0 975.2703416879999,785.0 942.3613763359999,804.0" />
 <text x="975.2703416879999" y="823"  text-anchor="middle"  fill="black" font-size="20">MP5 </text>
<polygon fill="indianred" points = " 646.180688168,899 679.08965352,918.0 711.998618872,899 711.998618872,861.0 679.08965352,842.0 646.180688168,861.0" />
 <text x="679.08965352" y="880"  text-anchor="middle"  fill="black" font-size="20">P40G6 </text>
<polygon fill="crimson" points = " 711.998618872,899 744.907584224,918.0 777.8165495759999,899 777.8165495759999,861.0 744.907584224,842.0 711.998618872,861.0" />
 <text x="744.907584224" y="880"  text-anchor="middle"  fill="black" font-size="20">P40H9 </text>
<polygon fill="limegreen" points = " 777.8165495759999,899 810.7255149279999,918.0 843.6344802799999,899 843.6344802799999,861.0 810.7255149279999,842.0 777.8165495759999,861.0" />
 <text x="810.7255149279999" y="880"  text-anchor="middle"  fill="black" font-size="20">P36F9 </text>
<polygon fill="aquamarine" points = " 843.6344802799999,899 876.5434456319999,918.0 909.4524109839999,899 909.4524109839999,861.0 876.5434456319999,842.0 843.6344802799999,861.0" />
 <text x="876.5434456319999" y="880"  text-anchor="middle"  fill="black" font-size="20">P36H9 </text>
<polygon fill="steelblue" points = " 909.4524109839999,899 942.3613763359999,918.0 975.2703416879999,899 975.2703416879999,861.0 942.3613763359999,842.0 909.4524109839999,861.0" />
 <text x="942.3613763359999" y="880"  text-anchor="middle"  fill="black" font-size="20">P40F9 </text>
<polygon fill="tomato" points = " 975.2703416879999,899 1008.1793070399999,918.0 1041.088272392,899 1041.088272392,861.0 1008.1793070399999,842.0 975.2703416879999,861.0" />
 <text x="1008.1793070399999" y="880"  text-anchor="middle"  fill="black" font-size="20">A40G6 </text>
<polygon fill="red" points = " 1008.54482676,842 1041.453792112,861.0 1074.362757464,842 1074.362757464,804.0 1041.453792112,785.0 1008.54482676,804.0" />
 <text x="1041.453792112" y="823"  text-anchor="middle"  fill="black" font-size="20">A30E9 </text>
<polygon fill="gold" points = " 975.635861408,785 1008.54482676,804.0 1041.453792112,785 1041.453792112,747.0 1008.54482676,728.0 975.635861408,747.0" />
 <text x="1008.54482676" y="766"  text-anchor="middle"  fill="black" font-size="20">A20 </text>
<polygon fill="tan" points = " 942.726896056,728 975.635861408,747.0 1008.54482676,728 1008.54482676,690.0 975.635861408,671.0 942.726896056,690.0" />
 <text x="975.635861408" y="709"  text-anchor="middle"  fill="black" font-size="20">C13 </text>
<polygon fill="gold" points = " 909.817930704,671 942.726896056,690.0 975.635861408,671 975.635861408,633.0 942.726896056,614.0 909.817930704,633.0" />
 <text x="942.726896056" y="652"  text-anchor="middle"  fill="black" font-size="20">A20 </text>
<polygon fill="cadetblue" points = " 876.908965352,614 909.817930704,633.0 942.726896056,614 942.726896056,576.0 909.817930704,557.0 876.908965352,576.0" />
 <text x="909.817930704" y="595"  text-anchor="middle"  fill="black" font-size="20">B30E9 </text>
<polygon fill="green" points = " 844.0,557 876.908965352,576.0 909.817930704,557 909.817930704,519.0 876.908965352,500.0 844.0,519.0" />
 <text x="876.908965352" y="538"  text-anchor="middle"  fill="black" font-size="20">Z13 </text>
<polygon fill="red" points = " 811.091034648,500 844.0,519.0 876.908965352,500 876.908965352,462.0 844.0,443.0 811.091034648,462.0" />
 <text x="844.0" y="481"  text-anchor="middle"  fill="black" font-size="20">A30E9 </text>
<polygon fill="indianred" points = " 1074.362757464,842 1107.271722816,861.0 1140.180688168,842 1140.180688168,804.0 1107.271722816,785.0 1074.362757464,804.0" />
 <text x="1107.271722816" y="823"  text-anchor="middle"  fill="black" font-size="20">P40G6 </text>
<polygon fill="lightgray" points = " 1041.453792112,785 1074.362757464,804.0 1107.271722816,785 1107.271722816,747.0 1074.362757464,728.0 1041.453792112,747.0" />
 <text x="1074.362757464" y="766"  text-anchor="middle"  fill="black" font-size="20">H20 </text>
<polygon fill="lightsteelblue" points = " 1008.54482676,728 1041.453792112,747.0 1074.362757464,728 1074.362757464,690.0 1041.453792112,671.0 1008.54482676,690.0" />
 <text x="1041.453792112" y="709"  text-anchor="middle"  fill="black" font-size="20">D13 </text>
<polygon fill="red" points = " 975.635861408,671 1008.54482676,690.0 1041.453792112,671 1041.453792112,633.0 1008.54482676,614.0 975.635861408,633.0" />
 <text x="1008.54482676" y="652"  text-anchor="middle"  fill="black" font-size="20">A30E9 </text>
<polygon fill="wheat" points = " 942.726896056,614 975.635861408,633.0 1008.54482676,614 1008.54482676,576.0 975.635861408,557.0 942.726896056,576.0" />
 <text x="975.635861408" y="595"  text-anchor="middle"  fill="black" font-size="20">Y13 </text>
<polygon fill="lightsalmon" points = " 909.817930704,557 942.726896056,576.0 975.635861408,557 975.635861408,519.0 942.726896056,500.0 909.817930704,519.0" />
 <text x="942.726896056" y="538"  text-anchor="middle"  fill="black" font-size="20">AK47 </text>
<polygon fill="crimson" points = " 1107.271722816,785 1140.180688168,804.0 1173.08965352,785 1173.08965352,747.0 1140.180688168,728.0 1107.271722816,747.0" />
 <text x="1140.180688168" y="766"  text-anchor="middle"  fill="black" font-size="20">P40H9 </text>
<polygon fill="red" points = " 1074.362757464,728 1107.271722816,747.0 1140.180688168,728 1140.180688168,690.0 1107.271722816,671.0 1074.362757464,690.0" />
 <text x="1107.271722816" y="709"  text-anchor="middle"  fill="black" font-size="20">A30E9 </text>
<polygon fill="aqua" points = " 1041.453792112,671 1074.362757464,690.0 1107.271722816,671 1107.271722816,633.0 1074.362757464,614.0 1041.453792112,633.0" />
 <text x="1074.362757464" y="652"  text-anchor="middle"  fill="black" font-size="20">E13 </text>
<polygon fill="gold" points = " 1008.54482676,614 1041.453792112,633.0 1074.362757464,614 1074.362757464,576.0 1041.453792112,557.0 1008.54482676,576.0" />
 <text x="1041.453792112" y="595"  text-anchor="middle"  fill="black" font-size="20">A20 </text>
<polygon fill="darkgoldenrod" points = " 975.635861408,557 1008.54482676,576.0 1041.453792112,557 1041.453792112,519.0 1008.54482676,500.0 975.635861408,519.0" />
 <text x="1008.54482676" y="538"  text-anchor="middle"  fill="black" font-size="20">X13 </text>
<polygon fill="limegreen" points = " 1140.180688168,728 1173.08965352,747.0 1205.998618872,728 1205.998618872,690.0 1173.08965352,671.0 1140.180688168,690.0" />
 <text x="1173.08965352" y="709"  text-anchor="middle"  fill="black" font-size="20">P36F9 </text>
<polygon fill="teal" points = " 1107.271722816,671 1140.180688168,690.0 1173.08965352,671 1173.08965352,633.0 1140.180688168,614.0 1107.271722816,633.0" />
 <text x="1140.180688168" y="652"  text-anchor="middle"  fill="black" font-size="20">C4 </text>
<polygon fill="royalblue" points = " 1074.362757464,614 1107.271722816,633.0 1140.180688168,614 1140.180688168,576.0 1107.271722816,557.0 1074.362757464,576.0" />
 <text x="1107.271722816" y="595"  text-anchor="middle"  fill="black" font-size="20">F13 </text>
<polygon fill="red" points = " 1041.453792112,557 1074.362757464,576.0 1107.271722816,557 1107.271722816,519.0 1074.362757464,500.0 1041.453792112,519.0" />
 <text x="1074.362757464" y="538"  text-anchor="middle"  fill="black" font-size="20">A30E9 </text>
<polygon fill="aquamarine" points = " 1173.08965352,671 1205.998618872,690.0 1238.907584224,671 1238.907584224,633.0 1205.998618872,614.0 1173.08965352,633.0" />
 <text x="1205.998618872" y="652"  text-anchor="middle"  fill="black" font-size="20">P36H9 </text>
<polygon fill="red" points = " 1140.180688168,614 1173.08965352,633.0 1205.998618872,614 1205.998618872,576.0 1173.08965352,557.0 1140.180688168,576.0" />
 <text x="1173.08965352" y="595"  text-anchor="middle"  fill="black" font-size="20">A30E9 </text>
<polygon fill="khaki" points = " 1107.271722816,557 1140.180688168,576.0 1173.08965352,557 1173.08965352,519.0 1140.180688168,500.0 1107.271722816,519.0" />
 <text x="1140.180688168" y="538"  text-anchor="middle"  fill="black" font-size="20">G13 </text>
<polygon fill="steelblue" points = " 1205.998618872,614 1238.907584224,633.0 1271.816549576,614 1271.816549576,576.0 1238.907584224,557.0 1205.998618872,576.0" />
 <text x="1238.907584224" y="595"  text-anchor="middle"  fill="black" font-size="20">P40F9 </text>
<polygon fill="dodgerblue" points = " 1173.08965352,557 1205.998618872,576.0 1238.907584224,557 1238.907584224,519.0 1205.998618872,500.0 1173.08965352,519.0" />
 <text x="1205.998618872" y="538"  text-anchor="middle"  fill="black" font-size="20">MP5 </text>
<polygon fill="tomato" points = " 1238.907584224,557 1271.816549576,576.0 1304.725514928,557 1304.725514928,519.0 1271.816549576,500.0 1238.907584224,519.0" />
 <text x="1271.816549576" y="538"  text-anchor="middle"  fill="black" font-size="20">A40G6 </text>
<polygon fill="red" points = " 1205.998618872,500 1238.907584224,519.0 1271.816549576,500 1271.816549576,462.0 1238.907584224,443.0 1205.998618872,462.0" />
 <text x="1238.907584224" y="481"  text-anchor="middle"  fill="black" font-size="20">A30E9 </text>
<polygon fill="gold" points = " 1140.180688168,500 1173.08965352,519.0 1205.998618872,500 1205.998618872,462.0 1173.08965352,443.0 1140.180688168,462.0" />
 <text x="1173.08965352" y="481"  text-anchor="middle"  fill="black" font-size="20">A20 </text>
<polygon fill="tan" points = " 1074.362757464,500 1107.271722816,519.0 1140.180688168,500 1140.180688168,462.0 1107.271722816,443.0 1074.362757464,462.0" />
 <text x="1107.271722816" y="481"  text-anchor="middle"  fill="black" font-size="20">C13 </text>
<polygon fill="gold" points = " 1008.54482676,500 1041.453792112,519.0 1074.362757464,500 1074.362757464,462.0 1041.453792112,443.0 1008.54482676,462.0" />
 <text x="1041.453792112" y="481"  text-anchor="middle"  fill="black" font-size="20">A20 </text>
<polygon fill="cadetblue" points = " 942.726896056,500 975.635861408,519.0 1008.54482676,500 1008.54482676,462.0 975.635861408,443.0 942.726896056,462.0" />
 <text x="975.635861408" y="481"  text-anchor="middle"  fill="black" font-size="20">B30E9 </text>
<polygon fill="green" points = " 876.908965352,500 909.817930704,519.0 942.726896056,500 942.726896056,462.0 909.817930704,443.0 876.908965352,462.0" />
 <text x="909.817930704" y="481"  text-anchor="middle"  fill="black" font-size="20">Z13 </text>
<polygon fill="red" points = " 811.091034648,500 844.0,519.0 876.908965352,500 876.908965352,462.0 844.0,443.0 811.091034648,462.0" />
 <text x="844.0" y="481"  text-anchor="middle"  fill="black" font-size="20">A30E9 </text>
<polygon fill="indianred" points = " 1238.907584224,443 1271.816549576,462.0 1304.725514928,443 1304.725514928,405.0 1271.816549576,386.0 1238.907584224,405.0" />
 <text x="1271.816549576" y="424"  text-anchor="middle"  fill="black" font-size="20">P40G6 </text>
<polygon fill="lightgray" points = " 1173.08965352,443 1205.998618872,462.0 1238.907584224,443 1238.907584224,405.0 1205.998618872,386.0 1173.08965352,405.0" />
 <text x="1205.998618872" y="424"  text-anchor="middle"  fill="black" font-size="20">H20 </text>
<polygon fill="lightsteelblue" points = " 1107.271722816,443 1140.180688168,462.0 1173.08965352,443 1173.08965352,405.0 1140.180688168,386.0 1107.271722816,405.0" />
 <text x="1140.180688168" y="424"  text-anchor="middle"  fill="black" font-size="20">D13 </text>
<polygon fill="red" points = " 1041.453792112,443 1074.362757464,462.0 1107.271722816,443 1107.271722816,405.0 1074.362757464,386.0 1041.453792112,405.0" />
 <text x="1074.362757464" y="424"  text-anchor="middle"  fill="black" font-size="20">A30E9 </text>
<polygon fill="wheat" points = " 975.635861408,443 1008.54482676,462.0 1041.453792112,443 1041.453792112,405.0 1008.54482676,386.0 975.635861408,405.0" />
 <text x="1008.54482676" y="424"  text-anchor="middle"  fill="black" font-size="20">Y13 </text>
<polygon fill="lightsalmon" points = " 909.817930704,443 942.726896056,462.0 975.635861408,443 975.635861408,405.0 942.726896056,386.0 909.817930704,405.0" />
 <text x="942.726896056" y="424"  text-anchor="middle"  fill="black" font-size="20">AK47 </text>
<polygon fill="crimson" points = " 1205.998618872,386 1238.907584224,405.0 1271.816549576,386 1271.816549576,348.0 1238.907584224,329.0 1205.998618872,348.0" />
 <text x="1238.907584224" y="367"  text-anchor="middle"  fill="black" font-size="20">P40H9 </text>
<polygon fill="red" points = " 1140.180688168,386 1173.08965352,405.0 1205.998618872,386 1205.998618872,348.0 1173.08965352,329.0 1140.180688168,348.0" />
 <text x="1173.08965352" y="367"  text-anchor="middle"  fill="black" font-size="20">A30E9 </text>
<polygon fill="aqua" points = " 1074.362757464,386 1107.271722816,405.0 1140.180688168,386 1140.180688168,348.0 1107.271722816,329.0 1074.362757464,348.0" />
 <text x="1107.271722816" y="367"  text-anchor="middle"  fill="black" font-size="20">E13 </text>
<polygon fill="gold" points = " 1008.54482676,386 1041.453792112,405.0 1074.362757464,386 1074.362757464,348.0 1041.453792112,329.0 1008.54482676,348.0" />
 <text x="1041.453792112" y="367"  text-anchor="middle"  fill="black" font-size="20">A20 </text>
<polygon fill="darkgoldenrod" points = " 942.726896056,386 975.635861408,405.0 1008.54482676,386 1008.54482676,348.0 975.635861408,329.0 942.726896056,348.0" />
 <text x="975.635861408" y="367"  text-anchor="middle"  fill="black" font-size="20">X13 </text>
<polygon fill="limegreen" points = " 1173.08965352,329 1205.998618872,348.0 1238.907584224,329 1238.907584224,291.0 1205.998618872,272.0 1173.08965352,291.0" />
 <text x="1205.998618872" y="310"  text-anchor="middle"  fill="black" font-size="20">P36F9 </text>
<polygon fill="teal" points = " 1107.271722816,329 1140.180688168,348.0 1173.08965352,329 1173.08965352,291.0 1140.180688168,272.0 1107.271722816,291.0" />
 <text x="1140.180688168" y="310"  text-anchor="middle"  fill="black" font-size="20">C4 </text>
<polygon fill="royalblue" points = " 1041.453792112,329 1074.362757464,348.0 1107.271722816,329 1107.271722816,291.0 1074.362757464,272.0 1041.453792112,291.0" />
 <text x="1074.362757464" y="310"  text-anchor="middle"  fill="black" font-size="20">F13 </text>
<polygon fill="red" points = " 975.635861408,329 1008.54482676,348.0 1041.453792112,329 1041.453792112,291.0 1008.54482676,272.0 975.635861408,291.0" />
 <text x="1008.54482676" y="310"  text-anchor="middle"  fill="black" font-size="20">A30E9 </text>
<polygon fill="aquamarine" points = " 1140.180688168,272 1173.08965352,291.0 1205.998618872,272 1205.998618872,234.0 1173.08965352,215.0 1140.180688168,234.0" />
 <text x="1173.08965352" y="253"  text-anchor="middle"  fill="black" font-size="20">P36H9 </text>
<polygon fill="red" points = " 1074.362757464,272 1107.271722816,291.0 1140.180688168,272 1140.180688168,234.0 1107.271722816,215.0 1074.362757464,234.0" />
 <text x="1107.271722816" y="253"  text-anchor="middle"  fill="black" font-size="20">A30E9 </text>
<polygon fill="khaki" points = " 1008.54482676,272 1041.453792112,291.0 1074.362757464,272 1074.362757464,234.0 1041.453792112,215.0 1008.54482676,234.0" />
 <text x="1041.453792112" y="253"  text-anchor="middle"  fill="black" font-size="20">G13 </text>
<polygon fill="steelblue" points = " 1107.271722816,215 1140.180688168,234.0 1173.08965352,215 1173.08965352,177.0 1140.180688168,158.0 1107.271722816,177.0" />
 <text x="1140.180688168" y="196"  text-anchor="middle"  fill="black" font-size="20">P40F9 </text>
<polygon fill="dodgerblue" points = " 1041.453792112,215 1074.362757464,234.0 1107.271722816,215 1107.271722816,177.0 1074.362757464,158.0 1041.453792112,177.0" />
 <text x="1074.362757464" y="196"  text-anchor="middle"  fill="black" font-size="20">MP5 </text>
<polygon fill="tomato" points = " 1074.362757464,158 1107.271722816,177.0 1140.180688168,158 1140.180688168,120.0 1107.271722816,101.0 1074.362757464,120.0" />
 <text x="1107.271722816" y="139"  text-anchor="middle"  fill="black" font-size="20">A40G6 </text>
<polygon fill="indianred" points = " 975.635861408,101 1008.54482676,120.0 1041.453792112,101 1041.453792112,63.0 1008.54482676,44.0 975.635861408,63.0" />
 <text x="1008.54482676" y="82"  text-anchor="middle"  fill="black" font-size="20">P40G6 </text>
<polygon fill="crimson" points = " 909.817930704,101 942.726896056,120.0 975.635861408,101 975.635861408,63.0 942.726896056,44.0 909.817930704,63.0" />
 <text x="942.726896056" y="82"  text-anchor="middle"  fill="black" font-size="20">P40H9 </text>
<polygon fill="limegreen" points = " 844.0,101 876.908965352,120.0 909.817930704,101 909.817930704,63.0 876.908965352,44.0 844.0,63.0" />
 <text x="876.908965352" y="82"  text-anchor="middle"  fill="black" font-size="20">P36F9 </text>
<polygon fill="aquamarine" points = " 778.182069296,101 811.091034648,120.0 844.0,101 844.0,63.0 811.091034648,44.0 778.182069296,63.0" />
 <text x="811.091034648" y="82"  text-anchor="middle"  fill="black" font-size="20">P36H9 </text>
<polygon fill="steelblue" points = " 712.364138592,101 745.273103944,120.0 778.182069296,101 778.182069296,63.0 745.273103944,44.0 712.364138592,63.0" />
 <text x="745.273103944" y="82"  text-anchor="middle"  fill="black" font-size="20">P40F9 </text>
<polygon fill="tomato" points = " 646.546207888,101 679.45517324,120.0 712.364138592,101 712.364138592,63.0 679.45517324,44.0 646.546207888,63.0" />
 <text x="679.45517324" y="82"  text-anchor="middle"  fill="black" font-size="20">A40G6 </text>
<polygon fill="red" points = " 1008.54482676,158 1041.453792112,177.0 1074.362757464,158 1074.362757464,120.0 1041.453792112,101.0 1008.54482676,120.0" />
 <text x="1041.453792112" y="139"  text-anchor="middle"  fill="black" font-size="20">A30E9 </text>
<polygon fill="lightgray" points = " 942.726896056,158 975.635861408,177.0 1008.54482676,158 1008.54482676,120.0 975.635861408,101.0 942.726896056,120.0" />
 <text x="975.635861408" y="139"  text-anchor="middle"  fill="black" font-size="20">H20 </text>
<polygon fill="red" points = " 876.908965352,158 909.817930704,177.0 942.726896056,158 942.726896056,120.0 909.817930704,101.0 876.908965352,120.0" />
 <text x="909.817930704" y="139"  text-anchor="middle"  fill="black" font-size="20">A30E9 </text>
<polygon fill="teal" points = " 811.091034648,158 844.0,177.0 876.908965352,158 876.908965352,120.0 844.0,101.0 811.091034648,120.0" />
 <text x="844.0" y="139"  text-anchor="middle"  fill="black" font-size="20">C4 </text>
<polygon fill="red" points = " 745.273103944,158 778.182069296,177.0 811.091034648,158 811.091034648,120.0 778.182069296,101.0 745.273103944,120.0" />
 <text x="778.182069296" y="139"  text-anchor="middle"  fill="black" font-size="20">A30E9 </text>
<polygon fill="dodgerblue" points = " 679.45517324,158 712.364138592,177.0 745.273103944,158 745.273103944,120.0 712.364138592,101.0 679.45517324,120.0" />
 <text x="712.364138592" y="139"  text-anchor="middle"  fill="black" font-size="20">MP5 </text>
<polygon fill="gold" points = " 975.635861408,215 1008.54482676,234.0 1041.453792112,215 1041.453792112,177.0 1008.54482676,158.0 975.635861408,177.0" />
 <text x="1008.54482676" y="196"  text-anchor="middle"  fill="black" font-size="20">A20 </text>
<polygon fill="lightsteelblue" points = " 909.817930704,215 942.726896056,234.0 975.635861408,215 975.635861408,177.0 942.726896056,158.0 909.817930704,177.0" />
 <text x="942.726896056" y="196"  text-anchor="middle"  fill="black" font-size="20">D13 </text>
<polygon fill="aqua" points = " 844.0,215 876.908965352,234.0 909.817930704,215 909.817930704,177.0 876.908965352,158.0 844.0,177.0" />
 <text x="876.908965352" y="196"  text-anchor="middle"  fill="black" font-size="20">E13 </text>
<polygon fill="royalblue" points = " 778.182069296,215 811.091034648,234.0 844.0,215 844.0,177.0 811.091034648,158.0 778.182069296,177.0" />
 <text x="811.091034648" y="196"  text-anchor="middle"  fill="black" font-size="20">F13 </text>
<polygon fill="khaki" points = " 712.364138592,215 745.273103944,234.0 778.182069296,215 778.182069296,177.0 745.273103944,158.0 712.364138592,177.0" />
 <text x="745.273103944" y="196"  text-anchor="middle"  fill="black" font-size="20">G13 </text>
<polygon fill="tan" points = " 942.726896056,272 975.635861408,291.0 1008.54482676,272 1008.54482676,234.0 975.635861408,215.0 942.726896056,234.0" />
 <text x="975.635861408" y="253"  text-anchor="middle"  fill="black" font-size="20">C13 </text>
<polygon fill="red" points = " 876.908965352,272 909.817930704,291.0 942.726896056,272 942.726896056,234.0 909.817930704,215.0 876.908965352,234.0" />
 <text x="909.817930704" y="253"  text-anchor="middle"  fill="black" font-size="20">A30E9 </text>
<polygon fill="gold" points = " 811.091034648,272 844.0,291.0 876.908965352,272 876.908965352,234.0 844.0,215.0 811.091034648,234.0" />
 <text x="844.0" y="253"  text-anchor="middle"  fill="black" font-size="20">A20 </text>
<polygon fill="red" points = " 745.273103944,272 778.182069296,291.0 811.091034648,272 811.091034648,234.0 778.182069296,215.0 745.273103944,234.0" />
 <text x="778.182069296" y="253"  text-anchor="middle"  fill="black" font-size="20">A30E9 </text>
<polygon fill="gold" points = " 909.817930704,329 942.726896056,348.0 975.635861408,329 975.635861408,291.0 942.726896056,272.0 909.817930704,291.0" />
 <text x="942.726896056" y="310"  text-anchor="middle"  fill="black" font-size="20">A20 </text>
<polygon fill="wheat" points = " 844.0,329 876.908965352,348.0 909.817930704,329 909.817930704,291.0 876.908965352,272.0 844.0,291.0" />
 <text x="876.908965352" y="310"  text-anchor="middle"  fill="black" font-size="20">Y13 </text>
<polygon fill="darkgoldenrod" points = " 778.182069296,329 811.091034648,348.0 844.0,329 844.0,291.0 811.091034648,272.0 778.182069296,291.0" />
 <text x="811.091034648" y="310"  text-anchor="middle"  fill="black" font-size="20">X13 </text>
<polygon fill="cadetblue" points = " 876.908965352,386 909.817930704,405.0 942.726896056,386 942.726896056,348.0 909.817930704,329.0 876.908965352,348.0" />
 <text x="909.817930704" y="367"  text-anchor="middle"  fill="black" font-size="20">B30E9 </text>
<polygon fill="lightsalmon" points = " 811.091034648,386 844.0,405.0 876.908965352,386 876.908965352,348.0 844.0,329.0 811.091034648,348.0" />
 <text x="844.0" y="367"  text-anchor="middle"  fill="black" font-size="20">AK47 </text>
<polygon fill="green" points = " 844.0,443 876.908965352,462.0 909.817930704,443 909.817930704,405.0 876.908965352,386.0 844.0,405.0" />
 <text x="876.908965352" y="424"  text-anchor="middle"  fill="black" font-size="20">Z13 </text>
<polygon fill="red" points = " 811.091034648,500 844.0,519.0 876.908965352,500 876.908965352,462.0 844.0,443.0 811.091034648,462.0" />
 <text x="844.0" y="481"  text-anchor="middle"  fill="black" font-size="20">A30E9 </text>
<polygon fill="red" points = " 613.637242536,158 646.546207888,177.0 679.45517324,158 679.45517324,120.0 646.546207888,101.0 613.637242536,120.0" />
 <text x="646.546207888" y="139"  text-anchor="middle"  fill="black" font-size="20">A30E9 </text>
<polygon fill="gold" points = " 646.546207888,215 679.45517324,234.0 712.364138592,215 712.364138592,177.0 679.45517324,158.0 646.546207888,177.0" />
 <text x="679.45517324" y="196"  text-anchor="middle"  fill="black" font-size="20">A20 </text>
<polygon fill="tan" points = " 679.45517324,272 712.364138592,291.0 745.273103944,272 745.273103944,234.0 712.364138592,215.0 679.45517324,234.0" />
 <text x="712.364138592" y="253"  text-anchor="middle"  fill="black" font-size="20">C13 </text>
<polygon fill="gold" points = " 712.364138592,329 745.273103944,348.0 778.182069296,329 778.182069296,291.0 745.273103944,272.0 712.364138592,291.0" />
 <text x="745.273103944" y="310"  text-anchor="middle"  fill="black" font-size="20">A20 </text>
<polygon fill="cadetblue" points = " 745.273103944,386 778.182069296,405.0 811.091034648,386 811.091034648,348.0 778.182069296,329.0 745.273103944,348.0" />
 <text x="778.182069296" y="367"  text-anchor="middle"  fill="black" font-size="20">B30E9 </text>
<polygon fill="green" points = " 778.182069296,443 811.091034648,462.0 844.0,443 844.0,405.0 811.091034648,386.0 778.182069296,405.0" />
 <text x="811.091034648" y="424"  text-anchor="middle"  fill="black" font-size="20">Z13 </text>
<polygon fill="red" points = " 811.091034648,500 844.0,519.0 876.908965352,500 876.908965352,462.0 844.0,443.0 811.091034648,462.0" />
 <text x="844.0" y="481"  text-anchor="middle"  fill="black" font-size="20">A30E9 </text>
<polygon fill="indianred" points = " 547.819311832,158 580.728277184,177.0 613.637242536,158 613.637242536,120.0 580.728277184,101.0 547.819311832,120.0" />
 <text x="580.728277184" y="139"  text-anchor="middle"  fill="black" font-size="20">P40G6 </text>
<polygon fill="lightgray" points = " 580.728277184,215 613.637242536,234.0 646.546207888,215 646.546207888,177.0 613.637242536,158.0 580.728277184,177.0" />
 <text x="613.637242536" y="196"  text-anchor="middle"  fill="black" font-size="20">H20 </text>
<polygon fill="lightsteelblue" points = " 613.637242536,272 646.546207888,291.0 679.45517324,272 679.45517324,234.0 646.546207888,215.0 613.637242536,234.0" />
 <text x="646.546207888" y="253"  text-anchor="middle"  fill="black" font-size="20">D13 </text>
<polygon fill="red" points = " 646.546207888,329 679.45517324,348.0 712.364138592,329 712.364138592,291.0 679.45517324,272.0 646.546207888,291.0" />
 <text x="679.45517324" y="310"  text-anchor="middle"  fill="black" font-size="20">A30E9 </text>
<polygon fill="wheat" points = " 679.45517324,386 712.364138592,405.0 745.273103944,386 745.273103944,348.0 712.364138592,329.0 679.45517324,348.0" />
 <text x="712.364138592" y="367"  text-anchor="middle"  fill="black" font-size="20">Y13 </text>
<polygon fill="lightsalmon" points = " 712.364138592,443 745.273103944,462.0 778.182069296,443 778.182069296,405.0 745.273103944,386.0 712.364138592,405.0" />
 <text x="745.273103944" y="424"  text-anchor="middle"  fill="black" font-size="20">AK47 </text>
<polygon fill="crimson" points = " 514.91034648,215 547.819311832,234.0 580.728277184,215 580.728277184,177.0 547.819311832,158.0 514.91034648,177.0" />
 <text x="547.819311832" y="196"  text-anchor="middle"  fill="black" font-size="20">P40H9 </text>
<polygon fill="red" points = " 547.819311832,272 580.728277184,291.0 613.637242536,272 613.637242536,234.0 580.728277184,215.0 547.819311832,234.0" />
 <text x="580.728277184" y="253"  text-anchor="middle"  fill="black" font-size="20">A30E9 </text>
<polygon fill="aqua" points = " 580.728277184,329 613.637242536,348.0 646.546207888,329 646.546207888,291.0 613.637242536,272.0 580.728277184,291.0" />
 <text x="613.637242536" y="310"  text-anchor="middle"  fill="black" font-size="20">E13 </text>
<polygon fill="gold" points = " 613.637242536,386 646.546207888,405.0 679.45517324,386 679.45517324,348.0 646.546207888,329.0 613.637242536,348.0" />
 <text x="646.546207888" y="367"  text-anchor="middle"  fill="black" font-size="20">A20 </text>
<polygon fill="darkgoldenrod" points = " 646.546207888,443 679.45517324,462.0 712.364138592,443 712.364138592,405.0 679.45517324,386.0 646.546207888,405.0" />
 <text x="679.45517324" y="424"  text-anchor="middle"  fill="black" font-size="20">X13 </text>
<polygon fill="limegreen" points = " 482.00138112800005,272 514.91034648,291.0 547.819311832,272 547.819311832,234.0 514.91034648,215.0 482.00138112800005,234.0" />
 <text x="514.91034648" y="253"  text-anchor="middle"  fill="black" font-size="20">P36F9 </text>
<polygon fill="teal" points = " 514.91034648,329 547.819311832,348.0 580.728277184,329 580.728277184,291.0 547.819311832,272.0 514.91034648,291.0" />
 <text x="547.819311832" y="310"  text-anchor="middle"  fill="black" font-size="20">C4 </text>
<polygon fill="royalblue" points = " 547.819311832,386 580.728277184,405.0 613.637242536,386 613.637242536,348.0 580.728277184,329.0 547.819311832,348.0" />
 <text x="580.728277184" y="367"  text-anchor="middle"  fill="black" font-size="20">F13 </text>
<polygon fill="red" points = " 580.728277184,443 613.637242536,462.0 646.546207888,443 646.546207888,405.0 613.637242536,386.0 580.728277184,405.0" />
 <text x="613.637242536" y="424"  text-anchor="middle"  fill="black" font-size="20">A30E9 </text>
<polygon fill="aquamarine" points = " 449.09241577600005,329 482.00138112800005,348.0 514.91034648,329 514.91034648,291.0 482.00138112800005,272.0 449.09241577600005,291.0" />
 <text x="482.00138112800005" y="310"  text-anchor="middle"  fill="black" font-size="20">P36H9 </text>
<polygon fill="red" points = " 482.00138112800005,386 514.91034648,405.0 547.819311832,386 547.819311832,348.0 514.91034648,329.0 482.00138112800005,348.0" />
 <text x="514.91034648" y="367"  text-anchor="middle"  fill="black" font-size="20">A30E9 </text>
<polygon fill="khaki" points = " 514.91034648,443 547.819311832,462.0 580.728277184,443 580.728277184,405.0 547.819311832,386.0 514.91034648,405.0" />
 <text x="547.819311832" y="424"  text-anchor="middle"  fill="black" font-size="20">G13 </text>
<polygon fill="steelblue" points = " 416.18345042400006,386 449.09241577600005,405.0 482.00138112800005,386 482.00138112800005,348.0 449.09241577600005,329.0 416.18345042400006,348.0" />
 <text x="449.09241577600005" y="367"  text-anchor="middle"  fill="black" font-size="20">P40F9 </text>
<polygon fill="dodgerblue" points = " 449.09241577600005,443 482.00138112800005,462.0 514.91034648,443 514.91034648,405.0 482.00138112800005,386.0 449.09241577600005,405.0" />
 <text x="482.00138112800005" y="424"  text-anchor="middle"  fill="black" font-size="20">MP5 </text>
<polygon fill="tomato" points = " 383.27448507200006,443 416.18345042400006,462.0 449.09241577600005,443 449.09241577600005,405.0 416.18345042400006,386.0 383.27448507200006,405.0" />
 <text x="416.18345042400006" y="424"  text-anchor="middle"  fill="black" font-size="20">A40G6 </text>
</svg>