<svg  xmlns="http://www.w3.org/2000/svg"
					xmlns:xlink="http://www.w3.org/1999/xlink">
 <g transform="rotate(0, 374.12297443487745, 312.7)"> 
 <g transform = "translate(46.76537180435968 40)">
							<polygon fill = "#41fd2f" stroke = "black" stroke-width = "0" fill-opacity = "0"
								points = "	-23.38268590217984,285.7
											0,299.7
											23.38268590217984,285.7
											23.38268590217984,258.7
											0,245.7
											-23.38268590217984,258.7" />
							<text transform = "rotate(0, 0, 272.7)" text-anchor = "middle" x = "0" y = "272.7" style = "fill:#000000;font-size:12.0;font-weight:bold;"></text>
							</g>
						
 <g transform = "translate(93.53074360871936 40)">
							<polygon fill = "#41fd2f" stroke = "black" stroke-width = "0" fill-opacity = "0"
								points = "	-23.38268590217984,285.7
											0,299.7
											23.38268590217984,285.7
											23.38268590217984,258.7
											0,245.7
											-23.38268590217984,258.7" />
							<text transform = "rotate(0, 0, 272.7)" text-anchor = "middle" x = "0" y = "272.7" style = "fill:#000000;font-size:12.0;font-weight:bold;"></text>
							</g>
						
 <g transform = "translate(140.29611541307906 40)">
							<polygon fill = "#851a97" stroke = "black" stroke-width = "1.5" fill-opacity = "1"
								points = "	-23.38268590217984,285.7
											0,299.7
											23.38268590217984,285.7
											23.38268590217984,258.7
											0,245.7
											-23.38268590217984,258.7" />
							<text transform = "rotate(0, 0, 272.7)" text-anchor = "middle" x = "0" y = "272.7" style = "fill:#000000;font-size:12.0;font-weight:bold;">A30E9</text>
							</g>
						
 <g transform = "translate(187.06148721743872 40)">
							<polygon fill = "#6b65ea" stroke = "black" stroke-width = "1.5" fill-opacity = "1"
								points = "	-23.38268590217984,285.7
											0,299.7
											23.38268590217984,285.7
											23.38268590217984,258.7
											0,245.7
											-23.38268590217984,258.7" />
							<text transform = "rotate(0, 0, 272.7)" text-anchor = "middle" x = "0" y = "272.7" style = "fill:#000000;font-size:12.0;font-weight:bold;">A20</text>
							</g>
						
 <g transform = "translate(233.8268590217984 40)">
							<polygon fill = "#622642" stroke = "black" stroke-width = "1.5" fill-opacity = "1"
								points = "	-23.38268590217984,285.7
											0,299.7
											23.38268590217984,285.7
											23.38268590217984,258.7
											0,245.7
											-23.38268590217984,258.7" />
							<text transform = "rotate(0, 0, 272.7)" text-anchor = "middle" x = "0" y = "272.7" style = "fill:#000000;font-size:12.0;font-weight:bold;">A13</text>
							</g>
						
 <g transform = "translate(280.59223082615813 40)">
							<polygon fill = "#6b65ea" stroke = "black" stroke-width = "1.5" fill-opacity = "1"
								points = "	-23.38268590217984,285.7
											0,299.7
											23.38268590217984,285.7
											23.38268590217984,258.7
											0,245.7
											-23.38268590217984,258.7" />
							<text transform = "rotate(0, 0, 272.7)" text-anchor = "middle" x = "0" y = "272.7" style = "fill:#000000;font-size:12.0;font-weight:bold;">A20</text>
							</g>
						
 <g transform = "translate(327.3576026305178 40)">
							<polygon fill = "#851a97" stroke = "black" stroke-width = "1.5" fill-opacity = "1"
								points = "	-23.38268590217984,285.7
											0,299.7
											23.38268590217984,285.7
											23.38268590217984,258.7
											0,245.7
											-23.38268590217984,258.7" />
							<text transform = "rotate(0, 0, 272.7)" text-anchor = "middle" x = "0" y = "272.7" style = "fill:#000000;font-size:12.0;font-weight:bold;">A30E9</text>
							</g>
						
 <g transform = "translate(374.12297443487745 40)">
							<polygon fill = "#622642" stroke = "black" stroke-width = "1.5" fill-opacity = "1"
								points = "	-23.38268590217984,285.7
											0,299.7
											23.38268590217984,285.7
											23.38268590217984,258.7
											0,245.7
											-23.38268590217984,258.7" />
							<text transform = "rotate(0, 0, 272.7)" text-anchor = "middle" x = "0" y = "272.7" style = "fill:#000000;font-size:12.0;font-weight:bold;">A13</text>
							</g>
						
 </g> 
 <g transform="rotate(60, 374.12297443487745, 312.7)"> 
 <g transform = "translate(46.76537180435968 40)">
							<polygon fill = "#41fd2f" stroke = "black" stroke-width = "0" fill-opacity = "0"
								points = "	-23.38268590217984,285.7
											0,299.7
											23.38268590217984,285.7
											23.38268590217984,258.7
											0,245.7
											-23.38268590217984,258.7" />
							<text transform = "rotate(-60, 0, 272.7)" text-anchor = "middle" x = "0" y = "272.7" style = "fill:#000000;font-size:12.0;font-weight:bold;"></text>
							</g>
						
 <g transform = "translate(93.53074360871936 40)">
							<polygon fill = "#41fd2f" stroke = "black" stroke-width = "0" fill-opacity = "0"
								points = "	-23.38268590217984,285.7
											0,299.7
											23.38268590217984,285.7
											23.38268590217984,258.7
											0,245.7
											-23.38268590217984,258.7" />
							<text transform = "rotate(-60, 0, 272.7)" text-anchor = "middle" x = "0" y = "272.7" style = "fill:#000000;font-size:12.0;font-weight:bold;"></text>
							</g>
						
 <g transform = "translate(140.29611541307906 40)">
							<polygon fill = "#851a97" stroke = "black" stroke-width = "1.5" fill-opacity = "1"
								points = "	-23.38268590217984,285.7
											0,299.7
											23.38268590217984,285.7
											23.38268590217984,258.7
											0,245.7
											-23.38268590217984,258.7" />
							<text transform = "rotate(-60, 0, 272.7)" text-anchor = "middle" x = "0" y = "272.7" style = "fill:#000000;font-size:12.0;font-weight:bold;">A30E9</text>
							</g>
						
 <g transform = "translate(187.06148721743872 40)">
							<polygon fill = "#6b65ea" stroke = "black" stroke-width = "1.5" fill-opacity = "1"
								points = "	-23.38268590217984,285.7
											0,299.7
											23.38268590217984,285.7
											23.38268590217984,258.7
											0,245.7
											-23.38268590217984,258.7" />
							<text transform = "rotate(-60, 0, 272.7)" text-anchor = "middle" x = "0" y = "272.7" style = "fill:#000000;font-size:12.0;font-weight:bold;">A20</text>
							</g>
						
 <g transform = "translate(233.8268590217984 40)">
							<polygon fill = "#622642" stroke = "black" stroke-width = "1.5" fill-opacity = "1"
								points = "	-23.38268590217984,285.7
											0,299.7
											23.38268590217984,285.7
											23.38268590217984,258.7
											0,245.7
											-23.38268590217984,258.7" />
							<text transform = "rotate(-60, 0, 272.7)" text-anchor = "middle" x = "0" y = "272.7" style = "fill:#000000;font-size:12.0;font-weight:bold;">A13</text>
							</g>
						
 <g transform = "translate(280.59223082615813 40)">
							<polygon fill = "#6b65ea" stroke = "black" stroke-width = "1.5" fill-opacity = "1"
								points = "	-23.38268590217984,285.7
											0,299.7
											23.38268590217984,285.7
											23.38268590217984,258.7
											0,245.7
											-23.38268590217984,258.7" />
							<text transform = "rotate(-60, 0, 272.7)" text-anchor = "middle" x = "0" y = "272.7" style = "fill:#000000;font-size:12.0;font-weight:bold;">A20</text>
							</g>
						
 <g transform = "translate(327.3576026305178 40)">
							<polygon fill = "#851a97" stroke = "black" stroke-width = "1.5" fill-opacity = "1"
								points = "	-23.38268590217984,285.7
											0,299.7
											23.38268590217984,285.7
											23.38268590217984,258.7
											0,245.7
											-23.38268590217984,258.7" />
							<text transform = "rotate(-60, 0, 272.7)" text-anchor = "middle" x = "0" y = "272.7" style = "fill:#000000;font-size:12.0;font-weight:bold;">A30E9</text>
							</g>
						
 <g transform = "translate(374.12297443487745 40)">
							<polygon fill = "#622642" stroke = "black" stroke-width = "1.5" fill-opacity = "1"
								points = "	-23.38268590217984,285.7
											0,299.7
											23.38268590217984,285.7
											23.38268590217984,258.7
											0,245.7
											-23.38268590217984,258.7" />
							<text transform = "rotate(-60, 0, 272.7)" text-anchor = "middle" x = "0" y = "272.7" style = "fill:#000000;font-size:12.0;font-weight:bold;">A13</text>
							</g>
						
 </g> 
 <g transform="rotate(120, 374.12297443487745, 312.7)"> 
 <g transform = "translate(46.76537180435968 40)">
							<polygon fill = "#41fd2f" stroke = "black" stroke-width = "0" fill-opacity = "0"
								points = "	-23.38268590217984,285.7
											0,299.7
											23.38268590217984,285.7
											23.38268590217984,258.7
											0,245.7
											-23.38268590217984,258.7" />
							<text transform = "rotate(-120, 0, 272.7)" text-anchor = "middle" x = "0" y = "272.7" style = "fill:#000000;font-size:12.0;font-weight:bold;"></text>
							</g>
						
 <g transform = "translate(93.53074360871936 40)">
							<polygon fill = "#41fd2f" stroke = "black" stroke-width = "0" fill-opacity = "0"
								points = "	-23.38268590217984,285.7
											0,299.7
											23.38268590217984,285.7
											23.38268590217984,258.7
											0,245.7
											-23.38268590217984,258.7" />
							<text transform = "rotate(-120, 0, 272.7)" text-anchor = "middle" x = "0" y = "272.7" style = "fill:#000000;font-size:12.0;font-weight:bold;"></text>
							</g>
						
 <g transform = "translate(140.29611541307906 40)">
							<polygon fill = "#851a97" stroke = "black" stroke-width = "1.5" fill-opacity = "1"
								points = "	-23.38268590217984,285.7
											0,299.7
											23.38268590217984,285.7
											23.38268590217984,258.7
											0,245.7
											-23.38268590217984,258.7" />
							<text transform = "rotate(-120, 0, 272.7)" text-anchor = "middle" x = "0" y = "272.7" style = "fill:#000000;font-size:12.0;font-weight:bold;">A30E9</text>
							</g>
						
 <g transform = "translate(187.06148721743872 40)">
							<polygon fill = "#6b65ea" stroke = "black" stroke-width = "1.5" fill-opacity = "1"
								points = "	-23.38268590217984,285.7
											0,299.7
											23.38268590217984,285.7
											23.38268590217984,258.7
											0,245.7
											-23.38268590217984,258.7" />
							<text transform = "rotate(-120, 0, 272.7)" text-anchor = "middle" x = "0" y = "272.7" style = "fill:#000000;font-size:12.0;font-weight:bold;">A20</text>
							</g>
						
 <g transform = "translate(233.8268590217984 40)">
							<polygon fill = "#622642" stroke = "black" stroke-width = "1.5" fill-opacity = "1"
								points = "	-23.38268590217984,285.7
											0,299.7
											23.38268590217984,285.7
											23.38268590217984,258.7
											0,245.7
											-23.38268590217984,258.7" />
							<text transform = "rotate(-120, 0, 272.7)" text-anchor = "middle" x = "0" y = "272.7" style = "fill:#000000;font-size:12.0;font-weight:bold;">A13</text>
							</g>
						
 <g transform = "translate(280.59223082615813 40)">
							<polygon fill = "#6b65ea" stroke = "black" stroke-width = "1.5" fill-opacity = "1"
								points = "	-23.38268590217984,285.7
											0,299.7
											23.38268590217984,285.7
											23.38268590217984,258.7
											0,245.7
											-23.38268590217984,258.7" />
							<text transform = "rotate(-120, 0, 272.7)" text-anchor = "middle" x = "0" y = "272.7" style = "fill:#000000;font-size:12.0;font-weight:bold;">A20</text>
							</g>
						
 <g transform = "translate(327.3576026305178 40)">
							<polygon fill = "#851a97" stroke = "black" stroke-width = "1.5" fill-opacity = "1"
								points = "	-23.38268590217984,285.7
											0,299.7
											23.38268590217984,285.7
											23.38268590217984,258.7
											0,245.7
											-23.38268590217984,258.7" />
							<text transform = "rotate(-120, 0, 272.7)" text-anchor = "middle" x = "0" y = "272.7" style = "fill:#000000;font-size:12.0;font-weight:bold;">A30E9</text>
							</g>
						
 <g transform = "translate(374.12297443487745 40)">
							<polygon fill = "#622642" stroke = "black" stroke-width = "1.5" fill-opacity = "1"
								points = "	-23.38268590217984,285.7
											0,299.7
											23.38268590217984,285.7
											23.38268590217984,258.7
											0,245.7
											-23.38268590217984,258.7" />
							<text transform = "rotate(-120, 0, 272.7)" text-anchor = "middle" x = "0" y = "272.7" style = "fill:#000000;font-size:12.0;font-weight:bold;">A13</text>
							</g>
						
 </g> 
 <g transform="rotate(180, 374.12297443487745, 312.7)"> 
 <g transform = "translate(46.76537180435968 40)">
							<polygon fill = "#41fd2f" stroke = "black" stroke-width = "0" fill-opacity = "0"
								points = "	-23.38268590217984,285.7
											0,299.7
											23.38268590217984,285.7
											23.38268590217984,258.7
											0,245.7
											-23.38268590217984,258.7" />
							<text transform = "rotate(-180, 0, 272.7)" text-anchor = "middle" x = "0" y = "272.7" style = "fill:#000000;font-size:12.0;font-weight:bold;"></text>
							</g>
						
 <g transform = "translate(93.53074360871936 40)">
							<polygon fill = "#41fd2f" stroke = "black" stroke-width = "0" fill-opacity = "0"
								points = "	-23.38268590217984,285.7
											0,299.7
											23.38268590217984,285.7
											23.38268590217984,258.7
											0,245.7
											-23.38268590217984,258.7" />
							<text transform = "rotate(-180, 0, 272.7)" text-anchor = "middle" x = "0" y = "272.7" style = "fill:#000000;font-size:12.0;font-weight:bold;"></text>
							</g>
						
 <g transform = "translate(140.29611541307906 40)">
							<polygon fill = "#851a97" stroke = "black" stroke-width = "1.5" fill-opacity = "1"
								points = "	-23.38268590217984,285.7
											0,299.7
											23.38268590217984,285.7
											23.38268590217984,258.7
											0,245.7
											-23.38268590217984,258.7" />
							<text transform = "rotate(-180, 0, 272.7)" text-anchor = "middle" x = "0" y = "272.7" style = "fill:#000000;font-size:12.0;font-weight:bold;">A30E9</text>
							</g>
						
 <g transform = "translate(187.06148721743872 40)">
							<polygon fill = "#6b65ea" stroke = "black" stroke-width = "1.5" fill-opacity = "1"
								points = "	-23.38268590217984,285.7
											0,299.7
											23.38268590217984,285.7
											23.38268590217984,258.7
											0,245.7
											-23.38268590217984,258.7" />
							<text transform = "rotate(-180, 0, 272.7)" text-anchor = "middle" x = "0" y = "272.7" style = "fill:#000000;font-size:12.0;font-weight:bold;">A20</text>
							</g>
						
 <g transform = "translate(233.8268590217984 40)">
							<polygon fill = "#622642" stroke = "black" stroke-width = "1.5" fill-opacity = "1"
								points = "	-23.38268590217984,285.7
											0,299.7
											23.38268590217984,285.7
											23.38268590217984,258.7
											0,245.7
											-23.38268590217984,258.7" />
							<text transform = "rotate(-180, 0, 272.7)" text-anchor = "middle" x = "0" y = "272.7" style = "fill:#000000;font-size:12.0;font-weight:bold;">A13</text>
							</g>
						
 <g transform = "translate(280.59223082615813 40)">
							<polygon fill = "#6b65ea" stroke = "black" stroke-width = "1.5" fill-opacity = "1"
								points = "	-23.38268590217984,285.7
											0,299.7
											23.38268590217984,285.7
											23.38268590217984,258.7
											0,245.7
											-23.38268590217984,258.7" />
							<text transform = "rotate(-180, 0, 272.7)" text-anchor = "middle" x = "0" y = "272.7" style = "fill:#000000;font-size:12.0;font-weight:bold;">A20</text>
							</g>
						
 <g transform = "translate(327.3576026305178 40)">
							<polygon fill = "#851a97" stroke = "black" stroke-width = "1.5" fill-opacity = "1"
								points = "	-23.38268590217984,285.7
											0,299.7
											23.38268590217984,285.7
											23.38268590217984,258.7
											0,245.7
											-23.38268590217984,258.7" />
							<text transform = "rotate(-180, 0, 272.7)" text-anchor = "middle" x = "0" y = "272.7" style = "fill:#000000;font-size:12.0;font-weight:bold;">A30E9</text>
							</g>
						
 <g transform = "translate(374.12297443487745 40)">
							<polygon fill = "#622642" stroke = "black" stroke-width = "1.5" fill-opacity = "1"
								points = "	-23.38268590217984,285.7
											0,299.7
											23.38268590217984,285.7
											23.38268590217984,258.7
											0,245.7
											-23.38268590217984,258.7" />
							<text transform = "rotate(-180, 0, 272.7)" text-anchor = "middle" x = "0" y = "272.7" style = "fill:#000000;font-size:12.0;font-weight:bold;">A13</text>
							</g>
						
 </g> 
 <g transform="rotate(240, 374.12297443487745, 312.7)"> 
 <g transform = "translate(46.76537180435968 40)">
							<polygon fill = "#41fd2f" stroke = "black" stroke-width = "0" fill-opacity = "0"
								points = "	-23.38268590217984,285.7
											0,299.7
											23.38268590217984,285.7
											23.38268590217984,258.7
											0,245.7
											-23.38268590217984,258.7" />
							<text transform = "rotate(-240, 0, 272.7)" text-anchor = "middle" x = "0" y = "272.7" style = "fill:#000000;font-size:12.0;font-weight:bold;"></text>
							</g>
						
 <g transform = "translate(93.53074360871936 40)">
							<polygon fill = "#41fd2f" stroke = "black" stroke-width = "0" fill-opacity = "0"
								points = "	-23.38268590217984,285.7
											0,299.7
											23.38268590217984,285.7
											23.38268590217984,258.7
											0,245.7
											-23.38268590217984,258.7" />
							<text transform = "rotate(-240, 0, 272.7)" text-anchor = "middle" x = "0" y = "272.7" style = "fill:#000000;font-size:12.0;font-weight:bold;"></text>
							</g>
						
 <g transform = "translate(140.29611541307906 40)">
							<polygon fill = "#851a97" stroke = "black" stroke-width = "1.5" fill-opacity = "1"
								points = "	-23.38268590217984,285.7
											0,299.7
											23.38268590217984,285.7
											23.38268590217984,258.7
											0,245.7
											-23.38268590217984,258.7" />
							<text transform = "rotate(-240, 0, 272.7)" text-anchor = "middle" x = "0" y = "272.7" style = "fill:#000000;font-size:12.0;font-weight:bold;">A30E9</text>
							</g>
						
 <g transform = "translate(187.06148721743872 40)">
							<polygon fill = "#6b65ea" stroke = "black" stroke-width = "1.5" fill-opacity = "1"
								points = "	-23.38268590217984,285.7
											0,299.7
											23.38268590217984,285.7
											23.38268590217984,258.7
											0,245.7
											-23.38268590217984,258.7" />
							<text transform = "rotate(-240, 0, 272.7)" text-anchor = "middle" x = "0" y = "272.7" style = "fill:#000000;font-size:12.0;font-weight:bold;">A20</text>
							</g>
						
 <g transform = "translate(233.8268590217984 40)">
							<polygon fill = "#622642" stroke = "black" stroke-width = "1.5" fill-opacity = "1"
								points = "	-23.38268590217984,285.7
											0,299.7
											23.38268590217984,285.7
											23.38268590217984,258.7
											0,245.7
											-23.38268590217984,258.7" />
							<text transform = "rotate(-240, 0, 272.7)" text-anchor = "middle" x = "0" y = "272.7" style = "fill:#000000;font-size:12.0;font-weight:bold;">A13</text>
							</g>
						
 <g transform = "translate(280.59223082615813 40)">
							<polygon fill = "#6b65ea" stroke = "black" stroke-width = "1.5" fill-opacity = "1"
								points = "	-23.38268590217984,285.7
											0,299.7
											23.38268590217984,285.7
											23.38268590217984,258.7
											0,245.7
											-23.38268590217984,258.7" />
							<text transform = "rotate(-240, 0, 272.7)" text-anchor = "middle" x = "0" y = "272.7" style = "fill:#000000;font-size:12.0;font-weight:bold;">A20</text>
							</g>
						
 <g transform = "translate(327.3576026305178 40)">
							<polygon fill = "#851a97" stroke = "black" stroke-width = "1.5" fill-opacity = "1"
								points = "	-23.38268590217984,285.7
											0,299.7
											23.38268590217984,285.7
											23.38268590217984,258.7
											0,245.7
											-23.38268590217984,258.7" />
							<text transform = "rotate(-240, 0, 272.7)" text-anchor = "middle" x = "0" y = "272.7" style = "fill:#000000;font-size:12.0;font-weight:bold;">A30E9</text>
							</g>
						
 <g transform = "translate(374.12297443487745 40)">
							<polygon fill = "#622642" stroke = "black" stroke-width = "1.5" fill-opacity = "1"
								points = "	-23.38268590217984,285.7
											0,299.7
											23.38268590217984,285.7
											23.38268590217984,258.7
											0,245.7
											-23.38268590217984,258.7" />
							<text transform = "rotate(-240, 0, 272.7)" text-anchor = "middle" x = "0" y = "272.7" style = "fill:#000000;font-size:12.0;font-weight:bold;">A13</text>
							</g>
						
 </g> 
 <g transform="rotate(300, 374.12297443487745, 312.7)"> 
 <g transform = "translate(46.76537180435968 40)">
							<polygon fill = "#41fd2f" stroke = "black" stroke-width = "0" fill-opacity = "0"
								points = "	-23.38268590217984,285.7
											0,299.7
											23.38268590217984,285.7
											23.38268590217984,258.7
											0,245.7
											-23.38268590217984,258.7" />
							<text transform = "rotate(-300, 0, 272.7)" text-anchor = "middle" x = "0" y = "272.7" style = "fill:#000000;font-size:12.0;font-weight:bold;"></text>
							</g>
						
 <g transform = "translate(93.53074360871936 40)">
							<polygon fill = "#41fd2f" stroke = "black" stroke-width = "0" fill-opacity = "0"
								points = "	-23.38268590217984,285.7
											0,299.7
											23.38268590217984,285.7
											23.38268590217984,258.7
											0,245.7
											-23.38268590217984,258.7" />
							<text transform = "rotate(-300, 0, 272.7)" text-anchor = "middle" x = "0" y = "272.7" style = "fill:#000000;font-size:12.0;font-weight:bold;"></text>
							</g>
						
 <g transform = "translate(140.29611541307906 40)">
							<polygon fill = "#851a97" stroke = "black" stroke-width = "1.5" fill-opacity = "1"
								points = "	-23.38268590217984,285.7
											0,299.7
											23.38268590217984,285.7
											23.38268590217984,258.7
											0,245.7
											-23.38268590217984,258.7" />
							<text transform = "rotate(-300, 0, 272.7)" text-anchor = "middle" x = "0" y = "272.7" style = "fill:#000000;font-size:12.0;font-weight:bold;">A30E9</text>
							</g>
						
 <g transform = "translate(187.06148721743872 40)">
							<polygon fill = "#6b65ea" stroke = "black" stroke-width = "1.5" fill-opacity = "1"
								points = "	-23.38268590217984,285.7
											0,299.7
											23.38268590217984,285.7
											23.38268590217984,258.7
											0,245.7
											-23.38268590217984,258.7" />
							<text transform = "rotate(-300, 0, 272.7)" text-anchor = "middle" x = "0" y = "272.7" style = "fill:#000000;font-size:12.0;font-weight:bold;">A20</text>
							</g>
						
 <g transform = "translate(233.8268590217984 40)">
							<polygon fill = "#622642" stroke = "black" stroke-width = "1.5" fill-opacity = "1"
								points = "	-23.38268590217984,285.7
											0,299.7
											23.38268590217984,285.7
											23.38268590217984,258.7
											0,245.7
											-23.38268590217984,258.7" />
							<text transform = "rotate(-300, 0, 272.7)" text-anchor = "middle" x = "0" y = "272.7" style = "fill:#000000;font-size:12.0;font-weight:bold;">A13</text>
							</g>
						
 <g transform = "translate(280.59223082615813 40)">
							<polygon fill = "#6b65ea" stroke = "black" stroke-width = "1.5" fill-opacity = "1"
								points = "	-23.38268590217984,285.7
											0,299.7
											23.38268590217984,285.7
											23.38268590217984,258.7
											0,245.7
											-23.38268590217984,258.7" />
							<text transform = "rotate(-300, 0, 272.7)" text-anchor = "middle" x = "0" y = "272.7" style = "fill:#000000;font-size:12.0;font-weight:bold;">A20</text>
							</g>
						
 <g transform = "translate(327.3576026305178 40)">
							<polygon fill = "#851a97" stroke = "black" stroke-width = "1.5" fill-opacity = "1"
								points = "	-23.38268590217984,285.7
											0,299.7
											23.38268590217984,285.7
											23.38268590217984,258.7
											0,245.7
											-23.38268590217984,258.7" />
							<text transform = "rotate(-300, 0, 272.7)" text-anchor = "middle" x = "0" y = "272.7" style = "fill:#000000;font-size:12.0;font-weight:bold;">A30E9</text>
							</g>
						
 <g transform = "translate(374.12297443487745 40)">
							<polygon fill = "#622642" stroke = "black" stroke-width = "1.5" fill-opacity = "1"
								points = "	-23.38268590217984,285.7
											0,299.7
											23.38268590217984,285.7
											23.38268590217984,258.7
											0,245.7
											-23.38268590217984,258.7" />
							<text transform = "rotate(-300, 0, 272.7)" text-anchor = "middle" x = "0" y = "272.7" style = "fill:#000000;font-size:12.0;font-weight:bold;">A13</text>
							</g>
						
 </g> 
 <g transform="rotate(0, 374.12297443487745, 312.7)"> 
 <g transform = "translate(70.14805770653952 81)">
							<polygon fill = "#41fd2f" stroke = "black" stroke-width = "0" fill-opacity = "0"
								points = "	-23.38268590217984,285.7
											0,299.7
											23.38268590217984,285.7
											23.38268590217984,258.7
											0,245.7
											-23.38268590217984,258.7" />
							<text transform = "rotate(0, 0, 272.7)" text-anchor = "middle" x = "0" y = "272.7" style = "fill:#000000;font-size:12.0;font-weight:bold;"></text>
							</g>
						
 <g transform = "translate(116.9134295108992 81)">
							<polygon fill = "#20c74c" stroke = "black" stroke-width = "1.5" fill-opacity = "1"
								points = "	-23.38268590217984,285.7
											0,299.7
											23.38268590217984,285.7
											23.38268590217984,258.7
											0,245.7
											-23.38268590217984,258.7" />
							<text transform = "rotate(0, 0, 272.7)" text-anchor = "middle" x = "0" y = "272.7" style = "fill:#000000;font-size:12.0;font-weight:bold;">A40E6</text>
							</g>
						
 <g transform = "translate(163.6788013152589 81)">
							<polygon fill = "#6b65ea" stroke = "black" stroke-width = "1.5" fill-opacity = "1"
								points = "	-23.38268590217984,285.7
											0,299.7
											23.38268590217984,285.7
											23.38268590217984,258.7
											0,245.7
											-23.38268590217984,258.7" />
							<text transform = "rotate(0, 0, 272.7)" text-anchor = "middle" x = "0" y = "272.7" style = "fill:#000000;font-size:12.0;font-weight:bold;">A20</text>
							</g>
						
 <g transform = "translate(210.44417311961857 81)">
							<polygon fill = "#41fd2f" stroke = "black" stroke-width = "0" fill-opacity = "0"
								points = "	-23.38268590217984,285.7
											0,299.7
											23.38268590217984,285.7
											23.38268590217984,258.7
											0,245.7
											-23.38268590217984,258.7" />
							<text transform = "rotate(0, 0, 272.7)" text-anchor = "middle" x = "0" y = "272.7" style = "fill:#000000;font-size:12.0;font-weight:bold;"></text>
							</g>
						
 <g transform = "translate(257.2095449239782 81)">
							<polygon fill = "#851a97" stroke = "black" stroke-width = "1.5" fill-opacity = "1"
								points = "	-23.38268590217984,285.7
											0,299.7
											23.38268590217984,285.7
											23.38268590217984,258.7
											0,245.7
											-23.38268590217984,258.7" />
							<text transform = "rotate(0, 0, 272.7)" text-anchor = "middle" x = "0" y = "272.7" style = "fill:#000000;font-size:12.0;font-weight:bold;">A30E9</text>
							</g>
						
 <g transform = "translate(303.974916728338 81)">
							<polygon fill = "#622642" stroke = "black" stroke-width = "1.5" fill-opacity = "1"
								points = "	-23.38268590217984,285.7
											0,299.7
											23.38268590217984,285.7
											23.38268590217984,258.7
											0,245.7
											-23.38268590217984,258.7" />
							<text transform = "rotate(0, 0, 272.7)" text-anchor = "middle" x = "0" y = "272.7" style = "fill:#000000;font-size:12.0;font-weight:bold;">A13</text>
							</g>
						
 </g> 
 <g transform="rotate(60, 374.12297443487745, 312.7)"> 
 <g transform = "translate(70.14805770653952 81)">
							<polygon fill = "#41fd2f" stroke = "black" stroke-width = "0" fill-opacity = "0"
								points = "	-23.38268590217984,285.7
											0,299.7
											23.38268590217984,285.7
											23.38268590217984,258.7
											0,245.7
											-23.38268590217984,258.7" />
							<text transform = "rotate(-60, 0, 272.7)" text-anchor = "middle" x = "0" y = "272.7" style = "fill:#000000;font-size:12.0;font-weight:bold;"></text>
							</g>
						
 <g transform = "translate(116.9134295108992 81)">
							<polygon fill = "#20c74c" stroke = "black" stroke-width = "1.5" fill-opacity = "1"
								points = "	-23.38268590217984,285.7
											0,299.7
											23.38268590217984,285.7
											23.38268590217984,258.7
											0,245.7
											-23.38268590217984,258.7" />
							<text transform = "rotate(-60, 0, 272.7)" text-anchor = "middle" x = "0" y = "272.7" style = "fill:#000000;font-size:12.0;font-weight:bold;">A40E6</text>
							</g>
						
 <g transform = "translate(163.6788013152589 81)">
							<polygon fill = "#6b65ea" stroke = "black" stroke-width = "1.5" fill-opacity = "1"
								points = "	-23.38268590217984,285.7
											0,299.7
											23.38268590217984,285.7
											23.38268590217984,258.7
											0,245.7
											-23.38268590217984,258.7" />
							<text transform = "rotate(-60, 0, 272.7)" text-anchor = "middle" x = "0" y = "272.7" style = "fill:#000000;font-size:12.0;font-weight:bold;">A20</text>
							</g>
						
 <g transform = "translate(210.44417311961857 81)">
							<polygon fill = "#41fd2f" stroke = "black" stroke-width = "0" fill-opacity = "0"
								points = "	-23.38268590217984,285.7
											0,299.7
											23.38268590217984,285.7
											23.38268590217984,258.7
											0,245.7
											-23.38268590217984,258.7" />
							<text transform = "rotate(-60, 0, 272.7)" text-anchor = "middle" x = "0" y = "272.7" style = "fill:#000000;font-size:12.0;font-weight:bold;"></text>
							</g>
						
 <g transform = "translate(257.2095449239782 81)">
							<polygon fill = "#851a97" stroke = "black" stroke-width = "1.5" fill-opacity = "1"
								points = "	-23.38268590217984,285.7
											0,299.7
											23.38268590217984,285.7
											23.38268590217984,258.7
											0,245.7
											-23.38268590217984,258.7" />
							<text transform = "rotate(-60, 0, 272.7)" text-anchor = "middle" x = "0" y = "272.7" style = "fill:#000000;font-size:12.0;font-weight:bold;">A30E9</text>
							</g>
						
 <g transform = "translate(303.974916728338 81)">
							<polygon fill = "#622642" stroke = "black" stroke-width = "1.5" fill-opacity = "1"
								points = "	-23.38268590217984,285.7
											0,299.7
											23.38268590217984,285.7
											23.38268590217984,258.7
											0,245.7
											-23.38268590217984,258.7" />
							<text transform = "rotate(-60, 0, 272.7)" text-anchor = "middle" x = "0" y = "272.7" style = "fill:#000000;font-size:12.0;font-weight:bold;">A13</text>
							</g>
						
 </g> 
 <g transform="rotate(120, 374.12297443487745, 312.7)"> 
 <g transform = "translate(70.14805770653952 81)">
							<polygon fill = "#41fd2f" stroke = "black" stroke-width = "0" fill-opacity = "0"
								points = "	-23.38268590217984,285.7
											0,299.7
											23.38268590217984,285.7
											23.38268590217984,258.7
											0,245.7
											-23.38268590217984,258.7" />
							<text transform = "rotate(-120, 0, 272.7)" text-anchor = "middle" x = "0" y = "272.7" style = "fill:#000000;font-size:12.0;font-weight:bold;"></text>
							</g>
						
 <g transform = "translate(116.9134295108992 81)">
							<polygon fill = "#20c74c" stroke = "black" stroke-width = "1.5" fill-opacity = "1"
								points = "	-23.38268590217984,285.7
											0,299.7
											23.38268590217984,285.7
											23.38268590217984,258.7
											0,245.7
											-23.38268590217984,258.7" />
							<text transform = "rotate(-120, 0, 272.7)" text-anchor = "middle" x = "0" y = "272.7" style = "fill:#000000;font-size:12.0;font-weight:bold;">A40E6</text>
							</g>
						
 <g transform = "translate(163.6788013152589 81)">
							<polygon fill = "#6b65ea" stroke = "black" stroke-width = "1.5" fill-opacity = "1"
								points = "	-23.38268590217984,285.7
											0,299.7
											23.38268590217984,285.7
											23.38268590217984,258.7
											0,245.7
											-23.38268590217984,258.7" />
							<text transform = "rotate(-120, 0, 272.7)" text-anchor = "middle" x = "0" y = "272.7" style = "fill:#000000;font-size:12.0;font-weight:bold;">A20</text>
							</g>
						
 <g transform = "translate(210.44417311961857 81)">
							<polygon fill = "#41fd2f" stroke = "black" stroke-width = "0" fill-opacity = "0"
								points = "	-23.38268590217984,285.7
											0,299.7
											23.38268590217984,285.7
											23.38268590217984,258.7
											0,245.7
											-23.38268590217984,258.7" />
							<text transform = "rotate(-120, 0, 272.7)" text-anchor = "middle" x = "0" y = "272.7" style = "fill:#000000;font-size:12.0;font-weight:bold;"></text>
							</g>
						
 <g transform = "translate(257.2095449239782 81)">
							<polygon fill = "#851a97" stroke = "black" stroke-width = "1.5" fill-opacity = "1"
								points = "	-23.38268590217984,285.7
											0,299.7
											23.38268590217984,285.7
											23.38268590217984,258.7
											0,245.7
											-23.38268590217984,258.7" />
							<text transform = "rotate(-120, 0, 272.7)" text-anchor = "middle" x = "0" y = "272.7" style = "fill:#000000;font-size:12.0;font-weight:bold;">A30E9</text>
							</g>
						
 <g transform = "translate(303.974916728338 81)">
							<polygon fill = "#622642" stroke = "black" stroke-width = "1.5" fill-opacity = "1"
								points = "	-23.38268590217984,285.7
											0,299.7
											23.38268590217984,285.7
											23.38268590217984,258.7
											0,245.7
											-23.38268590217984,258.7" />
							<text transform = "rotate(-120, 0, 272.7)" text-anchor = "middle" x = "0" y = "272.7" style = "fill:#000000;font-size:12.0;font-weight:bold;">A13</text>
							</g>
						
 </g> 
 <g transform="rotate(180, 374.12297443487745, 312.7)"> 
 <g transform = "translate(70.14805770653952 81)">
							<polygon fill = "#41fd2f" stroke = "black" stroke-width = "0" fill-opacity = "0"
								points = "	-23.38268590217984,285.7
											0,299.7
											23.38268590217984,285.7
											23.38268590217984,258.7
											0,245.7
											-23.38268590217984,258.7" />
							<text transform = "rotate(-180, 0, 272.7)" text-anchor = "middle" x = "0" y = "272.7" style = "fill:#000000;font-size:12.0;font-weight:bold;"></text>
							</g>
						
 <g transform = "translate(116.9134295108992 81)">
							<polygon fill = "#20c74c" stroke = "black" stroke-width = "1.5" fill-opacity = "1"
								points = "	-23.38268590217984,285.7
											0,299.7
											23.38268590217984,285.7
											23.38268590217984,258.7
											0,245.7
											-23.38268590217984,258.7" />
							<text transform = "rotate(-180, 0, 272.7)" text-anchor = "middle" x = "0" y = "272.7" style = "fill:#000000;font-size:12.0;font-weight:bold;">A40E6</text>
							</g>
						
 <g transform = "translate(163.6788013152589 81)">
							<polygon fill = "#6b65ea" stroke = "black" stroke-width = "1.5" fill-opacity = "1"
								points = "	-23.38268590217984,285.7
											0,299.7
											23.38268590217984,285.7
											23.38268590217984,258.7
											0,245.7
											-23.38268590217984,258.7" />
							<text transform = "rotate(-180, 0, 272.7)" text-anchor = "middle" x = "0" y = "272.7" style = "fill:#000000;font-size:12.0;font-weight:bold;">A20</text>
							</g>
						
 <g transform = "translate(210.44417311961857 81)">
							<polygon fill = "#41fd2f" stroke = "black" stroke-width = "0" fill-opacity = "0"
								points = "	-23.38268590217984,285.7
											0,299.7
											23.38268590217984,285.7
											23.38268590217984,258.7
											0,245.7
											-23.38268590217984,258.7" />
							<text transform = "rotate(-180, 0, 272.7)" text-anchor = "middle" x = "0" y = "272.7" style = "fill:#000000;font-size:12.0;font-weight:bold;"></text>
							</g>
						
 <g transform = "translate(257.2095449239782 81)">
							<polygon fill = "#851a97" stroke = "black" stroke-width = "1.5" fill-opacity = "1"
								points = "	-23.38268590217984,285.7
											0,299.7
											23.38268590217984,285.7
											23.38268590217984,258.7
											0,245.7
											-23.38268590217984,258.7" />
							<text transform = "rotate(-180, 0, 272.7)" text-anchor = "middle" x = "0" y = "272.7" style = "fill:#000000;font-size:12.0;font-weight:bold;">A30E9</text>
							</g>
						
 <g transform = "translate(303.974916728338 81)">
							<polygon fill = "#622642" stroke = "black" stroke-width = "1.5" fill-opacity = "1"
								points = "	-23.38268590217984,285.7
											0,299.7
											23.38268590217984,285.7
											23.38268590217984,258.7
											0,245.7
											-23.38268590217984,258.7" />
							<text transform = "rotate(-180, 0, 272.7)" text-anchor = "middle" x = "0" y = "272.7" style = "fill:#000000;font-size:12.0;font-weight:bold;">A13</text>
							</g>
						
 </g> 
 <g transform="rotate(240, 374.12297443487745, 312.7)"> 
 <g transform = "translate(70.14805770653952 81)">
							<polygon fill = "#41fd2f" stroke = "black" stroke-width = "0" fill-opacity = "0"
								points = "	-23.38268590217984,285.7
											0,299.7
											23.38268590217984,285.7
											23.38268590217984,258.7
											0,245.7
											-23.38268590217984,258.7" />
							<text transform = "rotate(-240, 0, 272.7)" text-anchor = "middle" x = "0" y = "272.7" style = "fill:#000000;font-size:12.0;font-weight:bold;"></text>
							</g>
						
 <g transform = "translate(116.9134295108992 81)">
							<polygon fill = "#20c74c" stroke = "black" stroke-width = "1.5" fill-opacity = "1"
								points = "	-23.38268590217984,285.7
											0,299.7
											23.38268590217984,285.7
											23.38268590217984,258.7
											0,245.7
											-23.38268590217984,258.7" />
							<text transform = "rotate(-240, 0, 272.7)" text-anchor = "middle" x = "0" y = "272.7" style = "fill:#000000;font-size:12.0;font-weight:bold;">A40E6</text>
							</g>
						
 <g transform = "translate(163.6788013152589 81)">
							<polygon fill = "#6b65ea" stroke = "black" stroke-width = "1.5" fill-opacity = "1"
								points = "	-23.38268590217984,285.7
											0,299.7
											23.38268590217984,285.7
											23.38268590217984,258.7
											0,245.7
											-23.38268590217984,258.7" />
							<text transform = "rotate(-240, 0, 272.7)" text-anchor = "middle" x = "0" y = "272.7" style = "fill:#000000;font-size:12.0;font-weight:bold;">A20</text>
							</g>
						
 <g transform = "translate(210.44417311961857 81)">
							<polygon fill = "#41fd2f" stroke = "black" stroke-width = "0" fill-opacity = "0"
								points = "	-23.38268590217984,285.7
											0,299.7
											23.38268590217984,285.7
											23.38268590217984,258.7
											0,245.7
											-23.38268590217984,258.7" />
							<text transform = "rotate(-240, 0, 272.7)" text-anchor = "middle" x = "0" y = "272.7" style = "fill:#000000;font-size:12.0;font-weight:bold;"></text>
							</g>
						
 <g transform = "translate(257.2095449239782 81)">
							<polygon fill = "#851a97" stroke = "black" stroke-width = "1.5" fill-opacity = "1"
								points = "	-23.38268590217984,285.7
											0,299.7
											23.38268590217984,285.7
											23.38268590217984,258.7
											0,245.7
											-23.38268590217984,258.7" />
							<text transform = "rotate(-240, 0, 272.7)" text-anchor = "middle" x = "0" y = "272.7" style = "fill:#000000;font-size:12.0;font-weight:bold;">A30E9</text>
							</g>
						
 <g transform = "translate(303.974916728338 81)">
							<polygon fill = "#622642" stroke = "black" stroke-width = "1.5" fill-opacity = "1"
								points = "	-23.38268590217984,285.7
											0,299.7
											23.38268590217984,285.7
											23.38268590217984,258.7
											0,245.7
											-23.38268590217984,258.7" />
							<text transform = "rotate(-240, 0, 272.7)" text-anchor = "middle" x = "0" y = "272.7" style = "fill:#000000;font-size:12.0;font-weight:bold;">A13</text>
							</g>
						
 </g> 
 <g transform="rotate(300, 374.12297443487745, 312.7)"> 
 <g transform = "translate(70.14805770653952 81)">
							<polygon fill = "#41fd2f" stroke = "black" stroke-width = "0" fill-opacity = "0"
								points = "	-23.38268590217984,285.7
											0,299.7
											23.38268590217984,285.7
											23.38268590217984,258.7
											0,245.7
											-23.38268590217984,258.7" />
							<text transform = "rotate(-300, 0, 272.7)" text-anchor = "middle" x = "0" y = "272.7" style = "fill:#000000;font-size:12.0;font-weight:bold;"></text>
							</g>
						
 <g transform = "translate(116.9134295108992 81)">
							<polygon fill = "#20c74c" stroke = "black" stroke-width = "1.5" fill-opacity = "1"
								points = "	-23.38268590217984,285.7
											0,299.7
											23.38268590217984,285.7
											23.38268590217984,258.7
											0,245.7
											-23.38268590217984,258.7" />
							<text transform = "rotate(-300, 0, 272.7)" text-anchor = "middle" x = "0" y = "272.7" style = "fill:#000000;font-size:12.0;font-weight:bold;">A40E6</text>
							</g>
						
 <g transform = "translate(163.6788013152589 81)">
							<polygon fill = "#6b65ea" stroke = "black" stroke-width = "1.5" fill-opacity = "1"
								points = "	-23.38268590217984,285.7
											0,299.7
											23.38268590217984,285.7
											23.38268590217984,258.7
											0,245.7
											-23.38268590217984,258.7" />
							<text transform = "rotate(-300, 0, 272.7)" text-anchor = "middle" x = "0" y = "272.7" style = "fill:#000000;font-size:12.0;font-weight:bold;">A20</text>
							</g>
						
 <g transform = "translate(210.44417311961857 81)">
							<polygon fill = "#41fd2f" stroke = "black" stroke-width = "0" fill-opacity = "0"
								points = "	-23.38268590217984,285.7
											0,299.7
											23.38268590217984,285.7
											23.38268590217984,258.7
											0,245.7
											-23.38268590217984,258.7" />
							<text transform = "rotate(-300, 0, 272.7)" text-anchor = "middle" x = "0" y = "272.7" style = "fill:#000000;font-size:12.0;font-weight:bold;"></text>
							</g>
						
 <g transform = "translate(257.2095449239782 81)">
							<polygon fill = "#851a97" stroke = "black" stroke-width = "1.5" fill-opacity = "1"
								points = "	-23.38268590217984,285.7
											0,299.7
											23.38268590217984,285.7
											23.38268590217984,258.7
											0,245.7
											-23.38268590217984,258.7" />
							<text transform = "rotate(-300, 0, 272.7)" text-anchor = "middle" x = "0" y = "272.7" style = "fill:#000000;font-size:12.0;font-weight:bold;">A30E9</text>
							</g>
						
 <g transform = "translate(303.974916728338 81)">
							<polygon fill = "#622642" stroke = "black" stroke-width = "1.5" fill-opacity = "1"
								points = "	-23.38268590217984,285.7
											0,299.7
											23.38268590217984,285.7
											23.38268590217984,258.7
											0,245.7
											-23.38268590217984,258.7" />
							<text transform = "rotate(-300, 0, 272.7)" text-anchor = "middle" x = "0" y = "272.7" style = "fill:#000000;font-size:12.0;font-weight:bold;">A13</text>
							</g>
						
 </g> 
 <g transform="rotate(0, 374.12297443487745, 312.7)"> 
 <g transform = "translate(93.53074360871936 121)">
							<polygon fill = "#41fd2f" stroke = "black" stroke-width = "0" fill-opacity = "0"
								points = "	-23.38268590217984,285.7
											0,299.7
											23.38268590217984,285.7
											23.38268590217984,258.7
											0,245.7
											-23.38268590217984,258.7" />
							<text transform = "rotate(0, 0, 272.7)" text-anchor = "middle" x = "0" y = "272.7" style = "fill:#000000;font-size:12.0;font-weight:bold;"></text>
							</g>
						
 <g transform = "translate(140.29611541307904 121)">
							<polygon fill = "#e70abc" stroke = "black" stroke-width = "1.5" fill-opacity = "1"
								points = "	-23.38268590217984,285.7
											0,299.7
											23.38268590217984,285.7
											23.38268590217984,258.7
											0,245.7
											-23.38268590217984,258.7" />
							<text transform = "rotate(0, 0, 272.7)" text-anchor = "middle" x = "0" y = "272.7" style = "fill:#000000;font-size:12.0;font-weight:bold;">P40E9</text>
							</g>
						
 <g transform = "translate(187.06148721743875 121)">
							<polygon fill = "#851a97" stroke = "black" stroke-width = "1.5" fill-opacity = "1"
								points = "	-23.38268590217984,285.7
											0,299.7
											23.38268590217984,285.7
											23.38268590217984,258.7
											0,245.7
											-23.38268590217984,258.7" />
							<text transform = "rotate(0, 0, 272.7)" text-anchor = "middle" x = "0" y = "272.7" style = "fill:#000000;font-size:12.0;font-weight:bold;">A30E9</text>
							</g>
						
 <g transform = "translate(233.8268590217984 121)">
							<polygon fill = "#622642" stroke = "black" stroke-width = "1.5" fill-opacity = "1"
								points = "	-23.38268590217984,285.7
											0,299.7
											23.38268590217984,285.7
											23.38268590217984,258.7
											0,245.7
											-23.38268590217984,258.7" />
							<text transform = "rotate(0, 0, 272.7)" text-anchor = "middle" x = "0" y = "272.7" style = "fill:#000000;font-size:12.0;font-weight:bold;">A13</text>
							</g>
						
 <g transform = "translate(280.5922308261581 121)">
							<polygon fill = "#6b65ea" stroke = "black" stroke-width = "1.5" fill-opacity = "1"
								points = "	-23.38268590217984,285.7
											0,299.7
											23.38268590217984,285.7
											23.38268590217984,258.7
											0,245.7
											-23.38268590217984,258.7" />
							<text transform = "rotate(0, 0, 272.7)" text-anchor = "middle" x = "0" y = "272.7" style = "fill:#000000;font-size:12.0;font-weight:bold;">A20</text>
							</g>
						
 </g> 
 <g transform="rotate(60, 374.12297443487745, 312.7)"> 
 <g transform = "translate(93.53074360871936 121)">
							<polygon fill = "#41fd2f" stroke = "black" stroke-width = "0" fill-opacity = "0"
								points = "	-23.38268590217984,285.7
											0,299.7
											23.38268590217984,285.7
											23.38268590217984,258.7
											0,245.7
											-23.38268590217984,258.7" />
							<text transform = "rotate(-60, 0, 272.7)" text-anchor = "middle" x = "0" y = "272.7" style = "fill:#000000;font-size:12.0;font-weight:bold;"></text>
							</g>
						
 <g transform = "translate(140.29611541307904 121)">
							<polygon fill = "#e70abc" stroke = "black" stroke-width = "1.5" fill-opacity = "1"
								points = "	-23.38268590217984,285.7
											0,299.7
											23.38268590217984,285.7
											23.38268590217984,258.7
											0,245.7
											-23.38268590217984,258.7" />
							<text transform = "rotate(-60, 0, 272.7)" text-anchor = "middle" x = "0" y = "272.7" style = "fill:#000000;font-size:12.0;font-weight:bold;">P40E9</text>
							</g>
						
 <g transform = "translate(187.06148721743875 121)">
							<polygon fill = "#851a97" stroke = "black" stroke-width = "1.5" fill-opacity = "1"
								points = "	-23.38268590217984,285.7
											0,299.7
											23.38268590217984,285.7
											23.38268590217984,258.7
											0,245.7
											-23.38268590217984,258.7" />
							<text transform = "rotate(-60, 0, 272.7)" text-anchor = "middle" x = "0" y = "272.7" style = "fill:#000000;font-size:12.0;font-weight:bold;">A30E9</text>
							</g>
						
 <g transform = "translate(233.8268590217984 121)">
							<polygon fill = "#622642" stroke = "black" stroke-width = "1.5" fill-opacity = "1"
								points = "	-23.38268590217984,285.7
											0,299.7
											23.38268590217984,285.7
											23.38268590217984,258.7
											0,245.7
											-23.38268590217984,258.7" />
							<text transform = "rotate(-60, 0, 272.7)" text-anchor = "middle" x = "0" y = "272.7" style = "fill:#000000;font-size:12.0;font-weight:bold;">A13</text>
							</g>
						
 <g transform = "translate(280.5922308261581 121)">
							<polygon fill = "#6b65ea" stroke = "black" stroke-width = "1.5" fill-opacity = "1"
								points = "	-23.38268590217984,285.7
											0,299.7
											23.38268590217984,285.7
											23.38268590217984,258.7
											0,245.7
											-23.38268590217984,258.7" />
							<text transform = "rotate(-60, 0, 272.7)" text-anchor = "middle" x = "0" y = "272.7" style = "fill:#000000;font-size:12.0;font-weight:bold;">A20</text>
							</g>
						
 </g> 
 <g transform="rotate(120, 374.12297443487745, 312.7)"> 
 <g transform = "translate(93.53074360871936 121)">
							<polygon fill = "#41fd2f" stroke = "black" stroke-width = "0" fill-opacity = "0"
								points = "	-23.38268590217984,285.7
											0,299.7
											23.38268590217984,285.7
											23.38268590217984,258.7
											0,245.7
											-23.38268590217984,258.7" />
							<text transform = "rotate(-120, 0, 272.7)" text-anchor = "middle" x = "0" y = "272.7" style = "fill:#000000;font-size:12.0;font-weight:bold;"></text>
							</g>
						
 <g transform = "translate(140.29611541307904 121)">
							<polygon fill = "#e70abc" stroke = "black" stroke-width = "1.5" fill-opacity = "1"
								points = "	-23.38268590217984,285.7
											0,299.7
											23.38268590217984,285.7
											23.38268590217984,258.7
											0,245.7
											-23.38268590217984,258.7" />
							<text transform = "rotate(-120, 0, 272.7)" text-anchor = "middle" x = "0" y = "272.7" style = "fill:#000000;font-size:12.0;font-weight:bold;">P40E9</text>
							</g>
						
 <g transform = "translate(187.06148721743875 121)">
							<polygon fill = "#851a97" stroke = "black" stroke-width = "1.5" fill-opacity = "1"
								points = "	-23.38268590217984,285.7
											0,299.7
											23.38268590217984,285.7
											23.38268590217984,258.7
											0,245.7
											-23.38268590217984,258.7" />
							<text transform = "rotate(-120, 0, 272.7)" text-anchor = "middle" x = "0" y = "272.7" style = "fill:#000000;font-size:12.0;font-weight:bold;">A30E9</text>
							</g>
						
 <g transform = "translate(233.8268590217984 121)">
							<polygon fill = "#622642" stroke = "black" stroke-width = "1.5" fill-opacity = "1"
								points = "	-23.38268590217984,285.7
											0,299.7
											23.38268590217984,285.7
											23.38268590217984,258.7
											0,245.7
											-23.38268590217984,258.7" />
							<text transform = "rotate(-120, 0, 272.7)" text-anchor = "middle" x = "0" y = "272.7" style = "fill:#000000;font-size:12.0;font-weight:bold;">A13</text>
							</g>
						
 <g transform = "translate(280.5922308261581 121)">
							<polygon fill = "#6b65ea" stroke = "black" stroke-width = "1.5" fill-opacity = "1"
								points = "	-23.38268590217984,285.7
											0,299.7
											23.38268590217984,285.7
											23.38268590217984,258.7
											0,245.7
											-23.38268590217984,258.7" />
							<text transform = "rotate(-120, 0, 272.7)" text-anchor = "middle" x = "0" y = "272.7" style = "fill:#000000;font-size:12.0;font-weight:bold;">A20</text>
							</g>
						
 </g> 
 <g transform="rotate(180, 374.12297443487745, 312.7)"> 
 <g transform = "translate(93.53074360871936 121)">
							<polygon fill = "#41fd2f" stroke = "black" stroke-width = "0" fill-opacity = "0"
								points = "	-23.38268590217984,285.7
											0,299.7
											23.38268590217984,285.7
											23.38268590217984,258.7
											0,245.7
											-23.38268590217984,258.7" />
							<text transform = "rotate(-180, 0, 272.7)" text-anchor = "middle" x = "0" y = "272.7" style = "fill:#000000;font-size:12.0;font-weight:bold;"></text>
							</g>
						
 <g transform = "translate(140.29611541307904 121)">
							<polygon fill = "#e70abc" stroke = "black" stroke-width = "1.5" fill-opacity = "1"
								points = "	-23.38268590217984,285.7
											0,299.7
											23.38268590217984,285.7
											23.38268590217984,258.7
											0,245.7
											-23.38268590217984,258.7" />
							<text transform = "rotate(-180, 0, 272.7)" text-anchor = "middle" x = "0" y = "272.7" style = "fill:#000000;font-size:12.0;font-weight:bold;">P40E9</text>
							</g>
						
 <g transform = "translate(187.06148721743875 121)">
							<polygon fill = "#851a97" stroke = "black" stroke-width = "1.5" fill-opacity = "1"
								points = "	-23.38268590217984,285.7
											0,299.7
											23.38268590217984,285.7
											23.38268590217984,258.7
											0,245.7
											-23.38268590217984,258.7" />
							<text transform = "rotate(-180, 0, 272.7)" text-anchor = "middle" x = "0" y = "272.7" style = "fill:#000000;font-size:12.0;font-weight:bold;">A30E9</text>
							</g>
						
 <g transform = "translate(233.8268590217984 121)">
							<polygon fill = "#622642" stroke = "black" stroke-width = "1.5" fill-opacity = "1"
								points = "	-23.38268590217984,285.7
											0,299.7
											23.38268590217984,285.7
											23.38268590217984,258.7
											0,245.7
											-23.38268590217984,258.7" />
							<text transform = "rotate(-180, 0, 272.7)" text-anchor = "middle" x = "0" y = "272.7" style = "fill:#000000;font-size:12.0;font-weight:bold;">A13</text>
							</g>
						
 <g transform = "translate(280.5922308261581 121)">
							<polygon fill = "#6b65ea" stroke = "black" stroke-width = "1.5" fill-opacity = "1"
								points = "	-23.38268590217984,285.7
											0,299.7
											23.38268590217984,285.7
											23.38268590217984,258.7
											0,245.7
											-23.38268590217984,258.7" />
							<text transform = "rotate(-180, 0, 272.7)" text-anchor = "middle" x = "0" y = "272.7" style = "fill:#000000;font-size:12.0;font-weight:bold;">A20</text>
							</g>
						
 </g> 
 <g transform="rotate(240, 374.12297443487745, 312.7)"> 
 <g transform = "translate(93.53074360871936 121)">
							<polygon fill = "#41fd2f" stroke = "black" stroke-width = "0" fill-opacity = "0"
								points = "	-23.38268590217984,285.7
											0,299.7
											23.38268590217984,285.7
											23.38268590217984,258.7
											0,245.7
											-23.38268590217984,258.7" />
							<text transform = "rotate(-240, 0, 272.7)" text-anchor = "middle" x = "0" y = "272.7" style = "fill:#000000;font-size:12.0;font-weight:bold;"></text>
							</g>
						
 <g transform = "translate(140.29611541307904 121)">
							<polygon fill = "#e70abc" stroke = "black" stroke-width = "1.5" fill-opacity = "1"
								points = "	-23.38268590217984,285.7
											0,299.7
											23.38268590217984,285.7
											23.38268590217984,258.7
											0,245.7
											-23.38268590217984,258.7" />
							<text transform = "rotate(-240, 0, 272.7)" text-anchor = "middle" x = "0" y = "272.7" style = "fill:#000000;font-size:12.0;font-weight:bold;">P40E9</text>
							</g>
						
 <g transform = "translate(187.06148721743875 121)">
							<polygon fill = "#851a97" stroke = "black" stroke-width = "1.5" fill-opacity = "1"
								points = "	-23.38268590217984,285.7
											0,299.7
											23.38268590217984,285.7
											23.38268590217984,258.7
											0,245.7
											-23.38268590217984,258.7" />
							<text transform = "rotate(-240, 0, 272.7)" text-anchor = "middle" x = "0" y = "272.7" style = "fill:#000000;font-size:12.0;font-weight:bold;">A30E9</text>
							</g>
						
 <g transform = "translate(233.8268590217984 121)">
							<polygon fill = "#622642" stroke = "black" stroke-width = "1.5" fill-opacity = "1"
								points = "	-23.38268590217984,285.7
											0,299.7
											23.38268590217984,285.7
											23.38268590217984,258.7
											0,245.7
											-23.38268590217984,258.7" />
							<text transform = "rotate(-240, 0, 272.7)" text-anchor = "middle" x = "0" y = "272.7" style = "fill:#000000;font-size:12.0;font-weight:bold;">A13</text>
							</g>
						
 <g transform = "translate(280.5922308261581 121)">
							<polygon fill = "#6b65ea" stroke = "black" stroke-width = "1.5" fill-opacity = "1"
								points = "	-23.38268590217984,285.7
											0,299.7
											23.38268590217984,285.7
											23.38268590217984,258.7
											0,245.7
											-23.38268590217984,258.7" />
							<text transform = "rotate(-240, 0, 272.7)" text-anchor = "middle" x = "0" y = "272.7" style = "fill:#000000;font-size:12.0;font-weight:bold;">A20</text>
							</g>
						
 </g> 
 <g transform="rotate(300, 374.12297443487745, 312.7)"> 
 <g transform = "translate(93.53074360871936 121)">
							<polygon fill = "#41fd2f" stroke = "black" stroke-width = "0" fill-opacity = "0"
								points = "	-23.38268590217984,285.7
											0,299.7
											23.38268590217984,285.7
											23.38268590217984,258.7
											0,245.7
											-23.38268590217984,258.7" />
							<text transform = "rotate(-300, 0, 272.7)" text-anchor = "middle" x = "0" y = "272.7" style = "fill:#000000;font-size:12.0;font-weight:bold;"></text>
							</g>
						
 <g transform = "translate(140.29611541307904 121)">
							<polygon fill = "#e70abc" stroke = "black" stroke-width = "1.5" fill-opacity = "1"
								points = "	-23.38268590217984,285.7
											0,299.7
											23.38268590217984,285.7
											23.38268590217984,258.7
											0,245.7
											-23.38268590217984,258.7" />
							<text transform = "rotate(-300, 0, 272.7)" text-anchor = "middle" x = "0" y = "272.7" style = "fill:#000000;font-size:12.0;font-weight:bold;">P40E9</text>
							</g>
						
 <g transform = "translate(187.06148721743875 121)">
							<polygon fill = "#851a97" stroke = "black" stroke-width = "1.5" fill-opacity = "1"
								points = "	-23.38268590217984,285.7
											0,299.7
											23.38268590217984,285.7
											23.38268590217984,258.7
											0,245.7
											-23.38268590217984,258.7" />
							<text transform = "rotate(-300, 0, 272.7)" text-anchor = "middle" x = "0" y = "272.7" style = "fill:#000000;font-size:12.0;font-weight:bold;">A30E9</text>
							</g>
						
 <g transform = "translate(233.8268590217984 121)">
							<polygon fill = "#622642" stroke = "black" stroke-width = "1.5" fill-opacity = "1"
								points = "	-23.38268590217984,285.7
											0,299.7
											23.38268590217984,285.7
											23.38268590217984,258.7
											0,245.7
											-23.38268590217984,258.7" />
							<text transform = "rotate(-300, 0, 272.7)" text-anchor = "middle" x = "0" y = "272.7" style = "fill:#000000;font-size:12.0;font-weight:bold;">A13</text>
							</g>
						
 <g transform = "translate(280.5922308261581 121)">
							<polygon fill = "#6b65ea" stroke = "black" stroke-width = "1.5" fill-opacity = "1"
								points = "	-23.38268590217984,285.7
											0,299.7
											23.38268590217984,285.7
											23.38268590217984,258.7
											0,245.7
											-23.38268590217984,258.7" />
							<text transform = "rotate(-300, 0, 272.7)" text-anchor = "middle" x = "0" y = "272.7" style = "fill:#000000;font-size:12.0;font-weight:bold;">A20</text>
							</g>
						
 </g> 
 <g transform="rotate(0, 374.12297443487745, 312.7)"> 
 <g transform = "translate(116.91342951089922 162)">
							<polygon fill = "#41fd2f" stroke = "black" stroke-width = "0" fill-opacity = "0"
								points = "	-23.38268590217984,285.7
											0,299.7
											23.38268590217984,285.7
											23.38268590217984,258.7
											0,245.7
											-23.38268590217984,258.7" />
							<text transform = "rotate(0, 0, 272.7)" text-anchor = "middle" x = "0" y = "272.7" style = "fill:#000000;font-size:12.0;font-weight:bold;"></text>
							</g>
						
 <g transform = "translate(163.6788013152589 162)">
							<polygon fill = "#232506" stroke = "black" stroke-width = "1.5" fill-opacity = "1"
								points = "	-23.38268590217984,285.7
											0,299.7
											23.38268590217984,285.7
											23.38268590217984,258.7
											0,245.7
											-23.38268590217984,258.7" />
							<text transform = "rotate(0, 0, 272.7)" text-anchor = "middle" x = "0" y = "272.7" style = "fill:#000000;font-size:12.0;font-weight:bold;">P36E9</text>
							</g>
						
 <g transform = "translate(210.4441731196186 162)">
							<polygon fill = "#6b65ea" stroke = "black" stroke-width = "1.5" fill-opacity = "1"
								points = "	-23.38268590217984,285.7
											0,299.7
											23.38268590217984,285.7
											23.38268590217984,258.7
											0,245.7
											-23.38268590217984,258.7" />
							<text transform = "rotate(0, 0, 272.7)" text-anchor = "middle" x = "0" y = "272.7" style = "fill:#000000;font-size:12.0;font-weight:bold;">A20</text>
							</g>
						
 <g transform = "translate(257.2095449239782 162)">
							<polygon fill = "#622642" stroke = "black" stroke-width = "1.5" fill-opacity = "1"
								points = "	-23.38268590217984,285.7
											0,299.7
											23.38268590217984,285.7
											23.38268590217984,258.7
											0,245.7
											-23.38268590217984,258.7" />
							<text transform = "rotate(0, 0, 272.7)" text-anchor = "middle" x = "0" y = "272.7" style = "fill:#000000;font-size:12.0;font-weight:bold;">A13</text>
							</g>
						
 </g> 
 <g transform="rotate(60, 374.12297443487745, 312.7)"> 
 <g transform = "translate(116.91342951089922 162)">
							<polygon fill = "#41fd2f" stroke = "black" stroke-width = "0" fill-opacity = "0"
								points = "	-23.38268590217984,285.7
											0,299.7
											23.38268590217984,285.7
											23.38268590217984,258.7
											0,245.7
											-23.38268590217984,258.7" />
							<text transform = "rotate(-60, 0, 272.7)" text-anchor = "middle" x = "0" y = "272.7" style = "fill:#000000;font-size:12.0;font-weight:bold;"></text>
							</g>
						
 <g transform = "translate(163.6788013152589 162)">
							<polygon fill = "#232506" stroke = "black" stroke-width = "1.5" fill-opacity = "1"
								points = "	-23.38268590217984,285.7
											0,299.7
											23.38268590217984,285.7
											23.38268590217984,258.7
											0,245.7
											-23.38268590217984,258.7" />
							<text transform = "rotate(-60, 0, 272.7)" text-anchor = "middle" x = "0" y = "272.7" style = "fill:#000000;font-size:12.0;font-weight:bold;">P36E9</text>
							</g>
						
 <g transform = "translate(210.4441731196186 162)">
							<polygon fill = "#6b65ea" stroke = "black" stroke-width = "1.5" fill-opacity = "1"
								points = "	-23.38268590217984,285.7
											0,299.7
											23.38268590217984,285.7
											23.38268590217984,258.7
											0,245.7
											-23.38268590217984,258.7" />
							<text transform = "rotate(-60, 0, 272.7)" text-anchor = "middle" x = "0" y = "272.7" style = "fill:#000000;font-size:12.0;font-weight:bold;">A20</text>
							</g>
						
 <g transform = "translate(257.2095449239782 162)">
							<polygon fill = "#622642" stroke = "black" stroke-width = "1.5" fill-opacity = "1"
								points = "	-23.38268590217984,285.7
											0,299.7
											23.38268590217984,285.7
											23.38268590217984,258.7
											0,245.7
											-23.38268590217984,258.7" />
							<text transform = "rotate(-60, 0, 272.7)" text-anchor = "middle" x = "0" y = "272.7" style = "fill:#000000;font-size:12.0;font-weight:bold;">A13</text>
							</g>
						
 </g> 
 <g transform="rotate(120, 374.12297443487745, 312.7)"> 
 <g transform = "translate(116.91342951089922 162)">
							<polygon fill = "#41fd2f" stroke = "black" stroke-width = "0" fill-opacity = "0"
								points = "	-23.38268590217984,285.7
											0,299.7
											23.38268590217984,285.7
											23.38268590217984,258.7
											0,245.7
											-23.38268590217984,258.7" />
							<text transform = "rotate(-120, 0, 272.7)" text-anchor = "middle" x = "0" y = "272.7" style = "fill:#000000;font-size:12.0;font-weight:bold;"></text>
							</g>
						
 <g transform = "translate(163.6788013152589 162)">
							<polygon fill = "#232506" stroke = "black" stroke-width = "1.5" fill-opacity = "1"
								points = "	-23.38268590217984,285.7
											0,299.7
											23.38268590217984,285.7
											23.38268590217984,258.7
											0,245.7
											-23.38268590217984,258.7" />
							<text transform = "rotate(-120, 0, 272.7)" text-anchor = "middle" x = "0" y = "272.7" style = "fill:#000000;font-size:12.0;font-weight:bold;">P36E9</text>
							</g>
						
 <g transform = "translate(210.4441731196186 162)">
							<polygon fill = "#6b65ea" stroke = "black" stroke-width = "1.5" fill-opacity = "1"
								points = "	-23.38268590217984,285.7
											0,299.7
											23.38268590217984,285.7
											23.38268590217984,258.7
											0,245.7
											-23.38268590217984,258.7" />
							<text transform = "rotate(-120, 0, 272.7)" text-anchor = "middle" x = "0" y = "272.7" style = "fill:#000000;font-size:12.0;font-weight:bold;">A20</text>
							</g>
						
 <g transform = "translate(257.2095449239782 162)">
							<polygon fill = "#622642" stroke = "black" stroke-width = "1.5" fill-opacity = "1"
								points = "	-23.38268590217984,285.7
											0,299.7
											23.38268590217984,285.7
											23.38268590217984,258.7
											0,245.7
											-23.38268590217984,258.7" />
							<text transform = "rotate(-120, 0, 272.7)" text-anchor = "middle" x = "0" y = "272.7" style = "fill:#000000;font-size:12.0;font-weight:bold;">A13</text>
							</g>
						
 </g> 
 <g transform="rotate(180, 374.12297443487745, 312.7)"> 
 <g transform = "translate(116.91342951089922 162)">
							<polygon fill = "#41fd2f" stroke = "black" stroke-width = "0" fill-opacity = "0"
								points = "	-23.38268590217984,285.7
											0,299.7
											23.38268590217984,285.7
											23.38268590217984,258.7
											0,245.7
											-23.38268590217984,258.7" />
							<text transform = "rotate(-180, 0, 272.7)" text-anchor = "middle" x = "0" y = "272.7" style = "fill:#000000;font-size:12.0;font-weight:bold;"></text>
							</g>
						
 <g transform = "translate(163.6788013152589 162)">
							<polygon fill = "#232506" stroke = "black" stroke-width = "1.5" fill-opacity = "1"
								points = "	-23.38268590217984,285.7
											0,299.7
											23.38268590217984,285.7
											23.38268590217984,258.7
											0,245.7
											-23.38268590217984,258.7" />
							<text transform = "rotate(-180, 0, 272.7)" text-anchor = "middle" x = "0" y = "272.7" style = "fill:#000000;font-size:12.0;font-weight:bold;">P36E9</text>
							</g>
						
 <g transform = "translate(210.4441731196186 162)">
							<polygon fill = "#6b65ea" stroke = "black" stroke-width = "1.5" fill-opacity = "1"
								points = "	-23.38268590217984,285.7
											0,299.7
											23.38268590217984,285.7
											23.38268590217984,258.7
											0,245.7
											-23.38268590217984,258.7" />
							<text transform = "rotate(-180, 0, 272.7)" text-anchor = "middle" x = "0" y = "272.7" style = "fill:#000000;font-size:12.0;font-weight:bold;">A20</text>
							</g>
						
 <g transform = "translate(257.2095449239782 162)">
							<polygon fill = "#622642" stroke = "black" stroke-width = "1.5" fill-opacity = "1"
								points = "	-23.38268590217984,285.7
											0,299.7
											23.38268590217984,285.7
											23.38268590217984,258.7
											0,245.7
											-23.38268590217984,258.7" />
							<text transform = "rotate(-180, 0, 272.7)" text-anchor = "middle" x = "0" y = "272.7" style = "fill:#000000;font-size:12.0;font-weight:bold;">A13</text>
							</g>
						
 </g> 
 <g transform="rotate(240, 374.12297443487745, 312.7)"> 
 <g transform = "translate(116.91342951089922 162)">
							<polygon fill = "#41fd2f" stroke = "black" stroke-width = "0" fill-opacity = "0"
								points = "	-23.38268590217984,285.7
											0,299.7
											23.38268590217984,285.7
											23.38268590217984,258.7
											0,245.7
											-23.38268590217984,258.7" />
							<text transform = "rotate(-240, 0, 272.7)" text-anchor = "middle" x = "0" y = "272.7" style = "fill:#000000;font-size:12.0;font-weight:bold;"></text>
							</g>
						
 <g transform = "translate(163.6788013152589 162)">
							<polygon fill = "#232506" stroke = "black" stroke-width = "1.5" fill-opacity = "1"
								points = "	-23.38268590217984,285.7
											0,299.7
											23.38268590217984,285.7
											23.38268590217984,258.7
											0,245.7
											-23.38268590217984,258.7" />
							<text transform = "rotate(-240, 0, 272.7)" text-anchor = "middle" x = "0" y = "272.7" style = "fill:#000000;font-size:12.0;font-weight:bold;">P36E9</text>
							</g>
						
 <g transform = "translate(210.4441731196186 162)">
							<polygon fill = "#6b65ea" stroke = "black" stroke-width = "1.5" fill-opacity = "1"
								points = "	-23.38268590217984,285.7
											0,299.7
											23.38268590217984,285.7
											23.38268590217984,258.7
											0,245.7
											-23.38268590217984,258.7" />
							<text transform = "rotate(-240, 0, 272.7)" text-anchor = "middle" x = "0" y = "272.7" style = "fill:#000000;font-size:12.0;font-weight:bold;">A20</text>
							</g>
						
 <g transform = "translate(257.2095449239782 162)">
							<polygon fill = "#622642" stroke = "black" stroke-width = "1.5" fill-opacity = "1"
								points = "	-23.38268590217984,285.7
											0,299.7
											23.38268590217984,285.7
											23.38268590217984,258.7
											0,245.7
											-23.38268590217984,258.7" />
							<text transform = "rotate(-240, 0, 272.7)" text-anchor = "middle" x = "0" y = "272.7" style = "fill:#000000;font-size:12.0;font-weight:bold;">A13</text>
							</g>
						
 </g> 
 <g transform="rotate(300, 374.12297443487745, 312.7)"> 
 <g transform = "translate(116.91342951089922 162)">
							<polygon fill = "#41fd2f" stroke = "black" stroke-width = "0" fill-opacity = "0"
								points = "	-23.38268590217984,285.7
											0,299.7
											23.38268590217984,285.7
											23.38268590217984,258.7
											0,245.7
											-23.38268590217984,258.7" />
							<text transform = "rotate(-300, 0, 272.7)" text-anchor = "middle" x = "0" y = "272.7" style = "fill:#000000;font-size:12.0;font-weight:bold;"></text>
							</g>
						
 <g transform = "translate(163.6788013152589 162)">
							<polygon fill = "#232506" stroke = "black" stroke-width = "1.5" fill-opacity = "1"
								points = "	-23.38268590217984,285.7
											0,299.7
											23.38268590217984,285.7
											23.38268590217984,258.7
											0,245.7
											-23.38268590217984,258.7" />
							<text transform = "rotate(-300, 0, 272.7)" text-anchor = "middle" x = "0" y = "272.7" style = "fill:#000000;font-size:12.0;font-weight:bold;">P36E9</text>
							</g>
						
 <g transform = "translate(210.4441731196186 162)">
							<polygon fill = "#6b65ea" stroke = "black" stroke-width = "1.5" fill-opacity = "1"
								points = "	-23.38268590217984,285.7
											0,299.7
											23.38268590217984,285.7
											23.38268590217984,258.7
											0,245.7
											-23.38268590217984,258.7" />
							<text transform = "rotate(-300, 0, 272.7)" text-anchor = "middle" x = "0" y = "272.7" style = "fill:#000000;font-size:12.0;font-weight:bold;">A20</text>
							</g>
						
 <g transform = "translate(257.2095449239782 162)">
							<polygon fill = "#622642" stroke = "black" stroke-width = "1.5" fill-opacity = "1"
								points = "	-23.38268590217984,285.7
											0,299.7
											23.38268590217984,285.7
											23.38268590217984,258.7
											0,245.7
											-23.38268590217984,258.7" />
							<text transform = "rotate(-300, 0, 272.7)" text-anchor = "middle" x = "0" y = "272.7" style = "fill:#000000;font-size:12.0;font-weight:bold;">A13</text>
							</g>
						
 </g> 
 <g transform="rotate(0, 374.12297443487745, 312.7)"> 
 <g transform = "translate(140.29611541307904 202)">
							<polygon fill = "#41fd2f" stroke = "black" stroke-width = "0" fill-opacity = "0"
								points = "	-23.38268590217984,285.7
											0,299.7
											23.38268590217984,285.7
											23.38268590217984,258.7
											0,245.7
											-23.38268590217984,258.7" />
							<text transform = "rotate(0, 0, 272.7)" text-anchor = "middle" x = "0" y = "272.7" style = "fill:#000000;font-size:12.0;font-weight:bold;"></text>
							</g>
						
 <g transform = "translate(187.06148721743872 202)">
							<polygon fill = "#232506" stroke = "black" stroke-width = "1.5" fill-opacity = "1"
								points = "	-23.38268590217984,285.7
											0,299.7
											23.38268590217984,285.7
											23.38268590217984,258.7
											0,245.7
											-23.38268590217984,258.7" />
							<text transform = "rotate(0, 0, 272.7)" text-anchor = "middle" x = "0" y = "272.7" style = "fill:#000000;font-size:12.0;font-weight:bold;">P36E9</text>
							</g>
						
 <g transform = "translate(233.82685902179844 202)">
							<polygon fill = "#851a97" stroke = "black" stroke-width = "1.5" fill-opacity = "1"
								points = "	-23.38268590217984,285.7
											0,299.7
											23.38268590217984,285.7
											23.38268590217984,258.7
											0,245.7
											-23.38268590217984,258.7" />
							<text transform = "rotate(0, 0, 272.7)" text-anchor = "middle" x = "0" y = "272.7" style = "fill:#000000;font-size:12.0;font-weight:bold;">A30E9</text>
							</g>
						
 </g> 
 <g transform="rotate(60, 374.12297443487745, 312.7)"> 
 <g transform = "translate(140.29611541307904 202)">
							<polygon fill = "#41fd2f" stroke = "black" stroke-width = "0" fill-opacity = "0"
								points = "	-23.38268590217984,285.7
											0,299.7
											23.38268590217984,285.7
											23.38268590217984,258.7
											0,245.7
											-23.38268590217984,258.7" />
							<text transform = "rotate(-60, 0, 272.7)" text-anchor = "middle" x = "0" y = "272.7" style = "fill:#000000;font-size:12.0;font-weight:bold;"></text>
							</g>
						
 <g transform = "translate(187.06148721743872 202)">
							<polygon fill = "#232506" stroke = "black" stroke-width = "1.5" fill-opacity = "1"
								points = "	-23.38268590217984,285.7
											0,299.7
											23.38268590217984,285.7
											23.38268590217984,258.7
											0,245.7
											-23.38268590217984,258.7" />
							<text transform = "rotate(-60, 0, 272.7)" text-anchor = "middle" x = "0" y = "272.7" style = "fill:#000000;font-size:12.0;font-weight:bold;">P36E9</text>
							</g>
						
 <g transform = "translate(233.82685902179844 202)">
							<polygon fill = "#851a97" stroke = "black" stroke-width = "1.5" fill-opacity = "1"
								points = "	-23.38268590217984,285.7
											0,299.7
											23.38268590217984,285.7
											23.38268590217984,258.7
											0,245.7
											-23.38268590217984,258.7" />
							<text transform = "rotate(-60, 0, 272.7)" text-anchor = "middle" x = "0" y = "272.7" style = "fill:#000000;font-size:12.0;font-weight:bold;">A30E9</text>
							</g>
						
 </g> 
 <g transform="rotate(120, 374.12297443487745, 312.7)"> 
 <g transform = "translate(140.29611541307904 202)">
							<polygon fill = "#41fd2f" stroke = "black" stroke-width = "0" fill-opacity = "0"
								points = "	-23.38268590217984,285.7
											0,299.7
											23.38268590217984,285.7
											23.38268590217984,258.7
											0,245.7
											-23.38268590217984,258.7" />
							<text transform = "rotate(-120, 0, 272.7)" text-anchor = "middle" x = "0" y = "272.7" style = "fill:#000000;font-size:12.0;font-weight:bold;"></text>
							</g>
						
 <g transform = "translate(187.06148721743872 202)">
							<polygon fill = "#232506" stroke = "black" stroke-width = "1.5" fill-opacity = "1"
								points = "	-23.38268590217984,285.7
											0,299.7
											23.38268590217984,285.7
											23.38268590217984,258.7
											0,245.7
											-23.38268590217984,258.7" />
							<text transform = "rotate(-120, 0, 272.7)" text-anchor = "middle" x = "0" y = "272.7" style = "fill:#000000;font-size:12.0;font-weight:bold;">P36E9</text>
							</g>
						
 <g transform = "translate(233.82685902179844 202)">
							<polygon fill = "#851a97" stroke = "black" stroke-width = "1.5" fill-opacity = "1"
								points = "	-23.38268590217984,285.7
											0,299.7
											23.38268590217984,285.7
											23.38268590217984,258.7
											0,245.7
											-23.38268590217984,258.7" />
							<text transform = "rotate(-120, 0, 272.7)" text-anchor = "middle" x = "0" y = "272.7" style = "fill:#000000;font-size:12.0;font-weight:bold;">A30E9</text>
							</g>
						
 </g> 
 <g transform="rotate(180, 374.12297443487745, 312.7)"> 
 <g transform = "translate(140.29611541307904 202)">
							<polygon fill = "#41fd2f" stroke = "black" stroke-width = "0" fill-opacity = "0"
								points = "	-23.38268590217984,285.7
											0,299.7
											23.38268590217984,285.7
											23.38268590217984,258.7
											0,245.7
											-23.38268590217984,258.7" />
							<text transform = "rotate(-180, 0, 272.7)" text-anchor = "middle" x = "0" y = "272.7" style = "fill:#000000;font-size:12.0;font-weight:bold;"></text>
							</g>
						
 <g transform = "translate(187.06148721743872 202)">
							<polygon fill = "#232506" stroke = "black" stroke-width = "1.5" fill-opacity = "1"
								points = "	-23.38268590217984,285.7
											0,299.7
											23.38268590217984,285.7
											23.38268590217984,258.7
											0,245.7
											-23.38268590217984,258.7" />
							<text transform = "rotate(-180, 0, 272.7)" text-anchor = "middle" x = "0" y = "272.7" style = "fill:#000000;font-size:12.0;font-weight:bold;">P36E9</text>
							</g>
						
 <g transform = "translate(233.82685902179844 202)">
							<polygon fill = "#851a97" stroke = "black" stroke-width = "1.5" fill-opacity = "1"
								points = "	-23.38268590217984,285.7
											0,299.7
											23.38268590217984,285.7
											23.38268590217984,258.7
											0,245.7
											-23.38268590217984,258.7" />
							<text transform = "rotate(-180, 0, 272.7)" text-anchor = "middle" x = "0" y = "272.7" style = "fill:#000000;font-size:12.0;font-weight:bold;">A30E9</text>
							</g>
						
 </g> 
 <g transform="rotate(240, 374.12297443487745, 312.7)"> 
 <g transform = "translate(140.29611541307904 202)">
							<polygon fill = "#41fd2f" stroke = "black" stroke-width = "0" fill-opacity = "0"
								points = "	-23.38268590217984,285.7
											0,299.7
											23.38268590217984,285.7
											23.38268590217984,258.7
											0,245.7
											-23.38268590217984,258.7" />
							<text transform = "rotate(-240, 0, 272.7)" text-anchor = "middle" x = "0" y = "272.7" style = "fill:#000000;font-size:12.0;font-weight:bold;"></text>
							</g>
						
 <g transform = "translate(187.06148721743872 202)">
							<polygon fill = "#232506" stroke = "black" stroke-width = "1.5" fill-opacity = "1"
								points = "	-23.38268590217984,285.7
											0,299.7
											23.38268590217984,285.7
											23.38268590217984,258.7
											0,245.7
											-23.38268590217984,258.7" />
							<text transform = "rotate(-240, 0, 272.7)" text-anchor = "middle" x = "0" y = "272.7" style = "fill:#000000;font-size:12.0;font-weight:bold;">P36E9</text>
							</g>
						
 <g transform = "translate(233.82685902179844 202)">
							<polygon fill = "#851a97" stroke = "black" stroke-width = "1.5" fill-opacity = "1"
								points = "	-23.38268590217984,285.7
											0,299.7
											23.38268590217984,285.7
											23.38268590217984,258.7
											0,245.7
											-23.38268590217984,258.7" />
							<text transform = "rotate(-240, 0, 272.7)" text-anchor = "middle" x = "0" y = "272.7" style = "fill:#000000;font-size:12.0;font-weight:bold;">A30E9</text>
							</g>
						
 </g> 
 <g transform="rotate(300, 374.12297443487745, 312.7)"> 
 <g transform = "translate(140.29611541307904 202)">
							<polygon fill = "#41fd2f" stroke = "black" stroke-width = "0" fill-opacity = "0"
								points = "	-23.38268590217984,285.7
											0,299.7
											23.38268590217984,285.7
											23.38268590217984,258.7
											0,245.7
											-23.38268590217984,258.7" />
							<text transform = "rotate(-300, 0, 272.7)" text-anchor = "middle" x = "0" y = "272.7" style = "fill:#000000;font-size:12.0;font-weight:bold;"></text>
							</g>
						
 <g transform = "translate(187.06148721743872 202)">
							<polygon fill = "#232506" stroke = "black" stroke-width = "1.5" fill-opacity = "1"
								points = "	-23.38268590217984,285.7
											0,299.7
											23.38268590217984,285.7
											23.38268590217984,258.7
											0,245.7
											-23.38268590217984,258.7" />
							<text transform = "rotate(-300, 0, 272.7)" text-anchor = "middle" x = "0" y = "272.7" style = "fill:#000000;font-size:12.0;font-weight:bold;">P36E9</text>
							</g>
						
 <g transform = "translate(233.82685902179844 202)">
							<polygon fill = "#851a97" stroke = "black" stroke-width = "1.5" fill-opacity = "1"
								points = "	-23.38268590217984,285.7
											0,299.7
											23.38268590217984,285.7
											23.38268590217984,258.7
											0,245.7
											-23.38268590217984,258.7" />
							<text transform = "rotate(-300, 0, 272.7)" text-anchor = "middle" x = "0" y = "272.7" style = "fill:#000000;font-size:12.0;font-weight:bold;">A30E9</text>
							</g>
						
 </g> 
 <g transform="rotate(0, 374.12297443487745, 312.7)"> 
 <g transform = "translate(163.67880131525888 243)">
							<polygon fill = "#41fd2f" stroke = "black" stroke-width = "0" fill-opacity = "0"
								points = "	-23.38268590217984,285.7
											0,299.7
											23.38268590217984,285.7
											23.38268590217984,258.7
											0,245.7
											-23.38268590217984,258.7" />
							<text transform = "rotate(0, 0, 272.7)" text-anchor = "middle" x = "0" y = "272.7" style = "fill:#000000;font-size:12.0;font-weight:bold;"></text>
							</g>
						
 <g transform = "translate(210.44417311961857 243)">
							<polygon fill = "#e70abc" stroke = "black" stroke-width = "1.5" fill-opacity = "1"
								points = "	-23.38268590217984,285.7
											0,299.7
											23.38268590217984,285.7
											23.38268590217984,258.7
											0,245.7
											-23.38268590217984,258.7" />
							<text transform = "rotate(0, 0, 272.7)" text-anchor = "middle" x = "0" y = "272.7" style = "fill:#000000;font-size:12.0;font-weight:bold;">P40E9</text>
							</g>
						
 </g> 
 <g transform="rotate(60, 374.12297443487745, 312.7)"> 
 <g transform = "translate(163.67880131525888 243)">
							<polygon fill = "#41fd2f" stroke = "black" stroke-width = "0" fill-opacity = "0"
								points = "	-23.38268590217984,285.7
											0,299.7
											23.38268590217984,285.7
											23.38268590217984,258.7
											0,245.7
											-23.38268590217984,258.7" />
							<text transform = "rotate(-60, 0, 272.7)" text-anchor = "middle" x = "0" y = "272.7" style = "fill:#000000;font-size:12.0;font-weight:bold;"></text>
							</g>
						
 <g transform = "translate(210.44417311961857 243)">
							<polygon fill = "#e70abc" stroke = "black" stroke-width = "1.5" fill-opacity = "1"
								points = "	-23.38268590217984,285.7
											0,299.7
											23.38268590217984,285.7
											23.38268590217984,258.7
											0,245.7
											-23.38268590217984,258.7" />
							<text transform = "rotate(-60, 0, 272.7)" text-anchor = "middle" x = "0" y = "272.7" style = "fill:#000000;font-size:12.0;font-weight:bold;">P40E9</text>
							</g>
						
 </g> 
 <g transform="rotate(120, 374.12297443487745, 312.7)"> 
 <g transform = "translate(163.67880131525888 243)">
							<polygon fill = "#41fd2f" stroke = "black" stroke-width = "0" fill-opacity = "0"
								points = "	-23.38268590217984,285.7
											0,299.7
											23.38268590217984,285.7
											23.38268590217984,258.7
											0,245.7
											-23.38268590217984,258.7" />
							<text transform = "rotate(-120, 0, 272.7)" text-anchor = "middle" x = "0" y = "272.7" style = "fill:#000000;font-size:12.0;font-weight:bold;"></text>
							</g>
						
 <g transform = "translate(210.44417311961857 243)">
							<polygon fill = "#e70abc" stroke = "black" stroke-width = "1.5" fill-opacity = "1"
								points = "	-23.38268590217984,285.7
											0,299.7
											23.38268590217984,285.7
											23.38268590217984,258.7
											0,245.7
											-23.38268590217984,258.7" />
							<text transform = "rotate(-120, 0, 272.7)" text-anchor = "middle" x = "0" y = "272.7" style = "fill:#000000;font-size:12.0;font-weight:bold;">P40E9</text>
							</g>
						
 </g> 
 <g transform="rotate(180, 374.12297443487745, 312.7)"> 
 <g transform = "translate(163.67880131525888 243)">
							<polygon fill = "#41fd2f" stroke = "black" stroke-width = "0" fill-opacity = "0"
								points = "	-23.38268590217984,285.7
											0,299.7
											23.38268590217984,285.7
											23.38268590217984,258.7
											0,245.7
											-23.38268590217984,258.7" />
							<text transform = "rotate(-180, 0, 272.7)" text-anchor = "middle" x = "0" y = "272.7" style = "fill:#000000;font-size:12.0;font-weight:bold;"></text>
							</g>
						
 <g transform = "translate(210.44417311961857 243)">
							<polygon fill = "#e70abc" stroke = "black" stroke-width = "1.5" fill-opacity = "1"
								points = "	-23.38268590217984,285.7
											0,299.7
											23.38268590217984,285.7
											23.38268590217984,258.7
											0,245.7
											-23.38268590217984,258.7" />
							<text transform = "rotate(-180, 0, 272.7)" text-anchor = "middle" x = "0" y = "272.7" style = "fill:#000000;font-size:12.0;font-weight:bold;">P40E9</text>
							</g>
						
 </g> 
 <g transform="rotate(240, 374.12297443487745, 312.7)"> 
 <g transform = "translate(163.67880131525888 243)">
							<polygon fill = "#41fd2f" stroke = "black" stroke-width = "0" fill-opacity = "0"
								points = "	-23.38268590217984,285.7
											0,299.7
											23.38268590217984,285.7
											23.38268590217984,258.7
											0,245.7
											-23.38268590217984,258.7" />
							<text transform = "rotate(-240, 0, 272.7)" text-anchor = "middle" x = "0" y = "272.7" style = "fill:#000000;font-size:12.0;font-weight:bold;"></text>
							</g>
						
 <g transform = "translate(210.44417311961857 243)">
							<polygon fill = "#e70abc" stroke = "black" stroke-width = "1.5" fill-opacity = "1"
								points = "	-23.38268590217984,285.7
											0,299.7
											23.38268590217984,285.7
											23.38268590217984,258.7
											0,245.7
											-23.38268590217984,258.7" />
							<text transform = "rotate(-240, 0, 272.7)" text-anchor = "middle" x = "0" y = "272.7" style = "fill:#000000;font-size:12.0;font-weight:bold;">P40E9</text>
							</g>
						
 </g> 
 <g transform="rotate(300, 374.12297443487745, 312.7)"> 
 <g transform = "translate(163.67880131525888 243)">
							<polygon fill = "#41fd2f" stroke = "black" stroke-width = "0" fill-opacity = "0"
								points = "	-23.38268590217984,285.7
											0,299.7
											23.38268590217984,285.7
											23.38268590217984,258.7
											0,245.7
											-23.38268590217984,258.7" />
							<text transform = "rotate(-300, 0, 272.7)" text-anchor = "middle" x = "0" y = "272.7" style = "fill:#000000;font-size:12.0;font-weight:bold;"></text>
							</g>
						
 <g transform = "translate(210.44417311961857 243)">
							<polygon fill = "#e70abc" stroke = "black" stroke-width = "1.5" fill-opacity = "1"
								points = "	-23.38268590217984,285.7
											0,299.7
											23.38268590217984,285.7
											23.38268590217984,258.7
											0,245.7
											-23.38268590217984,258.7" />
							<text transform = "rotate(-300, 0, 272.7)" text-anchor = "middle" x = "0" y = "272.7" style = "fill:#000000;font-size:12.0;font-weight:bold;">P40E9</text>
							</g>
						
 </g> 
 <g transform="rotate(0, 374.12297443487745, 312.7)"> 
 <g transform = "translate(187.06148721743875 283)">
							<polygon fill = "#41fd2f" stroke = "black" stroke-width = "0" fill-opacity = "0"
								points = "	-23.38268590217984,285.7
											0,299.7
											23.38268590217984,285.7
											23.38268590217984,258.7
											0,245.7
											-23.38268590217984,258.7" />
							<text transform = "rotate(0, 0, 272.7)" text-anchor = "middle" x = "0" y = "272.7" style = "fill:#000000;font-size:12.0;font-weight:bold;"></text>
							</g>
						
 </g> 
 <g transform="rotate(60, 374.12297443487745, 312.7)"> 
 <g transform = "translate(187.06148721743875 283)">
							<polygon fill = "#41fd2f" stroke = "black" stroke-width = "0" fill-opacity = "0"
								points = "	-23.38268590217984,285.7
											0,299.7
											23.38268590217984,285.7
											23.38268590217984,258.7
											0,245.7
											-23.38268590217984,258.7" />
							<text transform = "rotate(-60, 0, 272.7)" text-anchor = "middle" x = "0" y = "272.7" style = "fill:#000000;font-size:12.0;font-weight:bold;"></text>
							</g>
						
 </g> 
 <g transform="rotate(120, 374.12297443487745, 312.7)"> 
 <g transform = "translate(187.06148721743875 283)">
							<polygon fill = "#41fd2f" stroke = "black" stroke-width = "0" fill-opacity = "0"
								points = "	-23.38268590217984,285.7
											0,299.7
											23.38268590217984,285.7
											23.38268590217984,258.7
											0,245.7
											-23.38268590217984,258.7" />
							<text transform = "rotate(-120, 0, 272.7)" text-anchor = "middle" x = "0" y = "272.7" style = "fill:#000000;font-size:12.0;font-weight:bold;"></text>
							</g>
						
 </g> 
 <g transform="rotate(180, 374.12297443487745, 312.7)"> 
 <g transform = "translate(187.06148721743875 283)">
							<polygon fill = "#41fd2f" stroke = "black" stroke-width = "0" fill-opacity = "0"
								points = "	-23.38268590217984,285.7
											0,299.7
											23.38268590217984,285.7
											23.38268590217984,258.7
											0,245.7
											-23.38268590217984,258.7" />
							<text transform = "rotate(-180, 0, 272.7)" text-anchor = "middle" x = "0" y = "272.7" style = "fill:#000000;font-size:12.0;font-weight:bold;"></text>
							</g>
						
 </g> 
 <g transform="rotate(240, 374.12297443487745, 312.7)"> 
 <g transform = "translate(187.06148721743875 283)">
							<polygon fill = "#41fd2f" stroke = "black" stroke-width = "0" fill-opacity = "0"
								points = "	-23.38268590217984,285.7
											0,299.7
											23.38268590217984,285.7
											23.38268590217984,258.7
											0,245.7
											-23.38268590217984,258.7" />
							<text transform = "rotate(-240, 0, 272.7)" text-anchor = "middle" x = "0" y = "272.7" style = "fill:#000000;font-size:12.0;font-weight:bold;"></text>
							</g>
						
 </g> 
 <g transform="rotate(300, 374.12297443487745, 312.7)"> 
 <g transform = "translate(187.06148721743875 283)">
							<polygon fill = "#41fd2f" stroke = "black" stroke-width = "0" fill-opacity = "0"
								points = "	-23.38268590217984,285.7
											0,299.7
											23.38268590217984,285.7
											23.38268590217984,258.7
											0,245.7
											-23.38268590217984,258.7" />
							<text transform = "rotate(-300, 0, 272.7)" text-anchor = "middle" x = "0" y = "272.7" style = "fill:#000000;font-size:12.0;font-weight:bold;"></text>
							</g>
						
 </g> 
</svg>
