<svg width="320" height="320" xmlns="http://www.w3.org/2000/svg" version="1.1">
<rect x="2.0" y="2.0" width="36.0" height="36.0" fill="blue" />
<rect x="2.0" y="42.0" width="36.0" height="36.0" fill="blue" />
<rect x="2.0" y="82.0" width="36.0" height="36.0" fill="blue" />
<rect x="2.0" y="122.0" width="36.0" height="36.0" fill="blue" />
<rect x="2.0" y="162.0" width="36.0" height="36.0" fill="blue" />
<rect x="2.0" y="202.0" width="36.0" height="36.0" fill="blue" />
<rect x="2.0" y="242.0" width="36.0" height="36.0" fill="blue" />
<rect x="2.0" y="282.0" width="36.0" height="36.0" fill="blue" />
<rect x="42.0" y="2.0" width="36.0" height="36.0" fill="blue" />
<rect x="42.0" y="42.0" width="36.0" height="36.0" fill="blue" />
<rect x="42.0" y="82.0" width="36.0" height="36.0" fill="blue" />
<rect x="42.0" y="122.0" width="36.0" height="36.0" fill="red" onclick="$('#chart').show();$('#chart div').hide(); $('#chart_20131117_4').show();"/>
<text x="60.0" y="145.5" text-anchor="middle" onclick="$('#chart').show();$('#chart div').hide(); $('#chart_20131117_4').show();">1,3</text>
<rect x="42.0" y="162.0" width="36.0" height="36.0" fill="blue" />
<rect x="42.0" y="202.0" width="36.0" height="36.0" fill="blue" />
<rect x="42.0" y="242.0" width="36.0" height="36.0" fill="blue" />
<rect x="42.0" y="282.0" width="36.0" height="36.0" fill="red" onclick="$('#chart').show();$('#chart div').hide(); $('#chart_20131117_2').show();"/>
<text x="60.0" y="305.5" text-anchor="middle" onclick="$('#chart').show();$('#chart div').hide(); $('#chart_20131117_2').show();">1,7</text>
<rect x="82.0" y="2.0" width="36.0" height="36.0" fill="red" onclick="$('#chart').show();$('#chart div').hide(); $('#chart_20131117_6').show();"/>
<text x="100.0" y="25.5" text-anchor="middle" onclick="$('#chart').show();$('#chart div').hide(); $('#chart_20131117_6').show();">2,0</text>
<rect x="82.0" y="42.0" width="36.0" height="36.0" fill="blue" />
<rect x="82.0" y="82.0" width="36.0" height="36.0" fill="blue" />
<rect x="82.0" y="122.0" width="36.0" height="36.0" fill="blue" />
<rect x="82.0" y="162.0" width="36.0" height="36.0" fill="blue" />
<rect x="82.0" y="202.0" width="36.0" height="36.0" fill="blue" />
<rect x="82.0" y="242.0" width="36.0" height="36.0" fill="blue" />
<rect x="82.0" y="282.0" width="36.0" height="36.0" fill="blue" />
<rect x="122.0" y="2.0" width="36.0" height="36.0" fill="blue" />
<rect x="122.0" y="42.0" width="36.0" height="36.0" fill="blue" />
<rect x="122.0" y="82.0" width="36.0" height="36.0" fill="blue" />
<rect x="122.0" y="122.0" width="36.0" height="36.0" fill="blue" />
<rect x="122.0" y="162.0" width="36.0" height="36.0" fill="blue" />
<rect x="122.0" y="202.0" width="36.0" height="36.0" fill="blue" />
<rect x="122.0" y="242.0" width="36.0" height="36.0" fill="blue" />
<rect x="122.0" y="282.0" width="36.0" height="36.0" fill="blue" />
<rect x="162.0" y="2.0" width="36.0" height="36.0" fill="blue" />
<rect x="162.0" y="42.0" width="36.0" height="36.0" fill="blue" />
<rect x="162.0" y="82.0" width="36.0" height="36.0" fill="blue" />
<rect x="162.0" y="122.0" width="36.0" height="36.0" fill="blue" />
<rect x="162.0" y="162.0" width="36.0" height="36.0" fill="blue" />
<rect x="162.0" y="202.0" width="36.0" height="36.0" fill="blue" />
<rect x="162.0" y="242.0" width="36.0" height="36.0" fill="blue" />
<rect x="162.0" y="282.0" width="36.0" height="36.0" fill="blue" />
<rect x="202.0" y="2.0" width="36.0" height="36.0" fill="red" onclick="$('#chart').show();$('#chart div').hide(); $('#chart_20131117_1').show();"/>
<text x="220.0" y="25.5" text-anchor="middle" onclick="$('#chart').show();$('#chart div').hide(); $('#chart_20131117_1').show();">5,0</text>
<rect x="202.0" y="42.0" width="36.0" height="36.0" fill="blue" />
<rect x="202.0" y="82.0" width="36.0" height="36.0" fill="red" onclick="$('#chart').show();$('#chart div').hide(); $('#chart_20131117_5').show();"/>
<text x="220.0" y="105.5" text-anchor="middle" onclick="$('#chart').show();$('#chart div').hide(); $('#chart_20131117_5').show();">5,2</text>
<rect x="202.0" y="122.0" width="36.0" height="36.0" fill="blue" />
<rect x="202.0" y="162.0" width="36.0" height="36.0" fill="blue" />
<rect x="202.0" y="202.0" width="36.0" height="36.0" fill="blue" />
<rect x="202.0" y="242.0" width="36.0" height="36.0" fill="blue" />
<rect x="202.0" y="282.0" width="36.0" height="36.0" fill="blue" />
<rect x="242.0" y="2.0" width="36.0" height="36.0" fill="blue" />
<rect x="242.0" y="42.0" width="36.0" height="36.0" fill="red" onclick="$('#chart').show();$('#chart div').hide(); $('#chart_20131117_3').show();"/>
<text x="260.0" y="65.5" text-anchor="middle" onclick="$('#chart').show();$('#chart div').hide(); $('#chart_20131117_3').show();">6,1</text>
<rect x="242.0" y="82.0" width="36.0" height="36.0" fill="blue" />
<rect x="242.0" y="122.0" width="36.0" height="36.0" fill="blue" />
<rect x="242.0" y="162.0" width="36.0" height="36.0" fill="blue" />
<rect x="242.0" y="202.0" width="36.0" height="36.0" fill="blue" />
<rect x="242.0" y="242.0" width="36.0" height="36.0" fill="blue" />
<rect x="242.0" y="282.0" width="36.0" height="36.0" fill="blue" />
<rect x="282.0" y="2.0" width="36.0" height="36.0" fill="blue" />
<rect x="282.0" y="42.0" width="36.0" height="36.0" fill="blue" />
<rect x="282.0" y="82.0" width="36.0" height="36.0" fill="blue" />
<rect x="282.0" y="122.0" width="36.0" height="36.0" fill="blue" />
<rect x="282.0" y="162.0" width="36.0" height="36.0" fill="blue" />
<rect x="282.0" y="202.0" width="36.0" height="36.0" fill="blue" />
<rect x="282.0" y="242.0" width="36.0" height="36.0" fill="blue" />
<rect x="282.0" y="282.0" width="36.0" height="36.0" fill="blue" />
</svg>
