<svg width="320" height="320" xmlns="http://www.w3.org/2000/svg" version="1.1">"
<rect x="1" y="1" width="38" height="38" fill="red"/>
<text x="20" y="30" font-size="20" text-anchor="middle" fill="white">1,1</text>
<rect x="1" y="41" width="38" height="38" fill="blue"/>
<text x="20" y="70" font-size="20" text-anchor="middle" fill="white">1,2</text>
<rect x="1" y="81" width="38" height="38" fill="red"/>
<text x="20" y="110" font-size="20" text-anchor="middle" fill="white">1,3</text>
<rect x="1" y="121" width="38" height="38" fill="blue"/>
<text x="20" y="150" font-size="20" text-anchor="middle" fill="white">1,4</text>
<rect x="1" y="161" width="38" height="38" fill="red"/>
<text x="20" y="190" font-size="20" text-anchor="middle" fill="white">1,5</text>
<rect x="1" y="201" width="38" height="38" fill="blue"/>
<text x="20" y="230" font-size="20" text-anchor="middle" fill="white">1,6</text>
<rect x="1" y="241" width="38" height="38" fill="red"/>
<text x="20" y="270" font-size="20" text-anchor="middle" fill="white">1,7</text>
<rect x="1" y="281" width="38" height="38" fill="blue"/>
<text x="20" y="310" font-size="20" text-anchor="middle" fill="white">1,8</text>
<rect x="41" y="1" width="38" height="38" fill="blue"/>
<text x="60" y="30" font-size="20" text-anchor="middle" fill="white">2,1</text>
<rect x="41" y="41" width="38" height="38" fill="red"/>
<text x="60" y="70" font-size="20" text-anchor="middle" fill="white">2,2</text>
<rect x="41" y="81" width="38" height="38" fill="blue"/>
<text x="60" y="110" font-size="20" text-anchor="middle" fill="white">2,3</text>
<rect x="41" y="121" width="38" height="38" fill="red"/>
<text x="60" y="150" font-size="20" text-anchor="middle" fill="white">2,4</text>
<rect x="41" y="161" width="38" height="38" fill="blue"/>
<text x="60" y="190" font-size="20" text-anchor="middle" fill="white">2,5</text>
<rect x="41" y="201" width="38" height="38" fill="red"/>
<text x="60" y="230" font-size="20" text-anchor="middle" fill="white">2,6</text>
<rect x="41" y="241" width="38" height="38" fill="blue"/>
<text x="60" y="270" font-size="20" text-anchor="middle" fill="white">2,7</text>
<rect x="41" y="281" width="38" height="38" fill="red"/>
<text x="60" y="310" font-size="20" text-anchor="middle" fill="white">2,8</text>
<rect x="81" y="1" width="38" height="38" fill="red"/>
<text x="100" y="30" font-size="20" text-anchor="middle" fill="white">3,1</text>
<rect x="81" y="41" width="38" height="38" fill="blue"/>
<text x="100" y="70" font-size="20" text-anchor="middle" fill="white">3,2</text>
<rect x="81" y="81" width="38" height="38" fill="red"/>
<text x="100" y="110" font-size="20" text-anchor="middle" fill="white">3,3</text>
<rect x="81" y="121" width="38" height="38" fill="blue"/>
<text x="100" y="150" font-size="20" text-anchor="middle" fill="white">3,4</text>
<rect x="81" y="161" width="38" height="38" fill="red"/>
<text x="100" y="190" font-size="20" text-anchor="middle" fill="white">3,5</text>
<rect x="81" y="201" width="38" height="38" fill="blue"/>
<text x="100" y="230" font-size="20" text-anchor="middle" fill="white">3,6</text>
<rect x="81" y="241" width="38" height="38" fill="red"/>
<text x="100" y="270" font-size="20" text-anchor="middle" fill="white">3,7</text>
<rect x="81" y="281" width="38" height="38" fill="blue"/>
<text x="100" y="310" font-size="20" text-anchor="middle" fill="white">3,8</text>
<rect x="121" y="1" width="38" height="38" fill="blue"/>
<text x="140" y="30" font-size="20" text-anchor="middle" fill="white">4,1</text>
<rect x="121" y="41" width="38" height="38" fill="red"/>
<text x="140" y="70" font-size="20" text-anchor="middle" fill="white">4,2</text>
<rect x="121" y="81" width="38" height="38" fill="blue"/>
<text x="140" y="110" font-size="20" text-anchor="middle" fill="white">4,3</text>
<rect x="121" y="121" width="38" height="38" fill="red"/>
<text x="140" y="150" font-size="20" text-anchor="middle" fill="white">4,4</text>
<rect x="121" y="161" width="38" height="38" fill="blue"/>
<text x="140" y="190" font-size="20" text-anchor="middle" fill="white">4,5</text>
<rect x="121" y="201" width="38" height="38" fill="red"/>
<text x="140" y="230" font-size="20" text-anchor="middle" fill="white">4,6</text>
<rect x="121" y="241" width="38" height="38" fill="blue"/>
<text x="140" y="270" font-size="20" text-anchor="middle" fill="white">4,7</text>
<rect x="121" y="281" width="38" height="38" fill="red"/>
<text x="140" y="310" font-size="20" text-anchor="middle" fill="white">4,8</text>
<rect x="161" y="1" width="38" height="38" fill="red"/>
<text x="180" y="30" font-size="20" text-anchor="middle" fill="white">5,1</text>
<rect x="161" y="41" width="38" height="38" fill="blue"/>
<text x="180" y="70" font-size="20" text-anchor="middle" fill="white">5,2</text>
<rect x="161" y="81" width="38" height="38" fill="red"/>
<text x="180" y="110" font-size="20" text-anchor="middle" fill="white">5,3</text>
<rect x="161" y="121" width="38" height="38" fill="blue"/>
<text x="180" y="150" font-size="20" text-anchor="middle" fill="white">5,4</text>
<rect x="161" y="161" width="38" height="38" fill="red"/>
<text x="180" y="190" font-size="20" text-anchor="middle" fill="white">5,5</text>
<rect x="161" y="201" width="38" height="38" fill="blue"/>
<text x="180" y="230" font-size="20" text-anchor="middle" fill="white">5,6</text>
<rect x="161" y="241" width="38" height="38" fill="red"/>
<text x="180" y="270" font-size="20" text-anchor="middle" fill="white">5,7</text>
<rect x="161" y="281" width="38" height="38" fill="blue"/>
<text x="180" y="310" font-size="20" text-anchor="middle" fill="white">5,8</text>
<rect x="201" y="1" width="38" height="38" fill="blue"/>
<text x="220" y="30" font-size="20" text-anchor="middle" fill="white">6,1</text>
<rect x="201" y="41" width="38" height="38" fill="red"/>
<text x="220" y="70" font-size="20" text-anchor="middle" fill="white">6,2</text>
<rect x="201" y="81" width="38" height="38" fill="blue"/>
<text x="220" y="110" font-size="20" text-anchor="middle" fill="white">6,3</text>
<rect x="201" y="121" width="38" height="38" fill="red"/>
<text x="220" y="150" font-size="20" text-anchor="middle" fill="white">6,4</text>
<rect x="201" y="161" width="38" height="38" fill="blue"/>
<text x="220" y="190" font-size="20" text-anchor="middle" fill="white">6,5</text>
<rect x="201" y="201" width="38" height="38" fill="red"/>
<text x="220" y="230" font-size="20" text-anchor="middle" fill="white">6,6</text>
<rect x="201" y="241" width="38" height="38" fill="blue"/>
<text x="220" y="270" font-size="20" text-anchor="middle" fill="white">6,7</text>
<rect x="201" y="281" width="38" height="38" fill="red"/>
<text x="220" y="310" font-size="20" text-anchor="middle" fill="white">6,8</text>
<rect x="241" y="1" width="38" height="38" fill="red"/>
<text x="260" y="30" font-size="20" text-anchor="middle" fill="white">7,1</text>
<rect x="241" y="41" width="38" height="38" fill="blue"/>
<text x="260" y="70" font-size="20" text-anchor="middle" fill="white">7,2</text>
<rect x="241" y="81" width="38" height="38" fill="red"/>
<text x="260" y="110" font-size="20" text-anchor="middle" fill="white">7,3</text>
<rect x="241" y="121" width="38" height="38" fill="blue"/>
<text x="260" y="150" font-size="20" text-anchor="middle" fill="white">7,4</text>
<rect x="241" y="161" width="38" height="38" fill="red"/>
<text x="260" y="190" font-size="20" text-anchor="middle" fill="white">7,5</text>
<rect x="241" y="201" width="38" height="38" fill="blue"/>
<text x="260" y="230" font-size="20" text-anchor="middle" fill="white">7,6</text>
<rect x="241" y="241" width="38" height="38" fill="red"/>
<text x="260" y="270" font-size="20" text-anchor="middle" fill="white">7,7</text>
<rect x="241" y="281" width="38" height="38" fill="blue"/>
<text x="260" y="310" font-size="20" text-anchor="middle" fill="white">7,8</text>
<rect x="281" y="1" width="38" height="38" fill="blue"/>
<text x="300" y="30" font-size="20" text-anchor="middle" fill="white">8,1</text>
<rect x="281" y="41" width="38" height="38" fill="red"/>
<text x="300" y="70" font-size="20" text-anchor="middle" fill="white">8,2</text>
<rect x="281" y="81" width="38" height="38" fill="blue"/>
<text x="300" y="110" font-size="20" text-anchor="middle" fill="white">8,3</text>
<rect x="281" y="121" width="38" height="38" fill="red"/>
<text x="300" y="150" font-size="20" text-anchor="middle" fill="white">8,4</text>
<rect x="281" y="161" width="38" height="38" fill="blue"/>
<text x="300" y="190" font-size="20" text-anchor="middle" fill="white">8,5</text>
<rect x="281" y="201" width="38" height="38" fill="red"/>
<text x="300" y="230" font-size="20" text-anchor="middle" fill="white">8,6</text>
<rect x="281" y="241" width="38" height="38" fill="blue"/>
<text x="300" y="270" font-size="20" text-anchor="middle" fill="white">8,7</text>
<rect x="281" y="281" width="38" height="38" fill="red"/>
<text x="300" y="310" font-size="20" text-anchor="middle" fill="white">8,8</text>
</svg>
