<svg  xmlns="http://www.w3.org/2000/svg"
          xmlns:xlink="http://www.w3.org/1999/xlink">
<g transform="translate(240.0 423.730669589464)">
<polygon points="30.0,17.3205080756888 0,34.6410161513775 -30.0,17.3205080756888 -30.0,-17.3205080756888 0,-34.6410161513775 30.0,-17.3205080756888" style="stroke:none;fill:#0000ff;" />
<polygon points="30.0,17.3205080756888 0,34.6410161513775 -30.0,17.3205080756888 -30.0,-17.3205080756888 0,-34.6410161513775 30.0,-17.3205080756888" style="stroke:black;fill:none;" />
<text text-anchor="middle" y="-3" dominant-baseline="mathematical" style="fill:#000000;font-size:10.0;">0.0</text>
</g>
<g transform="translate(210.0 371.769145362398)">
<polygon points="30.0,17.3205080756888 0,34.6410161513775 -30.0,17.3205080756888 -30.0,-17.3205080756888 0,-34.6410161513775 30.0,-17.3205080756888" style="stroke:none;fill:#0000ff;" />
<polygon points="30.0,17.3205080756888 0,34.6410161513775 -30.0,17.3205080756888 -30.0,-17.3205080756888 0,-34.6410161513775 30.0,-17.3205080756888" style="stroke:black;fill:none;" />
<text text-anchor="middle" y="-3" dominant-baseline="mathematical" style="fill:#000000;font-size:10.0;">0.0</text>
</g>
<g transform="translate(270.0 371.769145362398)">
<polygon points="30.0,17.3205080756888 0,34.6410161513775 -30.0,17.3205080756888 -30.0,-17.3205080756888 0,-34.6410161513775 30.0,-17.3205080756888" style="stroke:none;fill:#0025d9;" />
<polygon points="30.0,17.3205080756888 0,34.6410161513775 -30.0,17.3205080756888 -30.0,-17.3205080756888 0,-34.6410161513775 30.0,-17.3205080756888" style="stroke:black;fill:none;" />
<text text-anchor="middle" y="-3" dominant-baseline="mathematical" style="fill:#000000;font-size:10.0;">4435.0</text>
</g>
<g transform="translate(180.0 319.807621135332)">
<polygon points="30.0,17.3205080756888 0,34.6410161513775 -30.0,17.3205080756888 -30.0,-17.3205080756888 0,-34.6410161513775 30.0,-17.3205080756888" style="stroke:none;fill:#0000ff;" />
<polygon points="30.0,17.3205080756888 0,34.6410161513775 -30.0,17.3205080756888 -30.0,-17.3205080756888 0,-34.6410161513775 30.0,-17.3205080756888" style="stroke:black;fill:none;" />
<text text-anchor="middle" y="-3" dominant-baseline="mathematical" style="fill:#000000;font-size:10.0;">0.0</text>
</g>
<g transform="translate(240.0 319.807621135332)">
<polygon points="30.0,17.3205080756888 0,34.6410161513775 -30.0,17.3205080756888 -30.0,-17.3205080756888 0,-34.6410161513775 30.0,-17.3205080756888" style="stroke:none;fill:#002ed0;" />
<polygon points="30.0,17.3205080756888 0,34.6410161513775 -30.0,17.3205080756888 -30.0,-17.3205080756888 0,-34.6410161513775 30.0,-17.3205080756888" style="stroke:black;fill:none;" />
<text text-anchor="middle" y="-3" dominant-baseline="mathematical" style="fill:#000000;font-size:10.0;">5510.0</text>
</g>
<g transform="translate(300.0 319.807621135332)">
<polygon points="30.0,17.3205080756888 0,34.6410161513775 -30.0,17.3205080756888 -30.0,-17.3205080756888 0,-34.6410161513775 30.0,-17.3205080756888" style="stroke:none;fill:#0032cc;" />
<polygon points="30.0,17.3205080756888 0,34.6410161513775 -30.0,17.3205080756888 -30.0,-17.3205080756888 0,-34.6410161513775 30.0,-17.3205080756888" style="stroke:black;fill:none;" />
<text text-anchor="middle" y="-3" dominant-baseline="mathematical" style="fill:#000000;font-size:10.0;">5951.0</text>
</g>
<g transform="translate(150.0 267.846096908265)">
<polygon points="30.0,17.3205080756888 0,34.6410161513775 -30.0,17.3205080756888 -30.0,-17.3205080756888 0,-34.6410161513775 30.0,-17.3205080756888" style="stroke:none;fill:#0000ff;" />
<polygon points="30.0,17.3205080756888 0,34.6410161513775 -30.0,17.3205080756888 -30.0,-17.3205080756888 0,-34.6410161513775 30.0,-17.3205080756888" style="stroke:black;fill:none;" />
<text text-anchor="middle" y="-3" dominant-baseline="mathematical" style="fill:#000000;font-size:10.0;">0.0</text>
</g>
<g transform="translate(210.0 267.846096908265)">
<polygon points="30.0,17.3205080756888 0,34.6410161513775 -30.0,17.3205080756888 -30.0,-17.3205080756888 0,-34.6410161513775 30.0,-17.3205080756888" style="stroke:none;fill:#002dd1;" />
<polygon points="30.0,17.3205080756888 0,34.6410161513775 -30.0,17.3205080756888 -30.0,-17.3205080756888 0,-34.6410161513775 30.0,-17.3205080756888" style="stroke:black;fill:none;" />
<text text-anchor="middle" y="-3" dominant-baseline="mathematical" style="fill:#000000;font-size:10.0;">5369.0</text>
</g>
<g transform="translate(270.0 267.846096908265)">
<polygon points="30.0,17.3205080756888 0,34.6410161513775 -30.0,17.3205080756888 -30.0,-17.3205080756888 0,-34.6410161513775 30.0,-17.3205080756888" style="stroke:none;fill:#003bc3;" />
<polygon points="30.0,17.3205080756888 0,34.6410161513775 -30.0,17.3205080756888 -30.0,-17.3205080756888 0,-34.6410161513775 30.0,-17.3205080756888" style="stroke:black;fill:none;" />
<text text-anchor="middle" y="-3" dominant-baseline="mathematical" style="fill:#000000;font-size:10.0;">6978.0</text>
</g>
<g transform="translate(330.0 267.846096908265)">
<polygon points="30.0,17.3205080756888 0,34.6410161513775 -30.0,17.3205080756888 -30.0,-17.3205080756888 0,-34.6410161513775 30.0,-17.3205080756888" style="stroke:none;fill:#002ad4;" />
<polygon points="30.0,17.3205080756888 0,34.6410161513775 -30.0,17.3205080756888 -30.0,-17.3205080756888 0,-34.6410161513775 30.0,-17.3205080756888" style="stroke:black;fill:none;" />
<text text-anchor="middle" y="-3" dominant-baseline="mathematical" style="fill:#000000;font-size:10.0;">4983.0</text>
</g>
<g transform="translate(120.0 215.884572681199)">
<polygon points="30.0,17.3205080756888 0,34.6410161513775 -30.0,17.3205080756888 -30.0,-17.3205080756888 0,-34.6410161513775 30.0,-17.3205080756888" style="stroke:none;fill:#0000ff;" />
<polygon points="30.0,17.3205080756888 0,34.6410161513775 -30.0,17.3205080756888 -30.0,-17.3205080756888 0,-34.6410161513775 30.0,-17.3205080756888" style="stroke:black;fill:none;" />
<text text-anchor="middle" y="-3" dominant-baseline="mathematical" style="fill:#000000;font-size:10.0;">0.0</text>
</g>
<g transform="translate(180.0 215.884572681199)">
<polygon points="30.0,17.3205080756888 0,34.6410161513775 -30.0,17.3205080756888 -30.0,-17.3205080756888 0,-34.6410161513775 30.0,-17.3205080756888" style="stroke:none;fill:#002dd1;" />
<polygon points="30.0,17.3205080756888 0,34.6410161513775 -30.0,17.3205080756888 -30.0,-17.3205080756888 0,-34.6410161513775 30.0,-17.3205080756888" style="stroke:black;fill:none;" />
<text text-anchor="middle" y="-3" dominant-baseline="mathematical" style="fill:#000000;font-size:10.0;">5369.0</text>
</g>
<g transform="translate(240.0 215.884572681199)">
<polygon points="30.0,17.3205080756888 0,34.6410161513775 -30.0,17.3205080756888 -30.0,-17.3205080756888 0,-34.6410161513775 30.0,-17.3205080756888" style="stroke:none;fill:#0034ca;" />
<polygon points="30.0,17.3205080756888 0,34.6410161513775 -30.0,17.3205080756888 -30.0,-17.3205080756888 0,-34.6410161513775 30.0,-17.3205080756888" style="stroke:black;fill:none;" />
<text text-anchor="middle" y="-3" dominant-baseline="mathematical" style="fill:#000000;font-size:10.0;">6152.0</text>
</g>
<g transform="translate(300.0 215.884572681199)">
<polygon points="30.0,17.3205080756888 0,34.6410161513775 -30.0,17.3205080756888 -30.0,-17.3205080756888 0,-34.6410161513775 30.0,-17.3205080756888" style="stroke:none;fill:#002ad4;" />
<polygon points="30.0,17.3205080756888 0,34.6410161513775 -30.0,17.3205080756888 -30.0,-17.3205080756888 0,-34.6410161513775 30.0,-17.3205080756888" style="stroke:black;fill:none;" />
<text text-anchor="middle" y="-3" dominant-baseline="mathematical" style="fill:#000000;font-size:10.0;">5028.0</text>
</g>
<g transform="translate(360.0 215.884572681199)">
<polygon points="30.0,17.3205080756888 0,34.6410161513775 -30.0,17.3205080756888 -30.0,-17.3205080756888 0,-34.6410161513775 30.0,-17.3205080756888" style="stroke:none;fill:#003dc1;" />
<polygon points="30.0,17.3205080756888 0,34.6410161513775 -30.0,17.3205080756888 -30.0,-17.3205080756888 0,-34.6410161513775 30.0,-17.3205080756888" style="stroke:black;fill:none;" />
<text text-anchor="middle" y="-3" dominant-baseline="mathematical" style="fill:#000000;font-size:10.0;">7202.0</text>
</g>
<g transform="translate(90.0 163.923048454133)">
<polygon points="30.0,17.3205080756888 0,34.6410161513775 -30.0,17.3205080756888 -30.0,-17.3205080756888 0,-34.6410161513775 30.0,-17.3205080756888" style="stroke:none;fill:#0000ff;" />
<polygon points="30.0,17.3205080756888 0,34.6410161513775 -30.0,17.3205080756888 -30.0,-17.3205080756888 0,-34.6410161513775 30.0,-17.3205080756888" style="stroke:black;fill:none;" />
<text text-anchor="middle" y="-3" dominant-baseline="mathematical" style="fill:#000000;font-size:10.0;">0.0</text>
</g>
<g transform="translate(150.0 163.923048454133)">
<polygon points="30.0,17.3205080756888 0,34.6410161513775 -30.0,17.3205080756888 -30.0,-17.3205080756888 0,-34.6410161513775 30.0,-17.3205080756888" style="stroke:none;fill:#002ed0;" />
<polygon points="30.0,17.3205080756888 0,34.6410161513775 -30.0,17.3205080756888 -30.0,-17.3205080756888 0,-34.6410161513775 30.0,-17.3205080756888" style="stroke:black;fill:none;" />
<text text-anchor="middle" y="-3" dominant-baseline="mathematical" style="fill:#000000;font-size:10.0;">5510.0</text>
</g>
<g transform="translate(210.0 163.923048454133)">
<polygon points="30.0,17.3205080756888 0,34.6410161513775 -30.0,17.3205080756888 -30.0,-17.3205080756888 0,-34.6410161513775 30.0,-17.3205080756888" style="stroke:none;fill:#003bc3;" />
<polygon points="30.0,17.3205080756888 0,34.6410161513775 -30.0,17.3205080756888 -30.0,-17.3205080756888 0,-34.6410161513775 30.0,-17.3205080756888" style="stroke:black;fill:none;" />
<text text-anchor="middle" y="-3" dominant-baseline="mathematical" style="fill:#000000;font-size:10.0;">6978.0</text>
</g>
<g transform="translate(270.0 163.923048454133)">
<polygon points="30.0,17.3205080756888 0,34.6410161513775 -30.0,17.3205080756888 -30.0,-17.3205080756888 0,-34.6410161513775 30.0,-17.3205080756888" style="stroke:none;fill:#002ad4;" />
<polygon points="30.0,17.3205080756888 0,34.6410161513775 -30.0,17.3205080756888 -30.0,-17.3205080756888 0,-34.6410161513775 30.0,-17.3205080756888" style="stroke:black;fill:none;" />
<text text-anchor="middle" y="-3" dominant-baseline="mathematical" style="fill:#000000;font-size:10.0;">5028.0</text>
</g>
<g transform="translate(330.0 163.923048454133)">
<polygon points="30.0,17.3205080756888 0,34.6410161513775 -30.0,17.3205080756888 -30.0,-17.3205080756888 0,-34.6410161513775 30.0,-17.3205080756888" style="stroke:none;fill:#0035c9;" />
<polygon points="30.0,17.3205080756888 0,34.6410161513775 -30.0,17.3205080756888 -30.0,-17.3205080756888 0,-34.6410161513775 30.0,-17.3205080756888" style="stroke:black;fill:none;" />
<text text-anchor="middle" y="-3" dominant-baseline="mathematical" style="fill:#000000;font-size:10.0;">6332.0</text>
</g>
<g transform="translate(390.0 163.923048454133)">
<polygon points="30.0,17.3205080756888 0,34.6410161513775 -30.0,17.3205080756888 -30.0,-17.3205080756888 0,-34.6410161513775 30.0,-17.3205080756888" style="stroke:none;fill:#002dd1;" />
<polygon points="30.0,17.3205080756888 0,34.6410161513775 -30.0,17.3205080756888 -30.0,-17.3205080756888 0,-34.6410161513775 30.0,-17.3205080756888" style="stroke:black;fill:none;" />
<text text-anchor="middle" y="-3" dominant-baseline="mathematical" style="fill:#000000;font-size:10.0;">5295.0</text>
</g>
<g transform="translate(60.0 111.961524227066)">
<polygon points="30.0,17.3205080756888 0,34.6410161513775 -30.0,17.3205080756888 -30.0,-17.3205080756888 0,-34.6410161513775 30.0,-17.3205080756888" style="stroke:none;fill:#0000ff;" />
<polygon points="30.0,17.3205080756888 0,34.6410161513775 -30.0,17.3205080756888 -30.0,-17.3205080756888 0,-34.6410161513775 30.0,-17.3205080756888" style="stroke:black;fill:none;" />
<text text-anchor="middle" y="-3" dominant-baseline="mathematical" style="fill:#000000;font-size:10.0;">0.0</text>
</g>
<g transform="translate(120.0 111.961524227066)">
<polygon points="30.0,17.3205080756888 0,34.6410161513775 -30.0,17.3205080756888 -30.0,-17.3205080756888 0,-34.6410161513775 30.0,-17.3205080756888" style="stroke:none;fill:#0025d9;" />
<polygon points="30.0,17.3205080756888 0,34.6410161513775 -30.0,17.3205080756888 -30.0,-17.3205080756888 0,-34.6410161513775 30.0,-17.3205080756888" style="stroke:black;fill:none;" />
<text text-anchor="middle" y="-3" dominant-baseline="mathematical" style="fill:#000000;font-size:10.0;">4435.0</text>
</g>
<g transform="translate(180.0 111.961524227066)">
<polygon points="30.0,17.3205080756888 0,34.6410161513775 -30.0,17.3205080756888 -30.0,-17.3205080756888 0,-34.6410161513775 30.0,-17.3205080756888" style="stroke:none;fill:#0032cc;" />
<polygon points="30.0,17.3205080756888 0,34.6410161513775 -30.0,17.3205080756888 -30.0,-17.3205080756888 0,-34.6410161513775 30.0,-17.3205080756888" style="stroke:black;fill:none;" />
<text text-anchor="middle" y="-3" dominant-baseline="mathematical" style="fill:#000000;font-size:10.0;">5951.0</text>
</g>
<g transform="translate(240.0 111.961524227066)">
<polygon points="30.0,17.3205080756888 0,34.6410161513775 -30.0,17.3205080756888 -30.0,-17.3205080756888 0,-34.6410161513775 30.0,-17.3205080756888" style="stroke:none;fill:#002ad4;" />
<polygon points="30.0,17.3205080756888 0,34.6410161513775 -30.0,17.3205080756888 -30.0,-17.3205080756888 0,-34.6410161513775 30.0,-17.3205080756888" style="stroke:black;fill:none;" />
<text text-anchor="middle" y="-3" dominant-baseline="mathematical" style="fill:#000000;font-size:10.0;">4983.0</text>
</g>
<g transform="translate(300.0 111.961524227066)">
<polygon points="30.0,17.3205080756888 0,34.6410161513775 -30.0,17.3205080756888 -30.0,-17.3205080756888 0,-34.6410161513775 30.0,-17.3205080756888" style="stroke:none;fill:#003dc1;" />
<polygon points="30.0,17.3205080756888 0,34.6410161513775 -30.0,17.3205080756888 -30.0,-17.3205080756888 0,-34.6410161513775 30.0,-17.3205080756888" style="stroke:black;fill:none;" />
<text text-anchor="middle" y="-3" dominant-baseline="mathematical" style="fill:#000000;font-size:10.0;">7202.0</text>
</g>
<g transform="translate(360.0 111.961524227066)">
<polygon points="30.0,17.3205080756888 0,34.6410161513775 -30.0,17.3205080756888 -30.0,-17.3205080756888 0,-34.6410161513775 30.0,-17.3205080756888" style="stroke:none;fill:#002dd1;" />
<polygon points="30.0,17.3205080756888 0,34.6410161513775 -30.0,17.3205080756888 -30.0,-17.3205080756888 0,-34.6410161513775 30.0,-17.3205080756888" style="stroke:black;fill:none;" />
<text text-anchor="middle" y="-3" dominant-baseline="mathematical" style="fill:#000000;font-size:10.0;">5295.0</text>
</g>
<g transform="translate(420.0 111.961524227066)">
<polygon points="30.0,17.3205080756888 0,34.6410161513775 -30.0,17.3205080756888 -30.0,-17.3205080756888 0,-34.6410161513775 30.0,-17.3205080756888" style="stroke:none;fill:#0036c8;" />
<polygon points="30.0,17.3205080756888 0,34.6410161513775 -30.0,17.3205080756888 -30.0,-17.3205080756888 0,-34.6410161513775 30.0,-17.3205080756888" style="stroke:black;fill:none;" />
<text text-anchor="middle" y="-3" dominant-baseline="mathematical" style="fill:#000000;font-size:10.0;">6456.0</text>
</g>
<g transform="translate(90.0 60.0)">
<polygon points="30.0,17.3205080756888 0,34.6410161513775 -30.0,17.3205080756888 -30.0,-17.3205080756888 0,-34.6410161513775 30.0,-17.3205080756888" style="stroke:none;fill:#0000ff;" />
<polygon points="30.0,17.3205080756888 0,34.6410161513775 -30.0,17.3205080756888 -30.0,-17.3205080756888 0,-34.6410161513775 30.0,-17.3205080756888" style="stroke:black;fill:none;" />
<text text-anchor="middle" y="-3" dominant-baseline="mathematical" style="fill:#000000;font-size:10.0;">0.0</text>
</g>
<g transform="translate(150.0 60.0)">
<polygon points="30.0,17.3205080756888 0,34.6410161513775 -30.0,17.3205080756888 -30.0,-17.3205080756888 0,-34.6410161513775 30.0,-17.3205080756888" style="stroke:none;fill:#002fcf;" />
<polygon points="30.0,17.3205080756888 0,34.6410161513775 -30.0,17.3205080756888 -30.0,-17.3205080756888 0,-34.6410161513775 30.0,-17.3205080756888" style="stroke:black;fill:none;" />
<text text-anchor="middle" y="-3" dominant-baseline="mathematical" style="fill:#000000;font-size:10.0;">5642.0</text>
</g>
<g transform="translate(210.0 60.0)">
<polygon points="30.0,17.3205080756888 0,34.6410161513775 -30.0,17.3205080756888 -30.0,-17.3205080756888 0,-34.6410161513775 30.0,-17.3205080756888" style="stroke:none;fill:#0033cb;" />
<polygon points="30.0,17.3205080756888 0,34.6410161513775 -30.0,17.3205080756888 -30.0,-17.3205080756888 0,-34.6410161513775 30.0,-17.3205080756888" style="stroke:black;fill:none;" />
<text text-anchor="middle" y="-3" dominant-baseline="mathematical" style="fill:#000000;font-size:10.0;">6102.0</text>
</g>
<g transform="translate(270.0 60.0)">
<polygon points="30.0,17.3205080756888 0,34.6410161513775 -30.0,17.3205080756888 -30.0,-17.3205080756888 0,-34.6410161513775 30.0,-17.3205080756888" style="stroke:none;fill:#002ad4;" />
<polygon points="30.0,17.3205080756888 0,34.6410161513775 -30.0,17.3205080756888 -30.0,-17.3205080756888 0,-34.6410161513775 30.0,-17.3205080756888" style="stroke:black;fill:none;" />
<text text-anchor="middle" y="-3" dominant-baseline="mathematical" style="fill:#000000;font-size:10.0;">5022.0</text>
</g>
<g transform="translate(330.0 60.0)">
<polygon points="30.0,17.3205080756888 0,34.6410161513775 -30.0,17.3205080756888 -30.0,-17.3205080756888 0,-34.6410161513775 30.0,-17.3205080756888" style="stroke:none;fill:#0037c7;" />
<polygon points="30.0,17.3205080756888 0,34.6410161513775 -30.0,17.3205080756888 -30.0,-17.3205080756888 0,-34.6410161513775 30.0,-17.3205080756888" style="stroke:black;fill:none;" />
<text text-anchor="middle" y="-3" dominant-baseline="mathematical" style="fill:#000000;font-size:10.0;">6577.0</text>
</g>
<g transform="translate(390.0 60.0)">
<polygon points="30.0,17.3205080756888 0,34.6410161513775 -30.0,17.3205080756888 -30.0,-17.3205080756888 0,-34.6410161513775 30.0,-17.3205080756888" style="stroke:none;fill:#003fbf;" />
<polygon points="30.0,17.3205080756888 0,34.6410161513775 -30.0,17.3205080756888 -30.0,-17.3205080756888 0,-34.6410161513775 30.0,-17.3205080756888" style="stroke:black;fill:none;" />
<text text-anchor="middle" y="-3" dominant-baseline="mathematical" style="fill:#000000;font-size:10.0;">7473.0</text>
</g>
<g transform="translate(450.0 60.0)">
<polygon points="30.0,17.3205080756888 0,34.6410161513775 -30.0,17.3205080756888 -30.0,-17.3205080756888 0,-34.6410161513775 30.0,-17.3205080756888" style="stroke:none;fill:#002ad4;" />
<polygon points="30.0,17.3205080756888 0,34.6410161513775 -30.0,17.3205080756888 -30.0,-17.3205080756888 0,-34.6410161513775 30.0,-17.3205080756888" style="stroke:black;fill:none;" />
<text text-anchor="middle" y="-3" dominant-baseline="mathematical" style="fill:#000000;font-size:10.0;">5057.0</text>
</g>
<g transform="translate(510.0 60.0)">
<polygon points="30.0,17.3205080756888 0,34.6410161513775 -30.0,17.3205080756888 -30.0,-17.3205080756888 0,-34.6410161513775 30.0,-17.3205080756888" style="stroke:none;fill:#0039c5;" />
<polygon points="30.0,17.3205080756888 0,34.6410161513775 -30.0,17.3205080756888 -30.0,-17.3205080756888 0,-34.6410161513775 30.0,-17.3205080756888" style="stroke:black;fill:none;" />
<text text-anchor="middle" y="-3" dominant-baseline="mathematical" style="fill:#000000;font-size:10.0;">6775.0</text>
</g>
</svg>
