<svg width="240" height="240" xmlns="http://www.w3.org/2000/svg" version="1.1">"
<rect x="1" y="1" width="28" height="28" fill="#1313f2"/>
<text x="15" y="22" font-size="20" text-anchor="middle" fill="#ffffff">F4</text>
<rect x="1" y="31" width="28" height="28" fill="#1313f2"/>
<text x="15" y="52" font-size="20" text-anchor="middle" fill="#ffffff">F4</text>
<rect x="1" y="61" width="28" height="28" fill="#8888f2"/>
<text x="15" y="82" font-size="20" text-anchor="middle" fill="#ffffff">F8</text>
<rect x="1" y="91" width="28" height="28" fill="#1313f2"/>
<text x="15" y="112" font-size="20" text-anchor="middle" fill="#ffffff">F4</text>
<rect x="1" y="121" width="28" height="28" fill="#1313f2"/>
<text x="15" y="142" font-size="20" text-anchor="middle" fill="#ffffff">F4</text>
<rect x="1" y="151" width="28" height="28" fill="#1313f2"/>
<text x="15" y="172" font-size="20" text-anchor="middle" fill="#ffffff">F4</text>
<rect x="1" y="181" width="28" height="28" fill="#8888f2"/>
<text x="15" y="202" font-size="20" text-anchor="middle" fill="#ffffff">F8</text>
<rect x="1" y="211" width="28" height="28" fill="#5a5aed"/>
<text x="15" y="232" font-size="20" text-anchor="middle" fill="#ffffff">F6</text>
<rect x="31" y="1" width="28" height="28" fill="#1313f2"/>
<text x="45" y="22" font-size="20" text-anchor="middle" fill="#ffffff">F4</text>
<rect x="31" y="31" width="28" height="28" fill="#1313f2"/>
<text x="45" y="52" font-size="20" text-anchor="middle" fill="#ffffff">F4</text>
<rect x="31" y="61" width="28" height="28" fill="#fa5555"/>
<text x="45" y="82" font-size="20" text-anchor="middle" fill="#ffffff">R2</text>
<rect x="31" y="91" width="28" height="28" fill="#d63cca"/>
<text x="45" y="112" font-size="20" text-anchor="middle" fill="#ffffff">B2</text>
<rect x="31" y="121" width="28" height="28" fill="#1313f2"/>
<text x="45" y="142" font-size="20" text-anchor="middle" fill="#ffffff">F4</text>
<rect x="31" y="151" width="28" height="28" fill="#8888f2"/>
<text x="45" y="172" font-size="20" text-anchor="middle" fill="#ffffff">F8</text>
<rect x="31" y="181" width="28" height="28" fill="#1313f2"/>
<text x="45" y="202" font-size="20" text-anchor="middle" fill="#ffffff">F4</text>
<rect x="31" y="211" width="28" height="28" fill="#8888f2"/>
<text x="45" y="232" font-size="20" text-anchor="middle" fill="#ffffff">F8</text>
<rect x="61" y="1" width="28" height="28" fill="#5a5aed"/>
<text x="75" y="22" font-size="20" text-anchor="middle" fill="#ffffff">F6</text>
<rect x="61" y="31" width="28" height="28" fill="#f502e1"/>
<text x="75" y="52" font-size="20" text-anchor="middle" fill="#ffffff">B1</text>
<rect x="61" y="61" width="28" height="28" fill="#1313f2"/>
<text x="75" y="82" font-size="20" text-anchor="middle" fill="#ffffff">F4</text>
<rect x="61" y="91" width="28" height="28" fill="#1313f2"/>
<text x="75" y="112" font-size="20" text-anchor="middle" fill="#ffffff">F4</text>
<rect x="61" y="121" width="28" height="28" fill="#1313f2"/>
<text x="75" y="142" font-size="20" text-anchor="middle" fill="#ffffff">F4</text>
<rect x="61" y="151" width="28" height="28" fill="#1313f2"/>
<text x="75" y="172" font-size="20" text-anchor="middle" fill="#ffffff">F4</text>
<rect x="61" y="181" width="28" height="28" fill="#1313f2"/>
<text x="75" y="202" font-size="20" text-anchor="middle" fill="#ffffff">F4</text>
<rect x="61" y="211" width="28" height="28" fill="#8888f2"/>
<text x="75" y="232" font-size="20" text-anchor="middle" fill="#ffffff">F8</text>
<rect x="91" y="1" width="28" height="28" fill="#1313f2"/>
<text x="105" y="22" font-size="20" text-anchor="middle" fill="#ffffff">F4</text>
<rect x="91" y="31" width="28" height="28" fill="#1313f2"/>
<text x="105" y="52" font-size="20" text-anchor="middle" fill="#ffffff">F4</text>
<rect x="91" y="61" width="28" height="28" fill="#1313f2"/>
<text x="105" y="82" font-size="20" text-anchor="middle" fill="#ffffff">F4</text>
<rect x="91" y="91" width="28" height="28" fill="#c25fba"/>
<text x="105" y="112" font-size="20" text-anchor="middle" fill="#ffffff">B3</text>
<rect x="91" y="121" width="28" height="28" fill="#1313f2"/>
<text x="105" y="142" font-size="20" text-anchor="middle" fill="#ffffff">F4</text>
<rect x="91" y="151" width="28" height="28" fill="#5a5aed"/>
<text x="105" y="172" font-size="20" text-anchor="middle" fill="#ffffff">F6</text>
<rect x="91" y="181" width="28" height="28" fill="#8888f2"/>
<text x="105" y="202" font-size="20" text-anchor="middle" fill="#ffffff">F8</text>
<rect x="91" y="211" width="28" height="28" fill="#1313f2"/>
<text x="105" y="232" font-size="20" text-anchor="middle" fill="#ffffff">F4</text>
<rect x="121" y="1" width="28" height="28" fill="#1313f2"/>
<text x="135" y="22" font-size="20" text-anchor="middle" fill="#ffffff">F4</text>
<rect x="121" y="31" width="28" height="28" fill="#1313f2"/>
<text x="135" y="52" font-size="20" text-anchor="middle" fill="#ffffff">F4</text>
<rect x="121" y="61" width="28" height="28" fill="#00ff51"/>
<text x="135" y="82" font-size="20" text-anchor="middle" fill="#000000">E1</text>
<rect x="121" y="91" width="28" height="28" fill="#5a5aed"/>
<text x="135" y="112" font-size="20" text-anchor="middle" fill="#ffffff">F6</text>
<rect x="121" y="121" width="28" height="28" fill="#1313f2"/>
<text x="135" y="142" font-size="20" text-anchor="middle" fill="#ffffff">F4</text>
<rect x="121" y="151" width="28" height="28" fill="#1313f2"/>
<text x="135" y="172" font-size="20" text-anchor="middle" fill="#ffffff">F4</text>
<rect x="121" y="181" width="28" height="28" fill="#8888f2"/>
<text x="135" y="202" font-size="20" text-anchor="middle" fill="#ffffff">F8</text>
<rect x="121" y="211" width="28" height="28" fill="#1313f2"/>
<text x="135" y="232" font-size="20" text-anchor="middle" fill="#ffffff">F4</text>
<rect x="151" y="1" width="28" height="28" fill="#1313f2"/>
<text x="165" y="22" font-size="20" text-anchor="middle" fill="#ffffff">F4</text>
<rect x="151" y="31" width="28" height="28" fill="#5a5aed"/>
<text x="165" y="52" font-size="20" text-anchor="middle" fill="#ffffff">F6</text>
<rect x="151" y="61" width="28" height="28" fill="#5a5aed"/>
<text x="165" y="82" font-size="20" text-anchor="middle" fill="#ffffff">F6</text>
<rect x="151" y="91" width="28" height="28" fill="#5a5aed"/>
<text x="165" y="112" font-size="20" text-anchor="middle" fill="#ffffff">F6</text>
<rect x="151" y="121" width="28" height="28" fill="#1313f2"/>
<text x="165" y="142" font-size="20" text-anchor="middle" fill="#ffffff">F4</text>
<rect x="151" y="151" width="28" height="28" fill="#1313f2"/>
<text x="165" y="172" font-size="20" text-anchor="middle" fill="#ffffff">F4</text>
<rect x="151" y="181" width="28" height="28" fill="#1313f2"/>
<text x="165" y="202" font-size="20" text-anchor="middle" fill="#ffffff">F4</text>
<rect x="151" y="211" width="28" height="28" fill="#1313f2"/>
<text x="165" y="232" font-size="20" text-anchor="middle" fill="#ffffff">F4</text>
<rect x="181" y="1" width="28" height="28" fill="#1313f2"/>
<text x="195" y="22" font-size="20" text-anchor="middle" fill="#ffffff">F4</text>
<rect x="181" y="31" width="28" height="28" fill="#ff0000"/>
<text x="195" y="52" font-size="20" text-anchor="middle" fill="#ffffff">R1</text>
<rect x="181" y="61" width="28" height="28" fill="#72fc9e"/>
<text x="195" y="82" font-size="20" text-anchor="middle" fill="#000000">E2</text>
<rect x="181" y="91" width="28" height="28" fill="#1313f2"/>
<text x="195" y="112" font-size="20" text-anchor="middle" fill="#ffffff">F4</text>
<rect x="181" y="121" width="28" height="28" fill="#1313f2"/>
<text x="195" y="142" font-size="20" text-anchor="middle" fill="#ffffff">F4</text>
<rect x="181" y="151" width="28" height="28" fill="#1313f2"/>
<text x="195" y="172" font-size="20" text-anchor="middle" fill="#ffffff">F4</text>
<rect x="181" y="181" width="28" height="28" fill="#1313f2"/>
<text x="195" y="202" font-size="20" text-anchor="middle" fill="#ffffff">F4</text>
<rect x="181" y="211" width="28" height="28" fill="#1313f2"/>
<text x="195" y="232" font-size="20" text-anchor="middle" fill="#ffffff">F4</text>
<rect x="211" y="1" width="28" height="28" fill="#1313f2"/>
<text x="225" y="22" font-size="20" text-anchor="middle" fill="#ffffff">F4</text>
<rect x="211" y="31" width="28" height="28" fill="#1313f2"/>
<text x="225" y="52" font-size="20" text-anchor="middle" fill="#ffffff">F4</text>
<rect x="211" y="61" width="28" height="28" fill="#1313f2"/>
<text x="225" y="82" font-size="20" text-anchor="middle" fill="#ffffff">F4</text>
<rect x="211" y="91" width="28" height="28" fill="#1313f2"/>
<text x="225" y="112" font-size="20" text-anchor="middle" fill="#ffffff">F4</text>
<rect x="211" y="121" width="28" height="28" fill="#1313f2"/>
<text x="225" y="142" font-size="20" text-anchor="middle" fill="#ffffff">F4</text>
<rect x="211" y="151" width="28" height="28" fill="#8888f2"/>
<text x="225" y="172" font-size="20" text-anchor="middle" fill="#ffffff">F8</text>
<rect x="211" y="181" width="28" height="28" fill="#1313f2"/>
<text x="225" y="202" font-size="20" text-anchor="middle" fill="#ffffff">F4</text>
<rect x="211" y="211" width="28" height="28" fill="#1313f2"/>
<text x="225" y="232" font-size="20" text-anchor="middle" fill="#ffffff">F4</text>
</svg>
