<svg  xmlns="http://www.w3.org/2000/svg"
          xmlns:xlink="http://www.w3.org/1999/xlink">
<g transform="translate(240.0 423.730669589464)">
<polygon points="30.0,17.3205080756888 0,34.6410161513775 -30.0,17.3205080756888 -30.0,-17.3205080756888 0,-34.6410161513775 30.0,-17.3205080756888" style="stroke:none;fill:#6464ff;" />
<polygon points="30.0,17.3205080756888 0,34.6410161513775 -30.0,17.3205080756888 -30.0,-17.3205080756888 0,-34.6410161513775 30.0,-17.3205080756888" style="stroke:black;fill:none;" />
<text text-anchor="middle" y="-3" dominant-baseline="mathematical" style="fill:#000000;font-size:10.0;">2.12e+12</text>
</g>
<g transform="translate(210.0 371.769145362398)">
<polygon points="30.0,17.3205080756888 0,34.6410161513775 -30.0,17.3205080756888 -30.0,-17.3205080756888 0,-34.6410161513775 30.0,-17.3205080756888" style="stroke:none;fill:#5c6eed;" />
<polygon points="30.0,17.3205080756888 0,34.6410161513775 -30.0,17.3205080756888 -30.0,-17.3205080756888 0,-34.6410161513775 30.0,-17.3205080756888" style="stroke:black;fill:none;" />
<text text-anchor="middle" y="-3" dominant-baseline="mathematical" style="fill:#000000;font-size:10.0;">4.84e+12</text>
</g>
<g transform="translate(270.0 371.769145362398)">
<polygon points="30.0,17.3205080756888 0,34.6410161513775 -30.0,17.3205080756888 -30.0,-17.3205080756888 0,-34.6410161513775 30.0,-17.3205080756888" style="stroke:none;fill:#06ff00;" />
<polygon points="30.0,17.3205080756888 0,34.6410161513775 -30.0,17.3205080756888 -30.0,-17.3205080756888 0,-34.6410161513775 30.0,-17.3205080756888" style="stroke:black;fill:none;" />
<text text-anchor="middle" y="-3" dominant-baseline="mathematical" style="fill:#000000;font-size:10.0;">4.17e+13</text>
</g>
<g transform="translate(180.0 319.807621135332)">
<polygon points="30.0,17.3205080756888 0,34.6410161513775 -30.0,17.3205080756888 -30.0,-17.3205080756888 0,-34.6410161513775 30.0,-17.3205080756888" style="stroke:none;fill:#5b71e8;" />
<polygon points="30.0,17.3205080756888 0,34.6410161513775 -30.0,17.3205080756888 -30.0,-17.3205080756888 0,-34.6410161513775 30.0,-17.3205080756888" style="stroke:black;fill:none;" />
<text text-anchor="middle" y="-3" dominant-baseline="mathematical" style="fill:#000000;font-size:10.0;">5.45e+12</text>
</g>
<g transform="translate(240.0 319.807621135332)">
<polygon points="30.0,17.3205080756888 0,34.6410161513775 -30.0,17.3205080756888 -30.0,-17.3205080756888 0,-34.6410161513775 30.0,-17.3205080756888" style="stroke:none;fill:#51ff00;" />
<polygon points="30.0,17.3205080756888 0,34.6410161513775 -30.0,17.3205080756888 -30.0,-17.3205080756888 0,-34.6410161513775 30.0,-17.3205080756888" style="stroke:black;fill:none;" />
<text text-anchor="middle" y="-3" dominant-baseline="mathematical" style="fill:#000000;font-size:10.0;">5.29e+13</text>
</g>
<g transform="translate(300.0 319.807621135332)">
<polygon points="30.0,17.3205080756888 0,34.6410161513775 -30.0,17.3205080756888 -30.0,-17.3205080756888 0,-34.6410161513775 30.0,-17.3205080756888" style="stroke:none;fill:#ff5600;" />
<polygon points="30.0,17.3205080756888 0,34.6410161513775 -30.0,17.3205080756888 -30.0,-17.3205080756888 0,-34.6410161513775 30.0,-17.3205080756888" style="stroke:black;fill:none;" />
<text text-anchor="middle" y="-3" dominant-baseline="mathematical" style="fill:#000000;font-size:10.0;">1.05e+14</text>
</g>
<g transform="translate(150.0 267.846096908265)">
<polygon points="30.0,17.3205080756888 0,34.6410161513775 -30.0,17.3205080756888 -30.0,-17.3205080756888 0,-34.6410161513775 30.0,-17.3205080756888" style="stroke:none;fill:#5b71e9;" />
<polygon points="30.0,17.3205080756888 0,34.6410161513775 -30.0,17.3205080756888 -30.0,-17.3205080756888 0,-34.6410161513775 30.0,-17.3205080756888" style="stroke:black;fill:none;" />
<text text-anchor="middle" y="-3" dominant-baseline="mathematical" style="fill:#000000;font-size:10.0;">5.39e+12</text>
</g>
<g transform="translate(210.0 267.846096908265)">
<polygon points="30.0,17.3205080756888 0,34.6410161513775 -30.0,17.3205080756888 -30.0,-17.3205080756888 0,-34.6410161513775 30.0,-17.3205080756888" style="stroke:none;fill:#62ff00;" />
<polygon points="30.0,17.3205080756888 0,34.6410161513775 -30.0,17.3205080756888 -30.0,-17.3205080756888 0,-34.6410161513775 30.0,-17.3205080756888" style="stroke:black;fill:none;" />
<text text-anchor="middle" y="-3" dominant-baseline="mathematical" style="fill:#000000;font-size:10.0;">5.55e+13</text>
</g>
<g transform="translate(270.0 267.846096908265)">
<polygon points="30.0,17.3205080756888 0,34.6410161513775 -30.0,17.3205080756888 -30.0,-17.3205080756888 0,-34.6410161513775 30.0,-17.3205080756888" style="stroke:none;fill:#ffdf00;" />
<polygon points="30.0,17.3205080756888 0,34.6410161513775 -30.0,17.3205080756888 -30.0,-17.3205080756888 0,-34.6410161513775 30.0,-17.3205080756888" style="stroke:black;fill:none;" />
<text text-anchor="middle" y="-3" dominant-baseline="mathematical" style="fill:#000000;font-size:10.0;">8.41e+13</text>
</g>
<g transform="translate(330.0 267.846096908265)">
<polygon points="30.0,17.3205080756888 0,34.6410161513775 -30.0,17.3205080756888 -30.0,-17.3205080756888 0,-34.6410161513775 30.0,-17.3205080756888" style="stroke:none;fill:#ff0500;" />
<polygon points="30.0,17.3205080756888 0,34.6410161513775 -30.0,17.3205080756888 -30.0,-17.3205080756888 0,-34.6410161513775 30.0,-17.3205080756888" style="stroke:black;fill:none;" />
<text text-anchor="middle" y="-3" dominant-baseline="mathematical" style="fill:#000000;font-size:10.0;">1.18e+14</text>
</g>
<g transform="translate(120.0 215.884572681199)">
<polygon points="30.0,17.3205080756888 0,34.6410161513775 -30.0,17.3205080756888 -30.0,-17.3205080756888 0,-34.6410161513775 30.0,-17.3205080756888" style="stroke:none;fill:#5b71e8;" />
<polygon points="30.0,17.3205080756888 0,34.6410161513775 -30.0,17.3205080756888 -30.0,-17.3205080756888 0,-34.6410161513775 30.0,-17.3205080756888" style="stroke:black;fill:none;" />
<text text-anchor="middle" y="-3" dominant-baseline="mathematical" style="fill:#000000;font-size:10.0;">5.45e+12</text>
</g>
<g transform="translate(180.0 215.884572681199)">
<polygon points="30.0,17.3205080756888 0,34.6410161513775 -30.0,17.3205080756888 -30.0,-17.3205080756888 0,-34.6410161513775 30.0,-17.3205080756888" style="stroke:none;fill:#62ff00;" />
<polygon points="30.0,17.3205080756888 0,34.6410161513775 -30.0,17.3205080756888 -30.0,-17.3205080756888 0,-34.6410161513775 30.0,-17.3205080756888" style="stroke:black;fill:none;" />
<text text-anchor="middle" y="-3" dominant-baseline="mathematical" style="fill:#000000;font-size:10.0;">5.55e+13</text>
</g>
<g transform="translate(240.0 215.884572681199)">
<polygon points="30.0,17.3205080756888 0,34.6410161513775 -30.0,17.3205080756888 -30.0,-17.3205080756888 0,-34.6410161513775 30.0,-17.3205080756888" style="stroke:none;fill:#ff5100;" />
<polygon points="30.0,17.3205080756888 0,34.6410161513775 -30.0,17.3205080756888 -30.0,-17.3205080756888 0,-34.6410161513775 30.0,-17.3205080756888" style="stroke:black;fill:none;" />
<text text-anchor="middle" y="-3" dominant-baseline="mathematical" style="fill:#000000;font-size:10.0;">1.06e+14</text>
</g>
<g transform="translate(300.0 215.884572681199)">
<polygon points="30.0,17.3205080756888 0,34.6410161513775 -30.0,17.3205080756888 -30.0,-17.3205080756888 0,-34.6410161513775 30.0,-17.3205080756888" style="stroke:none;fill:#ff0800;" />
<polygon points="30.0,17.3205080756888 0,34.6410161513775 -30.0,17.3205080756888 -30.0,-17.3205080756888 0,-34.6410161513775 30.0,-17.3205080756888" style="stroke:black;fill:none;" />
<text text-anchor="middle" y="-3" dominant-baseline="mathematical" style="fill:#000000;font-size:10.0;">1.18e+14</text>
</g>
<g transform="translate(360.0 215.884572681199)">
<polygon points="30.0,17.3205080756888 0,34.6410161513775 -30.0,17.3205080756888 -30.0,-17.3205080756888 0,-34.6410161513775 30.0,-17.3205080756888" style="stroke:none;fill:#fff400;" />
<polygon points="30.0,17.3205080756888 0,34.6410161513775 -30.0,17.3205080756888 -30.0,-17.3205080756888 0,-34.6410161513775 30.0,-17.3205080756888" style="stroke:black;fill:none;" />
<text text-anchor="middle" y="-3" dominant-baseline="mathematical" style="fill:#000000;font-size:10.0;">8.08e+13</text>
</g>
<g transform="translate(90.0 163.923048454133)">
<polygon points="30.0,17.3205080756888 0,34.6410161513775 -30.0,17.3205080756888 -30.0,-17.3205080756888 0,-34.6410161513775 30.0,-17.3205080756888" style="stroke:none;fill:#5c6eed;" />
<polygon points="30.0,17.3205080756888 0,34.6410161513775 -30.0,17.3205080756888 -30.0,-17.3205080756888 0,-34.6410161513775 30.0,-17.3205080756888" style="stroke:black;fill:none;" />
<text text-anchor="middle" y="-3" dominant-baseline="mathematical" style="fill:#000000;font-size:10.0;">4.84e+12</text>
</g>
<g transform="translate(150.0 163.923048454133)">
<polygon points="30.0,17.3205080756888 0,34.6410161513775 -30.0,17.3205080756888 -30.0,-17.3205080756888 0,-34.6410161513775 30.0,-17.3205080756888" style="stroke:none;fill:#51ff00;" />
<polygon points="30.0,17.3205080756888 0,34.6410161513775 -30.0,17.3205080756888 -30.0,-17.3205080756888 0,-34.6410161513775 30.0,-17.3205080756888" style="stroke:black;fill:none;" />
<text text-anchor="middle" y="-3" dominant-baseline="mathematical" style="fill:#000000;font-size:10.0;">5.29e+13</text>
</g>
<g transform="translate(210.0 163.923048454133)">
<polygon points="30.0,17.3205080756888 0,34.6410161513775 -30.0,17.3205080756888 -30.0,-17.3205080756888 0,-34.6410161513775 30.0,-17.3205080756888" style="stroke:none;fill:#ffdf00;" />
<polygon points="30.0,17.3205080756888 0,34.6410161513775 -30.0,17.3205080756888 -30.0,-17.3205080756888 0,-34.6410161513775 30.0,-17.3205080756888" style="stroke:black;fill:none;" />
<text text-anchor="middle" y="-3" dominant-baseline="mathematical" style="fill:#000000;font-size:10.0;">8.41e+13</text>
</g>
<g transform="translate(270.0 163.923048454133)">
<polygon points="30.0,17.3205080756888 0,34.6410161513775 -30.0,17.3205080756888 -30.0,-17.3205080756888 0,-34.6410161513775 30.0,-17.3205080756888" style="stroke:none;fill:#ff0800;" />
<polygon points="30.0,17.3205080756888 0,34.6410161513775 -30.0,17.3205080756888 -30.0,-17.3205080756888 0,-34.6410161513775 30.0,-17.3205080756888" style="stroke:black;fill:none;" />
<text text-anchor="middle" y="-3" dominant-baseline="mathematical" style="fill:#000000;font-size:10.0;">1.18e+14</text>
</g>
<g transform="translate(330.0 163.923048454133)">
<polygon points="30.0,17.3205080756888 0,34.6410161513775 -30.0,17.3205080756888 -30.0,-17.3205080756888 0,-34.6410161513775 30.0,-17.3205080756888" style="stroke:none;fill:#ff6b00;" />
<polygon points="30.0,17.3205080756888 0,34.6410161513775 -30.0,17.3205080756888 -30.0,-17.3205080756888 0,-34.6410161513775 30.0,-17.3205080756888" style="stroke:black;fill:none;" />
<text text-anchor="middle" y="-3" dominant-baseline="mathematical" style="fill:#000000;font-size:10.0;">1.02e+14</text>
</g>
<g transform="translate(390.0 163.923048454133)">
<polygon points="30.0,17.3205080756888 0,34.6410161513775 -30.0,17.3205080756888 -30.0,-17.3205080756888 0,-34.6410161513775 30.0,-17.3205080756888" style="stroke:none;fill:#ff0000;" />
<polygon points="30.0,17.3205080756888 0,34.6410161513775 -30.0,17.3205080756888 -30.0,-17.3205080756888 0,-34.6410161513775 30.0,-17.3205080756888" style="stroke:black;fill:none;" />
<text text-anchor="middle" y="-3" dominant-baseline="mathematical" style="fill:#000000;font-size:10.0;">1.19e+14</text>
</g>
<g transform="translate(60.0 111.961524227066)">
<polygon points="30.0,17.3205080756888 0,34.6410161513775 -30.0,17.3205080756888 -30.0,-17.3205080756888 0,-34.6410161513775 30.0,-17.3205080756888" style="stroke:none;fill:#6364fe;" />
<polygon points="30.0,17.3205080756888 0,34.6410161513775 -30.0,17.3205080756888 -30.0,-17.3205080756888 0,-34.6410161513775 30.0,-17.3205080756888" style="stroke:black;fill:none;" />
<text text-anchor="middle" y="-3" dominant-baseline="mathematical" style="fill:#000000;font-size:10.0;">2.12e+12</text>
</g>
<g transform="translate(120.0 111.961524227066)">
<polygon points="30.0,17.3205080756888 0,34.6410161513775 -30.0,17.3205080756888 -30.0,-17.3205080756888 0,-34.6410161513775 30.0,-17.3205080756888" style="stroke:none;fill:#06ff00;" />
<polygon points="30.0,17.3205080756888 0,34.6410161513775 -30.0,17.3205080756888 -30.0,-17.3205080756888 0,-34.6410161513775 30.0,-17.3205080756888" style="stroke:black;fill:none;" />
<text text-anchor="middle" y="-3" dominant-baseline="mathematical" style="fill:#000000;font-size:10.0;">4.17e+13</text>
</g>
<g transform="translate(180.0 111.961524227066)">
<polygon points="30.0,17.3205080756888 0,34.6410161513775 -30.0,17.3205080756888 -30.0,-17.3205080756888 0,-34.6410161513775 30.0,-17.3205080756888" style="stroke:none;fill:#ff5600;" />
<polygon points="30.0,17.3205080756888 0,34.6410161513775 -30.0,17.3205080756888 -30.0,-17.3205080756888 0,-34.6410161513775 30.0,-17.3205080756888" style="stroke:black;fill:none;" />
<text text-anchor="middle" y="-3" dominant-baseline="mathematical" style="fill:#000000;font-size:10.0;">1.05e+14</text>
</g>
<g transform="translate(240.0 111.961524227066)">
<polygon points="30.0,17.3205080756888 0,34.6410161513775 -30.0,17.3205080756888 -30.0,-17.3205080756888 0,-34.6410161513775 30.0,-17.3205080756888" style="stroke:none;fill:#ff0500;" />
<polygon points="30.0,17.3205080756888 0,34.6410161513775 -30.0,17.3205080756888 -30.0,-17.3205080756888 0,-34.6410161513775 30.0,-17.3205080756888" style="stroke:black;fill:none;" />
<text text-anchor="middle" y="-3" dominant-baseline="mathematical" style="fill:#000000;font-size:10.0;">1.18e+14</text>
</g>
<g transform="translate(300.0 111.961524227066)">
<polygon points="30.0,17.3205080756888 0,34.6410161513775 -30.0,17.3205080756888 -30.0,-17.3205080756888 0,-34.6410161513775 30.0,-17.3205080756888" style="stroke:none;fill:#fff400;" />
<polygon points="30.0,17.3205080756888 0,34.6410161513775 -30.0,17.3205080756888 -30.0,-17.3205080756888 0,-34.6410161513775 30.0,-17.3205080756888" style="stroke:black;fill:none;" />
<text text-anchor="middle" y="-3" dominant-baseline="mathematical" style="fill:#000000;font-size:10.0;">8.08e+13</text>
</g>
<g transform="translate(360.0 111.961524227066)">
<polygon points="30.0,17.3205080756888 0,34.6410161513775 -30.0,17.3205080756888 -30.0,-17.3205080756888 0,-34.6410161513775 30.0,-17.3205080756888" style="stroke:none;fill:#ff0000;" />
<polygon points="30.0,17.3205080756888 0,34.6410161513775 -30.0,17.3205080756888 -30.0,-17.3205080756888 0,-34.6410161513775 30.0,-17.3205080756888" style="stroke:black;fill:none;" />
<text text-anchor="middle" y="-3" dominant-baseline="mathematical" style="fill:#000000;font-size:10.0;">1.19e+14</text>
</g>
<g transform="translate(420.0 111.961524227066)">
<polygon points="30.0,17.3205080756888 0,34.6410161513775 -30.0,17.3205080756888 -30.0,-17.3205080756888 0,-34.6410161513775 30.0,-17.3205080756888" style="stroke:none;fill:#ff7100;" />
<polygon points="30.0,17.3205080756888 0,34.6410161513775 -30.0,17.3205080756888 -30.0,-17.3205080756888 0,-34.6410161513775 30.0,-17.3205080756888" style="stroke:black;fill:none;" />
<text text-anchor="middle" y="-3" dominant-baseline="mathematical" style="fill:#000000;font-size:10.0;">1.01e+14</text>
</g>
<g transform="translate(90.0 60.0)">
<polygon points="30.0,17.3205080756888 0,34.6410161513775 -30.0,17.3205080756888 -30.0,-17.3205080756888 0,-34.6410161513775 30.0,-17.3205080756888" style="stroke:none;fill:#557ad9;" />
<polygon points="30.0,17.3205080756888 0,34.6410161513775 -30.0,17.3205080756888 -30.0,-17.3205080756888 0,-34.6410161513775 30.0,-17.3205080756888" style="stroke:black;fill:none;" />
<text text-anchor="middle" y="-3" dominant-baseline="mathematical" style="fill:#000000;font-size:10.0;">7.81e+12</text>
</g>
<g transform="translate(150.0 60.0)">
<polygon points="30.0,17.3205080756888 0,34.6410161513775 -30.0,17.3205080756888 -30.0,-17.3205080756888 0,-34.6410161513775 30.0,-17.3205080756888" style="stroke:none;fill:#bdff00;" />
<polygon points="30.0,17.3205080756888 0,34.6410161513775 -30.0,17.3205080756888 -30.0,-17.3205080756888 0,-34.6410161513775 30.0,-17.3205080756888" style="stroke:black;fill:none;" />
<text text-anchor="middle" y="-3" dominant-baseline="mathematical" style="fill:#000000;font-size:10.0;">6.93e+13</text>
</g>
<g transform="translate(210.0 60.0)">
<polygon points="30.0,17.3205080756888 0,34.6410161513775 -30.0,17.3205080756888 -30.0,-17.3205080756888 0,-34.6410161513775 30.0,-17.3205080756888" style="stroke:none;fill:#ff5200;" />
<polygon points="30.0,17.3205080756888 0,34.6410161513775 -30.0,17.3205080756888 -30.0,-17.3205080756888 0,-34.6410161513775 30.0,-17.3205080756888" style="stroke:black;fill:none;" />
<text text-anchor="middle" y="-3" dominant-baseline="mathematical" style="fill:#000000;font-size:10.0;">1.06e+14</text>
</g>
<g transform="translate(270.0 60.0)">
<polygon points="30.0,17.3205080756888 0,34.6410161513775 -30.0,17.3205080756888 -30.0,-17.3205080756888 0,-34.6410161513775 30.0,-17.3205080756888" style="stroke:none;fill:#ff1400;" />
<polygon points="30.0,17.3205080756888 0,34.6410161513775 -30.0,17.3205080756888 -30.0,-17.3205080756888 0,-34.6410161513775 30.0,-17.3205080756888" style="stroke:black;fill:none;" />
<text text-anchor="middle" y="-3" dominant-baseline="mathematical" style="fill:#000000;font-size:10.0;">1.16e+14</text>
</g>
<g transform="translate(330.0 60.0)">
<polygon points="30.0,17.3205080756888 0,34.6410161513775 -30.0,17.3205080756888 -30.0,-17.3205080756888 0,-34.6410161513775 30.0,-17.3205080756888" style="stroke:none;fill:#ff5500;" />
<polygon points="30.0,17.3205080756888 0,34.6410161513775 -30.0,17.3205080756888 -30.0,-17.3205080756888 0,-34.6410161513775 30.0,-17.3205080756888" style="stroke:black;fill:none;" />
<text text-anchor="middle" y="-3" dominant-baseline="mathematical" style="fill:#000000;font-size:10.0;">1.06e+14</text>
</g>
<g transform="translate(390.0 60.0)">
<polygon points="30.0,17.3205080756888 0,34.6410161513775 -30.0,17.3205080756888 -30.0,-17.3205080756888 0,-34.6410161513775 30.0,-17.3205080756888" style="stroke:none;fill:#ffed00;" />
<polygon points="30.0,17.3205080756888 0,34.6410161513775 -30.0,17.3205080756888 -30.0,-17.3205080756888 0,-34.6410161513775 30.0,-17.3205080756888" style="stroke:black;fill:none;" />
<text text-anchor="middle" y="-3" dominant-baseline="mathematical" style="fill:#000000;font-size:10.0;">8.20e+13</text>
</g>
<g transform="translate(450.0 60.0)">
<polygon points="30.0,17.3205080756888 0,34.6410161513775 -30.0,17.3205080756888 -30.0,-17.3205080756888 0,-34.6410161513775 30.0,-17.3205080756888" style="stroke:none;fill:#ff3d00;" />
<polygon points="30.0,17.3205080756888 0,34.6410161513775 -30.0,17.3205080756888 -30.0,-17.3205080756888 0,-34.6410161513775 30.0,-17.3205080756888" style="stroke:black;fill:none;" />
<text text-anchor="middle" y="-3" dominant-baseline="mathematical" style="fill:#000000;font-size:10.0;">1.09e+14</text>
</g>
<g transform="translate(510.0 60.0)">
<polygon points="30.0,17.3205080756888 0,34.6410161513775 -30.0,17.3205080756888 -30.0,-17.3205080756888 0,-34.6410161513775 30.0,-17.3205080756888" style="stroke:none;fill:#c5ff00;" />
<polygon points="30.0,17.3205080756888 0,34.6410161513775 -30.0,17.3205080756888 -30.0,-17.3205080756888 0,-34.6410161513775 30.0,-17.3205080756888" style="stroke:black;fill:none;" />
<text text-anchor="middle" y="-3" dominant-baseline="mathematical" style="fill:#000000;font-size:10.0;">7.05e+13</text>
</g>
</svg>
