<svg  xmlns="http://www.w3.org/2000/svg"
          xmlns:xlink="http://www.w3.org/1999/xlink">
<g transform="translate(240.0 423.730669589464)">
<polygon points="30.0,17.3205080756888 0,34.6410161513775 -30.0,17.3205080756888 -30.0,-17.3205080756888 0,-34.6410161513775 30.0,-17.3205080756888" style="stroke:none;fill:#6464ff;" />
<polygon points="30.0,17.3205080756888 0,34.6410161513775 -30.0,17.3205080756888 -30.0,-17.3205080756888 0,-34.6410161513775 30.0,-17.3205080756888" style="stroke:black;fill:none;" />
<text text-anchor="middle" y="-3" dominant-baseline="mathematical" style="fill:#000000;font-size:10.0;">2.86e+11</text>
</g>
<g transform="translate(210.0 371.769145362398)">
<polygon points="30.0,17.3205080756888 0,34.6410161513775 -30.0,17.3205080756888 -30.0,-17.3205080756888 0,-34.6410161513775 30.0,-17.3205080756888" style="stroke:none;fill:#5e6bf1;" />
<polygon points="30.0,17.3205080756888 0,34.6410161513775 -30.0,17.3205080756888 -30.0,-17.3205080756888 0,-34.6410161513775 30.0,-17.3205080756888" style="stroke:black;fill:none;" />
<text text-anchor="middle" y="-3" dominant-baseline="mathematical" style="fill:#000000;font-size:10.0;">6.60e+11</text>
</g>
<g transform="translate(270.0 371.769145362398)">
<polygon points="30.0,17.3205080756888 0,34.6410161513775 -30.0,17.3205080756888 -30.0,-17.3205080756888 0,-34.6410161513775 30.0,-17.3205080756888" style="stroke:none;fill:#4cff00;" />
<polygon points="30.0,17.3205080756888 0,34.6410161513775 -30.0,17.3205080756888 -30.0,-17.3205080756888 0,-34.6410161513775 30.0,-17.3205080756888" style="stroke:black;fill:none;" />
<text text-anchor="middle" y="-3" dominant-baseline="mathematical" style="fill:#000000;font-size:10.0;">9.77e+12</text>
</g>
<g transform="translate(180.0 319.807621135332)">
<polygon points="30.0,17.3205080756888 0,34.6410161513775 -30.0,17.3205080756888 -30.0,-17.3205080756888 0,-34.6410161513775 30.0,-17.3205080756888" style="stroke:none;fill:#5d6eee;" />
<polygon points="30.0,17.3205080756888 0,34.6410161513775 -30.0,17.3205080756888 -30.0,-17.3205080756888 0,-34.6410161513775 30.0,-17.3205080756888" style="stroke:black;fill:none;" />
<text text-anchor="middle" y="-3" dominant-baseline="mathematical" style="fill:#000000;font-size:10.0;">7.58e+11</text>
</g>
<g transform="translate(240.0 319.807621135332)">
<polygon points="30.0,17.3205080756888 0,34.6410161513775 -30.0,17.3205080756888 -30.0,-17.3205080756888 0,-34.6410161513775 30.0,-17.3205080756888" style="stroke:none;fill:#b5ff00;" />
<polygon points="30.0,17.3205080756888 0,34.6410161513775 -30.0,17.3205080756888 -30.0,-17.3205080756888 0,-34.6410161513775 30.0,-17.3205080756888" style="stroke:black;fill:none;" />
<text text-anchor="middle" y="-3" dominant-baseline="mathematical" style="fill:#000000;font-size:10.0;">1.28e+13</text>
</g>
<g transform="translate(300.0 319.807621135332)">
<polygon points="30.0,17.3205080756888 0,34.6410161513775 -30.0,17.3205080756888 -30.0,-17.3205080756888 0,-34.6410161513775 30.0,-17.3205080756888" style="stroke:none;fill:#ff6d00;" />
<polygon points="30.0,17.3205080756888 0,34.6410161513775 -30.0,17.3205080756888 -30.0,-17.3205080756888 0,-34.6410161513775 30.0,-17.3205080756888" style="stroke:black;fill:none;" />
<text text-anchor="middle" y="-3" dominant-baseline="mathematical" style="fill:#000000;font-size:10.0;">1.91e+13</text>
</g>
<g transform="translate(150.0 267.846096908265)">
<polygon points="30.0,17.3205080756888 0,34.6410161513775 -30.0,17.3205080756888 -30.0,-17.3205080756888 0,-34.6410161513775 30.0,-17.3205080756888" style="stroke:none;fill:#5d6eee;" />
<polygon points="30.0,17.3205080756888 0,34.6410161513775 -30.0,17.3205080756888 -30.0,-17.3205080756888 0,-34.6410161513775 30.0,-17.3205080756888" style="stroke:black;fill:none;" />
<text text-anchor="middle" y="-3" dominant-baseline="mathematical" style="fill:#000000;font-size:10.0;">7.57e+11</text>
</g>
<g transform="translate(210.0 267.846096908265)">
<polygon points="30.0,17.3205080756888 0,34.6410161513775 -30.0,17.3205080756888 -30.0,-17.3205080756888 0,-34.6410161513775 30.0,-17.3205080756888" style="stroke:none;fill:#c2ff00;" />
<polygon points="30.0,17.3205080756888 0,34.6410161513775 -30.0,17.3205080756888 -30.0,-17.3205080756888 0,-34.6410161513775 30.0,-17.3205080756888" style="stroke:black;fill:none;" />
<text text-anchor="middle" y="-3" dominant-baseline="mathematical" style="fill:#000000;font-size:10.0;">1.31e+13</text>
</g>
<g transform="translate(270.0 267.846096908265)">
<polygon points="30.0,17.3205080756888 0,34.6410161513775 -30.0,17.3205080756888 -30.0,-17.3205080756888 0,-34.6410161513775 30.0,-17.3205080756888" style="stroke:none;fill:#ff5000;" />
<polygon points="30.0,17.3205080756888 0,34.6410161513775 -30.0,17.3205080756888 -30.0,-17.3205080756888 0,-34.6410161513775 30.0,-17.3205080756888" style="stroke:black;fill:none;" />
<text text-anchor="middle" y="-3" dominant-baseline="mathematical" style="fill:#000000;font-size:10.0;">2.00e+13</text>
</g>
<g transform="translate(330.0 267.846096908265)">
<polygon points="30.0,17.3205080756888 0,34.6410161513775 -30.0,17.3205080756888 -30.0,-17.3205080756888 0,-34.6410161513775 30.0,-17.3205080756888" style="stroke:none;fill:#ff8300;" />
<polygon points="30.0,17.3205080756888 0,34.6410161513775 -30.0,17.3205080756888 -30.0,-17.3205080756888 0,-34.6410161513775 30.0,-17.3205080756888" style="stroke:black;fill:none;" />
<text text-anchor="middle" y="-3" dominant-baseline="mathematical" style="fill:#000000;font-size:10.0;">1.85e+13</text>
</g>
<g transform="translate(120.0 215.884572681199)">
<polygon points="30.0,17.3205080756888 0,34.6410161513775 -30.0,17.3205080756888 -30.0,-17.3205080756888 0,-34.6410161513775 30.0,-17.3205080756888" style="stroke:none;fill:#5d6eee;" />
<polygon points="30.0,17.3205080756888 0,34.6410161513775 -30.0,17.3205080756888 -30.0,-17.3205080756888 0,-34.6410161513775 30.0,-17.3205080756888" style="stroke:black;fill:none;" />
<text text-anchor="middle" y="-3" dominant-baseline="mathematical" style="fill:#000000;font-size:10.0;">7.58e+11</text>
</g>
<g transform="translate(180.0 215.884572681199)">
<polygon points="30.0,17.3205080756888 0,34.6410161513775 -30.0,17.3205080756888 -30.0,-17.3205080756888 0,-34.6410161513775 30.0,-17.3205080756888" style="stroke:none;fill:#c2ff00;" />
<polygon points="30.0,17.3205080756888 0,34.6410161513775 -30.0,17.3205080756888 -30.0,-17.3205080756888 0,-34.6410161513775 30.0,-17.3205080756888" style="stroke:black;fill:none;" />
<text text-anchor="middle" y="-3" dominant-baseline="mathematical" style="fill:#000000;font-size:10.0;">1.31e+13</text>
</g>
<g transform="translate(240.0 215.884572681199)">
<polygon points="30.0,17.3205080756888 0,34.6410161513775 -30.0,17.3205080756888 -30.0,-17.3205080756888 0,-34.6410161513775 30.0,-17.3205080756888" style="stroke:none;fill:#ff4600;" />
<polygon points="30.0,17.3205080756888 0,34.6410161513775 -30.0,17.3205080756888 -30.0,-17.3205080756888 0,-34.6410161513775 30.0,-17.3205080756888" style="stroke:black;fill:none;" />
<text text-anchor="middle" y="-3" dominant-baseline="mathematical" style="fill:#000000;font-size:10.0;">2.03e+13</text>
</g>
<g transform="translate(300.0 215.884572681199)">
<polygon points="30.0,17.3205080756888 0,34.6410161513775 -30.0,17.3205080756888 -30.0,-17.3205080756888 0,-34.6410161513775 30.0,-17.3205080756888" style="stroke:none;fill:#ff7c00;" />
<polygon points="30.0,17.3205080756888 0,34.6410161513775 -30.0,17.3205080756888 -30.0,-17.3205080756888 0,-34.6410161513775 30.0,-17.3205080756888" style="stroke:black;fill:none;" />
<text text-anchor="middle" y="-3" dominant-baseline="mathematical" style="fill:#000000;font-size:10.0;">1.87e+13</text>
</g>
<g transform="translate(360.0 215.884572681199)">
<polygon points="30.0,17.3205080756888 0,34.6410161513775 -30.0,17.3205080756888 -30.0,-17.3205080756888 0,-34.6410161513775 30.0,-17.3205080756888" style="stroke:none;fill:#ff1700;" />
<polygon points="30.0,17.3205080756888 0,34.6410161513775 -30.0,17.3205080756888 -30.0,-17.3205080756888 0,-34.6410161513775 30.0,-17.3205080756888" style="stroke:black;fill:none;" />
<text text-anchor="middle" y="-3" dominant-baseline="mathematical" style="fill:#000000;font-size:10.0;">2.17e+13</text>
</g>
<g transform="translate(90.0 163.923048454133)">
<polygon points="30.0,17.3205080756888 0,34.6410161513775 -30.0,17.3205080756888 -30.0,-17.3205080756888 0,-34.6410161513775 30.0,-17.3205080756888" style="stroke:none;fill:#5e6bf1;" />
<polygon points="30.0,17.3205080756888 0,34.6410161513775 -30.0,17.3205080756888 -30.0,-17.3205080756888 0,-34.6410161513775 30.0,-17.3205080756888" style="stroke:black;fill:none;" />
<text text-anchor="middle" y="-3" dominant-baseline="mathematical" style="fill:#000000;font-size:10.0;">6.60e+11</text>
</g>
<g transform="translate(150.0 163.923048454133)">
<polygon points="30.0,17.3205080756888 0,34.6410161513775 -30.0,17.3205080756888 -30.0,-17.3205080756888 0,-34.6410161513775 30.0,-17.3205080756888" style="stroke:none;fill:#b5ff00;" />
<polygon points="30.0,17.3205080756888 0,34.6410161513775 -30.0,17.3205080756888 -30.0,-17.3205080756888 0,-34.6410161513775 30.0,-17.3205080756888" style="stroke:black;fill:none;" />
<text text-anchor="middle" y="-3" dominant-baseline="mathematical" style="fill:#000000;font-size:10.0;">1.28e+13</text>
</g>
<g transform="translate(210.0 163.923048454133)">
<polygon points="30.0,17.3205080756888 0,34.6410161513775 -30.0,17.3205080756888 -30.0,-17.3205080756888 0,-34.6410161513775 30.0,-17.3205080756888" style="stroke:none;fill:#ff5000;" />
<polygon points="30.0,17.3205080756888 0,34.6410161513775 -30.0,17.3205080756888 -30.0,-17.3205080756888 0,-34.6410161513775 30.0,-17.3205080756888" style="stroke:black;fill:none;" />
<text text-anchor="middle" y="-3" dominant-baseline="mathematical" style="fill:#000000;font-size:10.0;">2.00e+13</text>
</g>
<g transform="translate(270.0 163.923048454133)">
<polygon points="30.0,17.3205080756888 0,34.6410161513775 -30.0,17.3205080756888 -30.0,-17.3205080756888 0,-34.6410161513775 30.0,-17.3205080756888" style="stroke:none;fill:#ff7c00;" />
<polygon points="30.0,17.3205080756888 0,34.6410161513775 -30.0,17.3205080756888 -30.0,-17.3205080756888 0,-34.6410161513775 30.0,-17.3205080756888" style="stroke:black;fill:none;" />
<text text-anchor="middle" y="-3" dominant-baseline="mathematical" style="fill:#000000;font-size:10.0;">1.87e+13</text>
</g>
<g transform="translate(330.0 163.923048454133)">
<polygon points="30.0,17.3205080756888 0,34.6410161513775 -30.0,17.3205080756888 -30.0,-17.3205080756888 0,-34.6410161513775 30.0,-17.3205080756888" style="stroke:none;fill:#ff1000;" />
<polygon points="30.0,17.3205080756888 0,34.6410161513775 -30.0,17.3205080756888 -30.0,-17.3205080756888 0,-34.6410161513775 30.0,-17.3205080756888" style="stroke:black;fill:none;" />
<text text-anchor="middle" y="-3" dominant-baseline="mathematical" style="fill:#000000;font-size:10.0;">2.19e+13</text>
</g>
<g transform="translate(390.0 163.923048454133)">
<polygon points="30.0,17.3205080756888 0,34.6410161513775 -30.0,17.3205080756888 -30.0,-17.3205080756888 0,-34.6410161513775 30.0,-17.3205080756888" style="stroke:none;fill:#ff6300;" />
<polygon points="30.0,17.3205080756888 0,34.6410161513775 -30.0,17.3205080756888 -30.0,-17.3205080756888 0,-34.6410161513775 30.0,-17.3205080756888" style="stroke:black;fill:none;" />
<text text-anchor="middle" y="-3" dominant-baseline="mathematical" style="fill:#000000;font-size:10.0;">1.94e+13</text>
</g>
<g transform="translate(60.0 111.961524227066)">
<polygon points="30.0,17.3205080756888 0,34.6410161513775 -30.0,17.3205080756888 -30.0,-17.3205080756888 0,-34.6410161513775 30.0,-17.3205080756888" style="stroke:none;fill:#6364fe;" />
<polygon points="30.0,17.3205080756888 0,34.6410161513775 -30.0,17.3205080756888 -30.0,-17.3205080756888 0,-34.6410161513775 30.0,-17.3205080756888" style="stroke:black;fill:none;" />
<text text-anchor="middle" y="-3" dominant-baseline="mathematical" style="fill:#000000;font-size:10.0;">2.86e+11</text>
</g>
<g transform="translate(120.0 111.961524227066)">
<polygon points="30.0,17.3205080756888 0,34.6410161513775 -30.0,17.3205080756888 -30.0,-17.3205080756888 0,-34.6410161513775 30.0,-17.3205080756888" style="stroke:none;fill:#4cff00;" />
<polygon points="30.0,17.3205080756888 0,34.6410161513775 -30.0,17.3205080756888 -30.0,-17.3205080756888 0,-34.6410161513775 30.0,-17.3205080756888" style="stroke:black;fill:none;" />
<text text-anchor="middle" y="-3" dominant-baseline="mathematical" style="fill:#000000;font-size:10.0;">9.77e+12</text>
</g>
<g transform="translate(180.0 111.961524227066)">
<polygon points="30.0,17.3205080756888 0,34.6410161513775 -30.0,17.3205080756888 -30.0,-17.3205080756888 0,-34.6410161513775 30.0,-17.3205080756888" style="stroke:none;fill:#ff6d00;" />
<polygon points="30.0,17.3205080756888 0,34.6410161513775 -30.0,17.3205080756888 -30.0,-17.3205080756888 0,-34.6410161513775 30.0,-17.3205080756888" style="stroke:black;fill:none;" />
<text text-anchor="middle" y="-3" dominant-baseline="mathematical" style="fill:#000000;font-size:10.0;">1.91e+13</text>
</g>
<g transform="translate(240.0 111.961524227066)">
<polygon points="30.0,17.3205080756888 0,34.6410161513775 -30.0,17.3205080756888 -30.0,-17.3205080756888 0,-34.6410161513775 30.0,-17.3205080756888" style="stroke:none;fill:#ff8300;" />
<polygon points="30.0,17.3205080756888 0,34.6410161513775 -30.0,17.3205080756888 -30.0,-17.3205080756888 0,-34.6410161513775 30.0,-17.3205080756888" style="stroke:black;fill:none;" />
<text text-anchor="middle" y="-3" dominant-baseline="mathematical" style="fill:#000000;font-size:10.0;">1.85e+13</text>
</g>
<g transform="translate(300.0 111.961524227066)">
<polygon points="30.0,17.3205080756888 0,34.6410161513775 -30.0,17.3205080756888 -30.0,-17.3205080756888 0,-34.6410161513775 30.0,-17.3205080756888" style="stroke:none;fill:#ff1700;" />
<polygon points="30.0,17.3205080756888 0,34.6410161513775 -30.0,17.3205080756888 -30.0,-17.3205080756888 0,-34.6410161513775 30.0,-17.3205080756888" style="stroke:black;fill:none;" />
<text text-anchor="middle" y="-3" dominant-baseline="mathematical" style="fill:#000000;font-size:10.0;">2.17e+13</text>
</g>
<g transform="translate(360.0 111.961524227066)">
<polygon points="30.0,17.3205080756888 0,34.6410161513775 -30.0,17.3205080756888 -30.0,-17.3205080756888 0,-34.6410161513775 30.0,-17.3205080756888" style="stroke:none;fill:#ff6300;" />
<polygon points="30.0,17.3205080756888 0,34.6410161513775 -30.0,17.3205080756888 -30.0,-17.3205080756888 0,-34.6410161513775 30.0,-17.3205080756888" style="stroke:black;fill:none;" />
<text text-anchor="middle" y="-3" dominant-baseline="mathematical" style="fill:#000000;font-size:10.0;">1.94e+13</text>
</g>
<g transform="translate(420.0 111.961524227066)">
<polygon points="30.0,17.3205080756888 0,34.6410161513775 -30.0,17.3205080756888 -30.0,-17.3205080756888 0,-34.6410161513775 30.0,-17.3205080756888" style="stroke:none;fill:#ff0800;" />
<polygon points="30.0,17.3205080756888 0,34.6410161513775 -30.0,17.3205080756888 -30.0,-17.3205080756888 0,-34.6410161513775 30.0,-17.3205080756888" style="stroke:black;fill:none;" />
<text text-anchor="middle" y="-3" dominant-baseline="mathematical" style="fill:#000000;font-size:10.0;">2.21e+13</text>
</g>
<g transform="translate(90.0 60.0)">
<polygon points="30.0,17.3205080756888 0,34.6410161513775 -30.0,17.3205080756888 -30.0,-17.3205080756888 0,-34.6410161513775 30.0,-17.3205080756888" style="stroke:none;fill:#5974e3;" />
<polygon points="30.0,17.3205080756888 0,34.6410161513775 -30.0,17.3205080756888 -30.0,-17.3205080756888 0,-34.6410161513775 30.0,-17.3205080756888" style="stroke:black;fill:none;" />
<text text-anchor="middle" y="-3" dominant-baseline="mathematical" style="fill:#000000;font-size:10.0;">1.08e+12</text>
</g>
<g transform="translate(150.0 60.0)">
<polygon points="30.0,17.3205080756888 0,34.6410161513775 -30.0,17.3205080756888 -30.0,-17.3205080756888 0,-34.6410161513775 30.0,-17.3205080756888" style="stroke:none;fill:#fff600;" />
<polygon points="30.0,17.3205080756888 0,34.6410161513775 -30.0,17.3205080756888 -30.0,-17.3205080756888 0,-34.6410161513775 30.0,-17.3205080756888" style="stroke:black;fill:none;" />
<text text-anchor="middle" y="-3" dominant-baseline="mathematical" style="fill:#000000;font-size:10.0;">1.51e+13</text>
</g>
<g transform="translate(210.0 60.0)">
<polygon points="30.0,17.3205080756888 0,34.6410161513775 -30.0,17.3205080756888 -30.0,-17.3205080756888 0,-34.6410161513775 30.0,-17.3205080756888" style="stroke:none;fill:#ff3d00;" />
<polygon points="30.0,17.3205080756888 0,34.6410161513775 -30.0,17.3205080756888 -30.0,-17.3205080756888 0,-34.6410161513775 30.0,-17.3205080756888" style="stroke:black;fill:none;" />
<text text-anchor="middle" y="-3" dominant-baseline="mathematical" style="fill:#000000;font-size:10.0;">2.05e+13</text>
</g>
<g transform="translate(270.0 60.0)">
<polygon points="30.0,17.3205080756888 0,34.6410161513775 -30.0,17.3205080756888 -30.0,-17.3205080756888 0,-34.6410161513775 30.0,-17.3205080756888" style="stroke:none;fill:#ff7a00;" />
<polygon points="30.0,17.3205080756888 0,34.6410161513775 -30.0,17.3205080756888 -30.0,-17.3205080756888 0,-34.6410161513775 30.0,-17.3205080756888" style="stroke:black;fill:none;" />
<text text-anchor="middle" y="-3" dominant-baseline="mathematical" style="fill:#000000;font-size:10.0;">1.87e+13</text>
</g>
<g transform="translate(330.0 60.0)">
<polygon points="30.0,17.3205080756888 0,34.6410161513775 -30.0,17.3205080756888 -30.0,-17.3205080756888 0,-34.6410161513775 30.0,-17.3205080756888" style="stroke:none;fill:#ff0000;" />
<polygon points="30.0,17.3205080756888 0,34.6410161513775 -30.0,17.3205080756888 -30.0,-17.3205080756888 0,-34.6410161513775 30.0,-17.3205080756888" style="stroke:black;fill:none;" />
<text text-anchor="middle" y="-3" dominant-baseline="mathematical" style="fill:#000000;font-size:10.0;">2.24e+13</text>
</g>
<g transform="translate(390.0 60.0)">
<polygon points="30.0,17.3205080756888 0,34.6410161513775 -30.0,17.3205080756888 -30.0,-17.3205080756888 0,-34.6410161513775 30.0,-17.3205080756888" style="stroke:none;fill:#ff0700;" />
<polygon points="30.0,17.3205080756888 0,34.6410161513775 -30.0,17.3205080756888 -30.0,-17.3205080756888 0,-34.6410161513775 30.0,-17.3205080756888" style="stroke:black;fill:none;" />
<text text-anchor="middle" y="-3" dominant-baseline="mathematical" style="fill:#000000;font-size:10.0;">2.21e+13</text>
</g>
<g transform="translate(450.0 60.0)">
<polygon points="30.0,17.3205080756888 0,34.6410161513775 -30.0,17.3205080756888 -30.0,-17.3205080756888 0,-34.6410161513775 30.0,-17.3205080756888" style="stroke:none;fill:#ff7c00;" />
<polygon points="30.0,17.3205080756888 0,34.6410161513775 -30.0,17.3205080756888 -30.0,-17.3205080756888 0,-34.6410161513775 30.0,-17.3205080756888" style="stroke:black;fill:none;" />
<text text-anchor="middle" y="-3" dominant-baseline="mathematical" style="fill:#000000;font-size:10.0;">1.87e+13</text>
</g>
<g transform="translate(510.0 60.0)">
<polygon points="30.0,17.3205080756888 0,34.6410161513775 -30.0,17.3205080756888 -30.0,-17.3205080756888 0,-34.6410161513775 30.0,-17.3205080756888" style="stroke:none;fill:#ff3500;" />
<polygon points="30.0,17.3205080756888 0,34.6410161513775 -30.0,17.3205080756888 -30.0,-17.3205080756888 0,-34.6410161513775 30.0,-17.3205080756888" style="stroke:black;fill:none;" />
<text text-anchor="middle" y="-3" dominant-baseline="mathematical" style="fill:#000000;font-size:10.0;">2.08e+13</text>
</g>
</svg>
