<svg width="320" height="320" xmlns="http://www.w3.org/2000/svg" version="1.1">
<rect x="1" y="1" width="38" height="38" fill="#8888ff"/>
<text x="20" y="30.0" font-size="20" text-anchor="middle" fill="white">F6</text>
<rect x="1" y="41" width="38" height="38" fill="#ccccff"/>
<text x="20" y="70.0" font-size="20" text-anchor="middle" fill="white">F8</text>
<rect x="1" y="81" width="38" height="38" fill="#0000ff"/>
<text x="20" y="110.0" font-size="20" text-anchor="middle" fill="white">F4</text>
<rect x="1" y="121" width="38" height="38" fill="#0000ff"/>
<text x="20" y="150.0" font-size="20" text-anchor="middle" fill="white">F4</text>
<rect x="1" y="161" width="38" height="38" fill="#0000ff"/>
<text x="20" y="190.0" font-size="20" text-anchor="middle" fill="white">F4</text>
<rect x="1" y="201" width="38" height="38" fill="#0000ff"/>
<text x="20" y="230.0" font-size="20" text-anchor="middle" fill="white">F4</text>
<rect x="1" y="241" width="38" height="38" fill="#0000ff"/>
<text x="20" y="270.0" font-size="20" text-anchor="middle" fill="white">F4</text>
<rect x="1" y="281" width="38" height="38" fill="#8888ff"/>
<text x="20" y="310.0" font-size="20" text-anchor="middle" fill="white">F6</text>
<rect x="41" y="1" width="38" height="38" fill="#0000ff"/>
<text x="60" y="30.0" font-size="20" text-anchor="middle" fill="white">F4</text>
<rect x="41" y="41" width="38" height="38" fill="#0000ff"/>
<text x="60" y="70.0" font-size="20" text-anchor="middle" fill="white">F4</text>
<rect x="41" y="81" width="38" height="38" fill="#00ffff"/>
<text x="60" y="110.0" font-size="20" text-anchor="middle" fill="white">R1</text>
<rect x="41" y="121" width="38" height="38" fill="#0000ff"/>
<text x="60" y="150.0" font-size="20" text-anchor="middle" fill="white">F4</text>
<rect x="41" y="161" width="38" height="38" fill="#0000ff"/>
<text x="60" y="190.0" font-size="20" text-anchor="middle" fill="white">F4</text>
<rect x="41" y="201" width="38" height="38" fill="#0000ff"/>
<text x="60" y="230.0" font-size="20" text-anchor="middle" fill="white">F4</text>
<rect x="41" y="241" width="38" height="38" fill="#0000ff"/>
<text x="60" y="270.0" font-size="20" text-anchor="middle" fill="white">F4</text>
<rect x="41" y="281" width="38" height="38" fill="#0000ff"/>
<text x="60" y="310.0" font-size="20" text-anchor="middle" fill="white">F4</text>
<rect x="81" y="1" width="38" height="38" fill="#0000ff"/>
<text x="100" y="30.0" font-size="20" text-anchor="middle" fill="white">F4</text>
<rect x="81" y="41" width="38" height="38" fill="#997700"/>
<text x="100" y="70.0" font-size="20" text-anchor="middle" fill="white">B1</text>
<rect x="81" y="81" width="38" height="38" fill="#997700"/>
<text x="100" y="110.0" font-size="20" text-anchor="middle" fill="white">B3</text>
<rect x="81" y="121" width="38" height="38" fill="#0000ff"/>
<text x="100" y="150.0" font-size="20" text-anchor="middle" fill="white">F4</text>
<rect x="81" y="161" width="38" height="38" fill="#8888ff"/>
<text x="100" y="190.0" font-size="20" text-anchor="middle" fill="white">F6</text>
<rect x="81" y="201" width="38" height="38" fill="#0000ff"/>
<text x="100" y="230.0" font-size="20" text-anchor="middle" fill="white">F4</text>
<rect x="81" y="241" width="38" height="38" fill="#0000ff"/>
<text x="100" y="270.0" font-size="20" text-anchor="middle" fill="white">F4</text>
<rect x="81" y="281" width="38" height="38" fill="#0000ff"/>
<text x="100" y="310.0" font-size="20" text-anchor="middle" fill="white">F4</text>
<rect x="121" y="1" width="38" height="38" fill="#0000ff"/>
<text x="140" y="30.0" font-size="20" text-anchor="middle" fill="white">F4</text>
<rect x="121" y="41" width="38" height="38" fill="#0000ff"/>
<text x="140" y="70.0" font-size="20" text-anchor="middle" fill="white">F4</text>
<rect x="121" y="81" width="38" height="38" fill="#0000ff"/>
<text x="140" y="110.0" font-size="20" text-anchor="middle" fill="white">F4</text>
<rect x="121" y="121" width="38" height="38" fill="#0000ff"/>
<text x="140" y="150.0" font-size="20" text-anchor="middle" fill="white">F4</text>
<rect x="121" y="161" width="38" height="38" fill="#0000ff"/>
<text x="140" y="190.0" font-size="20" text-anchor="middle" fill="white">F4</text>
<rect x="121" y="201" width="38" height="38" fill="#8888ff"/>
<text x="140" y="230.0" font-size="20" text-anchor="middle" fill="white">F6</text>
<rect x="121" y="241" width="38" height="38" fill="#0000ff"/>
<text x="140" y="270.0" font-size="20" text-anchor="middle" fill="white">F4</text>
<rect x="121" y="281" width="38" height="38" fill="#0000ff"/>
<text x="140" y="310.0" font-size="20" text-anchor="middle" fill="white">F4</text>
<rect x="161" y="1" width="38" height="38" fill="#0000ff"/>
<text x="180" y="30.0" font-size="20" text-anchor="middle" fill="white">F4</text>
<rect x="161" y="41" width="38" height="38" fill="#997700"/>
<text x="180" y="70.0" font-size="20" text-anchor="middle" fill="white">B2</text>
<rect x="161" y="81" width="38" height="38" fill="#ff00ff"/>
<text x="180" y="110.0" font-size="20" text-anchor="middle" fill="white">E2</text>
<rect x="161" y="121" width="38" height="38" fill="#8888ff"/>
<text x="180" y="150.0" font-size="20" text-anchor="middle" fill="white">F6</text>
<rect x="161" y="161" width="38" height="38" fill="#8888ff"/>
<text x="180" y="190.0" font-size="20" text-anchor="middle" fill="white">F6</text>
<rect x="161" y="201" width="38" height="38" fill="#0000ff"/>
<text x="180" y="230.0" font-size="20" text-anchor="middle" fill="white">F4</text>
<rect x="161" y="241" width="38" height="38" fill="#0000ff"/>
<text x="180" y="270.0" font-size="20" text-anchor="middle" fill="white">F4</text>
<rect x="161" y="281" width="38" height="38" fill="#0000ff"/>
<text x="180" y="310.0" font-size="20" text-anchor="middle" fill="white">F4</text>
<rect x="201" y="1" width="38" height="38" fill="#0000ff"/>
<text x="220" y="30.0" font-size="20" text-anchor="middle" fill="white">F4</text>
<rect x="201" y="41" width="38" height="38" fill="#ff00ff"/>
<text x="220" y="70.0" font-size="20" text-anchor="middle" fill="white">E1</text>
<rect x="201" y="81" width="38" height="38" fill="#ccccff"/>
<text x="220" y="110.0" font-size="20" text-anchor="middle" fill="white">F8</text>
<rect x="201" y="121" width="38" height="38" fill="#00ffff"/>
<text x="220" y="150.0" font-size="20" text-anchor="middle" fill="white">R2</text>
<rect x="201" y="161" width="38" height="38" fill="#0000ff"/>
<text x="220" y="190.0" font-size="20" text-anchor="middle" fill="white">F4</text>
<rect x="201" y="201" width="38" height="38" fill="#ccccff"/>
<text x="220" y="230.0" font-size="20" text-anchor="middle" fill="white">F8</text>
<rect x="201" y="241" width="38" height="38" fill="#ccccff"/>
<text x="220" y="270.0" font-size="20" text-anchor="middle" fill="white">F8</text>
<rect x="201" y="281" width="38" height="38" fill="#0000ff"/>
<text x="220" y="310.0" font-size="20" text-anchor="middle" fill="white">F4</text>
<rect x="241" y="1" width="38" height="38" fill="#0000ff"/>
<text x="260" y="30.0" font-size="20" text-anchor="middle" fill="white">F4</text>
<rect x="241" y="41" width="38" height="38" fill="#0000ff"/>
<text x="260" y="70.0" font-size="20" text-anchor="middle" fill="white">F4</text>
<rect x="241" y="81" width="38" height="38" fill="#8888ff"/>
<text x="260" y="110.0" font-size="20" text-anchor="middle" fill="white">F6</text>
<rect x="241" y="121" width="38" height="38" fill="#0000ff"/>
<text x="260" y="150.0" font-size="20" text-anchor="middle" fill="white">F4</text>
<rect x="241" y="161" width="38" height="38" fill="#8888ff"/>
<text x="260" y="190.0" font-size="20" text-anchor="middle" fill="white">F6</text>
<rect x="241" y="201" width="38" height="38" fill="#0000ff"/>
<text x="260" y="230.0" font-size="20" text-anchor="middle" fill="white">F4</text>
<rect x="241" y="241" width="38" height="38" fill="#0000ff"/>
<text x="260" y="270.0" font-size="20" text-anchor="middle" fill="white">F4</text>
<rect x="241" y="281" width="38" height="38" fill="#0000ff"/>
<text x="260" y="310.0" font-size="20" text-anchor="middle" fill="white">F4</text>
<rect x="281" y="1" width="38" height="38" fill="#0000ff"/>
<text x="300" y="30.0" font-size="20" text-anchor="middle" fill="white">F4</text>
<rect x="281" y="41" width="38" height="38" fill="#ccccff"/>
<text x="300" y="70.0" font-size="20" text-anchor="middle" fill="white">F8</text>
<rect x="281" y="81" width="38" height="38" fill="#ccccff"/>
<text x="300" y="110.0" font-size="20" text-anchor="middle" fill="white">F8</text>
<rect x="281" y="121" width="38" height="38" fill="#0000ff"/>
<text x="300" y="150.0" font-size="20" text-anchor="middle" fill="white">F4</text>
<rect x="281" y="161" width="38" height="38" fill="#0000ff"/>
<text x="300" y="190.0" font-size="20" text-anchor="middle" fill="white">F4</text>
<rect x="281" y="201" width="38" height="38" fill="#0000ff"/>
<text x="300" y="230.0" font-size="20" text-anchor="middle" fill="white">F4</text>
<rect x="281" y="241" width="38" height="38" fill="#0000ff"/>
<text x="300" y="270.0" font-size="20" text-anchor="middle" fill="white">F4</text>
<rect x="281" y="281" width="38" height="38" fill="#8888ff"/>
<text x="300" y="310.0" font-size="20" text-anchor="middle" fill="white">F6</text>
</svg>
