<svg width="320" height="320" xmlns="http://www.w3.org/2000/svg" version="1.1">
<rect x="2.0" y="2.0" width="36.0" height="36.0" fill="blue" />
<rect x="2.0" y="42.0" width="36.0" height="36.0" fill="blue" />
<rect x="2.0" y="82.0" width="36.0" height="36.0" fill="blue" />
<rect x="2.0" y="122.0" width="36.0" height="36.0" fill="blue" />
<rect x="2.0" y="162.0" width="36.0" height="36.0" fill="blue" />
<rect x="2.0" y="202.0" width="36.0" height="36.0" fill="blue" />
<rect x="2.0" y="242.0" width="36.0" height="36.0" fill="blue" />
<rect x="2.0" y="282.0" width="36.0" height="36.0" fill="blue" />
<rect x="42.0" y="2.0" width="36.0" height="36.0" fill="blue" />
<rect x="42.0" y="42.0" width="36.0" height="36.0" fill="blue" />
<rect x="42.0" y="82.0" width="36.0" height="36.0" fill="blue" />
<rect x="42.0" y="122.0" width="36.0" height="36.0" fill="blue" />
<rect x="42.0" y="162.0" width="36.0" height="36.0" fill="blue" />
<rect x="42.0" y="202.0" width="36.0" height="36.0" fill="blue" />
<rect x="42.0" y="242.0" width="36.0" height="36.0" fill="blue" />
<rect x="42.0" y="282.0" width="36.0" height="36.0" fill="blue" />
<rect x="82.0" y="2.0" width="36.0" height="36.0" fill="blue" />
<rect x="82.0" y="42.0" width="36.0" height="36.0" fill="blue" />
<rect x="82.0" y="82.0" width="36.0" height="36.0" fill="blue" />
<rect x="82.0" y="122.0" width="36.0" height="36.0" fill="blue" />
<rect x="82.0" y="162.0" width="36.0" height="36.0" fill="blue" />
<rect x="82.0" y="202.0" width="36.0" height="36.0" fill="blue" />
<rect x="82.0" y="242.0" width="36.0" height="36.0" fill="blue" />
<rect x="82.0" y="282.0" width="36.0" height="36.0" fill="blue" />
<rect x="122.0" y="2.0" width="36.0" height="36.0" fill="blue" />
<rect x="122.0" y="42.0" width="36.0" height="36.0" fill="red" onclick="$('#chart').show();$('#chart div').hide(); $('#chart_20131120_3').show();"/>
<text x="140.0" y="67.0" text-anchor="middle" onclick="$('#chart').show();$('#chart div').hide(); $('#chart_20131120_3').show();">3,1</text>
<rect x="122.0" y="82.0" width="36.0" height="36.0" fill="blue" />
<rect x="122.0" y="122.0" width="36.0" height="36.0" fill="blue" />
<rect x="122.0" y="162.0" width="36.0" height="36.0" fill="blue" />
<rect x="122.0" y="202.0" width="36.0" height="36.0" fill="blue" />
<rect x="122.0" y="242.0" width="36.0" height="36.0" fill="blue" />
<rect x="122.0" y="282.0" width="36.0" height="36.0" fill="blue" />
<rect x="162.0" y="2.0" width="36.0" height="36.0" fill="blue" />
<rect x="162.0" y="42.0" width="36.0" height="36.0" fill="blue" />
<rect x="162.0" y="82.0" width="36.0" height="36.0" fill="blue" />
<rect x="162.0" y="122.0" width="36.0" height="36.0" fill="blue" />
<rect x="162.0" y="162.0" width="36.0" height="36.0" fill="blue" />
<rect x="162.0" y="202.0" width="36.0" height="36.0" fill="blue" />
<rect x="162.0" y="242.0" width="36.0" height="36.0" fill="blue" />
<rect x="162.0" y="282.0" width="36.0" height="36.0" fill="blue" />
<rect x="202.0" y="2.0" width="36.0" height="36.0" fill="red" onclick="$('#chart').show();$('#chart div').hide(); $('#chart_20131120_1').show();"/>
<text x="220.0" y="27.0" text-anchor="middle" onclick="$('#chart').show();$('#chart div').hide(); $('#chart_20131120_1').show();">5,0</text>
<rect x="202.0" y="42.0" width="36.0" height="36.0" fill="blue" />
<rect x="202.0" y="82.0" width="36.0" height="36.0" fill="blue" />
<rect x="202.0" y="122.0" width="36.0" height="36.0" fill="blue" />
<rect x="202.0" y="162.0" width="36.0" height="36.0" fill="blue" />
<rect x="202.0" y="202.0" width="36.0" height="36.0" fill="blue" />
<rect x="202.0" y="242.0" width="36.0" height="36.0" fill="blue" />
<rect x="202.0" y="282.0" width="36.0" height="36.0" fill="blue" />
<rect x="242.0" y="2.0" width="36.0" height="36.0" fill="blue" />
<rect x="242.0" y="42.0" width="36.0" height="36.0" fill="blue" />
<rect x="242.0" y="82.0" width="36.0" height="36.0" fill="blue" />
<rect x="242.0" y="122.0" width="36.0" height="36.0" fill="blue" />
<rect x="242.0" y="162.0" width="36.0" height="36.0" fill="blue" />
<rect x="242.0" y="202.0" width="36.0" height="36.0" fill="blue" />
<rect x="242.0" y="242.0" width="36.0" height="36.0" fill="blue" />
<rect x="242.0" y="282.0" width="36.0" height="36.0" fill="blue" />
<rect x="282.0" y="2.0" width="36.0" height="36.0" fill="blue" />
<rect x="282.0" y="42.0" width="36.0" height="36.0" fill="blue" />
<rect x="282.0" y="82.0" width="36.0" height="36.0" fill="red" onclick="$('#chart').show();$('#chart div').hide(); $('#chart_20131120_2').show();"/>
<text x="300.0" y="107.0" text-anchor="middle" onclick="$('#chart').show();$('#chart div').hide(); $('#chart_20131120_2').show();">7,2</text>
<rect x="282.0" y="122.0" width="36.0" height="36.0" fill="blue" />
<rect x="282.0" y="162.0" width="36.0" height="36.0" fill="red" onclick="$('#chart').show();$('#chart div').hide(); $('#chart_20131120_4').show();"/>
<text x="300.0" y="187.0" text-anchor="middle" onclick="$('#chart').show();$('#chart div').hide(); $('#chart_20131120_4').show();">7,4</text>
<rect x="282.0" y="202.0" width="36.0" height="36.0" fill="blue" />
<rect x="282.0" y="242.0" width="36.0" height="36.0" fill="blue" />
<rect x="282.0" y="282.0" width="36.0" height="36.0" fill="blue" />
</svg>
