<svg  xmlns="http://www.w3.org/2000/svg"
          xmlns:xlink="http://www.w3.org/1999/xlink">
<g transform="translate(240.0 423.730669589464)">
<polygon points="30.0,17.3205080756888 0,34.6410161513775 -30.0,17.3205080756888 -30.0,-17.3205080756888 0,-34.6410161513775 30.0,-17.3205080756888" style="stroke:none;fill:#6464ff;" />
<polygon points="30.0,17.3205080756888 0,34.6410161513775 -30.0,17.3205080756888 -30.0,-17.3205080756888 0,-34.6410161513775 30.0,-17.3205080756888" style="stroke:black;fill:none;" />
<text text-anchor="middle" y="-3" dominant-baseline="mathematical" style="fill:#000000;font-size:10.0;">0.00</text>
</g>
<g transform="translate(210.0 371.769145362398)">
<polygon points="30.0,17.3205080756888 0,34.6410161513775 -30.0,17.3205080756888 -30.0,-17.3205080756888 0,-34.6410161513775 30.0,-17.3205080756888" style="stroke:none;fill:#6464ff;" />
<polygon points="30.0,17.3205080756888 0,34.6410161513775 -30.0,17.3205080756888 -30.0,-17.3205080756888 0,-34.6410161513775 30.0,-17.3205080756888" style="stroke:black;fill:none;" />
<text text-anchor="middle" y="-3" dominant-baseline="mathematical" style="fill:#000000;font-size:10.0;">0.00</text>
</g>
<g transform="translate(270.0 371.769145362398)">
<polygon points="30.0,17.3205080756888 0,34.6410161513775 -30.0,17.3205080756888 -30.0,-17.3205080756888 0,-34.6410161513775 30.0,-17.3205080756888" style="stroke:none;fill:#05f50f;" />
<polygon points="30.0,17.3205080756888 0,34.6410161513775 -30.0,17.3205080756888 -30.0,-17.3205080756888 0,-34.6410161513775 30.0,-17.3205080756888" style="stroke:black;fill:none;" />
<text text-anchor="middle" y="-3" dominant-baseline="mathematical" style="fill:#000000;font-size:10.0;">2169.00</text>
</g>
<g transform="translate(180.0 319.807621135332)">
<polygon points="30.0,17.3205080756888 0,34.6410161513775 -30.0,17.3205080756888 -30.0,-17.3205080756888 0,-34.6410161513775 30.0,-17.3205080756888" style="stroke:none;fill:#6464ff;" />
<polygon points="30.0,17.3205080756888 0,34.6410161513775 -30.0,17.3205080756888 -30.0,-17.3205080756888 0,-34.6410161513775 30.0,-17.3205080756888" style="stroke:black;fill:none;" />
<text text-anchor="middle" y="-3" dominant-baseline="mathematical" style="fill:#000000;font-size:10.0;">0.00</text>
</g>
<g transform="translate(240.0 319.807621135332)">
<polygon points="30.0,17.3205080756888 0,34.6410161513775 -30.0,17.3205080756888 -30.0,-17.3205080756888 0,-34.6410161513775 30.0,-17.3205080756888" style="stroke:none;fill:#32ff00;" />
<polygon points="30.0,17.3205080756888 0,34.6410161513775 -30.0,17.3205080756888 -30.0,-17.3205080756888 0,-34.6410161513775 30.0,-17.3205080756888" style="stroke:black;fill:none;" />
<text text-anchor="middle" y="-3" dominant-baseline="mathematical" style="fill:#000000;font-size:10.0;">2761.00</text>
</g>
<g transform="translate(300.0 319.807621135332)">
<polygon points="30.0,17.3205080756888 0,34.6410161513775 -30.0,17.3205080756888 -30.0,-17.3205080756888 0,-34.6410161513775 30.0,-17.3205080756888" style="stroke:none;fill:#c7ff00;" />
<polygon points="30.0,17.3205080756888 0,34.6410161513775 -30.0,17.3205080756888 -30.0,-17.3205080756888 0,-34.6410161513775 30.0,-17.3205080756888" style="stroke:black;fill:none;" />
<text text-anchor="middle" y="-3" dominant-baseline="mathematical" style="fill:#000000;font-size:10.0;">4115.00</text>
</g>
<g transform="translate(150.0 267.846096908265)">
<polygon points="30.0,17.3205080756888 0,34.6410161513775 -30.0,17.3205080756888 -30.0,-17.3205080756888 0,-34.6410161513775 30.0,-17.3205080756888" style="stroke:none;fill:#6464ff;" />
<polygon points="30.0,17.3205080756888 0,34.6410161513775 -30.0,17.3205080756888 -30.0,-17.3205080756888 0,-34.6410161513775 30.0,-17.3205080756888" style="stroke:black;fill:none;" />
<text text-anchor="middle" y="-3" dominant-baseline="mathematical" style="fill:#000000;font-size:10.0;">0.00</text>
</g>
<g transform="translate(210.0 267.846096908265)">
<polygon points="30.0,17.3205080756888 0,34.6410161513775 -30.0,17.3205080756888 -30.0,-17.3205080756888 0,-34.6410161513775 30.0,-17.3205080756888" style="stroke:none;fill:#39ff00;" />
<polygon points="30.0,17.3205080756888 0,34.6410161513775 -30.0,17.3205080756888 -30.0,-17.3205080756888 0,-34.6410161513775 30.0,-17.3205080756888" style="stroke:black;fill:none;" />
<text text-anchor="middle" y="-3" dominant-baseline="mathematical" style="fill:#000000;font-size:10.0;">2830.00</text>
</g>
<g transform="translate(270.0 267.846096908265)">
<polygon points="30.0,17.3205080756888 0,34.6410161513775 -30.0,17.3205080756888 -30.0,-17.3205080756888 0,-34.6410161513775 30.0,-17.3205080756888" style="stroke:none;fill:#d4ff00;" />
<polygon points="30.0,17.3205080756888 0,34.6410161513775 -30.0,17.3205080756888 -30.0,-17.3205080756888 0,-34.6410161513775 30.0,-17.3205080756888" style="stroke:black;fill:none;" />
<text text-anchor="middle" y="-3" dominant-baseline="mathematical" style="fill:#000000;font-size:10.0;">4227.00</text>
</g>
<g transform="translate(330.0 267.846096908265)">
<polygon points="30.0,17.3205080756888 0,34.6410161513775 -30.0,17.3205080756888 -30.0,-17.3205080756888 0,-34.6410161513775 30.0,-17.3205080756888" style="stroke:none;fill:#ff1100;" />
<polygon points="30.0,17.3205080756888 0,34.6410161513775 -30.0,17.3205080756888 -30.0,-17.3205080756888 0,-34.6410161513775 30.0,-17.3205080756888" style="stroke:black;fill:none;" />
<text text-anchor="middle" y="-3" dominant-baseline="mathematical" style="fill:#000000;font-size:10.0;">6825.00</text>
</g>
<g transform="translate(120.0 215.884572681199)">
<polygon points="30.0,17.3205080756888 0,34.6410161513775 -30.0,17.3205080756888 -30.0,-17.3205080756888 0,-34.6410161513775 30.0,-17.3205080756888" style="stroke:none;fill:#6464ff;" />
<polygon points="30.0,17.3205080756888 0,34.6410161513775 -30.0,17.3205080756888 -30.0,-17.3205080756888 0,-34.6410161513775 30.0,-17.3205080756888" style="stroke:black;fill:none;" />
<text text-anchor="middle" y="-3" dominant-baseline="mathematical" style="fill:#000000;font-size:10.0;">0.00</text>
</g>
<g transform="translate(180.0 215.884572681199)">
<polygon points="30.0,17.3205080756888 0,34.6410161513775 -30.0,17.3205080756888 -30.0,-17.3205080756888 0,-34.6410161513775 30.0,-17.3205080756888" style="stroke:none;fill:#39ff00;" />
<polygon points="30.0,17.3205080756888 0,34.6410161513775 -30.0,17.3205080756888 -30.0,-17.3205080756888 0,-34.6410161513775 30.0,-17.3205080756888" style="stroke:black;fill:none;" />
<text text-anchor="middle" y="-3" dominant-baseline="mathematical" style="fill:#000000;font-size:10.0;">2830.00</text>
</g>
<g transform="translate(240.0 215.884572681199)">
<polygon points="30.0,17.3205080756888 0,34.6410161513775 -30.0,17.3205080756888 -30.0,-17.3205080756888 0,-34.6410161513775 30.0,-17.3205080756888" style="stroke:none;fill:#deff00;" />
<polygon points="30.0,17.3205080756888 0,34.6410161513775 -30.0,17.3205080756888 -30.0,-17.3205080756888 0,-34.6410161513775 30.0,-17.3205080756888" style="stroke:black;fill:none;" />
<text text-anchor="middle" y="-3" dominant-baseline="mathematical" style="fill:#000000;font-size:10.0;">4325.00</text>
</g>
<g transform="translate(300.0 215.884572681199)">
<polygon points="30.0,17.3205080756888 0,34.6410161513775 -30.0,17.3205080756888 -30.0,-17.3205080756888 0,-34.6410161513775 30.0,-17.3205080756888" style="stroke:none;fill:#ff0b00;" />
<polygon points="30.0,17.3205080756888 0,34.6410161513775 -30.0,17.3205080756888 -30.0,-17.3205080756888 0,-34.6410161513775 30.0,-17.3205080756888" style="stroke:black;fill:none;" />
<text text-anchor="middle" y="-3" dominant-baseline="mathematical" style="fill:#000000;font-size:10.0;">6888.00</text>
</g>
<g transform="translate(360.0 215.884572681199)">
<polygon points="30.0,17.3205080756888 0,34.6410161513775 -30.0,17.3205080756888 -30.0,-17.3205080756888 0,-34.6410161513775 30.0,-17.3205080756888" style="stroke:none;fill:#f3ff00;" />
<polygon points="30.0,17.3205080756888 0,34.6410161513775 -30.0,17.3205080756888 -30.0,-17.3205080756888 0,-34.6410161513775 30.0,-17.3205080756888" style="stroke:black;fill:none;" />
<text text-anchor="middle" y="-3" dominant-baseline="mathematical" style="fill:#000000;font-size:10.0;">4510.00</text>
</g>
<g transform="translate(90.0 163.923048454133)">
<polygon points="30.0,17.3205080756888 0,34.6410161513775 -30.0,17.3205080756888 -30.0,-17.3205080756888 0,-34.6410161513775 30.0,-17.3205080756888" style="stroke:none;fill:#6464ff;" />
<polygon points="30.0,17.3205080756888 0,34.6410161513775 -30.0,17.3205080756888 -30.0,-17.3205080756888 0,-34.6410161513775 30.0,-17.3205080756888" style="stroke:black;fill:none;" />
<text text-anchor="middle" y="-3" dominant-baseline="mathematical" style="fill:#000000;font-size:10.0;">0.00</text>
</g>
<g transform="translate(150.0 163.923048454133)">
<polygon points="30.0,17.3205080756888 0,34.6410161513775 -30.0,17.3205080756888 -30.0,-17.3205080756888 0,-34.6410161513775 30.0,-17.3205080756888" style="stroke:none;fill:#32ff00;" />
<polygon points="30.0,17.3205080756888 0,34.6410161513775 -30.0,17.3205080756888 -30.0,-17.3205080756888 0,-34.6410161513775 30.0,-17.3205080756888" style="stroke:black;fill:none;" />
<text text-anchor="middle" y="-3" dominant-baseline="mathematical" style="fill:#000000;font-size:10.0;">2761.00</text>
</g>
<g transform="translate(210.0 163.923048454133)">
<polygon points="30.0,17.3205080756888 0,34.6410161513775 -30.0,17.3205080756888 -30.0,-17.3205080756888 0,-34.6410161513775 30.0,-17.3205080756888" style="stroke:none;fill:#d4ff00;" />
<polygon points="30.0,17.3205080756888 0,34.6410161513775 -30.0,17.3205080756888 -30.0,-17.3205080756888 0,-34.6410161513775 30.0,-17.3205080756888" style="stroke:black;fill:none;" />
<text text-anchor="middle" y="-3" dominant-baseline="mathematical" style="fill:#000000;font-size:10.0;">4227.00</text>
</g>
<g transform="translate(270.0 163.923048454133)">
<polygon points="30.0,17.3205080756888 0,34.6410161513775 -30.0,17.3205080756888 -30.0,-17.3205080756888 0,-34.6410161513775 30.0,-17.3205080756888" style="stroke:none;fill:#ff0b00;" />
<polygon points="30.0,17.3205080756888 0,34.6410161513775 -30.0,17.3205080756888 -30.0,-17.3205080756888 0,-34.6410161513775 30.0,-17.3205080756888" style="stroke:black;fill:none;" />
<text text-anchor="middle" y="-3" dominant-baseline="mathematical" style="fill:#000000;font-size:10.0;">6888.00</text>
</g>
<g transform="translate(330.0 163.923048454133)">
<polygon points="30.0,17.3205080756888 0,34.6410161513775 -30.0,17.3205080756888 -30.0,-17.3205080756888 0,-34.6410161513775 30.0,-17.3205080756888" style="stroke:none;fill:#fff800;" />
<polygon points="30.0,17.3205080756888 0,34.6410161513775 -30.0,17.3205080756888 -30.0,-17.3205080756888 0,-34.6410161513775 30.0,-17.3205080756888" style="stroke:black;fill:none;" />
<text text-anchor="middle" y="-3" dominant-baseline="mathematical" style="fill:#000000;font-size:10.0;">4673.00</text>
</g>
<g transform="translate(390.0 163.923048454133)">
<polygon points="30.0,17.3205080756888 0,34.6410161513775 -30.0,17.3205080756888 -30.0,-17.3205080756888 0,-34.6410161513775 30.0,-17.3205080756888" style="stroke:none;fill:#ff0000;" />
<polygon points="30.0,17.3205080756888 0,34.6410161513775 -30.0,17.3205080756888 -30.0,-17.3205080756888 0,-34.6410161513775 30.0,-17.3205080756888" style="stroke:black;fill:none;" />
<text text-anchor="middle" y="-3" dominant-baseline="mathematical" style="fill:#000000;font-size:10.0;">6992.00</text>
</g>
<g transform="translate(60.0 111.961524227066)">
<polygon points="30.0,17.3205080756888 0,34.6410161513775 -30.0,17.3205080756888 -30.0,-17.3205080756888 0,-34.6410161513775 30.0,-17.3205080756888" style="stroke:none;fill:#6464ff;" />
<polygon points="30.0,17.3205080756888 0,34.6410161513775 -30.0,17.3205080756888 -30.0,-17.3205080756888 0,-34.6410161513775 30.0,-17.3205080756888" style="stroke:black;fill:none;" />
<text text-anchor="middle" y="-3" dominant-baseline="mathematical" style="fill:#000000;font-size:10.0;">0.00</text>
</g>
<g transform="translate(120.0 111.961524227066)">
<polygon points="30.0,17.3205080756888 0,34.6410161513775 -30.0,17.3205080756888 -30.0,-17.3205080756888 0,-34.6410161513775 30.0,-17.3205080756888" style="stroke:none;fill:#05f50f;" />
<polygon points="30.0,17.3205080756888 0,34.6410161513775 -30.0,17.3205080756888 -30.0,-17.3205080756888 0,-34.6410161513775 30.0,-17.3205080756888" style="stroke:black;fill:none;" />
<text text-anchor="middle" y="-3" dominant-baseline="mathematical" style="fill:#000000;font-size:10.0;">2169.00</text>
</g>
<g transform="translate(180.0 111.961524227066)">
<polygon points="30.0,17.3205080756888 0,34.6410161513775 -30.0,17.3205080756888 -30.0,-17.3205080756888 0,-34.6410161513775 30.0,-17.3205080756888" style="stroke:none;fill:#c7ff00;" />
<polygon points="30.0,17.3205080756888 0,34.6410161513775 -30.0,17.3205080756888 -30.0,-17.3205080756888 0,-34.6410161513775 30.0,-17.3205080756888" style="stroke:black;fill:none;" />
<text text-anchor="middle" y="-3" dominant-baseline="mathematical" style="fill:#000000;font-size:10.0;">4115.00</text>
</g>
<g transform="translate(240.0 111.961524227066)">
<polygon points="30.0,17.3205080756888 0,34.6410161513775 -30.0,17.3205080756888 -30.0,-17.3205080756888 0,-34.6410161513775 30.0,-17.3205080756888" style="stroke:none;fill:#ff1100;" />
<polygon points="30.0,17.3205080756888 0,34.6410161513775 -30.0,17.3205080756888 -30.0,-17.3205080756888 0,-34.6410161513775 30.0,-17.3205080756888" style="stroke:black;fill:none;" />
<text text-anchor="middle" y="-3" dominant-baseline="mathematical" style="fill:#000000;font-size:10.0;">6825.00</text>
</g>
<g transform="translate(300.0 111.961524227066)">
<polygon points="30.0,17.3205080756888 0,34.6410161513775 -30.0,17.3205080756888 -30.0,-17.3205080756888 0,-34.6410161513775 30.0,-17.3205080756888" style="stroke:none;fill:#f3ff00;" />
<polygon points="30.0,17.3205080756888 0,34.6410161513775 -30.0,17.3205080756888 -30.0,-17.3205080756888 0,-34.6410161513775 30.0,-17.3205080756888" style="stroke:black;fill:none;" />
<text text-anchor="middle" y="-3" dominant-baseline="mathematical" style="fill:#000000;font-size:10.0;">4510.00</text>
</g>
<g transform="translate(360.0 111.961524227066)">
<polygon points="30.0,17.3205080756888 0,34.6410161513775 -30.0,17.3205080756888 -30.0,-17.3205080756888 0,-34.6410161513775 30.0,-17.3205080756888" style="stroke:none;fill:#ff0000;" />
<polygon points="30.0,17.3205080756888 0,34.6410161513775 -30.0,17.3205080756888 -30.0,-17.3205080756888 0,-34.6410161513775 30.0,-17.3205080756888" style="stroke:black;fill:none;" />
<text text-anchor="middle" y="-3" dominant-baseline="mathematical" style="fill:#000000;font-size:10.0;">6992.00</text>
</g>
<g transform="translate(420.0 111.961524227066)">
<polygon points="30.0,17.3205080756888 0,34.6410161513775 -30.0,17.3205080756888 -30.0,-17.3205080756888 0,-34.6410161513775 30.0,-17.3205080756888" style="stroke:none;fill:#fff400;" />
<polygon points="30.0,17.3205080756888 0,34.6410161513775 -30.0,17.3205080756888 -30.0,-17.3205080756888 0,-34.6410161513775 30.0,-17.3205080756888" style="stroke:black;fill:none;" />
<text text-anchor="middle" y="-3" dominant-baseline="mathematical" style="fill:#000000;font-size:10.0;">4716.00</text>
</g>
<g transform="translate(90.0 60.0)">
<polygon points="30.0,17.3205080756888 0,34.6410161513775 -30.0,17.3205080756888 -30.0,-17.3205080756888 0,-34.6410161513775 30.0,-17.3205080756888" style="stroke:none;fill:#6464ff;" />
<polygon points="30.0,17.3205080756888 0,34.6410161513775 -30.0,17.3205080756888 -30.0,-17.3205080756888 0,-34.6410161513775 30.0,-17.3205080756888" style="stroke:black;fill:none;" />
<text text-anchor="middle" y="-3" dominant-baseline="mathematical" style="fill:#000000;font-size:10.0;">0.00</text>
</g>
<g transform="translate(150.0 60.0)">
<polygon points="30.0,17.3205080756888 0,34.6410161513775 -30.0,17.3205080756888 -30.0,-17.3205080756888 0,-34.6410161513775 30.0,-17.3205080756888" style="stroke:none;fill:#6bff00;" />
<polygon points="30.0,17.3205080756888 0,34.6410161513775 -30.0,17.3205080756888 -30.0,-17.3205080756888 0,-34.6410161513775 30.0,-17.3205080756888" style="stroke:black;fill:none;" />
<text text-anchor="middle" y="-3" dominant-baseline="mathematical" style="fill:#000000;font-size:10.0;">3282.00</text>
</g>
<g transform="translate(210.0 60.0)">
<polygon points="30.0,17.3205080756888 0,34.6410161513775 -30.0,17.3205080756888 -30.0,-17.3205080756888 0,-34.6410161513775 30.0,-17.3205080756888" style="stroke:none;fill:#ebff00;" />
<polygon points="30.0,17.3205080756888 0,34.6410161513775 -30.0,17.3205080756888 -30.0,-17.3205080756888 0,-34.6410161513775 30.0,-17.3205080756888" style="stroke:black;fill:none;" />
<text text-anchor="middle" y="-3" dominant-baseline="mathematical" style="fill:#000000;font-size:10.0;">4440.00</text>
</g>
<g transform="translate(270.0 60.0)">
<polygon points="30.0,17.3205080756888 0,34.6410161513775 -30.0,17.3205080756888 -30.0,-17.3205080756888 0,-34.6410161513775 30.0,-17.3205080756888" style="stroke:none;fill:#ff1500;" />
<polygon points="30.0,17.3205080756888 0,34.6410161513775 -30.0,17.3205080756888 -30.0,-17.3205080756888 0,-34.6410161513775 30.0,-17.3205080756888" style="stroke:black;fill:none;" />
<text text-anchor="middle" y="-3" dominant-baseline="mathematical" style="fill:#000000;font-size:10.0;">6793.00</text>
</g>
<g transform="translate(330.0 60.0)">
<polygon points="30.0,17.3205080756888 0,34.6410161513775 -30.0,17.3205080756888 -30.0,-17.3205080756888 0,-34.6410161513775 30.0,-17.3205080756888" style="stroke:none;fill:#77ff00;" />
<polygon points="30.0,17.3205080756888 0,34.6410161513775 -30.0,17.3205080756888 -30.0,-17.3205080756888 0,-34.6410161513775 30.0,-17.3205080756888" style="stroke:black;fill:none;" />
<text text-anchor="middle" y="-3" dominant-baseline="mathematical" style="fill:#000000;font-size:10.0;">3391.00</text>
</g>
<g transform="translate(390.0 60.0)">
<polygon points="30.0,17.3205080756888 0,34.6410161513775 -30.0,17.3205080756888 -30.0,-17.3205080756888 0,-34.6410161513775 30.0,-17.3205080756888" style="stroke:none;fill:#fcff00;" />
<polygon points="30.0,17.3205080756888 0,34.6410161513775 -30.0,17.3205080756888 -30.0,-17.3205080756888 0,-34.6410161513775 30.0,-17.3205080756888" style="stroke:black;fill:none;" />
<text text-anchor="middle" y="-3" dominant-baseline="mathematical" style="fill:#000000;font-size:10.0;">4592.00</text>
</g>
<g transform="translate(450.0 60.0)">
<polygon points="30.0,17.3205080756888 0,34.6410161513775 -30.0,17.3205080756888 -30.0,-17.3205080756888 0,-34.6410161513775 30.0,-17.3205080756888" style="stroke:none;fill:#ff0800;" />
<polygon points="30.0,17.3205080756888 0,34.6410161513775 -30.0,17.3205080756888 -30.0,-17.3205080756888 0,-34.6410161513775 30.0,-17.3205080756888" style="stroke:black;fill:none;" />
<text text-anchor="middle" y="-3" dominant-baseline="mathematical" style="fill:#000000;font-size:10.0;">6913.00</text>
</g>
<g transform="translate(510.0 60.0)">
<polygon points="30.0,17.3205080756888 0,34.6410161513775 -30.0,17.3205080756888 -30.0,-17.3205080756888 0,-34.6410161513775 30.0,-17.3205080756888" style="stroke:none;fill:#edff00;" />
<polygon points="30.0,17.3205080756888 0,34.6410161513775 -30.0,17.3205080756888 -30.0,-17.3205080756888 0,-34.6410161513775 30.0,-17.3205080756888" style="stroke:black;fill:none;" />
<text text-anchor="middle" y="-3" dominant-baseline="mathematical" style="fill:#000000;font-size:10.0;">4460.00</text>
</g>
</svg>
