<svg  xmlns="http://www.w3.org/2000/svg"
          xmlns:xlink="http://www.w3.org/1999/xlink">
<g transform="translate(210.0 371.769145362398)">
<polygon points="30.0,17.3205080756888 0,34.6410161513775 -30.0,17.3205080756888 -30.0,-17.3205080756888 0,-34.6410161513775 30.0,-17.3205080756888" style="stroke:none;fill:#56a800;" />
<polygon points="30.0,17.3205080756888 0,34.6410161513775 -30.0,17.3205080756888 -30.0,-17.3205080756888 0,-34.6410161513775 30.0,-17.3205080756888" style="stroke:black;fill:none;" />
<text text-anchor="middle" y="-6" dominant-baseline="mathematical" style="fill:#000000;font-size:10.0;">1.34 </text>
<text text-anchor="middle" y="3" dominant-baseline="mathematical" style="fill:#000000;font-size:10.0;"> 248.0</text>
</g>
<g transform="translate(180.0 319.807621135332)">
<polygon points="30.0,17.3205080756888 0,34.6410161513775 -30.0,17.3205080756888 -30.0,-17.3205080756888 0,-34.6410161513775 30.0,-17.3205080756888" style="stroke:none;fill:#5f9f00;" />
<polygon points="30.0,17.3205080756888 0,34.6410161513775 -30.0,17.3205080756888 -30.0,-17.3205080756888 0,-34.6410161513775 30.0,-17.3205080756888" style="stroke:black;fill:none;" />
<text text-anchor="middle" y="-6" dominant-baseline="mathematical" style="fill:#000000;font-size:10.0;">1.38 </text>
<text text-anchor="middle" y="3" dominant-baseline="mathematical" style="fill:#000000;font-size:10.0;"> 165.0</text>
</g>
<g transform="translate(240.0 319.807621135332)">
<polygon points="30.0,17.3205080756888 0,34.6410161513775 -30.0,17.3205080756888 -30.0,-17.3205080756888 0,-34.6410161513775 30.0,-17.3205080756888" style="stroke:none;fill:#1ee000;" />
<polygon points="30.0,17.3205080756888 0,34.6410161513775 -30.0,17.3205080756888 -30.0,-17.3205080756888 0,-34.6410161513775 30.0,-17.3205080756888" style="stroke:black;fill:none;" />
<text text-anchor="middle" y="-6" dominant-baseline="mathematical" style="fill:#000000;font-size:10.0;">1.12 </text>
<text text-anchor="middle" y="3" dominant-baseline="mathematical" style="fill:#000000;font-size:10.0;"> 262.0</text>
</g>
<g transform="translate(150.0 267.846096908265)">
<polygon points="30.0,17.3205080756888 0,34.6410161513775 -30.0,17.3205080756888 -30.0,-17.3205080756888 0,-34.6410161513775 30.0,-17.3205080756888" style="stroke:none;fill:#56a800;" />
<polygon points="30.0,17.3205080756888 0,34.6410161513775 -30.0,17.3205080756888 -30.0,-17.3205080756888 0,-34.6410161513775 30.0,-17.3205080756888" style="stroke:black;fill:none;" />
<text text-anchor="middle" y="-6" dominant-baseline="mathematical" style="fill:#000000;font-size:10.0;">1.34 </text>
<text text-anchor="middle" y="3" dominant-baseline="mathematical" style="fill:#000000;font-size:10.0;"> 234.0</text>
</g>
<g transform="translate(210.0 267.846096908265)">
<polygon points="30.0,17.3205080756888 0,34.6410161513775 -30.0,17.3205080756888 -30.0,-17.3205080756888 0,-34.6410161513775 30.0,-17.3205080756888" style="stroke:none;fill:#629c00;" />
<polygon points="30.0,17.3205080756888 0,34.6410161513775 -30.0,17.3205080756888 -30.0,-17.3205080756888 0,-34.6410161513775 30.0,-17.3205080756888" style="stroke:black;fill:none;" />
<text text-anchor="middle" y="-6" dominant-baseline="mathematical" style="fill:#000000;font-size:10.0;">1.39 </text>
<text text-anchor="middle" y="3" dominant-baseline="mathematical" style="fill:#000000;font-size:10.0;"> 165.0</text>
</g>
<g transform="translate(270.0 267.846096908265)">
<polygon points="30.0,17.3205080756888 0,34.6410161513775 -30.0,17.3205080756888 -30.0,-17.3205080756888 0,-34.6410161513775 30.0,-17.3205080756888" style="stroke:none;fill:#00e717;" />
<polygon points="30.0,17.3205080756888 0,34.6410161513775 -30.0,17.3205080756888 -30.0,-17.3205080756888 0,-34.6410161513775 30.0,-17.3205080756888" style="stroke:black;fill:none;" />
<text text-anchor="middle" y="-6" dominant-baseline="mathematical" style="fill:#000000;font-size:10.0;">0.91 </text>
<text text-anchor="middle" y="3" dominant-baseline="mathematical" style="fill:#000000;font-size:10.0;"> 173.0</text>
</g>
<g transform="translate(120.0 215.884572681199)">
<polygon points="30.0,17.3205080756888 0,34.6410161513775 -30.0,17.3205080756888 -30.0,-17.3205080756888 0,-34.6410161513775 30.0,-17.3205080756888" style="stroke:none;fill:#56a800;" />
<polygon points="30.0,17.3205080756888 0,34.6410161513775 -30.0,17.3205080756888 -30.0,-17.3205080756888 0,-34.6410161513775 30.0,-17.3205080756888" style="stroke:black;fill:none;" />
<text text-anchor="middle" y="-6" dominant-baseline="mathematical" style="fill:#000000;font-size:10.0;">1.34 </text>
<text text-anchor="middle" y="3" dominant-baseline="mathematical" style="fill:#000000;font-size:10.0;"> 95.0</text>
</g>
<g transform="translate(180.0 215.884572681199)">
<polygon points="30.0,17.3205080756888 0,34.6410161513775 -30.0,17.3205080756888 -30.0,-17.3205080756888 0,-34.6410161513775 30.0,-17.3205080756888" style="stroke:none;fill:#23db00;" />
<polygon points="30.0,17.3205080756888 0,34.6410161513775 -30.0,17.3205080756888 -30.0,-17.3205080756888 0,-34.6410161513775 30.0,-17.3205080756888" style="stroke:black;fill:none;" />
<text text-anchor="middle" y="-6" dominant-baseline="mathematical" style="fill:#000000;font-size:10.0;">1.14 </text>
<text text-anchor="middle" y="3" dominant-baseline="mathematical" style="fill:#000000;font-size:10.0;"> 165.0</text>
</g>
<g transform="translate(240.0 215.884572681199)">
<polygon points="30.0,17.3205080756888 0,34.6410161513775 -30.0,17.3205080756888 -30.0,-17.3205080756888 0,-34.6410161513775 30.0,-17.3205080756888" style="stroke:none;fill:#00e915;" />
<polygon points="30.0,17.3205080756888 0,34.6410161513775 -30.0,17.3205080756888 -30.0,-17.3205080756888 0,-34.6410161513775 30.0,-17.3205080756888" style="stroke:black;fill:none;" />
<text text-anchor="middle" y="-6" dominant-baseline="mathematical" style="fill:#000000;font-size:10.0;">0.92 </text>
<text text-anchor="middle" y="3" dominant-baseline="mathematical" style="fill:#000000;font-size:10.0;"> 140.0</text>
</g>
<g transform="translate(300.0 215.884572681199)">
<polygon points="30.0,17.3205080756888 0,34.6410161513775 -30.0,17.3205080756888 -30.0,-17.3205080756888 0,-34.6410161513775 30.0,-17.3205080756888" style="stroke:none;fill:#6f8f00;" />
<polygon points="30.0,17.3205080756888 0,34.6410161513775 -30.0,17.3205080756888 -30.0,-17.3205080756888 0,-34.6410161513775 30.0,-17.3205080756888" style="stroke:black;fill:none;" />
<text text-anchor="middle" y="-6" dominant-baseline="mathematical" style="fill:#000000;font-size:10.0;">1.44 </text>
<text text-anchor="middle" y="3" dominant-baseline="mathematical" style="fill:#000000;font-size:10.0;"> 248.0</text>
</g>
<g transform="translate(90.0 163.923048454133)">
<polygon points="30.0,17.3205080756888 0,34.6410161513775 -30.0,17.3205080756888 -30.0,-17.3205080756888 0,-34.6410161513775 30.0,-17.3205080756888" style="stroke:none;fill:#5f9f00;" />
<polygon points="30.0,17.3205080756888 0,34.6410161513775 -30.0,17.3205080756888 -30.0,-17.3205080756888 0,-34.6410161513775 30.0,-17.3205080756888" style="stroke:black;fill:none;" />
<text text-anchor="middle" y="-6" dominant-baseline="mathematical" style="fill:#000000;font-size:10.0;">1.38 </text>
<text text-anchor="middle" y="3" dominant-baseline="mathematical" style="fill:#000000;font-size:10.0;"> 165.0</text>
</g>
<g transform="translate(150.0 163.923048454133)">
<polygon points="30.0,17.3205080756888 0,34.6410161513775 -30.0,17.3205080756888 -30.0,-17.3205080756888 0,-34.6410161513775 30.0,-17.3205080756888" style="stroke:none;fill:#629c00;" />
<polygon points="30.0,17.3205080756888 0,34.6410161513775 -30.0,17.3205080756888 -30.0,-17.3205080756888 0,-34.6410161513775 30.0,-17.3205080756888" style="stroke:black;fill:none;" />
<text text-anchor="middle" y="-6" dominant-baseline="mathematical" style="fill:#000000;font-size:10.0;">1.39 </text>
<text text-anchor="middle" y="3" dominant-baseline="mathematical" style="fill:#000000;font-size:10.0;"> 165.0</text>
</g>
<g transform="translate(210.0 163.923048454133)">
<polygon points="30.0,17.3205080756888 0,34.6410161513775 -30.0,17.3205080756888 -30.0,-17.3205080756888 0,-34.6410161513775 30.0,-17.3205080756888" style="stroke:none;fill:#00e915;" />
<polygon points="30.0,17.3205080756888 0,34.6410161513775 -30.0,17.3205080756888 -30.0,-17.3205080756888 0,-34.6410161513775 30.0,-17.3205080756888" style="stroke:black;fill:none;" />
<text text-anchor="middle" y="-6" dominant-baseline="mathematical" style="fill:#000000;font-size:10.0;">0.92 </text>
<text text-anchor="middle" y="3" dominant-baseline="mathematical" style="fill:#000000;font-size:10.0;"> 176.0</text>
</g>
<g transform="translate(270.0 163.923048454133)">
<polygon points="30.0,17.3205080756888 0,34.6410161513775 -30.0,17.3205080756888 -30.0,-17.3205080756888 0,-34.6410161513775 30.0,-17.3205080756888" style="stroke:none;fill:#2cd200;" />
<polygon points="30.0,17.3205080756888 0,34.6410161513775 -30.0,17.3205080756888 -30.0,-17.3205080756888 0,-34.6410161513775 30.0,-17.3205080756888" style="stroke:black;fill:none;" />
<text text-anchor="middle" y="-6" dominant-baseline="mathematical" style="fill:#000000;font-size:10.0;">1.17 </text>
<text text-anchor="middle" y="3" dominant-baseline="mathematical" style="fill:#000000;font-size:10.0;"> 165.0</text>
</g>
<g transform="translate(330.0 163.923048454133)">
<polygon points="30.0,17.3205080756888 0,34.6410161513775 -30.0,17.3205080756888 -30.0,-17.3205080756888 0,-34.6410161513775 30.0,-17.3205080756888" style="stroke:none;fill:#00f707;" />
<polygon points="30.0,17.3205080756888 0,34.6410161513775 -30.0,17.3205080756888 -30.0,-17.3205080756888 0,-34.6410161513775 30.0,-17.3205080756888" style="stroke:black;fill:none;" />
<text text-anchor="middle" y="-6" dominant-baseline="mathematical" style="fill:#000000;font-size:10.0;">0.97 </text>
<text text-anchor="middle" y="3" dominant-baseline="mathematical" style="fill:#000000;font-size:10.0;"> 104.0</text>
</g>
<g transform="translate(60.0 111.961524227066)">
<polygon points="30.0,17.3205080756888 0,34.6410161513775 -30.0,17.3205080756888 -30.0,-17.3205080756888 0,-34.6410161513775 30.0,-17.3205080756888" style="stroke:none;fill:#56a800;" />
<polygon points="30.0,17.3205080756888 0,34.6410161513775 -30.0,17.3205080756888 -30.0,-17.3205080756888 0,-34.6410161513775 30.0,-17.3205080756888" style="stroke:black;fill:none;" />
<text text-anchor="middle" y="-6" dominant-baseline="mathematical" style="fill:#000000;font-size:10.0;">1.34 </text>
<text text-anchor="middle" y="3" dominant-baseline="mathematical" style="fill:#000000;font-size:10.0;"> 78.0</text>
</g>
<g transform="translate(120.0 111.961524227066)">
<polygon points="30.0,17.3205080756888 0,34.6410161513775 -30.0,17.3205080756888 -30.0,-17.3205080756888 0,-34.6410161513775 30.0,-17.3205080756888" style="stroke:none;fill:#1ee000;" />
<polygon points="30.0,17.3205080756888 0,34.6410161513775 -30.0,17.3205080756888 -30.0,-17.3205080756888 0,-34.6410161513775 30.0,-17.3205080756888" style="stroke:black;fill:none;" />
<text text-anchor="middle" y="-6" dominant-baseline="mathematical" style="fill:#000000;font-size:10.0;">1.12 </text>
<text text-anchor="middle" y="3" dominant-baseline="mathematical" style="fill:#000000;font-size:10.0;"> 64.0</text>
</g>
<g transform="translate(180.0 111.961524227066)">
<polygon points="30.0,17.3205080756888 0,34.6410161513775 -30.0,17.3205080756888 -30.0,-17.3205080756888 0,-34.6410161513775 30.0,-17.3205080756888" style="stroke:none;fill:#00e717;" />
<polygon points="30.0,17.3205080756888 0,34.6410161513775 -30.0,17.3205080756888 -30.0,-17.3205080756888 0,-34.6410161513775 30.0,-17.3205080756888" style="stroke:black;fill:none;" />
<text text-anchor="middle" y="-6" dominant-baseline="mathematical" style="fill:#000000;font-size:10.0;">0.91 </text>
<text text-anchor="middle" y="3" dominant-baseline="mathematical" style="fill:#000000;font-size:10.0;"> 137.0</text>
</g>
<g transform="translate(240.0 111.961524227066)">
<polygon points="30.0,17.3205080756888 0,34.6410161513775 -30.0,17.3205080756888 -30.0,-17.3205080756888 0,-34.6410161513775 30.0,-17.3205080756888" style="stroke:none;fill:#6f8f00;" />
<polygon points="30.0,17.3205080756888 0,34.6410161513775 -30.0,17.3205080756888 -30.0,-17.3205080756888 0,-34.6410161513775 30.0,-17.3205080756888" style="stroke:black;fill:none;" />
<text text-anchor="middle" y="-6" dominant-baseline="mathematical" style="fill:#000000;font-size:10.0;">1.44 </text>
<text text-anchor="middle" y="3" dominant-baseline="mathematical" style="fill:#000000;font-size:10.0;"> 78.0</text>
</g>
<g transform="translate(300.0 111.961524227066)">
<polygon points="30.0,17.3205080756888 0,34.6410161513775 -30.0,17.3205080756888 -30.0,-17.3205080756888 0,-34.6410161513775 30.0,-17.3205080756888" style="stroke:none;fill:#00f707;" />
<polygon points="30.0,17.3205080756888 0,34.6410161513775 -30.0,17.3205080756888 -30.0,-17.3205080756888 0,-34.6410161513775 30.0,-17.3205080756888" style="stroke:black;fill:none;" />
<text text-anchor="middle" y="-6" dominant-baseline="mathematical" style="fill:#000000;font-size:10.0;">0.97 </text>
<text text-anchor="middle" y="3" dominant-baseline="mathematical" style="fill:#000000;font-size:10.0;"> 211.0</text>
</g>
<g transform="translate(360.0 111.961524227066)">
<polygon points="30.0,17.3205080756888 0,34.6410161513775 -30.0,17.3205080756888 -30.0,-17.3205080756888 0,-34.6410161513775 30.0,-17.3205080756888" style="stroke:none;fill:#2ed000;" />
<polygon points="30.0,17.3205080756888 0,34.6410161513775 -30.0,17.3205080756888 -30.0,-17.3205080756888 0,-34.6410161513775 30.0,-17.3205080756888" style="stroke:black;fill:none;" />
<text text-anchor="middle" y="-6" dominant-baseline="mathematical" style="fill:#000000;font-size:10.0;">1.18 </text>
<text text-anchor="middle" y="3" dominant-baseline="mathematical" style="fill:#000000;font-size:10.0;"> 148.0</text>
</g>
<g transform="translate(90.0 60.0)">
<polygon points="30.0,17.3205080756888 0,34.6410161513775 -30.0,17.3205080756888 -30.0,-17.3205080756888 0,-34.6410161513775 30.0,-17.3205080756888" style="stroke:none;fill:#48b600;" />
<polygon points="30.0,17.3205080756888 0,34.6410161513775 -30.0,17.3205080756888 -30.0,-17.3205080756888 0,-34.6410161513775 30.0,-17.3205080756888" style="stroke:black;fill:none;" />
<text text-anchor="middle" y="-6" dominant-baseline="mathematical" style="fill:#000000;font-size:10.0;">1.28 </text>
<text text-anchor="middle" y="3" dominant-baseline="mathematical" style="fill:#000000;font-size:10.0;"> 78.0</text>
</g>
<g transform="translate(150.0 60.0)">
<polygon points="30.0,17.3205080756888 0,34.6410161513775 -30.0,17.3205080756888 -30.0,-17.3205080756888 0,-34.6410161513775 30.0,-17.3205080756888" style="stroke:none;fill:#1ae400;" />
<polygon points="30.0,17.3205080756888 0,34.6410161513775 -30.0,17.3205080756888 -30.0,-17.3205080756888 0,-34.6410161513775 30.0,-17.3205080756888" style="stroke:black;fill:none;" />
<text text-anchor="middle" y="-6" dominant-baseline="mathematical" style="fill:#000000;font-size:10.0;">1.10 </text>
<text text-anchor="middle" y="3" dominant-baseline="mathematical" style="fill:#000000;font-size:10.0;"> 11.0</text>
</g>
<g transform="translate(210.0 60.0)">
<polygon points="30.0,17.3205080756888 0,34.6410161513775 -30.0,17.3205080756888 -30.0,-17.3205080756888 0,-34.6410161513775 30.0,-17.3205080756888" style="stroke:none;fill:#00ec12;" />
<polygon points="30.0,17.3205080756888 0,34.6410161513775 -30.0,17.3205080756888 -30.0,-17.3205080756888 0,-34.6410161513775 30.0,-17.3205080756888" style="stroke:black;fill:none;" />
<text text-anchor="middle" y="-6" dominant-baseline="mathematical" style="fill:#000000;font-size:10.0;">0.93 </text>
<text text-anchor="middle" y="3" dominant-baseline="mathematical" style="fill:#000000;font-size:10.0;"> 123.0</text>
</g>
<g transform="translate(270.0 60.0)">
<polygon points="30.0,17.3205080756888 0,34.6410161513775 -30.0,17.3205080756888 -30.0,-17.3205080756888 0,-34.6410161513775 30.0,-17.3205080756888" style="stroke:none;fill:#32cc00;" />
<polygon points="30.0,17.3205080756888 0,34.6410161513775 -30.0,17.3205080756888 -30.0,-17.3205080756888 0,-34.6410161513775 30.0,-17.3205080756888" style="stroke:black;fill:none;" />
<text text-anchor="middle" y="-6" dominant-baseline="mathematical" style="fill:#000000;font-size:10.0;">1.20 </text>
<text text-anchor="middle" y="3" dominant-baseline="mathematical" style="fill:#000000;font-size:10.0;"> 7.0</text>
</g>
<g transform="translate(330.0 60.0)">
<polygon points="30.0,17.3205080756888 0,34.6410161513775 -30.0,17.3205080756888 -30.0,-17.3205080756888 0,-34.6410161513775 30.0,-17.3205080756888" style="stroke:none;fill:#748a00;" />
<polygon points="30.0,17.3205080756888 0,34.6410161513775 -30.0,17.3205080756888 -30.0,-17.3205080756888 0,-34.6410161513775 30.0,-17.3205080756888" style="stroke:black;fill:none;" />
<text text-anchor="middle" y="-6" dominant-baseline="mathematical" style="fill:#000000;font-size:10.0;">1.46 </text>
<text text-anchor="middle" y="3" dominant-baseline="mathematical" style="fill:#000000;font-size:10.0;"> 65.0</text>
</g>
<g transform="translate(390.0 60.0)">
<polygon points="30.0,17.3205080756888 0,34.6410161513775 -30.0,17.3205080756888 -30.0,-17.3205080756888 0,-34.6410161513775 30.0,-17.3205080756888" style="stroke:none;fill:#00ee10;" />
<polygon points="30.0,17.3205080756888 0,34.6410161513775 -30.0,17.3205080756888 -30.0,-17.3205080756888 0,-34.6410161513775 30.0,-17.3205080756888" style="stroke:black;fill:none;" />
<text text-anchor="middle" y="-6" dominant-baseline="mathematical" style="fill:#000000;font-size:10.0;">0.94 </text>
<text text-anchor="middle" y="3" dominant-baseline="mathematical" style="fill:#000000;font-size:10.0;"> 172.0</text>
</g>
<g transform="translate(450.0 60.0)">
<polygon points="30.0,17.3205080756888 0,34.6410161513775 -30.0,17.3205080756888 -30.0,-17.3205080756888 0,-34.6410161513775 30.0,-17.3205080756888" style="stroke:none;fill:#59a500;" />
<polygon points="30.0,17.3205080756888 0,34.6410161513775 -30.0,17.3205080756888 -30.0,-17.3205080756888 0,-34.6410161513775 30.0,-17.3205080756888" style="stroke:black;fill:none;" />
<text text-anchor="middle" y="-6" dominant-baseline="mathematical" style="fill:#000000;font-size:10.0;">1.35 </text>
<text text-anchor="middle" y="3" dominant-baseline="mathematical" style="fill:#000000;font-size:10.0;"> 302.0</text>
</g>
</svg>
