<svg width="740.0" height="1120.0" xmlns="http://www.w3.org/2000/svg" version="1.1">
<g>
<rect x="0.0" y="0.0" width="80.0" height="80.0" fill="#4c4cff" />
<text x="40.0" y="40.0"  text-anchor="middle" font-family="Verdana" font-size="20" fill="black">F8</text>
<text x="40.0" y="60.0"  text-anchor="middle" font-family="Verdana" font-size="15" fill="black">01</text>
</g>
<g>
<rect x="80.0" y="0.0" width="80.0" height="80.0" fill="#8DEEEE" />
<text x="120.0" y="40.0"  text-anchor="middle" font-family="Verdana" font-size="20" fill="black">F4</text>
<text x="120.0" y="60.0"  text-anchor="middle" font-family="Verdana" font-size="15" fill="black">01</text>
</g>
<g>
<rect x="160.0" y="0.0" width="80.0" height="80.0" fill="#8DEEEE" />
<text x="200.0" y="40.0"  text-anchor="middle" font-family="Verdana" font-size="20" fill="black">F4</text>
<text x="200.0" y="60.0"  text-anchor="middle" font-family="Verdana" font-size="15" fill="black">02</text>
</g>
<g>
<rect x="240.0" y="0.0" width="80.0" height="80.0" fill="#8DEEEE" />
<text x="280.0" y="40.0"  text-anchor="middle" font-family="Verdana" font-size="20" fill="black">F4</text>
<text x="280.0" y="60.0"  text-anchor="middle" font-family="Verdana" font-size="15" fill="black">03</text>
</g>
<g>
<rect x="320.0" y="0.0" width="80.0" height="80.0" fill="#007FFF" />
<text x="360.0" y="40.0"  text-anchor="middle" font-family="Verdana" font-size="20" fill="black">F6</text>
<text x="360.0" y="60.0"  text-anchor="middle" font-family="Verdana" font-size="15" fill="black">01</text>
</g>
<g>
<rect x="400.0" y="0.0" width="80.0" height="80.0" fill="#007FFF" />
<text x="440.0" y="40.0"  text-anchor="middle" font-family="Verdana" font-size="20" fill="black">F6</text>
<text x="440.0" y="60.0"  text-anchor="middle" font-family="Verdana" font-size="15" fill="black">02</text>
</g>
<g>
<rect x="480.0" y="0.0" width="80.0" height="80.0" fill="#8DEEEE" />
<text x="520.0" y="40.0"  text-anchor="middle" font-family="Verdana" font-size="20" fill="black">F4</text>
<text x="520.0" y="60.0"  text-anchor="middle" font-family="Verdana" font-size="15" fill="black">04</text>
</g>
<g>
<rect x="560.0" y="0.0" width="80.0" height="80.0" fill="#007FFF" />
<text x="600.0" y="40.0"  text-anchor="middle" font-family="Verdana" font-size="20" fill="black">F6</text>
<text x="600.0" y="60.0"  text-anchor="middle" font-family="Verdana" font-size="15" fill="black">03</text>
</g>
<g>
<rect x="0.0" y="80.0" width="80.0" height="80.0" fill="#007FFF" />
<text x="40.0" y="120.0"  text-anchor="middle" font-family="Verdana" font-size="20" fill="black">F6</text>
<text x="40.0" y="140.0"  text-anchor="middle" font-family="Verdana" font-size="15" fill="black">04</text>
</g>
<g>
<rect x="80.0" y="80.0" width="80.0" height="80.0" fill="#FFFF99" />
<text x="120.0" y="120.0"  text-anchor="middle" font-family="Verdana" font-size="20" fill="black">B1</text>
<text x="120.0" y="140.0"  text-anchor="middle" font-family="Verdana" font-size="15" fill="black">01</text>
</g>
<g>
<rect x="160.0" y="80.0" width="80.0" height="80.0" fill="#8DEEEE" />
<text x="200.0" y="120.0"  text-anchor="middle" font-family="Verdana" font-size="20" fill="black">F4</text>
<text x="200.0" y="140.0"  text-anchor="middle" font-family="Verdana" font-size="15" fill="black">05</text>
</g>
<g>
<rect x="240.0" y="80.0" width="80.0" height="80.0" fill="#00FF00" />
<text x="280.0" y="120.0"  text-anchor="middle" font-family="Verdana" font-size="20" fill="black">R1</text>
<text x="280.0" y="140.0"  text-anchor="middle" font-family="Verdana" font-size="15" fill="black">01</text>
</g>
<g>
<rect x="320.0" y="80.0" width="80.0" height="80.0" fill="#007FFF" />
<text x="360.0" y="120.0"  text-anchor="middle" font-family="Verdana" font-size="20" fill="black">F6</text>
<text x="360.0" y="140.0"  text-anchor="middle" font-family="Verdana" font-size="15" fill="black">05</text>
</g>
<g>
<rect x="400.0" y="80.0" width="80.0" height="80.0" fill="#008000" />
<text x="440.0" y="120.0"  text-anchor="middle" font-family="Verdana" font-size="20" fill="black">R2</text>
<text x="440.0" y="140.0"  text-anchor="middle" font-family="Verdana" font-size="15" fill="black">01</text>
</g>
<g>
<rect x="480.0" y="80.0" width="80.0" height="80.0" fill="#8DEEEE" />
<text x="520.0" y="120.0"  text-anchor="middle" font-family="Verdana" font-size="20" fill="black">F4</text>
<text x="520.0" y="140.0"  text-anchor="middle" font-family="Verdana" font-size="15" fill="black">06</text>
</g>
<g>
<rect x="560.0" y="80.0" width="80.0" height="80.0" fill="#8DEEEE" />
<text x="600.0" y="120.0"  text-anchor="middle" font-family="Verdana" font-size="20" fill="black">F4</text>
<text x="600.0" y="140.0"  text-anchor="middle" font-family="Verdana" font-size="15" fill="black">07</text>
</g>
<g>
<rect x="0.0" y="160.0" width="80.0" height="80.0" fill="#8DEEEE" />
<text x="40.0" y="200.0"  text-anchor="middle" font-family="Verdana" font-size="20" fill="black">F4</text>
<text x="40.0" y="220.0"  text-anchor="middle" font-family="Verdana" font-size="15" fill="black">08</text>
</g>
<g>
<rect x="80.0" y="160.0" width="80.0" height="80.0" fill="#8DEEEE" />
<text x="120.0" y="200.0"  text-anchor="middle" font-family="Verdana" font-size="20" fill="black">F4</text>
<text x="120.0" y="220.0"  text-anchor="middle" font-family="Verdana" font-size="15" fill="black">09</text>
</g>
<g>
<rect x="160.0" y="160.0" width="80.0" height="80.0" fill="#007FFF" />
<text x="200.0" y="200.0"  text-anchor="middle" font-family="Verdana" font-size="20" fill="black">F6</text>
<text x="200.0" y="220.0"  text-anchor="middle" font-family="Verdana" font-size="15" fill="black">06</text>
</g>
<g>
<rect x="240.0" y="160.0" width="80.0" height="80.0" fill="#007FFF" />
<text x="280.0" y="200.0"  text-anchor="middle" font-family="Verdana" font-size="20" fill="black">F6</text>
<text x="280.0" y="220.0"  text-anchor="middle" font-family="Verdana" font-size="15" fill="black">07</text>
</g>
<g>
<rect x="320.0" y="160.0" width="80.0" height="80.0" fill="#8DEEEE" />
<text x="360.0" y="200.0"  text-anchor="middle" font-family="Verdana" font-size="20" fill="black">F4</text>
<text x="360.0" y="220.0"  text-anchor="middle" font-family="Verdana" font-size="15" fill="black">10</text>
</g>
<g>
<rect x="400.0" y="160.0" width="80.0" height="80.0" fill="#8DEEEE" />
<text x="440.0" y="200.0"  text-anchor="middle" font-family="Verdana" font-size="20" fill="black">F4</text>
<text x="440.0" y="220.0"  text-anchor="middle" font-family="Verdana" font-size="15" fill="black">11</text>
</g>
<g>
<rect x="480.0" y="160.0" width="80.0" height="80.0" fill="#007FFF" />
<text x="520.0" y="200.0"  text-anchor="middle" font-family="Verdana" font-size="20" fill="black">F6</text>
<text x="520.0" y="220.0"  text-anchor="middle" font-family="Verdana" font-size="15" fill="black">08</text>
</g>
<g>
<rect x="560.0" y="160.0" width="80.0" height="80.0" fill="#8DEEEE" />
<text x="600.0" y="200.0"  text-anchor="middle" font-family="Verdana" font-size="20" fill="black">F4</text>
<text x="600.0" y="220.0"  text-anchor="middle" font-family="Verdana" font-size="15" fill="black">12</text>
</g>
<g>
<rect x="0.0" y="240.0" width="80.0" height="80.0" fill="#8DEEEE" />
<text x="40.0" y="280.0"  text-anchor="middle" font-family="Verdana" font-size="20" fill="black">F4</text>
<text x="40.0" y="300.0"  text-anchor="middle" font-family="Verdana" font-size="15" fill="black">13</text>
</g>
<g>
<rect x="80.0" y="240.0" width="80.0" height="80.0" fill="#8DEEEE" />
<text x="120.0" y="280.0"  text-anchor="middle" font-family="Verdana" font-size="20" fill="black">F4</text>
<text x="120.0" y="300.0"  text-anchor="middle" font-family="Verdana" font-size="15" fill="black">14</text>
</g>
<g>
<rect x="160.0" y="240.0" width="80.0" height="80.0" fill="#FFFF00" />
<text x="200.0" y="280.0"  text-anchor="middle" font-family="Verdana" font-size="20" fill="black">B2</text>
<text x="200.0" y="300.0"  text-anchor="middle" font-family="Verdana" font-size="15" fill="black">01</text>
</g>
<g>
<rect x="240.0" y="240.0" width="80.0" height="80.0" fill="#8DEEEE" />
<text x="280.0" y="280.0"  text-anchor="middle" font-family="Verdana" font-size="20" fill="black">F4</text>
<text x="280.0" y="300.0"  text-anchor="middle" font-family="Verdana" font-size="15" fill="black">15</text>
</g>
<g>
<rect x="320.0" y="240.0" width="80.0" height="80.0" fill="#8DEEEE" />
<text x="360.0" y="280.0"  text-anchor="middle" font-family="Verdana" font-size="20" fill="black">F4</text>
<text x="360.0" y="300.0"  text-anchor="middle" font-family="Verdana" font-size="15" fill="black">16</text>
</g>
<g>
<rect x="400.0" y="240.0" width="80.0" height="80.0" fill="#8DEEEE" />
<text x="440.0" y="280.0"  text-anchor="middle" font-family="Verdana" font-size="20" fill="black">F4</text>
<text x="440.0" y="300.0"  text-anchor="middle" font-family="Verdana" font-size="15" fill="black">17</text>
</g>
<g>
<rect x="480.0" y="240.0" width="80.0" height="80.0" fill="#8DEEEE" />
<text x="520.0" y="280.0"  text-anchor="middle" font-family="Verdana" font-size="20" fill="black">F4</text>
<text x="520.0" y="300.0"  text-anchor="middle" font-family="Verdana" font-size="15" fill="black">18</text>
</g>
<g>
<rect x="560.0" y="240.0" width="80.0" height="80.0" fill="#8DEEEE" />
<text x="600.0" y="280.0"  text-anchor="middle" font-family="Verdana" font-size="20" fill="black">F4</text>
<text x="600.0" y="300.0"  text-anchor="middle" font-family="Verdana" font-size="15" fill="black">19</text>
</g>
<g>
<rect x="0.0" y="320.0" width="80.0" height="80.0" fill="#007FFF" />
<text x="40.0" y="360.0"  text-anchor="middle" font-family="Verdana" font-size="20" fill="black">F6</text>
<text x="40.0" y="380.0"  text-anchor="middle" font-family="Verdana" font-size="15" fill="black">09</text>
</g>
<g>
<rect x="80.0" y="320.0" width="80.0" height="80.0" fill="#007FFF" />
<text x="120.0" y="360.0"  text-anchor="middle" font-family="Verdana" font-size="20" fill="black">F6</text>
<text x="120.0" y="380.0"  text-anchor="middle" font-family="Verdana" font-size="15" fill="black">10</text>
</g>
<g>
<rect x="160.0" y="320.0" width="80.0" height="80.0" fill="#8DEEEE" />
<text x="200.0" y="360.0"  text-anchor="middle" font-family="Verdana" font-size="20" fill="black">F4</text>
<text x="200.0" y="380.0"  text-anchor="middle" font-family="Verdana" font-size="15" fill="black">20</text>
</g>
<g>
<rect x="240.0" y="320.0" width="80.0" height="80.0" fill="#999900" />
<text x="280.0" y="360.0"  text-anchor="middle" font-family="Verdana" font-size="20" fill="black">B3</text>
<text x="280.0" y="380.0"  text-anchor="middle" font-family="Verdana" font-size="15" fill="black">01</text>
</g>
<g>
<rect x="320.0" y="320.0" width="80.0" height="80.0" fill="#8DEEEE" />
<text x="360.0" y="360.0"  text-anchor="middle" font-family="Verdana" font-size="20" fill="black">F4</text>
<text x="360.0" y="380.0"  text-anchor="middle" font-family="Verdana" font-size="15" fill="black">21</text>
</g>
<g>
<rect x="400.0" y="320.0" width="80.0" height="80.0" fill="#8DEEEE" />
<text x="440.0" y="360.0"  text-anchor="middle" font-family="Verdana" font-size="20" fill="black">F4</text>
<text x="440.0" y="380.0"  text-anchor="middle" font-family="Verdana" font-size="15" fill="black">22</text>
</g>
<g>
<rect x="480.0" y="320.0" width="80.0" height="80.0" fill="#8DEEEE" />
<text x="520.0" y="360.0"  text-anchor="middle" font-family="Verdana" font-size="20" fill="black">F4</text>
<text x="520.0" y="380.0"  text-anchor="middle" font-family="Verdana" font-size="15" fill="black">23</text>
</g>
<g>
<rect x="560.0" y="320.0" width="80.0" height="80.0" fill="#8DEEEE" />
<text x="600.0" y="360.0"  text-anchor="middle" font-family="Verdana" font-size="20" fill="black">F4</text>
<text x="600.0" y="380.0"  text-anchor="middle" font-family="Verdana" font-size="15" fill="black">24</text>
</g>
<g>
<rect x="0.0" y="400.0" width="80.0" height="80.0" fill="#8DEEEE" />
<text x="40.0" y="440.0"  text-anchor="middle" font-family="Verdana" font-size="20" fill="black">F4</text>
<text x="40.0" y="460.0"  text-anchor="middle" font-family="Verdana" font-size="15" fill="black">25</text>
</g>
<g>
<rect x="80.0" y="400.0" width="80.0" height="80.0" fill="#8DEEEE" />
<text x="120.0" y="440.0"  text-anchor="middle" font-family="Verdana" font-size="20" fill="black">F4</text>
<text x="120.0" y="460.0"  text-anchor="middle" font-family="Verdana" font-size="15" fill="black">26</text>
</g>
<g>
<rect x="160.0" y="400.0" width="80.0" height="80.0" fill="#8DEEEE" />
<text x="200.0" y="440.0"  text-anchor="middle" font-family="Verdana" font-size="20" fill="black">F4</text>
<text x="200.0" y="460.0"  text-anchor="middle" font-family="Verdana" font-size="15" fill="black">27</text>
</g>
<g>
<rect x="240.0" y="400.0" width="80.0" height="80.0" fill="#8DEEEE" />
<text x="280.0" y="440.0"  text-anchor="middle" font-family="Verdana" font-size="20" fill="black">F4</text>
<text x="280.0" y="460.0"  text-anchor="middle" font-family="Verdana" font-size="15" fill="black">28</text>
</g>
<g>
<rect x="320.0" y="400.0" width="80.0" height="80.0" fill="#8DEEEE" />
<text x="360.0" y="440.0"  text-anchor="middle" font-family="Verdana" font-size="20" fill="black">F4</text>
<text x="360.0" y="460.0"  text-anchor="middle" font-family="Verdana" font-size="15" fill="black">29</text>
</g>
<g>
<rect x="400.0" y="400.0" width="80.0" height="80.0" fill="#4c4cff" />
<text x="440.0" y="440.0"  text-anchor="middle" font-family="Verdana" font-size="20" fill="black">F8</text>
<text x="440.0" y="460.0"  text-anchor="middle" font-family="Verdana" font-size="15" fill="black">02</text>
</g>
<g>
<rect x="480.0" y="400.0" width="80.0" height="80.0" fill="#8DEEEE" />
<text x="520.0" y="440.0"  text-anchor="middle" font-family="Verdana" font-size="20" fill="black">F4</text>
<text x="520.0" y="460.0"  text-anchor="middle" font-family="Verdana" font-size="15" fill="black">30</text>
</g>
<g>
<rect x="560.0" y="400.0" width="80.0" height="80.0" fill="#8DEEEE" />
<text x="600.0" y="440.0"  text-anchor="middle" font-family="Verdana" font-size="20" fill="black">F4</text>
<text x="600.0" y="460.0"  text-anchor="middle" font-family="Verdana" font-size="15" fill="black">31</text>
</g>
<g>
<rect x="0.0" y="480.0" width="80.0" height="80.0" fill="#8DEEEE" />
<text x="40.0" y="520.0"  text-anchor="middle" font-family="Verdana" font-size="20" fill="black">F4</text>
<text x="40.0" y="540.0"  text-anchor="middle" font-family="Verdana" font-size="15" fill="black">32</text>
</g>
<g>
<rect x="80.0" y="480.0" width="80.0" height="80.0" fill="#8DEEEE" />
<text x="120.0" y="520.0"  text-anchor="middle" font-family="Verdana" font-size="20" fill="black">F4</text>
<text x="120.0" y="540.0"  text-anchor="middle" font-family="Verdana" font-size="15" fill="black">33</text>
</g>
<g>
<rect x="160.0" y="480.0" width="80.0" height="80.0" fill="#FFFF00" />
<text x="200.0" y="520.0"  text-anchor="middle" font-family="Verdana" font-size="20" fill="black">B2</text>
<text x="200.0" y="540.0"  text-anchor="middle" font-family="Verdana" font-size="15" fill="black">02</text>
</g>
<g>
<rect x="240.0" y="480.0" width="80.0" height="80.0" fill="#8DEEEE" />
<text x="280.0" y="520.0"  text-anchor="middle" font-family="Verdana" font-size="20" fill="black">F4</text>
<text x="280.0" y="540.0"  text-anchor="middle" font-family="Verdana" font-size="15" fill="black">34</text>
</g>
<g>
<rect x="320.0" y="480.0" width="80.0" height="80.0" fill="#8DEEEE" />
<text x="360.0" y="520.0"  text-anchor="middle" font-family="Verdana" font-size="20" fill="black">F4</text>
<text x="360.0" y="540.0"  text-anchor="middle" font-family="Verdana" font-size="15" fill="black">35</text>
</g>
<g>
<rect x="400.0" y="480.0" width="80.0" height="80.0" fill="#8DEEEE" />
<text x="440.0" y="520.0"  text-anchor="middle" font-family="Verdana" font-size="20" fill="black">F4</text>
<text x="440.0" y="540.0"  text-anchor="middle" font-family="Verdana" font-size="15" fill="black">36</text>
</g>
<g>
<rect x="480.0" y="480.0" width="80.0" height="80.0" fill="#8DEEEE" />
<text x="520.0" y="520.0"  text-anchor="middle" font-family="Verdana" font-size="20" fill="black">F4</text>
<text x="520.0" y="540.0"  text-anchor="middle" font-family="Verdana" font-size="15" fill="black">37</text>
</g>
<g>
<rect x="560.0" y="480.0" width="80.0" height="80.0" fill="#8DEEEE" />
<text x="600.0" y="520.0"  text-anchor="middle" font-family="Verdana" font-size="20" fill="black">F4</text>
<text x="600.0" y="540.0"  text-anchor="middle" font-family="Verdana" font-size="15" fill="black">38</text>
</g>
<g>
<rect x="0.0" y="560.0" width="80.0" height="80.0" fill="#007FFF" />
<text x="40.0" y="600.0"  text-anchor="middle" font-family="Verdana" font-size="20" fill="black">F6</text>
<text x="40.0" y="620.0"  text-anchor="middle" font-family="Verdana" font-size="15" fill="black">11</text>
</g>
<g>
<rect x="80.0" y="560.0" width="80.0" height="80.0" fill="#007FFF" />
<text x="120.0" y="600.0"  text-anchor="middle" font-family="Verdana" font-size="20" fill="black">F6</text>
<text x="120.0" y="620.0"  text-anchor="middle" font-family="Verdana" font-size="15" fill="black">12</text>
</g>
<g>
<rect x="160.0" y="560.0" width="80.0" height="80.0" fill="#8DEEEE" />
<text x="200.0" y="600.0"  text-anchor="middle" font-family="Verdana" font-size="20" fill="black">F4</text>
<text x="200.0" y="620.0"  text-anchor="middle" font-family="Verdana" font-size="15" fill="black">39</text>
</g>
<g>
<rect x="240.0" y="560.0" width="80.0" height="80.0" fill="#999900" />
<text x="280.0" y="600.0"  text-anchor="middle" font-family="Verdana" font-size="20" fill="black">B3</text>
<text x="280.0" y="620.0"  text-anchor="middle" font-family="Verdana" font-size="15" fill="black">02</text>
</g>
<g>
<rect x="320.0" y="560.0" width="80.0" height="80.0" fill="#8DEEEE" />
<text x="360.0" y="600.0"  text-anchor="middle" font-family="Verdana" font-size="20" fill="black">F4</text>
<text x="360.0" y="620.0"  text-anchor="middle" font-family="Verdana" font-size="15" fill="black">40</text>
</g>
<g>
<rect x="400.0" y="560.0" width="80.0" height="80.0" fill="#8DEEEE" />
<text x="440.0" y="600.0"  text-anchor="middle" font-family="Verdana" font-size="20" fill="black">F4</text>
<text x="440.0" y="620.0"  text-anchor="middle" font-family="Verdana" font-size="15" fill="black">41</text>
</g>
<g>
<rect x="480.0" y="560.0" width="80.0" height="80.0" fill="#8DEEEE" />
<text x="520.0" y="600.0"  text-anchor="middle" font-family="Verdana" font-size="20" fill="black">F4</text>
<text x="520.0" y="620.0"  text-anchor="middle" font-family="Verdana" font-size="15" fill="black">42</text>
</g>
<g>
<rect x="560.0" y="560.0" width="80.0" height="80.0" fill="#8DEEEE" />
<text x="600.0" y="600.0"  text-anchor="middle" font-family="Verdana" font-size="20" fill="black">F4</text>
<text x="600.0" y="620.0"  text-anchor="middle" font-family="Verdana" font-size="15" fill="black">43</text>
</g>
<g>
<rect x="0.0" y="640.0" width="80.0" height="80.0" fill="#8DEEEE" />
<text x="40.0" y="680.0"  text-anchor="middle" font-family="Verdana" font-size="20" fill="black">F4</text>
<text x="40.0" y="700.0"  text-anchor="middle" font-family="Verdana" font-size="15" fill="black">44</text>
</g>
<g>
<rect x="80.0" y="640.0" width="80.0" height="80.0" fill="#8DEEEE" />
<text x="120.0" y="680.0"  text-anchor="middle" font-family="Verdana" font-size="20" fill="black">F4</text>
<text x="120.0" y="700.0"  text-anchor="middle" font-family="Verdana" font-size="15" fill="black">45</text>
</g>
<g>
<rect x="160.0" y="640.0" width="80.0" height="80.0" fill="#8DEEEE" />
<text x="200.0" y="680.0"  text-anchor="middle" font-family="Verdana" font-size="20" fill="black">F4</text>
<text x="200.0" y="700.0"  text-anchor="middle" font-family="Verdana" font-size="15" fill="black">46</text>
</g>
<g>
<rect x="240.0" y="640.0" width="80.0" height="80.0" fill="#8DEEEE" />
<text x="280.0" y="680.0"  text-anchor="middle" font-family="Verdana" font-size="20" fill="black">F4</text>
<text x="280.0" y="700.0"  text-anchor="middle" font-family="Verdana" font-size="15" fill="black">47</text>
</g>
<g>
<rect x="320.0" y="640.0" width="80.0" height="80.0" fill="#8DEEEE" />
<text x="360.0" y="680.0"  text-anchor="middle" font-family="Verdana" font-size="20" fill="black">F4</text>
<text x="360.0" y="700.0"  text-anchor="middle" font-family="Verdana" font-size="15" fill="black">48</text>
</g>
<g>
<rect x="400.0" y="640.0" width="80.0" height="80.0" fill="#4c4cff" />
<text x="440.0" y="680.0"  text-anchor="middle" font-family="Verdana" font-size="20" fill="black">F8</text>
<text x="440.0" y="700.0"  text-anchor="middle" font-family="Verdana" font-size="15" fill="black">03</text>
</g>
<g>
<rect x="480.0" y="640.0" width="80.0" height="80.0" fill="#8DEEEE" />
<text x="520.0" y="680.0"  text-anchor="middle" font-family="Verdana" font-size="20" fill="black">F4</text>
<text x="520.0" y="700.0"  text-anchor="middle" font-family="Verdana" font-size="15" fill="black">49</text>
</g>
<g>
<rect x="560.0" y="640.0" width="80.0" height="80.0" fill="#8DEEEE" />
<text x="600.0" y="680.0"  text-anchor="middle" font-family="Verdana" font-size="20" fill="black">F4</text>
<text x="600.0" y="700.0"  text-anchor="middle" font-family="Verdana" font-size="15" fill="black">50</text>
</g>
<g>
<rect x="0.0" y="720.0" width="80.0" height="80.0" fill="#8DEEEE" />
<text x="40.0" y="760.0"  text-anchor="middle" font-family="Verdana" font-size="20" fill="black">F4</text>
<text x="40.0" y="780.0"  text-anchor="middle" font-family="Verdana" font-size="15" fill="black">51</text>
</g>
<g>
<rect x="80.0" y="720.0" width="80.0" height="80.0" fill="#8DEEEE" />
<text x="120.0" y="760.0"  text-anchor="middle" font-family="Verdana" font-size="20" fill="black">F4</text>
<text x="120.0" y="780.0"  text-anchor="middle" font-family="Verdana" font-size="15" fill="black">52</text>
</g>
<g>
<rect x="160.0" y="720.0" width="80.0" height="80.0" fill="#FFFF00" />
<text x="200.0" y="760.0"  text-anchor="middle" font-family="Verdana" font-size="20" fill="black">B2</text>
<text x="200.0" y="780.0"  text-anchor="middle" font-family="Verdana" font-size="15" fill="black">03</text>
</g>
<g>
<rect x="240.0" y="720.0" width="80.0" height="80.0" fill="#8DEEEE" />
<text x="280.0" y="760.0"  text-anchor="middle" font-family="Verdana" font-size="20" fill="black">F4</text>
<text x="280.0" y="780.0"  text-anchor="middle" font-family="Verdana" font-size="15" fill="black">53</text>
</g>
<g>
<rect x="320.0" y="720.0" width="80.0" height="80.0" fill="#8DEEEE" />
<text x="360.0" y="760.0"  text-anchor="middle" font-family="Verdana" font-size="20" fill="black">F4</text>
<text x="360.0" y="780.0"  text-anchor="middle" font-family="Verdana" font-size="15" fill="black">54</text>
</g>
<g>
<rect x="400.0" y="720.0" width="80.0" height="80.0" fill="#8DEEEE" />
<text x="440.0" y="760.0"  text-anchor="middle" font-family="Verdana" font-size="20" fill="black">F4</text>
<text x="440.0" y="780.0"  text-anchor="middle" font-family="Verdana" font-size="15" fill="black">55</text>
</g>
<g>
<rect x="480.0" y="720.0" width="80.0" height="80.0" fill="#8DEEEE" />
<text x="520.0" y="760.0"  text-anchor="middle" font-family="Verdana" font-size="20" fill="black">F4</text>
<text x="520.0" y="780.0"  text-anchor="middle" font-family="Verdana" font-size="15" fill="black">56</text>
</g>
<g>
<rect x="560.0" y="720.0" width="80.0" height="80.0" fill="#8DEEEE" />
<text x="600.0" y="760.0"  text-anchor="middle" font-family="Verdana" font-size="20" fill="black">F4</text>
<text x="600.0" y="780.0"  text-anchor="middle" font-family="Verdana" font-size="15" fill="black">57</text>
</g>
<g>
<rect x="0.0" y="800.0" width="80.0" height="80.0" fill="#007FFF" />
<text x="40.0" y="840.0"  text-anchor="middle" font-family="Verdana" font-size="20" fill="black">F6</text>
<text x="40.0" y="860.0"  text-anchor="middle" font-family="Verdana" font-size="15" fill="black">13</text>
</g>
<g>
<rect x="80.0" y="800.0" width="80.0" height="80.0" fill="#007FFF" />
<text x="120.0" y="840.0"  text-anchor="middle" font-family="Verdana" font-size="20" fill="black">F6</text>
<text x="120.0" y="860.0"  text-anchor="middle" font-family="Verdana" font-size="15" fill="black">14</text>
</g>
<g>
<rect x="160.0" y="800.0" width="80.0" height="80.0" fill="#8DEEEE" />
<text x="200.0" y="840.0"  text-anchor="middle" font-family="Verdana" font-size="20" fill="black">F4</text>
<text x="200.0" y="860.0"  text-anchor="middle" font-family="Verdana" font-size="15" fill="black">58</text>
</g>
<g>
<rect x="240.0" y="800.0" width="80.0" height="80.0" fill="#999900" />
<text x="280.0" y="840.0"  text-anchor="middle" font-family="Verdana" font-size="20" fill="black">B3</text>
<text x="280.0" y="860.0"  text-anchor="middle" font-family="Verdana" font-size="15" fill="black">03</text>
</g>
<g>
<rect x="320.0" y="800.0" width="80.0" height="80.0" fill="#8DEEEE" />
<text x="360.0" y="840.0"  text-anchor="middle" font-family="Verdana" font-size="20" fill="black">F4</text>
<text x="360.0" y="860.0"  text-anchor="middle" font-family="Verdana" font-size="15" fill="black">59</text>
</g>
<g>
<rect x="400.0" y="800.0" width="80.0" height="80.0" fill="#8DEEEE" />
<text x="440.0" y="840.0"  text-anchor="middle" font-family="Verdana" font-size="20" fill="black">F4</text>
<text x="440.0" y="860.0"  text-anchor="middle" font-family="Verdana" font-size="15" fill="black">60</text>
</g>
<g>
<rect x="480.0" y="800.0" width="80.0" height="80.0" fill="#8DEEEE" />
<text x="520.0" y="840.0"  text-anchor="middle" font-family="Verdana" font-size="20" fill="black">F4</text>
<text x="520.0" y="860.0"  text-anchor="middle" font-family="Verdana" font-size="15" fill="black">61</text>
</g>
<g>
<rect x="560.0" y="800.0" width="80.0" height="80.0" fill="#8DEEEE" />
<text x="600.0" y="840.0"  text-anchor="middle" font-family="Verdana" font-size="20" fill="black">F4</text>
<text x="600.0" y="860.0"  text-anchor="middle" font-family="Verdana" font-size="15" fill="black">62</text>
</g>
<g>
<rect x="0.0" y="880.0" width="80.0" height="80.0" fill="#8DEEEE" />
<text x="40.0" y="920.0"  text-anchor="middle" font-family="Verdana" font-size="20" fill="black">F4</text>
<text x="40.0" y="940.0"  text-anchor="middle" font-family="Verdana" font-size="15" fill="black">63</text>
</g>
<g>
<rect x="80.0" y="880.0" width="80.0" height="80.0" fill="#8DEEEE" />
<text x="120.0" y="920.0"  text-anchor="middle" font-family="Verdana" font-size="20" fill="black">F4</text>
<text x="120.0" y="940.0"  text-anchor="middle" font-family="Verdana" font-size="15" fill="black">64</text>
</g>
<g>
<rect x="160.0" y="880.0" width="80.0" height="80.0" fill="#8DEEEE" />
<text x="200.0" y="920.0"  text-anchor="middle" font-family="Verdana" font-size="20" fill="black">F4</text>
<text x="200.0" y="940.0"  text-anchor="middle" font-family="Verdana" font-size="15" fill="black">65</text>
</g>
<g>
<rect x="240.0" y="880.0" width="80.0" height="80.0" fill="#8DEEEE" />
<text x="280.0" y="920.0"  text-anchor="middle" font-family="Verdana" font-size="20" fill="black">F4</text>
<text x="280.0" y="940.0"  text-anchor="middle" font-family="Verdana" font-size="15" fill="black">66</text>
</g>
<g>
<rect x="320.0" y="880.0" width="80.0" height="80.0" fill="#8DEEEE" />
<text x="360.0" y="920.0"  text-anchor="middle" font-family="Verdana" font-size="20" fill="black">F4</text>
<text x="360.0" y="940.0"  text-anchor="middle" font-family="Verdana" font-size="15" fill="black">67</text>
</g>
<g>
<rect x="400.0" y="880.0" width="80.0" height="80.0" fill="#4c4cff" />
<text x="440.0" y="920.0"  text-anchor="middle" font-family="Verdana" font-size="20" fill="black">F8</text>
<text x="440.0" y="940.0"  text-anchor="middle" font-family="Verdana" font-size="15" fill="black">04</text>
</g>
<g>
<rect x="480.0" y="880.0" width="80.0" height="80.0" fill="#8DEEEE" />
<text x="520.0" y="920.0"  text-anchor="middle" font-family="Verdana" font-size="20" fill="black">F4</text>
<text x="520.0" y="940.0"  text-anchor="middle" font-family="Verdana" font-size="15" fill="black">68</text>
</g>
<g>
<rect x="560.0" y="880.0" width="80.0" height="80.0" fill="#8DEEEE" />
<text x="600.0" y="920.0"  text-anchor="middle" font-family="Verdana" font-size="20" fill="black">F4</text>
<text x="600.0" y="940.0"  text-anchor="middle" font-family="Verdana" font-size="15" fill="black">69</text>
</g>
<g>
<rect x="0.0" y="960.0" width="80.0" height="80.0" fill="#4c4cff" />
<text x="40.0" y="1000.0"  text-anchor="middle" font-family="Verdana" font-size="20" fill="black">F8</text>
<text x="40.0" y="1020.0"  text-anchor="middle" font-family="Verdana" font-size="15" fill="black">05</text>
</g>
<g>
<rect x="80.0" y="960.0" width="80.0" height="80.0" fill="#8DEEEE" />
<text x="120.0" y="1000.0"  text-anchor="middle" font-family="Verdana" font-size="20" fill="black">F4</text>
<text x="120.0" y="1020.0"  text-anchor="middle" font-family="Verdana" font-size="15" fill="black">70</text>
</g>
<g>
<rect x="160.0" y="960.0" width="80.0" height="80.0" fill="#8DEEEE" />
<text x="200.0" y="1000.0"  text-anchor="middle" font-family="Verdana" font-size="20" fill="black">F4</text>
<text x="200.0" y="1020.0"  text-anchor="middle" font-family="Verdana" font-size="15" fill="black">71</text>
</g>
<g>
<rect x="240.0" y="960.0" width="80.0" height="80.0" fill="#8DEEEE" />
<text x="280.0" y="1000.0"  text-anchor="middle" font-family="Verdana" font-size="20" fill="black">F4</text>
<text x="280.0" y="1020.0"  text-anchor="middle" font-family="Verdana" font-size="15" fill="black">72</text>
</g>
<g>
<rect x="320.0" y="960.0" width="80.0" height="80.0" fill="#4c4cff" />
<text x="360.0" y="1000.0"  text-anchor="middle" font-family="Verdana" font-size="20" fill="black">F8</text>
<text x="360.0" y="1020.0"  text-anchor="middle" font-family="Verdana" font-size="15" fill="black">06</text>
</g>
<g>
<rect x="400.0" y="960.0" width="80.0" height="80.0" fill="#007FFF" />
<text x="440.0" y="1000.0"  text-anchor="middle" font-family="Verdana" font-size="20" fill="black">F6</text>
<text x="440.0" y="1020.0"  text-anchor="middle" font-family="Verdana" font-size="15" fill="black">15</text>
</g>
<g>
<rect x="480.0" y="960.0" width="80.0" height="80.0" fill="#8DEEEE" />
<text x="520.0" y="1000.0"  text-anchor="middle" font-family="Verdana" font-size="20" fill="black">F4</text>
<text x="520.0" y="1020.0"  text-anchor="middle" font-family="Verdana" font-size="15" fill="black">73</text>
</g>
<g>
<rect x="560.0" y="960.0" width="80.0" height="80.0" fill="#007FFF" />
<text x="600.0" y="1000.0"  text-anchor="middle" font-family="Verdana" font-size="20" fill="black">F6</text>
<text x="600.0" y="1020.0"  text-anchor="middle" font-family="Verdana" font-size="15" fill="black">16</text>
</g>
<g>
<rect x="0.0" y="1040.0" width="80.0" height="80.0" fill="#8DEEEE" />
<text x="40.0" y="1080.0"  text-anchor="middle" font-family="Verdana" font-size="20" fill="black">F4</text>
<text x="40.0" y="1100.0"  text-anchor="middle" font-family="Verdana" font-size="15" fill="black">74</text>
</g>
<g>
<rect x="80.0" y="1040.0" width="80.0" height="80.0" fill="#8DEEEE" />
<text x="120.0" y="1080.0"  text-anchor="middle" font-family="Verdana" font-size="20" fill="black">F4</text>
<text x="120.0" y="1100.0"  text-anchor="middle" font-family="Verdana" font-size="15" fill="black">75</text>
</g>
<g>
<rect x="160.0" y="1040.0" width="80.0" height="80.0" fill="#007FFF" />
<text x="200.0" y="1080.0"  text-anchor="middle" font-family="Verdana" font-size="20" fill="black">F6</text>
<text x="200.0" y="1100.0"  text-anchor="middle" font-family="Verdana" font-size="15" fill="black">17</text>
</g>
<g>
<rect x="240.0" y="1040.0" width="80.0" height="80.0" fill="#8DEEEE" />
<text x="280.0" y="1080.0"  text-anchor="middle" font-family="Verdana" font-size="20" fill="black">F4</text>
<text x="280.0" y="1100.0"  text-anchor="middle" font-family="Verdana" font-size="15" fill="black">76</text>
</g>
<g>
<rect x="320.0" y="1040.0" width="80.0" height="80.0" fill="#8DEEEE" />
<text x="360.0" y="1080.0"  text-anchor="middle" font-family="Verdana" font-size="20" fill="black">F4</text>
<text x="360.0" y="1100.0"  text-anchor="middle" font-family="Verdana" font-size="15" fill="black">77</text>
</g>
<g>
<rect x="400.0" y="1040.0" width="80.0" height="80.0" fill="#8DEEEE" />
<text x="440.0" y="1080.0"  text-anchor="middle" font-family="Verdana" font-size="20" fill="black">F4</text>
<text x="440.0" y="1100.0"  text-anchor="middle" font-family="Verdana" font-size="15" fill="black">78</text>
</g>
<g>
<rect x="480.0" y="1040.0" width="80.0" height="80.0" fill="#8DEEEE" />
<text x="520.0" y="1080.0"  text-anchor="middle" font-family="Verdana" font-size="20" fill="black">F4</text>
<text x="520.0" y="1100.0"  text-anchor="middle" font-family="Verdana" font-size="15" fill="black">79</text>
</g>
<g>
<rect x="560.0" y="1040.0" width="80.0" height="80.0" fill="#8DEEEE" />
<text x="600.0" y="1080.0"  text-anchor="middle" font-family="Verdana" font-size="20" fill="black">F4</text>
<text x="600.0" y="1100.0"  text-anchor="middle" font-family="Verdana" font-size="15" fill="black">80</text>
</g>
<text x="660.0" y="966.0"  text-anchor="left" font-family="Verdana" font-size="20" fill="black">F4: 80</text>
<text x="660.0" y="988.0"  text-anchor="left" font-family="Verdana" font-size="20" fill="black">F6: 17</text>
<text x="660.0" y="1010.0"  text-anchor="left" font-family="Verdana" font-size="20" fill="black">F8: 6</text>
<text x="660.0" y="1032.0"  text-anchor="left" font-family="Verdana" font-size="20" fill="black">R1: 1</text>
<text x="660.0" y="1054.0"  text-anchor="left" font-family="Verdana" font-size="20" fill="black">R2: 1</text>
<text x="660.0" y="1076.0"  text-anchor="left" font-family="Verdana" font-size="20" fill="black">B1: 1</text>
<text x="660.0" y="1098.0"  text-anchor="left" font-family="Verdana" font-size="20" fill="black">B2: 3</text>
<text x="660.0" y="1120.0"  text-anchor="left" font-family="Verdana" font-size="20" fill="black">B3: 3</text>
</svg>
