<svg width="1280.0" height="1280.0" xmlns="http://www.w3.org/2000/svg" version="1.1">
<polygon points="224.0,621.5384615384615 256.0,603.0769230769231 288.0,621.5384615384615 288.0,658.4615384615385 256.0,676.9230769230769 224.0,658.4615384615385" stroke="black" fill="#FFFF00" /> 
<text x="231.3846153846154" y="640.0" font-size="18.461538461538463"> A30E9 </text>
<polygon points="415.99999999999994,954.092216591686 447.99999999999994,935.6306781301475 479.99999999999994,954.092216591686 479.99999999999994,991.0152935147629 447.99999999999994,1009.4768319763014 415.99999999999994,991.0152935147629" stroke="black" fill="#FFFF00" /> 
<text x="423.3846153846153" y="972.5537550532244" font-size="18.461538461538463"> A30E9 </text>
<polygon points="799.9999999999999,954.092216591686 831.9999999999999,935.6306781301475 863.9999999999999,954.092216591686 863.9999999999999,991.0152935147629 831.9999999999999,1009.4768319763014 799.9999999999999,991.0152935147629" stroke="black" fill="#FFFF00" /> 
<text x="807.3846153846152" y="972.5537550532244" font-size="18.461538461538463"> A30E9 </text>
<polygon points="992.0,621.5384615384615 1024.0,603.0769230769231 1056.0,621.5384615384615 1056.0,658.4615384615385 1024.0,676.9230769230769 992.0,658.4615384615385" stroke="black" fill="#FFFF00" /> 
<text x="999.3846153846154" y="640.0" font-size="18.461538461538463"> A30E9 </text>
<polygon points="800.0000000000002,288.9847064852372 832.0000000000002,270.52316802369876 864.0000000000002,288.9847064852372 864.0000000000002,325.9077834083141 832.0000000000002,344.36932186985257 800.0000000000002,325.9077834083141" stroke="black" fill="#FFFF00" /> 
<text x="807.3846153846156" y="307.44624494677566" font-size="18.461538461538463"> A30E9 </text>
<polygon points="416.0,288.9847064852371 448.0,270.52316802369864 480.0,288.9847064852371 480.0,325.907783408314 448.0,344.36932186985246 416.0,325.907783408314" stroke="black" fill="#FFFF00" /> 
<text x="423.38461538461536" y="307.44624494677555" font-size="18.461538461538463"> A30E9 </text>
<polygon points="288.0,621.5384615384615 320.0,603.0769230769231 352.0,621.5384615384615 352.0,658.4615384615385 320.0,676.9230769230769 288.0,658.4615384615385" stroke="black" fill="#f44242" /> 
<text x="295.38461538461536" y="640.0" font-size="18.461538461538463"> A20 </text>
<polygon points="448.0,898.6665907494819 480.0,880.2050522879434 512.0,898.6665907494819 512.0,935.5896676725588 480.0,954.0512061340972 448.0,935.5896676725588" stroke="black" fill="#f44242" /> 
<text x="455.38461538461536" y="917.1281292110203" font-size="18.461538461538463"> A20 </text>
<polygon points="768.0,898.666590749482 800.0,880.2050522879435 832.0,898.666590749482 832.0,935.5896676725589 800.0,954.0512061340974 768.0,935.5896676725589" stroke="black" fill="#f44242" /> 
<text x="775.3846153846154" y="917.1281292110205" font-size="18.461538461538463"> A20 </text>
<polygon points="928.0,621.5384615384615 960.0,603.0769230769231 992.0,621.5384615384615 992.0,658.4615384615385 960.0,676.9230769230769 928.0,658.4615384615385" stroke="black" fill="#f44242" /> 
<text x="935.3846153846154" y="640.0" font-size="18.461538461538463"> A20 </text>
<polygon points="768.0000000000001,344.41033232744127 800.0000000000001,325.9487938659028 832.0000000000001,344.41033232744127 832.0000000000001,381.3334092505182 800.0000000000001,399.7949477120566 768.0000000000001,381.3334092505182" stroke="black" fill="#f44242" /> 
<text x="775.3846153846155" y="362.8718707889797" font-size="18.461538461538463"> A20 </text>
<polygon points="448.0,344.4103323274412 480.0,325.94879386590276 512.0,344.4103323274412 512.0,381.3334092505181 480.0,399.79494771205657 448.0,381.3334092505181" stroke="black" fill="#f44242" /> 
<text x="455.38461538461536" y="362.87187078897966" font-size="18.461538461538463"> A20 </text>
<polygon points="352.0,621.5384615384615 384.0,603.0769230769231 416.0,621.5384615384615 416.0,658.4615384615385 384.0,676.9230769230769 352.0,658.4615384615385" stroke="black" fill="#00FFFF" /> 
<text x="359.38461538461536" y="640.0" font-size="18.461538461538463"> A13 </text>
<polygon points="480.0,843.2409649072778 512.0,824.7794264457393 544.0,843.2409649072778 544.0,880.1640418303547 512.0,898.6255802918931 480.0,880.1640418303547" stroke="black" fill="#00FFFF" /> 
<text x="487.38461538461536" y="861.7025033688162" font-size="18.461538461538463"> A13 </text>
<polygon points="736.0,843.2409649072779 768.0,824.7794264457394 800.0,843.2409649072779 800.0,880.1640418303548 768.0,898.6255802918932 736.0,880.1640418303548" stroke="black" fill="#00FFFF" /> 
<text x="743.3846153846154" y="861.7025033688163" font-size="18.461538461538463"> A13 </text>
<polygon points="864.0,621.5384615384615 896.0,603.0769230769231 928.0,621.5384615384615 928.0,658.4615384615385 896.0,676.9230769230769 864.0,658.4615384615385" stroke="black" fill="#00FFFF" /> 
<text x="871.3846153846154" y="640.0" font-size="18.461538461538463"> A13 </text>
<polygon points="736.0000000000001,399.8359581696453 768.0000000000001,381.37441970810687 800.0000000000001,399.8359581696453 800.0000000000001,436.75903509272223 768.0000000000001,455.2205735542607 736.0000000000001,436.75903509272223" stroke="black" fill="#00FFFF" /> 
<text x="743.3846153846155" y="418.2974966311838" font-size="18.461538461538463"> A13 </text>
<polygon points="480.0,399.83595816964527 512.0,381.3744197081068 544.0,399.83595816964527 544.0,436.7590350927222 512.0,455.2205735542606 480.0,436.7590350927222" stroke="black" fill="#00FFFF" /> 
<text x="487.38461538461536" y="418.2974966311837" font-size="18.461538461538463"> A13 </text>
<polygon points="416.0,621.5384615384615 448.0,603.0769230769231 480.0,621.5384615384615 480.0,658.4615384615385 448.0,676.9230769230769 416.0,658.4615384615385" stroke="black" fill="#f44242" /> 
<text x="423.38461538461536" y="640.0" font-size="18.461538461538463"> A20 </text>
<polygon points="512.0,787.8153390650738 544.0,769.3538006035353 576.0,787.8153390650738 576.0,824.7384159881507 544.0,843.1999544496891 512.0,824.7384159881507" stroke="black" fill="#f44242" /> 
<text x="519.3846153846154" y="806.2768775266122" font-size="18.461538461538463"> A20 </text>
<polygon points="704.0,787.8153390650738 736.0,769.3538006035353 768.0,787.8153390650738 768.0,824.7384159881507 736.0,843.1999544496891 704.0,824.7384159881507" stroke="black" fill="#f44242" /> 
<text x="711.3846153846154" y="806.2768775266122" font-size="18.461538461538463"> A20 </text>
<polygon points="800.0,621.5384615384615 832.0,603.0769230769231 864.0,621.5384615384615 864.0,658.4615384615385 832.0,676.9230769230769 800.0,658.4615384615385" stroke="black" fill="#f44242" /> 
<text x="807.3846153846154" y="640.0" font-size="18.461538461538463"> A20 </text>
<polygon points="704.0000000000001,455.2615840118494 736.0000000000001,436.8000455503109 768.0000000000001,455.2615840118494 768.0000000000001,492.1846609349263 736.0000000000001,510.64619939646474 704.0000000000001,492.1846609349263" stroke="black" fill="#f44242" /> 
<text x="711.3846153846155" y="473.72312247338783" font-size="18.461538461538463"> A20 </text>
<polygon points="512.0,455.2615840118493 544.0,436.80004555031087 576.0,455.2615840118493 576.0,492.1846609349262 544.0,510.6461993964647 512.0,492.1846609349262" stroke="black" fill="#f44242" /> 
<text x="519.3846153846154" y="473.7231224733878" font-size="18.461538461538463"> A20 </text>
<polygon points="480.0,621.5384615384615 512.0,603.0769230769231 544.0,621.5384615384615 544.0,658.4615384615385 512.0,676.9230769230769 480.0,658.4615384615385" stroke="black" fill="#FFFF00" /> 
<text x="487.38461538461536" y="640.0" font-size="18.461538461538463"> A30E9 </text>
<polygon points="544.0,732.3897132228697 576.0,713.9281747613312 608.0,732.3897132228697 608.0,769.3127901459466 576.0,787.774328607485 544.0,769.3127901459466" stroke="black" fill="#FFFF00" /> 
<text x="551.3846153846154" y="750.8512516844081" font-size="18.461538461538463"> A30E9 </text>
<polygon points="672.0,732.3897132228698 704.0,713.9281747613313 736.0,732.3897132228698 736.0,769.3127901459467 704.0,787.7743286074851 672.0,769.3127901459467" stroke="black" fill="#FFFF00" /> 
<text x="679.3846153846154" y="750.8512516844082" font-size="18.461538461538463"> A30E9 </text>
<polygon points="736.0,621.5384615384615 768.0,603.0769230769231 800.0,621.5384615384615 800.0,658.4615384615385 768.0,676.9230769230769 736.0,658.4615384615385" stroke="black" fill="#FFFF00" /> 
<text x="743.3846153846154" y="640.0" font-size="18.461538461538463"> A30E9 </text>
<polygon points="672.0,510.68720985405344 704.0,492.225671392515 736.0,510.68720985405344 736.0,547.6102867771303 704.0,566.0718252386688 672.0,547.6102867771303" stroke="black" fill="#FFFF00" /> 
<text x="679.3846153846154" y="529.1487483155919" font-size="18.461538461538463"> A30E9 </text>
<polygon points="544.0,510.68720985405344 576.0,492.225671392515 608.0,510.68720985405344 608.0,547.6102867771303 576.0,566.0718252386688 544.0,547.6102867771303" stroke="black" fill="#FFFF00" /> 
<text x="551.3846153846154" y="529.1487483155919" font-size="18.461538461538463"> A30E9 </text>
<polygon points="544.0,621.5384615384615 576.0,603.0769230769231 608.0,621.5384615384615 608.0,658.4615384615385 576.0,676.9230769230769 544.0,658.4615384615385" stroke="black" fill="#00FFFF" /> 
<text x="551.3846153846154" y="640.0" font-size="18.461538461538463"> A13 </text>
<polygon points="576.0,676.9640873806657 608.0,658.5025489191272 640.0,676.9640873806657 640.0,713.8871643037426 608.0,732.348702765281 576.0,713.8871643037426" stroke="black" fill="#00FFFF" /> 
<text x="583.3846153846154" y="695.4256258422041" font-size="18.461538461538463"> A13 </text>
<polygon points="640.0,676.9640873806657 672.0,658.5025489191272 704.0,676.9640873806657 704.0,713.8871643037426 672.0,732.348702765281 640.0,713.8871643037426" stroke="black" fill="#00FFFF" /> 
<text x="647.3846153846154" y="695.4256258422041" font-size="18.461538461538463"> A13 </text>
<polygon points="672.0,621.5384615384615 704.0,603.0769230769231 736.0,621.5384615384615 736.0,658.4615384615385 704.0,676.9230769230769 672.0,658.4615384615385" stroke="black" fill="#00FFFF" /> 
<text x="679.3846153846154" y="640.0" font-size="18.461538461538463"> A13 </text>
<polygon points="640.0,566.1128356962575 672.0,547.6512972347191 704.0,566.1128356962575 704.0,603.0359126193345 672.0,621.4974510808729 640.0,603.0359126193345" stroke="black" fill="#00FFFF" /> 
<text x="647.3846153846154" y="584.574374157796" font-size="18.461538461538463"> A13 </text>
<polygon points="576.0,566.1128356962574 608.0,547.651297234719 640.0,566.1128356962574 640.0,603.0359126193343 608.0,621.4974510808728 576.0,603.0359126193343" stroke="black" fill="#00FFFF" /> 
<text x="583.3846153846154" y="584.5743741577959" font-size="18.461538461538463"> A13 </text>
<polygon points="608.0,621.5384615384615 640.0,603.0769230769231 672.0,621.5384615384615 672.0,658.4615384615385 640.0,676.9230769230769 608.0,658.4615384615385" stroke="black" fill="#FFFF00" /> 
<text x="615.3846153846154" y="640.0" font-size="18.461538461538463"> A30E9 </text>
<polygon points="NaN,NaN NaN,NaN NaN,NaN NaN,NaN NaN,NaN NaN,NaN" stroke="black" fill="#FFFF00" /> 
<text x="NaN" y="NaN" font-size="18.461538461538463"> A30E9 </text>
<polygon points="NaN,NaN NaN,NaN NaN,NaN NaN,NaN NaN,NaN NaN,NaN" stroke="black" fill="#FFFF00" /> 
<text x="NaN" y="NaN" font-size="18.461538461538463"> A30E9 </text>
<polygon points="NaN,NaN NaN,NaN NaN,NaN NaN,NaN NaN,NaN NaN,NaN" stroke="black" fill="#FFFF00" /> 
<text x="NaN" y="NaN" font-size="18.461538461538463"> A30E9 </text>
<polygon points="NaN,NaN NaN,NaN NaN,NaN NaN,NaN NaN,NaN NaN,NaN" stroke="black" fill="#FFFF00" /> 
<text x="NaN" y="NaN" font-size="18.461538461538463"> A30E9 </text>
<polygon points="NaN,NaN NaN,NaN NaN,NaN NaN,NaN NaN,NaN NaN,NaN" stroke="black" fill="#FFFF00" /> 
<text x="NaN" y="NaN" font-size="18.461538461538463"> A30E9 </text>
<polygon points="192.0,676.9230769230769 224.0,658.4615384615385 256.0,676.9230769230769 256.0,713.8461538461538 224.0,732.3076923076923 192.0,713.8461538461538" stroke="black" fill="#0079FF" /> 
<text x="199.3846153846154" y="695.3846153846154" font-size="18.461538461538463"> A40E6 </text>
<polygon points="447.96448390190756,1009.497337205096 479.96448390190756,991.0357987435575 511.96448390190756,1009.497337205096 511.96448390190756,1046.420414128173 479.96448390190756,1064.8819525897113 447.96448390190756,1046.420414128173" stroke="black" fill="#0079FF" /> 
<text x="455.3490992865229" y="1027.9588756666344" font-size="18.461538461538463"> A40E6 </text>
<polygon points="863.9644839019076,954.1127218204803 895.9644839019076,935.6511833589418 927.9644839019076,954.1127218204803 927.9644839019076,991.0357987435572 895.9644839019076,1009.4973372050956 863.9644839019076,991.0357987435572" stroke="black" fill="#0079FF" /> 
<text x="871.3490992865229" y="972.5742602820187" font-size="18.461538461538463"> A40E6 </text>
<polygon points="1024.0,566.1538461538458 1056.0,547.6923076923074 1088.0,566.1538461538458 1088.0,603.0769230769228 1056.0,621.5384615384612 1024.0,603.0769230769228" stroke="black" fill="#0079FF" /> 
<text x="1031.3846153846155" y="584.6153846153843" font-size="18.461538461538463"> A40E6 </text>
<polygon points="768.0355160980926,233.5795858718273 800.0355160980926,215.11804741028882 832.0355160980926,233.5795858718273 832.0355160980926,270.5026627949042 800.0355160980926,288.96420125644266 768.0355160980926,270.5026627949042" stroke="black" fill="#0079FF" /> 
<text x="775.4201314827079" y="252.04112433336576" font-size="18.461538461538463"> A40E6 </text>
<polygon points="352.0355160980924,288.96420125644295 384.0355160980924,270.5026627949045 416.0355160980924,288.96420125644295 416.0355160980924,325.88727817951985 384.0355160980924,344.3488166410583 352.0355160980924,325.88727817951985" stroke="black" fill="#0079FF" /> 
<text x="359.42013148270775" y="307.4257397179814" font-size="18.461538461538463"> A40E6 </text>
<polygon points="256.0,676.9230769230769 288.0,658.4615384615385 320.0,676.9230769230769 320.0,713.8461538461538 288.0,732.3076923076923 256.0,713.8461538461538" stroke="black" fill="#f44242" /> 
<text x="263.38461538461536" y="695.3846153846154" font-size="18.461538461538463"> A20 </text>
<polygon points="479.96448390190756,954.0717113628917 511.96448390190756,935.6101729013533 543.9644839019076,954.0717113628917 543.9644839019076,990.9947882859686 511.96448390190756,1009.4563267475071 479.96448390190756,990.9947882859686" stroke="black" fill="#f44242" /> 
<text x="487.3490992865229" y="972.5332498244302" font-size="18.461538461538463"> A20 </text>
<polygon points="831.9644839019074,898.6870959782763 863.9644839019074,880.2255575167378 895.9644839019074,898.6870959782763 895.9644839019074,935.6101729013532 863.9644839019074,954.0717113628916 831.9644839019074,935.6101729013532" stroke="black" fill="#f44242" /> 
<text x="839.3490992865228" y="917.1486344398147" font-size="18.461538461538463"> A20 </text>
<polygon points="960.0,566.1538461538461 992.0,547.6923076923076 1024.0,566.1538461538461 1024.0,603.076923076923 992.0,621.5384615384614 960.0,603.076923076923" stroke="black" fill="#f44242" /> 
<text x="967.3846153846154" y="584.6153846153845" font-size="18.461538461538463"> A20 </text>
<polygon points="736.0355160980927,289.0052117140315 768.0355160980927,270.543673252493 800.0355160980927,289.0052117140315 800.0355160980927,325.9282886371084 768.0355160980927,344.38982709864683 736.0355160980927,325.9282886371084" stroke="black" fill="#f44242" /> 
<text x="743.420131482708" y="307.4667501755699" font-size="18.461538461538463"> A20 </text>
<polygon points="384.0355160980925,344.3898270986469 416.0355160980925,325.92828863710844 448.0355160980925,344.3898270986469 448.0355160980925,381.3129040217238 416.0355160980925,399.77444248326225 384.0355160980925,381.3129040217238" stroke="black" fill="#f44242" /> 
<text x="391.42013148270786" y="362.85136556018534" font-size="18.461538461538463"> A20 </text>
<polygon points="320.0,676.9230769230769 352.0,658.4615384615385 384.0,676.9230769230769 384.0,713.8461538461538 352.0,732.3076923076923 320.0,713.8461538461538" stroke="black" fill="#00FFFF" /> 
<text x="327.38461538461536" y="695.3846153846154" font-size="18.461538461538463"> A13 </text>
<polygon points="511.96448390190756,898.6460855206877 543.9644839019076,880.1845470591493 575.9644839019076,898.6460855206877 575.9644839019076,935.5691624437646 543.9644839019076,954.0307009053031 511.96448390190756,935.5691624437646" stroke="black" fill="#00FFFF" /> 
<text x="519.3490992865229" y="917.1076239822262" font-size="18.461538461538463"> A13 </text>
<polygon points="799.9644839019074,843.2614701360721 831.9644839019074,824.7999316745337 863.9644839019074,843.2614701360721 863.9644839019074,880.184547059149 831.9644839019074,898.6460855206875 799.9644839019074,880.184547059149" stroke="black" fill="#00FFFF" /> 
<text x="807.3490992865228" y="861.7230085976106" font-size="18.461538461538463"> A13 </text>
<polygon points="896.0,566.153846153846 928.0,547.6923076923075 960.0,566.153846153846 960.0,603.0769230769229 928.0,621.5384615384613 896.0,603.0769230769229" stroke="black" fill="#00FFFF" /> 
<text x="903.3846153846154" y="584.6153846153844" font-size="18.461538461538463"> A13 </text>
<polygon points="704.0355160980927,344.43083755623553 736.0355160980927,325.9692990946971 768.0355160980927,344.43083755623553 768.0355160980927,381.35391447931244 736.0355160980927,399.8154529408509 704.0355160980927,381.35391447931244" stroke="black" fill="#00FFFF" /> 
<text x="711.420131482708" y="362.892376017774" font-size="18.461538461538463"> A13 </text>
<polygon points="416.03551609809256,399.81545294085095 448.03551609809256,381.3539144793125 480.03551609809256,399.81545294085095 480.03551609809256,436.73852986392785 448.03551609809256,455.2000683254663 416.03551609809256,436.73852986392785" stroke="black" fill="#00FFFF" /> 
<text x="423.4201314827079" y="418.2769914023894" font-size="18.461538461538463"> A13 </text>
<polygon points="384.0,676.9230769230769 416.0,658.4615384615385 448.0,676.9230769230769 448.0,713.8461538461538 416.0,732.3076923076923 384.0,713.8461538461538" stroke="black" fill="#FFFF00" /> 
<text x="391.38461538461536" y="695.3846153846154" font-size="18.461538461538463"> A30E9 </text>
<polygon points="543.9644839019072,843.2204596784835 575.9644839019072,824.758921216945 607.9644839019072,843.2204596784835 607.9644839019072,880.1435366015604 575.9644839019072,898.6050750630989 543.9644839019072,880.1435366015604" stroke="black" fill="#FFFF00" /> 
<text x="551.3490992865226" y="861.681998140022" font-size="18.461538461538463"> A30E9 </text>
<polygon points="767.9644839019072,787.8358442938683 799.9644839019072,769.3743058323298 831.9644839019072,787.8358442938683 831.9644839019072,824.7589212169452 799.9644839019072,843.2204596784836 767.9644839019072,824.7589212169452" stroke="black" fill="#FFFF00" /> 
<text x="775.3490992865226" y="806.2973827554067" font-size="18.461538461538463"> A30E9 </text>
<polygon points="832.0,566.1538461538463 864.0,547.6923076923078 896.0,566.1538461538463 896.0,603.0769230769232 864.0,621.5384615384617 832.0,603.0769230769232" stroke="black" fill="#FFFF00" /> 
<text x="839.3846153846154" y="584.6153846153848" font-size="18.461538461538463"> A30E9 </text>
<polygon points="672.0355160980928,399.8564633984397 704.0355160980928,381.39492493690125 736.0355160980928,399.8564633984397 736.0355160980928,436.7795403215166 704.0355160980928,455.24107878305506 672.0355160980928,436.7795403215166" stroke="black" fill="#FFFF00" /> 
<text x="679.4201314827081" y="418.31800185997815" font-size="18.461538461538463"> A30E9 </text>
<polygon points="448.03551609809267,455.24107878305495 480.03551609809267,436.7795403215165 512.0355160980927,455.24107878305495 512.0355160980927,492.16415570613185 480.03551609809267,510.6256941676703 448.03551609809267,492.16415570613185" stroke="black" fill="#FFFF00" /> 
<text x="455.42013148270803" y="473.7026172445934" font-size="18.461538461538463"> A30E9 </text>
<polygon points="448.0,676.9230769230769 480.0,658.4615384615385 512.0,676.9230769230769 512.0,713.8461538461538 480.0,732.3076923076923 448.0,713.8461538461538" stroke="black" fill="#00FFFF" /> 
<text x="455.38461538461536" y="695.3846153846154" font-size="18.461538461538463"> A13 </text>
<polygon points="575.9644839019073,787.7948338362794 607.9644839019073,769.3332953747409 639.9644839019073,787.7948338362794 639.9644839019073,824.7179107593563 607.9644839019073,843.1794492208948 575.9644839019073,824.7179107593563" stroke="black" fill="#00FFFF" /> 
<text x="583.3490992865227" y="806.2563722978178" font-size="18.461538461538463"> A13 </text>
<polygon points="735.9644839019073,732.410218451664 767.9644839019073,713.9486799901256 799.9644839019073,732.410218451664 799.9644839019073,769.3332953747409 767.9644839019073,787.7948338362794 735.9644839019073,769.3332953747409" stroke="black" fill="#00FFFF" /> 
<text x="743.3490992865227" y="750.8717569132025" font-size="18.461538461538463"> A13 </text>
<polygon points="768.0,566.1538461538462 800.0,547.6923076923077 832.0,566.1538461538462 832.0,603.0769230769231 800.0,621.5384615384615 768.0,603.0769230769231" stroke="black" fill="#00FFFF" /> 
<text x="775.3846153846154" y="584.6153846153846" font-size="18.461538461538463"> A13 </text>
<polygon points="640.0355160980928,455.2820892406437 672.0355160980928,436.82055077910525 704.0355160980928,455.2820892406437 704.0355160980928,492.2051661637206 672.0355160980928,510.66670462525906 640.0355160980928,492.2051661637206" stroke="black" fill="#00FFFF" /> 
<text x="647.4201314827081" y="473.74362770218215" font-size="18.461538461538463"> A13 </text>
<polygon points="480.03551609809267,510.66670462525906 512.0355160980927,492.2051661637206 544.0355160980927,510.66670462525906 544.0355160980927,547.589781548336 512.0355160980927,566.0513200098744 480.03551609809267,547.589781548336" stroke="black" fill="#00FFFF" /> 
<text x="487.42013148270803" y="529.1282430867975" font-size="18.461538461538463"> A13 </text>
<polygon points="512.0,676.9230769230769 544.0,658.4615384615385 576.0,676.9230769230769 576.0,713.8461538461538 544.0,732.3076923076923 512.0,713.8461538461538" stroke="black" fill="#f44242" /> 
<text x="519.3846153846154" y="695.3846153846154" font-size="18.461538461538463"> A20 </text>
<polygon points="607.9644839019073,732.3692079940753 639.9644839019073,713.9076695325368 671.9644839019073,732.3692079940753 671.9644839019073,769.2922849171522 639.9644839019073,787.7538233786906 607.9644839019073,769.2922849171522" stroke="black" fill="#f44242" /> 
<text x="615.3490992865227" y="750.8307464556137" font-size="18.461538461538463"> A20 </text>
<polygon points="703.9644839019073,676.98459260946 735.9644839019073,658.5230541479216 767.9644839019073,676.98459260946 767.9644839019073,713.9076695325369 735.9644839019073,732.3692079940754 703.9644839019073,713.9076695325369" stroke="black" fill="#f44242" /> 
<text x="711.3490992865227" y="695.4461310709985" font-size="18.461538461538463"> A20 </text>
<polygon points="704.0,566.1538461538462 736.0,547.6923076923077 768.0,566.1538461538462 768.0,603.0769230769231 736.0,621.5384615384615 704.0,603.0769230769231" stroke="black" fill="#f44242" /> 
<text x="711.3846153846154" y="584.6153846153846" font-size="18.461538461538463"> A20 </text>
<polygon points="608.0355160980928,510.7077150828478 640.0355160980928,492.24617662130936 672.0355160980928,510.7077150828478 672.0355160980928,547.6307920059247 640.0355160980928,566.0923304674632 608.0355160980928,547.6307920059247" stroke="black" fill="#f44242" /> 
<text x="615.4201314827081" y="529.1692535443863" font-size="18.461538461538463"> A20 </text>
<polygon points="512.0355160980927,566.0923304674631 544.0355160980927,547.6307920059246 576.0355160980927,566.0923304674631 576.0355160980927,603.01540739054 544.0355160980927,621.4769458520784 512.0355160980927,603.01540739054" stroke="black" fill="#f44242" /> 
<text x="519.420131482708" y="584.5538689290015" font-size="18.461538461538463"> A20 </text>
<polygon points="224.0,732.3076923076923 256.0,713.8461538461538 288.0,732.3076923076923 288.0,769.2307692307692 256.0,787.6923076923076 224.0,769.2307692307692" stroke="black" fill="#008000" /> 
<text x="231.3846153846154" y="750.7692307692307" font-size="18.461538461538463"> P40E9 </text>
<polygon points="511.92896780381454,1009.4768319763012 543.9289678038145,991.0152935147628 575.9289678038145,1009.4768319763012 575.9289678038145,1046.3999088993783 543.9289678038145,1064.8614473609166 511.92896780381454,1046.3999088993783" stroke="black" fill="#008000" /> 
<text x="519.3135831884299" y="1027.9383704378397" font-size="18.461538461538463"> P40E9 </text>
<polygon points="895.9289678038147,898.7076012070708 927.9289678038147,880.2460627455323 959.9289678038147,898.7076012070708 959.9289678038147,935.6306781301477 927.9289678038147,954.0922165916861 895.9289678038147,935.6306781301477" stroke="black" fill="#008000" /> 
<text x="903.31358318843" y="917.1691396686092" font-size="18.461538461538463"> P40E9 </text>
<polygon points="992.0,510.76923076923094 1024.0,492.3076923076925 1056.0,510.76923076923094 1056.0,547.6923076923078 1024.0,566.1538461538463 992.0,547.6923076923078" stroke="black" fill="#008000" /> 
<text x="999.3846153846154" y="529.2307692307694" font-size="18.461538461538463"> P40E9 </text>
<polygon points="704.0710321961857,233.60009110062185 736.0710321961857,215.13855263908337 768.0710321961857,233.60009110062185 768.0710321961857,270.52316802369876 736.0710321961857,288.9847064852372 704.0710321961857,270.52316802369876" stroke="black" fill="#008000" /> 
<text x="711.455647580801" y="252.0616295621603" font-size="18.461538461538463"> P40E9 </text>
<polygon points="320.07103219618546,344.36932186985234 352.07103219618546,325.9077834083139 384.07103219618546,344.36932186985234 384.07103219618546,381.29239879292925 352.07103219618546,399.7539372544677 320.07103219618546,381.29239879292925" stroke="black" fill="#008000" /> 
<text x="327.4556475808008" y="362.8308603313908" font-size="18.461538461538463"> P40E9 </text>
<polygon points="288.0,732.3076923076923 320.0,713.8461538461538 352.0,732.3076923076923 352.0,769.2307692307692 320.0,787.6923076923076 288.0,769.2307692307692" stroke="black" fill="#FFFF00" /> 
<text x="295.38461538461536" y="750.7692307692307" font-size="18.461538461538463"> A30E9 </text>
<polygon points="543.9289678038147,954.0512061340972 575.9289678038147,935.5896676725588 607.9289678038147,954.0512061340972 607.9289678038147,990.9742830571741 575.9289678038147,1009.4358215187126 543.9289678038147,990.9742830571741" stroke="black" fill="#FFFF00" /> 
<text x="551.31358318843" y="972.5127445956357" font-size="18.461538461538463"> A30E9 </text>
<polygon points="863.9289678038147,843.2819753648665 895.9289678038147,824.8204369033281 927.9289678038147,843.2819753648665 927.9289678038147,880.2050522879434 895.9289678038147,898.6665907494819 863.9289678038147,880.2050522879434" stroke="black" fill="#FFFF00" /> 
<text x="871.31358318843" y="861.743513826405" font-size="18.461538461538463"> A30E9 </text>
<polygon points="928.0,510.76923076923083 960.0,492.3076923076924 992.0,510.76923076923083 992.0,547.6923076923077 960.0,566.1538461538462 928.0,547.6923076923077" stroke="black" fill="#FFFF00" /> 
<text x="935.3846153846154" y="529.2307692307693" font-size="18.461538461538463"> A30E9 </text>
<polygon points="672.0710321961856,289.0257169428259 704.0710321961856,270.56417848128746 736.0710321961856,289.0257169428259 736.0710321961856,325.9487938659028 704.0710321961856,344.41033232744127 672.0710321961856,325.9487938659028" stroke="black" fill="#FFFF00" /> 
<text x="679.4556475808009" y="307.48725540436436" font-size="18.461538461538463"> A30E9 </text>
<polygon points="352.07103219618534,399.79494771205646 384.07103219618534,381.333409250518 416.07103219618534,399.79494771205646 416.07103219618534,436.71802463513336 384.07103219618534,455.1795630966718 352.07103219618534,436.71802463513336" stroke="black" fill="#FFFF00" /> 
<text x="359.4556475808007" y="418.2564861735949" font-size="18.461538461538463"> A30E9 </text>
<polygon points="352.0,732.3076923076923 384.0,713.8461538461538 416.0,732.3076923076923 416.0,769.2307692307692 384.0,787.6923076923076 352.0,769.2307692307692" stroke="black" fill="#00FFFF" /> 
<text x="359.38461538461536" y="750.7692307692307" font-size="18.461538461538463"> A13 </text>
<polygon points="575.9289678038148,898.6255802918932 607.9289678038148,880.1640418303548 639.9289678038148,898.6255802918932 639.9289678038148,935.5486572149701 607.9289678038148,954.0101956765086 575.9289678038148,935.5486572149701" stroke="black" fill="#00FFFF" /> 
<text x="583.3135831884301" y="917.0871187534317" font-size="18.461538461538463"> A13 </text>
<polygon points="831.9289678038147,787.8563495226625 863.9289678038147,769.3948110611241 895.9289678038147,787.8563495226625 895.9289678038147,824.7794264457394 863.9289678038147,843.2409649072779 831.9289678038147,824.7794264457394" stroke="black" fill="#00FFFF" /> 
<text x="839.31358318843" y="806.317887984201" font-size="18.461538461538463"> A13 </text>
<polygon points="864.0,510.76923076923083 896.0,492.3076923076924 928.0,510.76923076923083 928.0,547.6923076923077 896.0,566.1538461538462 864.0,547.6923076923077" stroke="black" fill="#00FFFF" /> 
<text x="871.3846153846154" y="529.2307692307693" font-size="18.461538461538463"> A13 </text>
<polygon points="640.0710321961853,344.4513427850299 672.0710321961853,325.98980432349146 704.0710321961853,344.4513427850299 704.0710321961853,381.3744197081068 672.0710321961853,399.83595816964527 640.0710321961853,381.3744197081068" stroke="black" fill="#00FFFF" /> 
<text x="647.4556475808007" y="362.91288124656836" font-size="18.461538461538463"> A13 </text>
<polygon points="384.07103219618523,455.2205735542607 416.07103219618523,436.75903509272223 448.07103219618523,455.2205735542607 448.07103219618523,492.1436504773376 416.07103219618523,510.60518893887604 384.07103219618523,492.1436504773376" stroke="black" fill="#00FFFF" /> 
<text x="391.4556475808006" y="473.68211201579913" font-size="18.461538461538463"> A13 </text>
<polygon points="416.0,732.3076923076923 448.0,713.8461538461538 480.0,732.3076923076923 480.0,769.2307692307692 448.0,787.6923076923076 416.0,769.2307692307692" stroke="black" fill="#f44242" /> 
<text x="423.38461538461536" y="750.7692307692307" font-size="18.461538461538463"> A20 </text>
<polygon points="607.9289678038147,843.1999544496891 639.9289678038147,824.7384159881507 671.9289678038147,843.1999544496891 671.9289678038147,880.123031372766 639.9289678038147,898.5845698343045 607.9289678038147,880.123031372766" stroke="black" fill="#f44242" /> 
<text x="615.31358318843" y="861.6614929112276" font-size="18.461538461538463"> A20 </text>
<polygon points="799.9289678038147,732.4307236804585 831.9289678038147,713.9691852189201 863.9289678038147,732.4307236804585 863.9289678038147,769.3538006035354 831.9289678038147,787.8153390650739 799.9289678038147,769.3538006035354" stroke="black" fill="#f44242" /> 
<text x="807.31358318843" y="750.892262141997" font-size="18.461538461538463"> A20 </text>
<polygon points="800.0,510.76923076923083 832.0,492.3076923076924 864.0,510.76923076923083 864.0,547.6923076923077 832.0,566.1538461538462 800.0,547.6923076923077" stroke="black" fill="#f44242" /> 
<text x="807.3846153846154" y="529.2307692307693" font-size="18.461538461538463"> A20 </text>
<polygon points="608.0710321961856,399.87696862723396 640.0710321961856,381.4154301656955 672.0710321961856,399.87696862723396 672.0710321961856,436.80004555031087 640.0710321961856,455.2615840118493 608.0710321961856,436.80004555031087" stroke="black" fill="#f44242" /> 
<text x="615.4556475808009" y="418.3385070887724" font-size="18.461538461538463"> A20 </text>
<polygon points="416.07103219618534,510.64619939646457 448.07103219618534,492.1846609349261 480.07103219618534,510.64619939646457 480.07103219618534,547.5692763195415 448.07103219618534,566.0308147810799 416.07103219618534,547.5692763195415" stroke="black" fill="#f44242" /> 
<text x="423.4556475808007" y="529.107737858003" font-size="18.461538461538463"> A20 </text>
<polygon points="480.0,732.3076923076923 512.0,713.8461538461538 544.0,732.3076923076923 544.0,769.2307692307692 512.0,787.6923076923076 480.0,769.2307692307692" stroke="black" fill="#00FFFF" /> 
<text x="487.38461538461536" y="750.7692307692307" font-size="18.461538461538463"> A13 </text>
<polygon points="639.9289678038147,787.774328607485 671.9289678038147,769.3127901459466 703.9289678038147,787.774328607485 703.9289678038147,824.6974055305619 671.9289678038147,843.1589439921004 639.9289678038147,824.6974055305619" stroke="black" fill="#00FFFF" /> 
<text x="647.31358318843" y="806.2358670690235" font-size="18.461538461538463"> A13 </text>
<polygon points="767.9289678038147,677.0050978382544 799.9289678038147,658.543559376716 831.9289678038147,677.0050978382544 831.9289678038147,713.9281747613313 799.9289678038147,732.3897132228698 767.9289678038147,713.9281747613313" stroke="black" fill="#00FFFF" /> 
<text x="775.31358318843" y="695.4666362997929" font-size="18.461538461538463"> A13 </text>
<polygon points="736.0,510.76923076923083 768.0,492.3076923076924 800.0,510.76923076923083 800.0,547.6923076923077 768.0,566.1538461538462 736.0,547.6923076923077" stroke="black" fill="#00FFFF" /> 
<text x="743.3846153846154" y="529.2307692307693" font-size="18.461538461538463"> A13 </text>
<polygon points="576.0710321961853,455.302594469438 608.0710321961853,436.84105600789957 640.0710321961853,455.302594469438 640.0710321961853,492.2256713925149 608.0710321961853,510.6872098540534 576.0710321961853,492.2256713925149" stroke="black" fill="#00FFFF" /> 
<text x="583.4556475808007" y="473.7641329309765" font-size="18.461538461538463"> A13 </text>
<polygon points="448.0710321961853,566.0718252386688 480.0710321961853,547.6102867771303 512.0710321961853,566.0718252386688 512.0710321961853,602.9949021617457 480.0710321961853,621.4564406232842 448.0710321961853,602.9949021617457" stroke="black" fill="#00FFFF" /> 
<text x="455.45564758080064" y="584.5333637002072" font-size="18.461538461538463"> A13 </text>
<polygon points="256.0,787.6923076923077 288.0,769.2307692307693 320.0,787.6923076923077 320.0,824.6153846153846 288.0,843.0769230769231 256.0,824.6153846153846" stroke="black" fill="#00FF00" /> 
<text x="263.38461538461536" y="806.1538461538462" font-size="18.461538461538463"> P36E9 </text>
<polygon points="575.893451705722,1009.456326747507 607.893451705722,990.9947882859685 639.893451705722,1009.456326747507 639.893451705722,1046.379403670584 607.893451705722,1064.8409421321223 575.893451705722,1046.379403670584" stroke="black" fill="#00FF00" /> 
<text x="583.2780670903373" y="1027.9178652090454" font-size="18.461538461538463"> P36E9 </text>
<polygon points="927.8934517057221,843.302480593661 959.8934517057221,824.8409421321226 991.8934517057221,843.302480593661 991.8934517057221,880.2255575167379 959.8934517057221,898.6870959782764 927.8934517057221,880.2255575167379" stroke="black" fill="#00FF00" /> 
<text x="935.2780670903375" y="861.7640190551995" font-size="18.461538461538463"> P36E9 </text>
<polygon points="960.0,455.3846153846155 992.0,436.923076923077 1024.0,455.3846153846155 1024.0,492.3076923076924 992.0,510.76923076923083 960.0,492.3076923076924" stroke="black" fill="#00FF00" /> 
<text x="967.3846153846154" y="473.8461538461539" font-size="18.461538461538463"> P36E9 </text>
<polygon points="640.1065482942781,233.62059632941612 672.1065482942781,215.15905786787764 704.1065482942781,233.62059632941612 704.1065482942781,270.543673252493 672.1065482942781,289.0052117140315 640.1065482942781,270.543673252493" stroke="black" fill="#00FF00" /> 
<text x="647.4911636788935" y="252.08213479095457" font-size="18.461538461538463"> P36E9 </text>
<polygon points="288.1065482942779,399.7744424832622 320.1065482942779,381.31290402172374 352.1065482942779,399.7744424832622 352.1065482942779,436.6975194063391 320.1065482942779,455.15905786787755 288.1065482942779,436.6975194063391" stroke="black" fill="#00FF00" /> 
<text x="295.49116367889326" y="418.23598094480064" font-size="18.461538461538463"> P36E9 </text>
<polygon points="320.0,787.6923076923077 352.0,769.2307692307693 384.0,787.6923076923077 384.0,824.6153846153846 352.0,843.0769230769231 320.0,824.6153846153846" stroke="black" fill="#f44242" /> 
<text x="327.38461538461536" y="806.1538461538462" font-size="18.461538461538463"> A20 </text>
<polygon points="607.8934517057222,954.030700905303 639.8934517057222,935.5691624437645 671.8934517057222,954.030700905303 671.8934517057222,990.9537778283799 639.8934517057222,1009.4153162899183 607.8934517057222,990.9537778283799" stroke="black" fill="#f44242" /> 
<text x="615.2780670903376" y="972.4922393668414" font-size="18.461538461538463"> A20 </text>
<polygon points="895.8934517057221,787.8768547514568 927.8934517057221,769.4153162899183 959.8934517057221,787.8768547514568 959.8934517057221,824.7999316745337 927.8934517057221,843.2614701360721 895.8934517057221,824.7999316745337" stroke="black" fill="#f44242" /> 
<text x="903.2780670903375" y="806.3383932129952" font-size="18.461538461538463"> A20 </text>
<polygon points="896.0,455.38461538461536 928.0,436.9230769230769 960.0,455.38461538461536 960.0,492.30769230769226 928.0,510.7692307692307 896.0,492.30769230769226" stroke="black" fill="#f44242" /> 
<text x="903.3846153846154" y="473.8461538461538" font-size="18.461538461538463"> A20 </text>
<polygon points="608.106548294278,289.0462221716201 640.106548294278,270.58468371008166 672.106548294278,289.0462221716201 672.106548294278,325.969299094697 640.106548294278,344.4308375562355 608.106548294278,325.969299094697" stroke="black" fill="#f44242" /> 
<text x="615.4911636788934" y="307.50776063315857" font-size="18.461538461538463"> A20 </text>
<polygon points="320.1065482942778,455.2000683254663 352.1065482942778,436.73852986392785 384.1065482942778,455.2000683254663 384.1065482942778,492.1231452485432 352.1065482942778,510.58468371008166 320.1065482942778,492.1231452485432" stroke="black" fill="#f44242" /> 
<text x="327.49116367889314" y="473.66160678700476" font-size="18.461538461538463"> A20 </text>
<polygon points="384.0,787.6923076923077 416.0,769.2307692307693 448.0,787.6923076923077 448.0,824.6153846153846 416.0,843.0769230769231 384.0,824.6153846153846" stroke="black" fill="#00FFFF" /> 
<text x="391.38461538461536" y="806.1538461538462" font-size="18.461538461538463"> A13 </text>
<polygon points="639.8934517057221,898.605075063099 671.8934517057221,880.1435366015605 703.8934517057221,898.605075063099 703.8934517057221,935.5281519861759 671.8934517057221,953.9896904477143 639.8934517057221,935.5281519861759" stroke="black" fill="#00FFFF" /> 
<text x="647.2780670903375" y="917.0666135246374" font-size="18.461538461538463"> A13 </text>
<polygon points="863.8934517057221,732.4512289092528 895.8934517057221,713.9896904477143 927.8934517057221,732.4512289092528 927.8934517057221,769.3743058323297 895.8934517057221,787.8358442938681 863.8934517057221,769.3743058323297" stroke="black" fill="#00FFFF" /> 
<text x="871.2780670903375" y="750.9127673707912" font-size="18.461538461538463"> A13 </text>
<polygon points="832.0,455.3846153846155 864.0,436.923076923077 896.0,455.3846153846155 896.0,492.3076923076924 864.0,510.76923076923083 832.0,492.3076923076924" stroke="black" fill="#00FFFF" /> 
<text x="839.3846153846154" y="473.8461538461539" font-size="18.461538461538463"> A13 </text>
<polygon points="576.106548294278,344.4718480138242 608.106548294278,326.0103095522857 640.106548294278,344.4718480138242 640.106548294278,381.3949249369011 608.106548294278,399.85646339843953 576.106548294278,381.3949249369011" stroke="black" fill="#00FFFF" /> 
<text x="583.4911636788934" y="362.9333864753626" font-size="18.461538461538463"> A13 </text>
<polygon points="352.10654829427784,510.6256941676703 384.10654829427784,492.16415570613185 416.10654829427784,510.6256941676703 416.10654829427784,547.5487710907472 384.10654829427784,566.0103095522857 352.10654829427784,547.5487710907472" stroke="black" fill="#00FFFF" /> 
<text x="359.4911636788932" y="529.0872326292088" font-size="18.461538461538463"> A13 </text>
<polygon points="448.0,787.6923076923077 480.0,769.2307692307693 512.0,787.6923076923077 512.0,824.6153846153846 480.0,843.0769230769231 448.0,824.6153846153846" stroke="black" fill="#FFFF00" /> 
<text x="455.38461538461536" y="806.1538461538462" font-size="18.461538461538463"> A30E9 </text>
<polygon points="671.8934517057222,843.1794492208949 703.8934517057222,824.7179107593564 735.8934517057222,843.1794492208949 735.8934517057222,880.1025261439718 703.8934517057222,898.5640646055102 671.8934517057222,880.1025261439718" stroke="black" fill="#FFFF00" /> 
<text x="679.2780670903376" y="861.6409876824333" font-size="18.461538461538463"> A30E9 </text>
<polygon points="831.8934517057221,677.0256030670487 863.8934517057221,658.5640646055102 895.8934517057221,677.0256030670487 895.8934517057221,713.9486799901256 863.8934517057221,732.410218451664 831.8934517057221,713.9486799901256" stroke="black" fill="#FFFF00" /> 
<text x="839.2780670903375" y="695.4871415285871" font-size="18.461538461538463"> A30E9 </text>
<polygon points="768.0,455.38461538461536 800.0,436.9230769230769 832.0,455.38461538461536 832.0,492.30769230769226 800.0,510.7692307692307 768.0,492.30769230769226" stroke="black" fill="#FFFF00" /> 
<text x="775.3846153846154" y="473.8461538461538" font-size="18.461538461538463"> A30E9 </text>
<polygon points="544.1065482942779,399.8974738560282 576.1065482942779,381.4359353944898 608.1065482942779,399.8974738560282 608.1065482942779,436.82055077910513 576.1065482942779,455.2820892406436 544.1065482942779,436.82055077910513" stroke="black" fill="#FFFF00" /> 
<text x="551.4911636788933" y="418.3590123175667" font-size="18.461538461538463"> A30E9 </text>
<polygon points="384.1065482942778,566.0513200098745 416.1065482942778,547.5897815483361 448.1065482942778,566.0513200098745 448.1065482942778,602.9743969329514 416.1065482942778,621.4359353944899 384.1065482942778,602.9743969329514" stroke="black" fill="#FFFF00" /> 
<text x="391.49116367889314" y="584.512858471413" font-size="18.461538461538463"> A30E9 </text>
<polygon points="288.0,843.0769230769231 320.0,824.6153846153846 352.0,843.0769230769231 352.0,880.0 320.0,898.4615384615385 288.0,880.0" stroke="black" fill="#00FF00" /> 
<text x="295.38461538461536" y="861.5384615384615" font-size="18.461538461538463"> P36E9 </text>
<polygon points="639.8579356076294,1009.4358215187127 671.8579356076294,990.9742830571743 703.8579356076294,1009.4358215187127 703.8579356076294,1046.3588984417897 671.8579356076294,1064.820436903328 639.8579356076294,1046.3588984417897" stroke="black" fill="#00FF00" /> 
<text x="647.2425509922448" y="1027.8973599802512" font-size="18.461538461538463"> P36E9 </text>
<polygon points="959.8579356076293,787.8973599802513 991.8579356076293,769.4358215187128 1023.8579356076293,787.8973599802513 1023.8579356076293,824.8204369033282 991.8579356076293,843.2819753648666 959.8579356076293,824.8204369033282" stroke="black" fill="#00FF00" /> 
<text x="967.2425509922447" y="806.3588984417897" font-size="18.461538461538463"> P36E9 </text>
<polygon points="928.0,400.0 960.0,381.53846153846155 992.0,400.0 992.0,436.9230769230769 960.0,455.38461538461536 928.0,436.9230769230769" stroke="black" fill="#00FF00" /> 
<text x="935.3846153846154" y="418.46153846153845" font-size="18.461538461538463"> P36E9 </text>
<polygon points="576.1420643923707,233.64110155821038 608.1420643923707,215.1795630966719 640.1420643923707,233.64110155821038 640.1420643923707,270.5641784812873 608.1420643923707,289.02571694282574 576.1420643923707,270.5641784812873" stroke="black" fill="#00FF00" /> 
<text x="583.526679776986" y="252.10264001974883" font-size="18.461538461538463"> P36E9 </text>
<polygon points="256.1420643923705,455.17956309667204 288.1420643923705,436.7180246351336 320.1420643923705,455.17956309667204 320.1420643923705,492.10264001974895 288.1420643923705,510.5641784812874 256.1420643923705,492.10264001974895" stroke="black" fill="#00FF00" /> 
<text x="263.5266797769859" y="473.6411015582105" font-size="18.461538461538463"> P36E9 </text>
<polygon points="352.0,843.0769230769231 384.0,824.6153846153846 416.0,843.0769230769231 416.0,880.0 384.0,898.4615384615385 352.0,880.0" stroke="black" fill="#FFFF00" /> 
<text x="359.38461538461536" y="861.5384615384615" font-size="18.461538461538463"> A30E9 </text>
<polygon points="671.8579356076294,954.0101956765086 703.8579356076294,935.5486572149701 735.8579356076294,954.0101956765086 735.8579356076294,990.9332725995855 703.8579356076294,1009.394811061124 671.8579356076294,990.9332725995855" stroke="black" fill="#FFFF00" /> 
<text x="679.2425509922448" y="972.471734138047" font-size="18.461538461538463"> A30E9 </text>
<polygon points="927.8579356076295,732.4717341380472 959.8579356076295,714.0101956765087 991.8579356076295,732.4717341380472 991.8579356076295,769.3948110611241 959.8579356076295,787.8563495226625 927.8579356076295,769.3948110611241" stroke="black" fill="#FFFF00" /> 
<text x="935.2425509922449" y="750.9332725995856" font-size="18.461538461538463"> A30E9 </text>
<polygon points="864.0,400.0 896.0,381.53846153846155 928.0,400.0 928.0,436.9230769230769 896.0,455.38461538461536 864.0,436.9230769230769" stroke="black" fill="#FFFF00" /> 
<text x="871.3846153846154" y="418.46153846153845" font-size="18.461538461538463"> A30E9 </text>
<polygon points="544.1420643923707,289.06672740041444 576.1420643923707,270.605188938876 608.1420643923707,289.06672740041444 608.1420643923707,325.98980432349134 576.1420643923707,344.4513427850298 544.1420643923707,325.98980432349134" stroke="black" fill="#FFFF00" /> 
<text x="551.526679776986" y="307.5282658619529" font-size="18.461538461538463"> A30E9 </text>
<polygon points="288.1420643923705,510.60518893887604 320.1420643923705,492.1436504773376 352.1420643923705,510.60518893887604 352.1420643923705,547.528265861953 320.1420643923705,565.9898043234914 288.1420643923705,547.528265861953" stroke="black" fill="#FFFF00" /> 
<text x="295.5266797769859" y="529.0667274004145" font-size="18.461538461538463"> A30E9 </text>
<polygon points="416.0,843.0769230769231 448.0,824.6153846153846 480.0,843.0769230769231 480.0,880.0 448.0,898.4615384615385 416.0,880.0" stroke="black" fill="#00FFFF" /> 
<text x="423.38461538461536" y="861.5384615384615" font-size="18.461538461538463"> A13 </text>
<polygon points="703.8579356076295,898.5845698343045 735.8579356076295,880.123031372766 767.8579356076295,898.5845698343045 767.8579356076295,935.5076467573814 735.8579356076295,953.9691852189198 703.8579356076295,935.5076467573814" stroke="black" fill="#00FFFF" /> 
<text x="711.2425509922449" y="917.0461082958429" font-size="18.461538461538463"> A13 </text>
<polygon points="895.8579356076294,677.046108295843 927.8579356076294,658.5845698343046 959.8579356076294,677.046108295843 959.8579356076294,713.96918521892 927.8579356076294,732.4307236804584 895.8579356076294,713.96918521892" stroke="black" fill="#00FFFF" /> 
<text x="903.2425509922448" y="695.5076467573815" font-size="18.461538461538463"> A13 </text>
<polygon points="800.0,400.00000000000006 832.0,381.5384615384616 864.0,400.00000000000006 864.0,436.92307692307696 832.0,455.3846153846154 800.0,436.92307692307696" stroke="black" fill="#00FFFF" /> 
<text x="807.3846153846154" y="418.4615384615385" font-size="18.461538461538463"> A13 </text>
<polygon points="512.1420643923707,344.4923532426185 544.1420643923707,326.03081478108004 576.1420643923707,344.4923532426185 576.1420643923707,381.4154301656954 544.1420643923707,399.87696862723385 512.1420643923707,381.4154301656954" stroke="black" fill="#00FFFF" /> 
<text x="519.526679776986" y="362.95389170415694" font-size="18.461538461538463"> A13 </text>
<polygon points="320.1420643923705,566.03081478108 352.1420643923705,547.5692763195416 384.1420643923705,566.03081478108 384.1420643923705,602.953891704157 352.1420643923705,621.4154301656954 320.1420643923705,602.953891704157" stroke="black" fill="#00FFFF" /> 
<text x="327.5266797769859" y="584.4923532426185" font-size="18.461538461538463"> A13 </text>
<polygon points="320.0,898.4615384615385 352.0,880.0 384.0,898.4615384615385 384.0,935.3846153846154 352.0,953.8461538461538 320.0,935.3846153846154" stroke="black" fill="#008000" /> 
<text x="327.38461538461536" y="916.9230769230769" font-size="18.461538461538463"> P40E9 </text>
<polygon points="703.8224195095368,1009.4153162899185 735.8224195095368,990.95377782838 767.8224195095368,1009.4153162899185 767.8224195095368,1046.3383932129955 735.8224195095368,1064.7999316745338 703.8224195095368,1046.3383932129955" stroke="black" fill="#008000" /> 
<text x="711.2070348941521" y="1027.876854751457" font-size="18.461538461538463"> P40E9 </text>
<polygon points="991.8224195095368,732.4922393668414 1023.8224195095368,714.030700905303 1055.8224195095368,732.4922393668414 1055.8224195095368,769.4153162899183 1023.8224195095368,787.8768547514568 991.8224195095368,769.4153162899183" stroke="black" fill="#008000" /> 
<text x="999.2070348941521" y="750.9537778283799" font-size="18.461538461538463"> P40E9 </text>
<polygon points="896.0,344.6153846153848 928.0,326.15384615384636 960.0,344.6153846153848 960.0,381.5384615384617 928.0,400.00000000000017 896.0,381.5384615384617" stroke="black" fill="#008000" /> 
<text x="903.3846153846154" y="363.07692307692326" font-size="18.461538461538463"> P40E9 </text>
<polygon points="512.1775804904635,233.6616067870047 544.1775804904635,215.20006832546622 576.1775804904635,233.6616067870047 576.1775804904635,270.5846837100816 544.1775804904635,289.04622217162006 512.1775804904635,270.5846837100816" stroke="black" fill="#008000" /> 
<text x="519.5621958750788" y="252.12314524854315" font-size="18.461538461538463"> P40E9 </text>
<polygon points="224.17758049046324,510.58468371008155 256.17758049046324,492.1231452485431 288.17758049046324,510.58468371008155 288.17758049046324,547.5077606331585 256.17758049046324,565.9692990946969 224.17758049046324,547.5077606331585" stroke="black" fill="#008000" /> 
<text x="231.56219587507863" y="529.04622217162" font-size="18.461538461538463"> P40E9 </text>
<polygon points="384.0,898.4615384615385 416.0,880.0 448.0,898.4615384615385 448.0,935.3846153846154 416.0,953.8461538461538 384.0,935.3846153846154" stroke="black" fill="#f44242" /> 
<text x="391.38461538461536" y="916.9230769230769" font-size="18.461538461538463"> A20 </text>
<polygon points="735.8224195095368,953.9896904477142 767.8224195095368,935.5281519861758 799.8224195095368,953.9896904477142 799.8224195095368,990.9127673707911 767.8224195095368,1009.3743058323296 735.8224195095368,990.9127673707911" stroke="black" fill="#f44242" /> 
<text x="743.2070348941521" y="972.4512289092527" font-size="18.461538461538463"> A20 </text>
<polygon points="959.8224195095368,677.0666135246374 991.8224195095368,658.605075063099 1023.8224195095368,677.0666135246374 1023.8224195095368,713.9896904477143 991.8224195095368,732.4512289092528 959.8224195095368,713.9896904477143" stroke="black" fill="#f44242" /> 
<text x="967.2070348941521" y="695.5281519861759" font-size="18.461538461538463"> A20 </text>
<polygon points="832.0000000000002,344.6153846153848 864.0000000000002,326.15384615384636 896.0000000000002,344.6153846153848 896.0000000000002,381.5384615384617 864.0000000000002,400.00000000000017 832.0000000000002,381.5384615384617" stroke="black" fill="#f44242" /> 
<text x="839.3846153846156" y="363.07692307692326" font-size="18.461538461538463"> A20 </text>
<polygon points="480.17758049046313,289.0872326292088 512.1775804904631,270.62569416767036 544.1775804904631,289.0872326292088 544.1775804904631,326.0103095522857 512.1775804904631,344.4718480138242 480.17758049046313,326.0103095522857" stroke="black" fill="#f44242" /> 
<text x="487.5621958750785" y="307.54877109074727" font-size="18.461538461538463"> A20 </text>
<polygon points="256.17758049046313,566.0103095522859 288.17758049046313,547.5487710907474 320.17758049046313,566.0103095522859 320.17758049046313,602.9333864753628 288.17758049046313,621.3949249369012 256.17758049046313,602.9333864753628" stroke="black" fill="#f44242" /> 
<text x="263.5621958750785" y="584.4718480138243" font-size="18.461538461538463"> A20 </text>
<polygon points="352.0,953.8461538461539 384.0,935.3846153846155 416.0,953.8461538461539 416.0,990.7692307692308 384.0,1009.2307692307693 352.0,990.7692307692308" stroke="black" fill="#0079FF" /> 
<text x="359.38461538461536" y="972.3076923076924" font-size="18.461538461538463"> A40E6 </text>
<polygon points="767.7869034114442,1009.394811061124 799.7869034114442,990.9332725995855 831.7869034114442,1009.394811061124 831.7869034114442,1046.317887984201 799.7869034114442,1064.7794264457393 767.7869034114442,1046.317887984201" stroke="black" fill="#0079FF" /> 
<text x="775.1715187960596" y="1027.8563495226624" font-size="18.461538461538463"> A40E6 </text>
<polygon points="1023.7869034114442,677.0871187534318 1055.7869034114442,658.6255802918934 1087.7869034114442,677.0871187534318 1087.7869034114442,714.0101956765087 1055.7869034114442,732.4717341380472 1023.7869034114442,714.0101956765087" stroke="black" fill="#0079FF" /> 
<text x="1031.1715187960597" y="695.5486572149703" font-size="18.461538461538463"> A40E6 </text>
<polygon points="863.9999999999999,289.23076923076906 895.9999999999999,270.7692307692306 927.9999999999999,289.23076923076906 927.9999999999999,326.15384615384596 895.9999999999999,344.6153846153844 863.9999999999999,326.15384615384596" stroke="black" fill="#0079FF" /> 
<text x="871.3846153846152" y="307.6923076923075" font-size="18.461538461538463"> A40E6 </text>
<polygon points="448.213096588556,233.6821120157989 480.213096588556,215.22057355426043 512.213096588556,233.6821120157989 512.213096588556,270.6051889388758 480.213096588556,289.06672740041427 448.213096588556,270.6051889388758" stroke="black" fill="#0079FF" /> 
<text x="455.5977119731714" y="252.14365047733736" font-size="18.461538461538463"> A40E6 </text>
<polygon points="192.21309658855574,565.9898043234913 224.21309658855574,547.5282658619528 256.21309658855574,565.9898043234913 256.21309658855574,602.9128812465682 224.21309658855574,621.3744197081066 192.21309658855574,602.9128812465682" stroke="black" fill="#0079FF" /> 
<text x="199.59771197317113" y="584.4513427850297" font-size="18.461538461538463"> A40E6 </text>
<polygon points="4.923076923076927,24.615384615384617 36.92307692307693,6.153846153846153 68.92307692307693,24.615384615384617 68.92307692307693,61.53846153846155 36.92307692307693,80.0 4.923076923076927,61.53846153846155" stroke="black" fill="#f44242" /> 
<text x="12.30769230769231" y="43.07692307692308" font-size="18.461538461538463"> A20 </text>
<text x="73.84615384615385" y="43.07692307692308" font-size="30.76923076923077"> 42 x </text>
<polygon points="4.923076923076927,77.53846153846153 36.92307692307693,59.07692307692307 68.92307692307693,77.53846153846153 68.92307692307693,114.46153846153847 36.92307692307693,132.92307692307693 4.923076923076927,114.46153846153847" stroke="black" fill="#00FFFF" /> 
<text x="12.30769230769231" y="96.0" font-size="18.461538461538463"> A13 </text>
<text x="73.84615384615385" y="96.0" font-size="30.76923076923077"> 48 x </text>
<polygon points="4.923076923076927,130.46153846153848 36.92307692307693,112.0 68.92307692307693,130.46153846153848 68.92307692307693,167.3846153846154 36.92307692307693,185.84615384615387 4.923076923076927,167.3846153846154" stroke="black" fill="#FFFF00" /> 
<text x="12.30769230769231" y="148.92307692307693" font-size="18.461538461538463"> A30E9 </text>
<text x="73.84615384615385" y="148.92307692307693" font-size="30.76923076923077"> 42 x </text>
<polygon points="4.923076923076927,183.38461538461542 36.92307692307693,164.92307692307693 68.92307692307693,183.38461538461542 68.92307692307693,220.30769230769232 36.92307692307693,238.7692307692308 4.923076923076927,220.30769230769232" stroke="black" fill="#00FF00" /> 
<text x="12.30769230769231" y="201.84615384615387" font-size="18.461538461538463"> P36E9 </text>
<text x="73.84615384615385" y="201.84615384615387" font-size="30.76923076923077"> 12 x </text>
<polygon points="4.923076923076927,236.30769230769235 36.92307692307693,217.84615384615387 68.92307692307693,236.30769230769235 68.92307692307693,273.2307692307693 36.92307692307693,291.69230769230774 4.923076923076927,273.2307692307693" stroke="black" fill="#008000" /> 
<text x="12.30769230769231" y="254.7692307692308" font-size="18.461538461538463"> P40E9 </text>
<text x="73.84615384615385" y="254.7692307692308" font-size="30.76923076923077"> 12 x </text>
<polygon points="4.923076923076927,289.2307692307693 36.92307692307693,270.76923076923083 68.92307692307693,289.2307692307693 68.92307692307693,326.1538461538462 36.92307692307693,344.61538461538464 4.923076923076927,326.1538461538462" stroke="black" fill="#0079FF" /> 
<text x="12.30769230769231" y="307.69230769230774" font-size="18.461538461538463"> A40E6 </text>
<text x="73.84615384615385" y="307.69230769230774" font-size="30.76923076923077"> 12 x </text>
</svg>
